<?xml version="1.0" encoding="utf-8"?>
<svg xmlns="http://www.w3.org/2000/svg" xmlns:xlink="http://www.w3.org/1999/xlink" width="600" height="400" viewBox="0 0 2400 1600">
<defs>
  <clipPath id="clip850">
    <rect x="0" y="0" width="2400" height="1600"/>
  </clipPath>
</defs>
<path clip-path="url(#clip850)" d="
M0 1600 L2400 1600 L2400 0 L0 0  Z
  " fill="#ffffff" fill-rule="evenodd" fill-opacity="1"/>
<defs>
  <clipPath id="clip851">
    <rect x="480" y="0" width="1681" height="1600"/>
  </clipPath>
</defs>
<defs>
  <clipPath id="clip852">
    <rect x="249" y="47" width="2104" height="1377"/>
  </clipPath>
</defs>
<path clip-path="url(#clip850)" d="
M219.866 1423.18 L2352.76 1423.18 L2352.76 47.2441 L219.866 47.2441  Z
  " fill="#ffffff" fill-rule="evenodd" fill-opacity="1"/>
<defs>
  <clipPath id="clip853">
    <rect x="219" y="47" width="2134" height="1377"/>
  </clipPath>
</defs>
<polyline clip-path="url(#clip853)" style="stroke:#000000; stroke-linecap:butt; stroke-linejoin:round; stroke-width:2; stroke-opacity:0.1; fill:none" points="
  280.231,1423.18 280.231,47.2441 
  "/>
<polyline clip-path="url(#clip853)" style="stroke:#000000; stroke-linecap:butt; stroke-linejoin:round; stroke-width:2; stroke-opacity:0.1; fill:none" points="
  783.271,1423.18 783.271,47.2441 
  "/>
<polyline clip-path="url(#clip853)" style="stroke:#000000; stroke-linecap:butt; stroke-linejoin:round; stroke-width:2; stroke-opacity:0.1; fill:none" points="
  1286.31,1423.18 1286.31,47.2441 
  "/>
<polyline clip-path="url(#clip853)" style="stroke:#000000; stroke-linecap:butt; stroke-linejoin:round; stroke-width:2; stroke-opacity:0.1; fill:none" points="
  1789.35,1423.18 1789.35,47.2441 
  "/>
<polyline clip-path="url(#clip853)" style="stroke:#000000; stroke-linecap:butt; stroke-linejoin:round; stroke-width:2; stroke-opacity:0.1; fill:none" points="
  2292.39,1423.18 2292.39,47.2441 
  "/>
<polyline clip-path="url(#clip850)" style="stroke:#000000; stroke-linecap:butt; stroke-linejoin:round; stroke-width:4; stroke-opacity:1; fill:none" points="
  219.866,1423.18 2352.76,1423.18 
  "/>
<polyline clip-path="url(#clip850)" style="stroke:#000000; stroke-linecap:butt; stroke-linejoin:round; stroke-width:4; stroke-opacity:1; fill:none" points="
  280.231,1423.18 280.231,1404.28 
  "/>
<polyline clip-path="url(#clip850)" style="stroke:#000000; stroke-linecap:butt; stroke-linejoin:round; stroke-width:4; stroke-opacity:1; fill:none" points="
  783.271,1423.18 783.271,1404.28 
  "/>
<polyline clip-path="url(#clip850)" style="stroke:#000000; stroke-linecap:butt; stroke-linejoin:round; stroke-width:4; stroke-opacity:1; fill:none" points="
  1286.31,1423.18 1286.31,1404.28 
  "/>
<polyline clip-path="url(#clip850)" style="stroke:#000000; stroke-linecap:butt; stroke-linejoin:round; stroke-width:4; stroke-opacity:1; fill:none" points="
  1789.35,1423.18 1789.35,1404.28 
  "/>
<polyline clip-path="url(#clip850)" style="stroke:#000000; stroke-linecap:butt; stroke-linejoin:round; stroke-width:4; stroke-opacity:1; fill:none" points="
  2292.39,1423.18 2292.39,1404.28 
  "/>
<path clip-path="url(#clip850)" d="M242.535 1454.1 Q238.923 1454.1 237.095 1457.66 Q235.289 1461.2 235.289 1468.33 Q235.289 1475.44 237.095 1479.01 Q238.923 1482.55 242.535 1482.55 Q246.169 1482.55 247.974 1479.01 Q249.803 1475.44 249.803 1468.33 Q249.803 1461.2 247.974 1457.66 Q246.169 1454.1 242.535 1454.1 M242.535 1450.39 Q248.345 1450.39 251.4 1455 Q254.479 1459.58 254.479 1468.33 Q254.479 1477.06 251.4 1481.67 Q248.345 1486.25 242.535 1486.25 Q236.724 1486.25 233.646 1481.67 Q230.59 1477.06 230.59 1468.33 Q230.59 1459.58 233.646 1455 Q236.724 1450.39 242.535 1450.39 Z" fill="#000000" fill-rule="evenodd" fill-opacity="1" /><path clip-path="url(#clip850)" d="M262.696 1479.7 L267.581 1479.7 L267.581 1485.58 L262.696 1485.58 L262.696 1479.7 Z" fill="#000000" fill-rule="evenodd" fill-opacity="1" /><path clip-path="url(#clip850)" d="M287.766 1454.1 Q284.155 1454.1 282.326 1457.66 Q280.52 1461.2 280.52 1468.33 Q280.52 1475.44 282.326 1479.01 Q284.155 1482.55 287.766 1482.55 Q291.4 1482.55 293.206 1479.01 Q295.034 1475.44 295.034 1468.33 Q295.034 1461.2 293.206 1457.66 Q291.4 1454.1 287.766 1454.1 M287.766 1450.39 Q293.576 1450.39 296.631 1455 Q299.71 1459.58 299.71 1468.33 Q299.71 1477.06 296.631 1481.67 Q293.576 1486.25 287.766 1486.25 Q281.956 1486.25 278.877 1481.67 Q275.821 1477.06 275.821 1468.33 Q275.821 1459.58 278.877 1455 Q281.956 1450.39 287.766 1450.39 Z" fill="#000000" fill-rule="evenodd" fill-opacity="1" /><path clip-path="url(#clip850)" d="M317.928 1454.1 Q314.317 1454.1 312.488 1457.66 Q310.682 1461.2 310.682 1468.33 Q310.682 1475.44 312.488 1479.01 Q314.317 1482.55 317.928 1482.55 Q321.562 1482.55 323.367 1479.01 Q325.196 1475.44 325.196 1468.33 Q325.196 1461.2 323.367 1457.66 Q321.562 1454.1 317.928 1454.1 M317.928 1450.39 Q323.738 1450.39 326.793 1455 Q329.872 1459.58 329.872 1468.33 Q329.872 1477.06 326.793 1481.67 Q323.738 1486.25 317.928 1486.25 Q312.117 1486.25 309.039 1481.67 Q305.983 1477.06 305.983 1468.33 Q305.983 1459.58 309.039 1455 Q312.117 1450.39 317.928 1450.39 Z" fill="#000000" fill-rule="evenodd" fill-opacity="1" /><path clip-path="url(#clip850)" d="M746.072 1454.1 Q742.461 1454.1 740.632 1457.66 Q738.827 1461.2 738.827 1468.33 Q738.827 1475.44 740.632 1479.01 Q742.461 1482.55 746.072 1482.55 Q749.706 1482.55 751.512 1479.01 Q753.341 1475.44 753.341 1468.33 Q753.341 1461.2 751.512 1457.66 Q749.706 1454.1 746.072 1454.1 M746.072 1450.39 Q751.882 1450.39 754.938 1455 Q758.017 1459.58 758.017 1468.33 Q758.017 1477.06 754.938 1481.67 Q751.882 1486.25 746.072 1486.25 Q740.262 1486.25 737.183 1481.67 Q734.128 1477.06 734.128 1468.33 Q734.128 1459.58 737.183 1455 Q740.262 1450.39 746.072 1450.39 Z" fill="#000000" fill-rule="evenodd" fill-opacity="1" /><path clip-path="url(#clip850)" d="M766.234 1479.7 L771.118 1479.7 L771.118 1485.58 L766.234 1485.58 L766.234 1479.7 Z" fill="#000000" fill-rule="evenodd" fill-opacity="1" /><path clip-path="url(#clip850)" d="M785.331 1481.64 L801.651 1481.64 L801.651 1485.58 L779.706 1485.58 L779.706 1481.64 Q782.368 1478.89 786.952 1474.26 Q791.558 1469.61 792.739 1468.27 Q794.984 1465.74 795.864 1464.01 Q796.766 1462.25 796.766 1460.56 Q796.766 1457.8 794.822 1456.07 Q792.901 1454.33 789.799 1454.33 Q787.6 1454.33 785.146 1455.09 Q782.716 1455.86 779.938 1457.41 L779.938 1452.69 Q782.762 1451.55 785.216 1450.97 Q787.669 1450.39 789.706 1450.39 Q795.077 1450.39 798.271 1453.08 Q801.465 1455.77 801.465 1460.26 Q801.465 1462.39 800.655 1464.31 Q799.868 1466.2 797.762 1468.8 Q797.183 1469.47 794.081 1472.69 Q790.979 1475.88 785.331 1481.64 Z" fill="#000000" fill-rule="evenodd" fill-opacity="1" /><path clip-path="url(#clip850)" d="M811.512 1451.02 L829.868 1451.02 L829.868 1454.96 L815.794 1454.96 L815.794 1463.43 Q816.813 1463.08 817.831 1462.92 Q818.85 1462.73 819.868 1462.73 Q825.655 1462.73 829.035 1465.9 Q832.414 1469.08 832.414 1474.49 Q832.414 1480.07 828.942 1483.17 Q825.47 1486.25 819.151 1486.25 Q816.975 1486.25 814.706 1485.88 Q812.461 1485.51 810.053 1484.77 L810.053 1480.07 Q812.137 1481.2 814.359 1481.76 Q816.581 1482.32 819.058 1482.32 Q823.063 1482.32 825.4 1480.21 Q827.738 1478.1 827.738 1474.49 Q827.738 1470.88 825.4 1468.77 Q823.063 1466.67 819.058 1466.67 Q817.183 1466.67 815.308 1467.08 Q813.456 1467.5 811.512 1468.38 L811.512 1451.02 Z" fill="#000000" fill-rule="evenodd" fill-opacity="1" /><path clip-path="url(#clip850)" d="M1248.61 1454.1 Q1245 1454.1 1243.17 1457.66 Q1241.37 1461.2 1241.37 1468.33 Q1241.37 1475.44 1243.17 1479.01 Q1245 1482.55 1248.61 1482.55 Q1252.25 1482.55 1254.05 1479.01 Q1255.88 1475.44 1255.88 1468.33 Q1255.88 1461.2 1254.05 1457.66 Q1252.25 1454.1 1248.61 1454.1 M1248.61 1450.39 Q1254.42 1450.39 1257.48 1455 Q1260.56 1459.58 1260.56 1468.33 Q1260.56 1477.06 1257.48 1481.67 Q1254.42 1486.25 1248.61 1486.25 Q1242.8 1486.25 1239.73 1481.67 Q1236.67 1477.06 1236.67 1468.33 Q1236.67 1459.58 1239.73 1455 Q1242.8 1450.39 1248.61 1450.39 Z" fill="#000000" fill-rule="evenodd" fill-opacity="1" /><path clip-path="url(#clip850)" d="M1268.78 1479.7 L1273.66 1479.7 L1273.66 1485.58 L1268.78 1485.58 L1268.78 1479.7 Z" fill="#000000" fill-rule="evenodd" fill-opacity="1" /><path clip-path="url(#clip850)" d="M1283.89 1451.02 L1302.25 1451.02 L1302.25 1454.96 L1288.17 1454.96 L1288.17 1463.43 Q1289.19 1463.08 1290.21 1462.92 Q1291.23 1462.73 1292.25 1462.73 Q1298.04 1462.73 1301.42 1465.9 Q1304.79 1469.08 1304.79 1474.49 Q1304.79 1480.07 1301.32 1483.17 Q1297.85 1486.25 1291.53 1486.25 Q1289.36 1486.25 1287.09 1485.88 Q1284.84 1485.51 1282.43 1484.77 L1282.43 1480.07 Q1284.52 1481.2 1286.74 1481.76 Q1288.96 1482.32 1291.44 1482.32 Q1295.44 1482.32 1297.78 1480.21 Q1300.12 1478.1 1300.12 1474.49 Q1300.12 1470.88 1297.78 1468.77 Q1295.44 1466.67 1291.44 1466.67 Q1289.56 1466.67 1287.69 1467.08 Q1285.84 1467.5 1283.89 1468.38 L1283.89 1451.02 Z" fill="#000000" fill-rule="evenodd" fill-opacity="1" /><path clip-path="url(#clip850)" d="M1324.01 1454.1 Q1320.4 1454.1 1318.57 1457.66 Q1316.76 1461.2 1316.76 1468.33 Q1316.76 1475.44 1318.57 1479.01 Q1320.4 1482.55 1324.01 1482.55 Q1327.64 1482.55 1329.45 1479.01 Q1331.28 1475.44 1331.28 1468.33 Q1331.28 1461.2 1329.45 1457.66 Q1327.64 1454.1 1324.01 1454.1 M1324.01 1450.39 Q1329.82 1450.39 1332.87 1455 Q1335.95 1459.58 1335.95 1468.33 Q1335.95 1477.06 1332.87 1481.67 Q1329.82 1486.25 1324.01 1486.25 Q1318.2 1486.25 1315.12 1481.67 Q1312.06 1477.06 1312.06 1468.33 Q1312.06 1459.58 1315.12 1455 Q1318.2 1450.39 1324.01 1450.39 Z" fill="#000000" fill-rule="evenodd" fill-opacity="1" /><path clip-path="url(#clip850)" d="M1752.15 1454.1 Q1748.54 1454.1 1746.71 1457.66 Q1744.91 1461.2 1744.91 1468.33 Q1744.91 1475.44 1746.71 1479.01 Q1748.54 1482.55 1752.15 1482.55 Q1755.79 1482.55 1757.59 1479.01 Q1759.42 1475.44 1759.42 1468.33 Q1759.42 1461.2 1757.59 1457.66 Q1755.79 1454.1 1752.15 1454.1 M1752.15 1450.39 Q1757.96 1450.39 1761.02 1455 Q1764.1 1459.58 1764.1 1468.33 Q1764.1 1477.06 1761.02 1481.67 Q1757.96 1486.25 1752.15 1486.25 Q1746.34 1486.25 1743.26 1481.67 Q1740.21 1477.06 1740.21 1468.33 Q1740.21 1459.58 1743.26 1455 Q1746.34 1450.39 1752.15 1450.39 Z" fill="#000000" fill-rule="evenodd" fill-opacity="1" /><path clip-path="url(#clip850)" d="M1772.31 1479.7 L1777.2 1479.7 L1777.2 1485.58 L1772.31 1485.58 L1772.31 1479.7 Z" fill="#000000" fill-rule="evenodd" fill-opacity="1" /><path clip-path="url(#clip850)" d="M1786.2 1451.02 L1808.43 1451.02 L1808.43 1453.01 L1795.88 1485.58 L1790.99 1485.58 L1802.8 1454.96 L1786.2 1454.96 L1786.2 1451.02 Z" fill="#000000" fill-rule="evenodd" fill-opacity="1" /><path clip-path="url(#clip850)" d="M1817.59 1451.02 L1835.95 1451.02 L1835.95 1454.96 L1821.87 1454.96 L1821.87 1463.43 Q1822.89 1463.08 1823.91 1462.92 Q1824.93 1462.73 1825.95 1462.73 Q1831.74 1462.73 1835.11 1465.9 Q1838.49 1469.08 1838.49 1474.49 Q1838.49 1480.07 1835.02 1483.17 Q1831.55 1486.25 1825.23 1486.25 Q1823.05 1486.25 1820.79 1485.88 Q1818.54 1485.51 1816.13 1484.77 L1816.13 1480.07 Q1818.22 1481.2 1820.44 1481.76 Q1822.66 1482.32 1825.14 1482.32 Q1829.14 1482.32 1831.48 1480.21 Q1833.82 1478.1 1833.82 1474.49 Q1833.82 1470.88 1831.48 1468.77 Q1829.14 1466.67 1825.14 1466.67 Q1823.26 1466.67 1821.39 1467.08 Q1819.54 1467.5 1817.59 1468.38 L1817.59 1451.02 Z" fill="#000000" fill-rule="evenodd" fill-opacity="1" /><path clip-path="url(#clip850)" d="M2244.46 1481.64 L2252.1 1481.64 L2252.1 1455.28 L2243.79 1456.95 L2243.79 1452.69 L2252.06 1451.02 L2256.73 1451.02 L2256.73 1481.64 L2264.37 1481.64 L2264.37 1485.58 L2244.46 1485.58 L2244.46 1481.64 Z" fill="#000000" fill-rule="evenodd" fill-opacity="1" /><path clip-path="url(#clip850)" d="M2273.81 1479.7 L2278.7 1479.7 L2278.7 1485.58 L2273.81 1485.58 L2273.81 1479.7 Z" fill="#000000" fill-rule="evenodd" fill-opacity="1" /><path clip-path="url(#clip850)" d="M2298.88 1454.1 Q2295.27 1454.1 2293.44 1457.66 Q2291.64 1461.2 2291.64 1468.33 Q2291.64 1475.44 2293.44 1479.01 Q2295.27 1482.55 2298.88 1482.55 Q2302.52 1482.55 2304.32 1479.01 Q2306.15 1475.44 2306.15 1468.33 Q2306.15 1461.2 2304.32 1457.66 Q2302.52 1454.1 2298.88 1454.1 M2298.88 1450.39 Q2304.69 1450.39 2307.75 1455 Q2310.83 1459.58 2310.83 1468.33 Q2310.83 1477.06 2307.75 1481.67 Q2304.69 1486.25 2298.88 1486.25 Q2293.07 1486.25 2290 1481.67 Q2286.94 1477.06 2286.94 1468.33 Q2286.94 1459.58 2290 1455 Q2293.07 1450.39 2298.88 1450.39 Z" fill="#000000" fill-rule="evenodd" fill-opacity="1" /><path clip-path="url(#clip850)" d="M2329.05 1454.1 Q2325.43 1454.1 2323.61 1457.66 Q2321.8 1461.2 2321.8 1468.33 Q2321.8 1475.44 2323.61 1479.01 Q2325.43 1482.55 2329.05 1482.55 Q2332.68 1482.55 2334.49 1479.01 Q2336.31 1475.44 2336.31 1468.33 Q2336.31 1461.2 2334.49 1457.66 Q2332.68 1454.1 2329.05 1454.1 M2329.05 1450.39 Q2334.86 1450.39 2337.91 1455 Q2340.99 1459.58 2340.99 1468.33 Q2340.99 1477.06 2337.91 1481.67 Q2334.86 1486.25 2329.05 1486.25 Q2323.24 1486.25 2320.16 1481.67 Q2317.1 1477.06 2317.1 1468.33 Q2317.1 1459.58 2320.16 1455 Q2323.24 1450.39 2329.05 1450.39 Z" fill="#000000" fill-rule="evenodd" fill-opacity="1" /><path clip-path="url(#clip850)" d="M1298.25 1545.85 Q1298.25 1551.26 1296.51 1557.35 Q1294.8 1563.4 1292.09 1568.3 Q1289.39 1573.16 1285.85 1576.38 Q1282.3 1579.57 1278.92 1579.57 Q1276.76 1579.57 1275.15 1578.38 Q1273.58 1577.15 1272.71 1575.12 Q1271.84 1573.06 1271.42 1570.81 Q1271 1568.52 1271 1566.04 Q1271 1562.34 1271.8 1558.31 Q1272.61 1554.25 1273.96 1550.58 Q1275.32 1546.88 1277.22 1543.53 Q1279.12 1540.15 1281.21 1537.7 Q1283.33 1535.22 1285.72 1533.77 Q1288.1 1532.32 1290.32 1532.32 Q1291.93 1532.32 1293.22 1533.03 Q1294.54 1533.71 1295.38 1534.9 Q1296.22 1536.06 1296.8 1537.44 Q1297.41 1538.83 1297.7 1540.44 Q1297.99 1542.02 1298.12 1543.34 Q1298.25 1544.63 1298.25 1545.85 M1293.9 1541.76 Q1293.9 1540.12 1293.77 1538.89 Q1293.64 1537.64 1293.29 1536.38 Q1292.93 1535.12 1292.16 1534.45 Q1291.42 1533.77 1290.26 1533.77 Q1286.88 1533.77 1283.08 1540.7 Q1281.85 1542.85 1280.76 1545.78 Q1279.66 1548.72 1279.28 1550.1 Q1278.89 1551.49 1277.99 1554.9 L1291.77 1554.9 Q1293.9 1546.11 1293.9 1541.76 M1291.19 1556.99 L1277.47 1556.99 Q1275.35 1565.04 1275.35 1570.07 Q1275.35 1574.45 1276.25 1576.28 Q1277.18 1578.09 1278.92 1578.09 Q1280.92 1578.09 1282.79 1576.09 Q1284.66 1574.06 1286.56 1570.39 Q1289.07 1565.62 1291.19 1556.99 Z" fill="#000000" fill-rule="evenodd" fill-opacity="1" /><polyline clip-path="url(#clip853)" style="stroke:#000000; stroke-linecap:butt; stroke-linejoin:round; stroke-width:2; stroke-opacity:0.1; fill:none" points="
  219.866,1423.18 2352.76,1423.18 
  "/>
<polyline clip-path="url(#clip853)" style="stroke:#000000; stroke-linecap:butt; stroke-linejoin:round; stroke-width:2; stroke-opacity:0.1; fill:none" points="
  219.866,1147.99 2352.76,1147.99 
  "/>
<polyline clip-path="url(#clip853)" style="stroke:#000000; stroke-linecap:butt; stroke-linejoin:round; stroke-width:2; stroke-opacity:0.1; fill:none" points="
  219.866,872.806 2352.76,872.806 
  "/>
<polyline clip-path="url(#clip853)" style="stroke:#000000; stroke-linecap:butt; stroke-linejoin:round; stroke-width:2; stroke-opacity:0.1; fill:none" points="
  219.866,597.618 2352.76,597.618 
  "/>
<polyline clip-path="url(#clip853)" style="stroke:#000000; stroke-linecap:butt; stroke-linejoin:round; stroke-width:2; stroke-opacity:0.1; fill:none" points="
  219.866,322.431 2352.76,322.431 
  "/>
<polyline clip-path="url(#clip853)" style="stroke:#000000; stroke-linecap:butt; stroke-linejoin:round; stroke-width:2; stroke-opacity:0.1; fill:none" points="
  219.866,47.2441 2352.76,47.2441 
  "/>
<polyline clip-path="url(#clip850)" style="stroke:#000000; stroke-linecap:butt; stroke-linejoin:round; stroke-width:4; stroke-opacity:1; fill:none" points="
  219.866,1423.18 219.866,47.2441 
  "/>
<polyline clip-path="url(#clip850)" style="stroke:#000000; stroke-linecap:butt; stroke-linejoin:round; stroke-width:4; stroke-opacity:1; fill:none" points="
  219.866,1423.18 238.764,1423.18 
  "/>
<polyline clip-path="url(#clip850)" style="stroke:#000000; stroke-linecap:butt; stroke-linejoin:round; stroke-width:4; stroke-opacity:1; fill:none" points="
  219.866,1147.99 238.764,1147.99 
  "/>
<polyline clip-path="url(#clip850)" style="stroke:#000000; stroke-linecap:butt; stroke-linejoin:round; stroke-width:4; stroke-opacity:1; fill:none" points="
  219.866,872.806 238.764,872.806 
  "/>
<polyline clip-path="url(#clip850)" style="stroke:#000000; stroke-linecap:butt; stroke-linejoin:round; stroke-width:4; stroke-opacity:1; fill:none" points="
  219.866,597.618 238.764,597.618 
  "/>
<polyline clip-path="url(#clip850)" style="stroke:#000000; stroke-linecap:butt; stroke-linejoin:round; stroke-width:4; stroke-opacity:1; fill:none" points="
  219.866,322.431 238.764,322.431 
  "/>
<polyline clip-path="url(#clip850)" style="stroke:#000000; stroke-linecap:butt; stroke-linejoin:round; stroke-width:4; stroke-opacity:1; fill:none" points="
  219.866,47.2441 238.764,47.2441 
  "/>
<path clip-path="url(#clip850)" d="M126.691 1408.98 Q123.08 1408.98 121.251 1412.54 Q119.445 1416.08 119.445 1423.21 Q119.445 1430.32 121.251 1433.89 Q123.08 1437.43 126.691 1437.43 Q130.325 1437.43 132.13 1433.89 Q133.959 1430.32 133.959 1423.21 Q133.959 1416.08 132.13 1412.54 Q130.325 1408.98 126.691 1408.98 M126.691 1405.27 Q132.501 1405.27 135.556 1409.88 Q138.635 1414.46 138.635 1423.21 Q138.635 1431.94 135.556 1436.55 Q132.501 1441.13 126.691 1441.13 Q120.88 1441.13 117.802 1436.55 Q114.746 1431.94 114.746 1423.21 Q114.746 1414.46 117.802 1409.88 Q120.88 1405.27 126.691 1405.27 Z" fill="#000000" fill-rule="evenodd" fill-opacity="1" /><path clip-path="url(#clip850)" d="M146.853 1434.58 L151.737 1434.58 L151.737 1440.46 L146.853 1440.46 L146.853 1434.58 Z" fill="#000000" fill-rule="evenodd" fill-opacity="1" /><path clip-path="url(#clip850)" d="M171.922 1408.98 Q168.311 1408.98 166.482 1412.54 Q164.677 1416.08 164.677 1423.21 Q164.677 1430.32 166.482 1433.89 Q168.311 1437.43 171.922 1437.43 Q175.556 1437.43 177.362 1433.89 Q179.19 1430.32 179.19 1423.21 Q179.19 1416.08 177.362 1412.54 Q175.556 1408.98 171.922 1408.98 M171.922 1405.27 Q177.732 1405.27 180.788 1409.88 Q183.866 1414.46 183.866 1423.21 Q183.866 1431.94 180.788 1436.55 Q177.732 1441.13 171.922 1441.13 Q166.112 1441.13 163.033 1436.55 Q159.978 1431.94 159.978 1423.21 Q159.978 1414.46 163.033 1409.88 Q166.112 1405.27 171.922 1405.27 Z" fill="#000000" fill-rule="evenodd" fill-opacity="1" /><path clip-path="url(#clip850)" d="M128.288 1133.79 Q124.677 1133.79 122.848 1137.36 Q121.043 1140.9 121.043 1148.03 Q121.043 1155.13 122.848 1158.7 Q124.677 1162.24 128.288 1162.24 Q131.922 1162.24 133.728 1158.7 Q135.556 1155.13 135.556 1148.03 Q135.556 1140.9 133.728 1137.36 Q131.922 1133.79 128.288 1133.79 M128.288 1130.09 Q134.098 1130.09 137.154 1134.69 Q140.232 1139.28 140.232 1148.03 Q140.232 1156.75 137.154 1161.36 Q134.098 1165.94 128.288 1165.94 Q122.478 1165.94 119.399 1161.36 Q116.343 1156.75 116.343 1148.03 Q116.343 1139.28 119.399 1134.69 Q122.478 1130.09 128.288 1130.09 Z" fill="#000000" fill-rule="evenodd" fill-opacity="1" /><path clip-path="url(#clip850)" d="M148.45 1159.39 L153.334 1159.39 L153.334 1165.27 L148.45 1165.27 L148.45 1159.39 Z" fill="#000000" fill-rule="evenodd" fill-opacity="1" /><path clip-path="url(#clip850)" d="M167.547 1161.34 L183.866 1161.34 L183.866 1165.27 L161.922 1165.27 L161.922 1161.34 Q164.584 1158.58 169.167 1153.95 Q173.774 1149.3 174.954 1147.96 Q177.2 1145.43 178.079 1143.7 Q178.982 1141.94 178.982 1140.25 Q178.982 1137.5 177.038 1135.76 Q175.116 1134.02 172.014 1134.02 Q169.815 1134.02 167.362 1134.79 Q164.931 1135.55 162.153 1137.1 L162.153 1132.38 Q164.977 1131.25 167.431 1130.67 Q169.885 1130.09 171.922 1130.09 Q177.292 1130.09 180.487 1132.77 Q183.681 1135.46 183.681 1139.95 Q183.681 1142.08 182.871 1144 Q182.084 1145.9 179.977 1148.49 Q179.399 1149.16 176.297 1152.38 Q173.195 1155.57 167.547 1161.34 Z" fill="#000000" fill-rule="evenodd" fill-opacity="1" /><path clip-path="url(#clip850)" d="M126.205 858.604 Q122.593 858.604 120.765 862.169 Q118.959 865.711 118.959 872.84 Q118.959 879.947 120.765 883.512 Q122.593 887.053 126.205 887.053 Q129.839 887.053 131.644 883.512 Q133.473 879.947 133.473 872.84 Q133.473 865.711 131.644 862.169 Q129.839 858.604 126.205 858.604 M126.205 854.901 Q132.015 854.901 135.07 859.507 Q138.149 864.09 138.149 872.84 Q138.149 881.567 135.07 886.174 Q132.015 890.757 126.205 890.757 Q120.394 890.757 117.316 886.174 Q114.26 881.567 114.26 872.84 Q114.26 864.09 117.316 859.507 Q120.394 854.901 126.205 854.901 Z" fill="#000000" fill-rule="evenodd" fill-opacity="1" /><path clip-path="url(#clip850)" d="M146.366 884.206 L151.251 884.206 L151.251 890.086 L146.366 890.086 L146.366 884.206 Z" fill="#000000" fill-rule="evenodd" fill-opacity="1" /><path clip-path="url(#clip850)" d="M174.283 859.6 L162.477 878.049 L174.283 878.049 L174.283 859.6 M173.056 855.526 L178.936 855.526 L178.936 878.049 L183.866 878.049 L183.866 881.937 L178.936 881.937 L178.936 890.086 L174.283 890.086 L174.283 881.937 L158.681 881.937 L158.681 877.424 L173.056 855.526 Z" fill="#000000" fill-rule="evenodd" fill-opacity="1" /><path clip-path="url(#clip850)" d="M126.529 583.417 Q122.918 583.417 121.089 586.982 Q119.283 590.524 119.283 597.653 Q119.283 604.76 121.089 608.324 Q122.918 611.866 126.529 611.866 Q130.163 611.866 131.968 608.324 Q133.797 604.76 133.797 597.653 Q133.797 590.524 131.968 586.982 Q130.163 583.417 126.529 583.417 M126.529 579.713 Q132.339 579.713 135.394 584.32 Q138.473 588.903 138.473 597.653 Q138.473 606.38 135.394 610.986 Q132.339 615.57 126.529 615.57 Q120.718 615.57 117.64 610.986 Q114.584 606.38 114.584 597.653 Q114.584 588.903 117.64 584.32 Q120.718 579.713 126.529 579.713 Z" fill="#000000" fill-rule="evenodd" fill-opacity="1" /><path clip-path="url(#clip850)" d="M146.691 609.019 L151.575 609.019 L151.575 614.898 L146.691 614.898 L146.691 609.019 Z" fill="#000000" fill-rule="evenodd" fill-opacity="1" /><path clip-path="url(#clip850)" d="M172.339 595.755 Q169.19 595.755 167.339 597.908 Q165.51 600.061 165.51 603.81 Q165.51 607.537 167.339 609.713 Q169.19 611.866 172.339 611.866 Q175.487 611.866 177.315 609.713 Q179.167 607.537 179.167 603.81 Q179.167 600.061 177.315 597.908 Q175.487 595.755 172.339 595.755 M181.621 581.102 L181.621 585.362 Q179.862 584.528 178.056 584.088 Q176.274 583.649 174.514 583.649 Q169.885 583.649 167.431 586.774 Q165.001 589.899 164.653 596.218 Q166.019 594.204 168.079 593.139 Q170.139 592.051 172.616 592.051 Q177.825 592.051 180.834 595.223 Q183.866 598.371 183.866 603.81 Q183.866 609.135 180.718 612.352 Q177.57 615.57 172.339 615.57 Q166.343 615.57 163.172 610.986 Q160.001 606.38 160.001 597.653 Q160.001 589.459 163.89 584.598 Q167.778 579.713 174.329 579.713 Q176.089 579.713 177.871 580.061 Q179.676 580.408 181.621 581.102 Z" fill="#000000" fill-rule="evenodd" fill-opacity="1" /><path clip-path="url(#clip850)" d="M126.783 308.23 Q123.172 308.23 121.343 311.795 Q119.538 315.336 119.538 322.466 Q119.538 329.572 121.343 333.137 Q123.172 336.679 126.783 336.679 Q130.417 336.679 132.223 333.137 Q134.052 329.572 134.052 322.466 Q134.052 315.336 132.223 311.795 Q130.417 308.23 126.783 308.23 M126.783 304.526 Q132.593 304.526 135.649 309.133 Q138.728 313.716 138.728 322.466 Q138.728 331.193 135.649 335.799 Q132.593 340.383 126.783 340.383 Q120.973 340.383 117.894 335.799 Q114.839 331.193 114.839 322.466 Q114.839 313.716 117.894 309.133 Q120.973 304.526 126.783 304.526 Z" fill="#000000" fill-rule="evenodd" fill-opacity="1" /><path clip-path="url(#clip850)" d="M146.945 333.832 L151.829 333.832 L151.829 339.711 L146.945 339.711 L146.945 333.832 Z" fill="#000000" fill-rule="evenodd" fill-opacity="1" /><path clip-path="url(#clip850)" d="M172.014 323.299 Q168.681 323.299 166.76 325.082 Q164.862 326.864 164.862 329.989 Q164.862 333.114 166.76 334.896 Q168.681 336.679 172.014 336.679 Q175.348 336.679 177.269 334.896 Q179.19 333.091 179.19 329.989 Q179.19 326.864 177.269 325.082 Q175.371 323.299 172.014 323.299 M167.339 321.309 Q164.329 320.568 162.64 318.508 Q160.973 316.447 160.973 313.485 Q160.973 309.341 163.913 306.934 Q166.876 304.526 172.014 304.526 Q177.176 304.526 180.116 306.934 Q183.056 309.341 183.056 313.485 Q183.056 316.447 181.366 318.508 Q179.7 320.568 176.714 321.309 Q180.093 322.096 181.968 324.387 Q183.866 326.679 183.866 329.989 Q183.866 335.012 180.788 337.697 Q177.732 340.383 172.014 340.383 Q166.297 340.383 163.218 337.697 Q160.163 335.012 160.163 329.989 Q160.163 326.679 162.061 324.387 Q163.959 322.096 167.339 321.309 M165.626 313.924 Q165.626 316.61 167.292 318.114 Q168.982 319.619 172.014 319.619 Q175.024 319.619 176.714 318.114 Q178.426 316.61 178.426 313.924 Q178.426 311.239 176.714 309.735 Q175.024 308.23 172.014 308.23 Q168.982 308.23 167.292 309.735 Q165.626 311.239 165.626 313.924 Z" fill="#000000" fill-rule="evenodd" fill-opacity="1" /><path clip-path="url(#clip850)" d="M117.501 60.5889 L125.14 60.5889 L125.14 34.2233 L116.83 35.89 L116.83 31.6308 L125.093 29.9641 L129.769 29.9641 L129.769 60.5889 L137.408 60.5889 L137.408 64.5241 L117.501 64.5241 L117.501 60.5889 Z" fill="#000000" fill-rule="evenodd" fill-opacity="1" /><path clip-path="url(#clip850)" d="M146.853 58.6445 L151.737 58.6445 L151.737 64.5241 L146.853 64.5241 L146.853 58.6445 Z" fill="#000000" fill-rule="evenodd" fill-opacity="1" /><path clip-path="url(#clip850)" d="M171.922 33.0428 Q168.311 33.0428 166.482 36.6076 Q164.677 40.1492 164.677 47.2788 Q164.677 54.3853 166.482 57.9501 Q168.311 61.4917 171.922 61.4917 Q175.556 61.4917 177.362 57.9501 Q179.19 54.3853 179.19 47.2788 Q179.19 40.1492 177.362 36.6076 Q175.556 33.0428 171.922 33.0428 M171.922 29.3391 Q177.732 29.3391 180.788 33.9456 Q183.866 38.5289 183.866 47.2788 Q183.866 56.0056 180.788 60.6121 Q177.732 65.1954 171.922 65.1954 Q166.112 65.1954 163.033 60.6121 Q159.978 56.0056 159.978 47.2788 Q159.978 38.5289 163.033 33.9456 Q166.112 29.3391 171.922 29.3391 Z" fill="#000000" fill-rule="evenodd" fill-opacity="1" /><path clip-path="url(#clip850)" d="M16.4842 812.476 L16.4842 802.895 L48.8219 790.769 L16.4842 778.578 L16.4842 768.998 L64.0042 768.998 L64.0042 775.268 L22.277 775.268 L54.8694 787.522 L54.8694 793.983 L22.277 806.237 L64.0042 806.237 L64.0042 812.476 L16.4842 812.476 Z" fill="#000000" fill-rule="evenodd" fill-opacity="1" /><path clip-path="url(#clip850)" d="M46.0847 740.289 Q46.0847 747.386 47.7079 750.124 Q49.3312 752.861 53.2461 752.861 Q56.3653 752.861 58.2114 750.824 Q60.0256 748.755 60.0256 745.222 Q60.0256 740.352 56.5881 737.424 Q53.1188 734.464 47.3897 734.464 L46.0847 734.464 L46.0847 740.289 M43.6657 728.608 L64.0042 728.608 L64.0042 734.464 L58.5933 734.464 Q61.8398 736.469 63.3994 739.461 Q64.9272 742.453 64.9272 746.782 Q64.9272 752.256 61.8716 755.503 Q58.7843 758.717 53.6281 758.717 Q47.6125 758.717 44.5569 754.707 Q41.5014 750.665 41.5014 742.676 L41.5014 734.464 L40.9285 734.464 Q36.8862 734.464 34.6901 737.138 Q32.4621 739.779 32.4621 744.585 Q32.4621 747.641 33.1941 750.537 Q33.9262 753.434 35.3903 756.107 L29.9795 756.107 Q28.7381 752.893 28.1334 749.869 Q27.4968 746.845 27.4968 743.981 Q27.4968 736.246 31.5072 732.427 Q35.5176 728.608 43.6657 728.608 Z" fill="#000000" fill-rule="evenodd" fill-opacity="1" /><path clip-path="url(#clip850)" d="M29.4065 693.819 L34.9447 693.819 Q33.6716 696.302 33.035 698.975 Q32.3984 701.649 32.3984 704.513 Q32.3984 708.874 33.7352 711.07 Q35.072 713.234 37.7456 713.234 Q39.7826 713.234 40.9603 711.675 Q42.1061 710.115 43.1565 705.405 L43.6021 703.399 Q44.9389 697.161 47.3897 694.551 Q49.8086 691.909 54.1691 691.909 Q59.1344 691.909 62.0308 695.856 Q64.9272 699.771 64.9272 706.646 Q64.9272 709.51 64.3543 712.63 Q63.8132 715.717 62.6992 719.154 L56.6518 719.154 Q58.3387 715.908 59.198 712.757 Q60.0256 709.606 60.0256 706.519 Q60.0256 702.381 58.6251 700.153 Q57.1929 697.925 54.6147 697.925 Q52.2276 697.925 50.9545 699.548 Q49.6813 701.14 48.5037 706.582 L48.0262 708.619 Q46.8804 714.062 44.5251 716.481 Q42.138 718.9 38.0002 718.9 Q32.9713 718.9 30.2341 715.335 Q27.4968 711.77 27.4968 705.214 Q27.4968 701.967 27.9743 699.102 Q28.4517 696.238 29.4065 693.819 Z" fill="#000000" fill-rule="evenodd" fill-opacity="1" /><path clip-path="url(#clip850)" d="M29.4065 659.858 L34.9447 659.858 Q33.6716 662.341 33.035 665.014 Q32.3984 667.688 32.3984 670.552 Q32.3984 674.913 33.7352 677.109 Q35.072 679.273 37.7456 679.273 Q39.7826 679.273 40.9603 677.714 Q42.1061 676.154 43.1565 671.444 L43.6021 669.438 Q44.9389 663.2 47.3897 660.59 Q49.8086 657.948 54.1691 657.948 Q59.1344 657.948 62.0308 661.895 Q64.9272 665.81 64.9272 672.685 Q64.9272 675.549 64.3543 678.669 Q63.8132 681.756 62.6992 685.193 L56.6518 685.193 Q58.3387 681.947 59.198 678.796 Q60.0256 675.645 60.0256 672.558 Q60.0256 668.42 58.6251 666.192 Q57.1929 663.964 54.6147 663.964 Q52.2276 663.964 50.9545 665.587 Q49.6813 667.178 48.5037 672.621 L48.0262 674.658 Q46.8804 680.101 44.5251 682.52 Q42.138 684.939 38.0002 684.939 Q32.9713 684.939 30.2341 681.374 Q27.4968 677.809 27.4968 671.253 Q27.4968 668.006 27.9743 665.141 Q28.4517 662.277 29.4065 659.858 Z" fill="#000000" fill-rule="evenodd" fill-opacity="1" /><circle clip-path="url(#clip853)" cx="280.231" cy="735.212" r="14" fill="#009af9" fill-rule="evenodd" fill-opacity="0.5" stroke="#000000" stroke-opacity="0.5" stroke-width="3.2"/>
<circle clip-path="url(#clip853)" cx="2292.39" cy="735.212" r="14" fill="#009af9" fill-rule="evenodd" fill-opacity="0.5" stroke="#000000" stroke-opacity="0.5" stroke-width="3.2"/>
<polyline clip-path="url(#clip853)" style="stroke:#009af9; stroke-linecap:butt; stroke-linejoin:round; stroke-width:4; stroke-opacity:0.5; fill:none" points="
  280.231,1423.18 280.231,735.212 
  "/>
<polyline clip-path="url(#clip853)" style="stroke:#009af9; stroke-linecap:butt; stroke-linejoin:round; stroke-width:4; stroke-opacity:0.5; fill:none" points="
  2292.39,1423.18 2292.39,735.212 
  "/>
<circle clip-path="url(#clip853)" cx="280.231" cy="322.431" r="14" fill="#e26f46" fill-rule="evenodd" fill-opacity="0.5" stroke="#000000" stroke-opacity="0.5" stroke-width="3.2"/>
<circle clip-path="url(#clip853)" cx="2292.39" cy="1147.99" r="14" fill="#e26f46" fill-rule="evenodd" fill-opacity="0.5" stroke="#000000" stroke-opacity="0.5" stroke-width="3.2"/>
<polyline clip-path="url(#clip853)" style="stroke:#e26f46; stroke-linecap:butt; stroke-linejoin:round; stroke-width:4; stroke-opacity:0.5; fill:none" points="
  280.231,1423.18 280.231,322.431 
  "/>
<polyline clip-path="url(#clip853)" style="stroke:#e26f46; stroke-linecap:butt; stroke-linejoin:round; stroke-width:4; stroke-opacity:0.5; fill:none" points="
  2292.39,1423.18 2292.39,1147.99 
  "/>
<path clip-path="url(#clip850)" d="
M1896.53 248.629 L2281.66 248.629 L2281.66 93.1086 L1896.53 93.1086  Z
  " fill="#ffffff" fill-rule="evenodd" fill-opacity="1"/>
<polyline clip-path="url(#clip850)" style="stroke:#000000; stroke-linecap:butt; stroke-linejoin:round; stroke-width:4; stroke-opacity:1; fill:none" points="
  1896.53,248.629 2281.66,248.629 2281.66,93.1086 1896.53,93.1086 1896.53,248.629 
  "/>
<circle clip-path="url(#clip850)" cx="1991.32" cy="144.949" r="23" fill="#009af9" fill-rule="evenodd" fill-opacity="0.5" stroke="#000000" stroke-opacity="0.5" stroke-width="5.12"/>
<path clip-path="url(#clip850)" d="M2111.18 149.541 Q2111.18 152.961 2109.45 156.263 Q2107.74 159.566 2105.04 161.604 Q2102.35 163.618 2099.61 163.618 Q2097.97 163.618 2096.87 162.728 Q2095.79 161.815 2095.21 160.526 Q2094.76 162.119 2093.8 165.937 Q2092.84 169.755 2092.84 170.13 Q2092.84 170.34 2092.89 170.434 Q2092.94 170.528 2093.15 170.645 Q2093.36 170.785 2093.87 170.832 Q2094.39 170.902 2095.25 170.902 Q2095.7 170.902 2095.86 170.902 Q2096.05 170.926 2096.21 171.043 Q2096.4 171.16 2096.4 171.418 Q2096.4 172.378 2095.54 172.378 Q2094.76 172.378 2093.17 172.308 Q2091.58 172.238 2090.78 172.238 Q2090.1 172.238 2088.74 172.308 Q2087.38 172.378 2086.75 172.378 Q2086.12 172.378 2086.12 171.816 Q2086.12 171.488 2086.21 171.277 Q2086.28 171.09 2086.47 170.996 Q2086.66 170.926 2086.82 170.902 Q2086.96 170.902 2087.24 170.902 Q2088.32 170.902 2088.79 170.715 Q2089.26 170.551 2089.42 170.2 Q2089.61 169.872 2089.82 168.935 L2095.21 147.574 Q2095.54 146.145 2095.54 145.138 Q2095.54 143.873 2095.14 143.405 Q2094.74 142.936 2094.04 142.936 Q2092.82 142.936 2092.02 144.388 Q2091.23 145.84 2090.55 148.651 Q2090.34 149.424 2090.19 149.588 Q2090.08 149.752 2089.73 149.752 Q2089.14 149.729 2089.14 149.26 Q2089.14 149.143 2089.33 148.393 Q2089.52 147.621 2089.87 146.496 Q2090.24 145.349 2090.64 144.622 Q2090.87 144.131 2091.08 143.803 Q2091.3 143.475 2091.72 142.959 Q2092.16 142.444 2092.79 142.163 Q2093.43 141.882 2094.2 141.882 Q2095.7 141.882 2096.94 142.772 Q2098.18 143.662 2098.51 145.466 Q2099.84 143.896 2101.48 142.889 Q2103.12 141.882 2104.79 141.882 Q2107.55 141.882 2109.35 144.037 Q2111.18 146.168 2111.18 149.541 M2107.71 147.433 Q2107.71 145.302 2106.9 144.131 Q2106.1 142.936 2104.65 142.936 Q2102.84 142.936 2100.76 144.763 Q2098.7 146.496 2098.28 148.112 L2095.91 157.505 L2095.77 158.278 Q2095.77 158.418 2095.84 158.84 Q2095.93 159.238 2096.19 159.894 Q2096.47 160.55 2096.85 161.135 Q2097.25 161.697 2097.95 162.119 Q2098.67 162.541 2099.56 162.541 Q2100.99 162.541 2102.54 161.276 Q2104.11 160.011 2105.28 157.622 Q2106.01 156.076 2106.85 152.75 Q2107.71 149.401 2107.71 147.433 Z" fill="#000000" fill-rule="evenodd" fill-opacity="1" /><path clip-path="url(#clip850)" d="M2123.31 155.795 Q2123.36 155.209 2124.27 155.209 L2153.67 155.209 Q2155.05 155.209 2155.07 155.748 Q2155.07 156.334 2153.76 156.31 L2124.6 156.31 Q2123.31 156.334 2123.31 155.795 M2123.31 146.426 Q2123.31 145.84 2124.32 145.864 L2153.62 145.864 Q2155.05 145.864 2155.07 146.426 Q2155.07 146.965 2153.86 146.965 L2124.27 146.965 Q2123.31 146.965 2123.31 146.426 Z" fill="#000000" fill-rule="evenodd" fill-opacity="1" /><path clip-path="url(#clip850)" d="M2173.57 147.738 Q2173.57 140.688 2175.35 136.846 Q2177.83 131.131 2183.68 131.131 Q2184.92 131.131 2186.21 131.482 Q2187.52 131.81 2189.16 133.099 Q2190.83 134.387 2191.83 136.495 Q2193.76 140.57 2193.76 147.738 Q2193.76 154.741 2191.98 158.559 Q2189.38 164.133 2183.64 164.133 Q2181.48 164.133 2179.28 163.033 Q2177.1 161.932 2175.72 159.285 Q2173.57 155.327 2173.57 147.738 M2177.55 147.152 Q2177.55 154.39 2178.06 157.271 Q2178.65 160.386 2180.24 161.744 Q2181.86 163.079 2183.64 163.079 Q2185.56 163.079 2187.15 161.651 Q2188.77 160.198 2189.26 157.083 Q2189.8 154.015 2189.77 147.152 Q2189.77 140.477 2189.3 137.807 Q2188.67 134.691 2186.99 133.45 Q2185.32 132.185 2183.64 132.185 Q2183 132.185 2182.33 132.373 Q2181.67 132.56 2180.71 133.099 Q2179.75 133.637 2179 134.972 Q2178.27 136.308 2177.92 138.322 Q2177.55 140.922 2177.55 147.152 Z" fill="#000000" fill-rule="evenodd" fill-opacity="1" /><path clip-path="url(#clip850)" d="M2198.04 162.306 Q2197.32 161.533 2197.32 160.526 Q2197.32 159.519 2198.04 158.793 Q2198.77 158.044 2199.87 158.044 Q2200.92 158.044 2201.62 158.746 Q2202.35 159.425 2202.35 160.55 Q2202.35 161.651 2201.58 162.377 Q2200.83 163.079 2199.87 163.079 Q2198.77 163.079 2198.04 162.306 Z" fill="#000000" fill-rule="evenodd" fill-opacity="1" /><path clip-path="url(#clip850)" d="M2210.51 155.35 Q2210.51 153.921 2211.28 153.382 Q2212.06 152.82 2212.88 152.82 Q2213.98 152.82 2214.61 153.523 Q2215.27 154.202 2215.27 155.163 Q2215.27 156.123 2214.61 156.826 Q2213.98 157.505 2212.88 157.505 Q2212.34 157.505 2212.06 157.411 Q2212.69 159.613 2214.61 161.206 Q2216.56 162.798 2219.11 162.798 Q2222.32 162.798 2224.24 159.683 Q2225.39 157.669 2225.39 153.101 Q2225.39 149.073 2224.52 147.058 Q2223.18 143.99 2220.44 143.99 Q2216.56 143.99 2214.26 147.339 Q2213.98 147.761 2213.65 147.785 Q2213.18 147.785 2213.07 147.527 Q2212.97 147.246 2212.97 146.52 L2212.97 132.326 Q2212.97 131.178 2213.44 131.178 Q2213.63 131.178 2214.03 131.319 Q2217.05 132.654 2220.4 132.677 Q2223.84 132.677 2226.93 131.272 Q2227.17 131.131 2227.31 131.131 Q2227.77 131.131 2227.8 131.67 Q2227.8 131.857 2227.4 132.419 Q2227.02 132.958 2226.21 133.684 Q2225.39 134.387 2224.33 135.066 Q2223.28 135.745 2221.73 136.214 Q2220.21 136.659 2218.52 136.659 Q2216.51 136.659 2214.45 136.026 L2214.45 145.372 Q2216.93 142.936 2220.54 142.936 Q2224.38 142.936 2227.02 146.028 Q2229.67 149.12 2229.67 153.429 Q2229.67 157.95 2226.53 161.042 Q2223.42 164.133 2219.2 164.133 Q2215.36 164.133 2212.92 161.393 Q2210.51 158.653 2210.51 155.35 Z" fill="#000000" fill-rule="evenodd" fill-opacity="1" /><circle clip-path="url(#clip850)" cx="1991.32" cy="196.789" r="23" fill="#e26f46" fill-rule="evenodd" fill-opacity="0.5" stroke="#000000" stroke-opacity="0.5" stroke-width="5.12"/>
<path clip-path="url(#clip850)" d="M2111.18 201.381 Q2111.18 204.801 2109.45 208.103 Q2107.74 211.406 2105.04 213.444 Q2102.35 215.458 2099.61 215.458 Q2097.97 215.458 2096.87 214.568 Q2095.79 213.655 2095.21 212.366 Q2094.76 213.959 2093.8 217.777 Q2092.84 221.595 2092.84 221.97 Q2092.84 222.18 2092.89 222.274 Q2092.94 222.368 2093.15 222.485 Q2093.36 222.625 2093.87 222.672 Q2094.39 222.742 2095.25 222.742 Q2095.7 222.742 2095.86 222.742 Q2096.05 222.766 2096.21 222.883 Q2096.4 223 2096.4 223.258 Q2096.4 224.218 2095.54 224.218 Q2094.76 224.218 2093.17 224.148 Q2091.58 224.078 2090.78 224.078 Q2090.1 224.078 2088.74 224.148 Q2087.38 224.218 2086.75 224.218 Q2086.12 224.218 2086.12 223.656 Q2086.12 223.328 2086.21 223.117 Q2086.28 222.93 2086.47 222.836 Q2086.66 222.766 2086.82 222.742 Q2086.96 222.742 2087.24 222.742 Q2088.32 222.742 2088.79 222.555 Q2089.26 222.391 2089.42 222.04 Q2089.61 221.712 2089.82 220.775 L2095.21 199.414 Q2095.54 197.985 2095.54 196.978 Q2095.54 195.713 2095.14 195.245 Q2094.74 194.776 2094.04 194.776 Q2092.82 194.776 2092.02 196.228 Q2091.23 197.68 2090.55 200.491 Q2090.34 201.264 2090.19 201.428 Q2090.08 201.592 2089.73 201.592 Q2089.14 201.569 2089.14 201.1 Q2089.14 200.983 2089.33 200.233 Q2089.52 199.461 2089.87 198.336 Q2090.24 197.189 2090.64 196.462 Q2090.87 195.971 2091.08 195.643 Q2091.3 195.315 2091.72 194.799 Q2092.16 194.284 2092.79 194.003 Q2093.43 193.722 2094.2 193.722 Q2095.7 193.722 2096.94 194.612 Q2098.18 195.502 2098.51 197.306 Q2099.84 195.736 2101.48 194.729 Q2103.12 193.722 2104.79 193.722 Q2107.55 193.722 2109.35 195.877 Q2111.18 198.008 2111.18 201.381 M2107.71 199.273 Q2107.71 197.142 2106.9 195.971 Q2106.1 194.776 2104.65 194.776 Q2102.84 194.776 2100.76 196.603 Q2098.7 198.336 2098.28 199.952 L2095.91 209.345 L2095.77 210.118 Q2095.77 210.258 2095.84 210.68 Q2095.93 211.078 2096.19 211.734 Q2096.47 212.39 2096.85 212.975 Q2097.25 213.537 2097.95 213.959 Q2098.67 214.381 2099.56 214.381 Q2100.99 214.381 2102.54 213.116 Q2104.11 211.851 2105.28 209.462 Q2106.01 207.916 2106.85 204.59 Q2107.71 201.241 2107.71 199.273 Z" fill="#000000" fill-rule="evenodd" fill-opacity="1" /><path clip-path="url(#clip850)" d="M2123.31 207.635 Q2123.36 207.049 2124.27 207.049 L2153.67 207.049 Q2155.05 207.049 2155.07 207.588 Q2155.07 208.174 2153.76 208.15 L2124.6 208.15 Q2123.31 208.174 2123.31 207.635 M2123.31 198.266 Q2123.31 197.68 2124.32 197.704 L2153.62 197.704 Q2155.05 197.704 2155.07 198.266 Q2155.07 198.805 2153.86 198.805 L2124.27 198.805 Q2123.31 198.805 2123.31 198.266 Z" fill="#000000" fill-rule="evenodd" fill-opacity="1" /><path clip-path="url(#clip850)" d="M2173.57 199.578 Q2173.57 192.528 2175.35 188.686 Q2177.83 182.971 2183.68 182.971 Q2184.92 182.971 2186.21 183.322 Q2187.52 183.65 2189.16 184.939 Q2190.83 186.227 2191.83 188.335 Q2193.76 192.41 2193.76 199.578 Q2193.76 206.581 2191.98 210.399 Q2189.38 215.973 2183.64 215.973 Q2181.48 215.973 2179.28 214.873 Q2177.1 213.772 2175.72 211.125 Q2173.57 207.167 2173.57 199.578 M2177.55 198.992 Q2177.55 206.23 2178.06 209.111 Q2178.65 212.226 2180.24 213.584 Q2181.86 214.919 2183.64 214.919 Q2185.56 214.919 2187.15 213.491 Q2188.77 212.038 2189.26 208.923 Q2189.8 205.855 2189.77 198.992 Q2189.77 192.317 2189.3 189.647 Q2188.67 186.531 2186.99 185.29 Q2185.32 184.025 2183.64 184.025 Q2183 184.025 2182.33 184.213 Q2181.67 184.4 2180.71 184.939 Q2179.75 185.477 2179 186.812 Q2178.27 188.148 2177.92 190.162 Q2177.55 192.762 2177.55 198.992 Z" fill="#000000" fill-rule="evenodd" fill-opacity="1" /><path clip-path="url(#clip850)" d="M2198.04 214.146 Q2197.32 213.373 2197.32 212.366 Q2197.32 211.359 2198.04 210.633 Q2198.77 209.884 2199.87 209.884 Q2200.92 209.884 2201.62 210.586 Q2202.35 211.265 2202.35 212.39 Q2202.35 213.491 2201.58 214.217 Q2200.83 214.919 2199.87 214.919 Q2198.77 214.919 2198.04 214.146 Z" fill="#000000" fill-rule="evenodd" fill-opacity="1" /><path clip-path="url(#clip850)" d="M2210.51 214.919 Q2210.51 214.053 2210.58 213.795 Q2210.68 213.537 2211.05 213.139 L2220.26 202.88 Q2225.29 197.212 2225.29 192.27 Q2225.29 189.061 2223.61 186.766 Q2221.94 184.47 2218.87 184.47 Q2216.77 184.47 2214.99 185.758 Q2213.21 187.047 2212.39 189.342 Q2212.53 189.295 2213.02 189.295 Q2214.21 189.295 2214.87 190.045 Q2215.55 190.794 2215.55 191.801 Q2215.55 193.09 2214.7 193.722 Q2213.88 194.331 2213.07 194.331 Q2212.74 194.331 2212.29 194.261 Q2211.87 194.191 2211.19 193.535 Q2210.51 192.855 2210.51 191.661 Q2210.51 188.311 2213.04 185.641 Q2215.59 182.971 2219.48 182.971 Q2223.89 182.971 2226.77 185.594 Q2229.67 188.194 2229.67 192.27 Q2229.67 193.699 2229.23 195.01 Q2228.8 196.299 2228.22 197.306 Q2227.66 198.313 2226.11 199.929 Q2224.57 201.545 2223.32 202.693 Q2222.08 203.841 2219.3 206.276 L2214.21 211.219 L2222.86 211.219 Q2227.07 211.219 2227.4 210.844 Q2227.87 210.165 2228.45 206.581 L2229.67 206.581 L2228.31 214.919 L2210.51 214.919 Z" fill="#000000" fill-rule="evenodd" fill-opacity="1" /></svg>
