<?xml version="1.0" encoding="utf-8"?>
<svg xmlns="http://www.w3.org/2000/svg" xmlns:xlink="http://www.w3.org/1999/xlink" width="600" height="400" viewBox="0 0 2400 1600">
<defs>
  <clipPath id="clip090">
    <rect x="0" y="0" width="2400" height="1600"/>
  </clipPath>
</defs>
<path clip-path="url(#clip090)" d="
M0 1600 L2400 1600 L2400 0 L0 0  Z
  " fill="#ffffff" fill-rule="evenodd" fill-opacity="1"/>
<defs>
  <clipPath id="clip091">
    <rect x="480" y="0" width="1681" height="1600"/>
  </clipPath>
</defs>
<defs>
  <clipPath id="clip092">
    <rect x="219" y="47" width="2134" height="1377"/>
  </clipPath>
</defs>
<path clip-path="url(#clip090)" d="
M219.38 1423.18 L2352.76 1423.18 L2352.76 47.2441 L219.38 47.2441  Z
  " fill="#ffffff" fill-rule="evenodd" fill-opacity="1"/>
<polyline clip-path="url(#clip092)" style="stroke:#000000; stroke-linecap:butt; stroke-linejoin:round; stroke-width:2; stroke-opacity:0.1; fill:none" points="
  219.38,1423.18 219.38,47.2441 
  "/>
<polyline clip-path="url(#clip092)" style="stroke:#000000; stroke-linecap:butt; stroke-linejoin:round; stroke-width:2; stroke-opacity:0.1; fill:none" points="
  646.055,1423.18 646.055,47.2441 
  "/>
<polyline clip-path="url(#clip092)" style="stroke:#000000; stroke-linecap:butt; stroke-linejoin:round; stroke-width:2; stroke-opacity:0.1; fill:none" points="
  1072.73,1423.18 1072.73,47.2441 
  "/>
<polyline clip-path="url(#clip092)" style="stroke:#000000; stroke-linecap:butt; stroke-linejoin:round; stroke-width:2; stroke-opacity:0.1; fill:none" points="
  1499.41,1423.18 1499.41,47.2441 
  "/>
<polyline clip-path="url(#clip092)" style="stroke:#000000; stroke-linecap:butt; stroke-linejoin:round; stroke-width:2; stroke-opacity:0.1; fill:none" points="
  1926.08,1423.18 1926.08,47.2441 
  "/>
<polyline clip-path="url(#clip092)" style="stroke:#000000; stroke-linecap:butt; stroke-linejoin:round; stroke-width:2; stroke-opacity:0.1; fill:none" points="
  2352.76,1423.18 2352.76,47.2441 
  "/>
<polyline clip-path="url(#clip090)" style="stroke:#000000; stroke-linecap:butt; stroke-linejoin:round; stroke-width:4; stroke-opacity:1; fill:none" points="
  219.38,1423.18 2352.76,1423.18 
  "/>
<polyline clip-path="url(#clip090)" style="stroke:#000000; stroke-linecap:butt; stroke-linejoin:round; stroke-width:4; stroke-opacity:1; fill:none" points="
  219.38,1423.18 219.38,1404.28 
  "/>
<polyline clip-path="url(#clip090)" style="stroke:#000000; stroke-linecap:butt; stroke-linejoin:round; stroke-width:4; stroke-opacity:1; fill:none" points="
  646.055,1423.18 646.055,1404.28 
  "/>
<polyline clip-path="url(#clip090)" style="stroke:#000000; stroke-linecap:butt; stroke-linejoin:round; stroke-width:4; stroke-opacity:1; fill:none" points="
  1072.73,1423.18 1072.73,1404.28 
  "/>
<polyline clip-path="url(#clip090)" style="stroke:#000000; stroke-linecap:butt; stroke-linejoin:round; stroke-width:4; stroke-opacity:1; fill:none" points="
  1499.41,1423.18 1499.41,1404.28 
  "/>
<polyline clip-path="url(#clip090)" style="stroke:#000000; stroke-linecap:butt; stroke-linejoin:round; stroke-width:4; stroke-opacity:1; fill:none" points="
  1926.08,1423.18 1926.08,1404.28 
  "/>
<polyline clip-path="url(#clip090)" style="stroke:#000000; stroke-linecap:butt; stroke-linejoin:round; stroke-width:4; stroke-opacity:1; fill:none" points="
  2352.76,1423.18 2352.76,1404.28 
  "/>
<path clip-path="url(#clip090)" d="M196.765 1454.1 Q193.153 1454.1 191.325 1457.66 Q189.519 1461.2 189.519 1468.33 Q189.519 1475.44 191.325 1479.01 Q193.153 1482.55 196.765 1482.55 Q200.399 1482.55 202.204 1479.01 Q204.033 1475.44 204.033 1468.33 Q204.033 1461.2 202.204 1457.66 Q200.399 1454.1 196.765 1454.1 M196.765 1450.39 Q202.575 1450.39 205.63 1455 Q208.709 1459.58 208.709 1468.33 Q208.709 1477.06 205.63 1481.67 Q202.575 1486.25 196.765 1486.25 Q190.954 1486.25 187.876 1481.67 Q184.82 1477.06 184.82 1468.33 Q184.82 1459.58 187.876 1455 Q190.954 1450.39 196.765 1450.39 Z" fill="#000000" fill-rule="evenodd" fill-opacity="1" /><path clip-path="url(#clip090)" d="M216.926 1479.7 L221.811 1479.7 L221.811 1485.58 L216.926 1485.58 L216.926 1479.7 Z" fill="#000000" fill-rule="evenodd" fill-opacity="1" /><path clip-path="url(#clip090)" d="M241.996 1454.1 Q238.385 1454.1 236.556 1457.66 Q234.75 1461.2 234.75 1468.33 Q234.75 1475.44 236.556 1479.01 Q238.385 1482.55 241.996 1482.55 Q245.63 1482.55 247.436 1479.01 Q249.264 1475.44 249.264 1468.33 Q249.264 1461.2 247.436 1457.66 Q245.63 1454.1 241.996 1454.1 M241.996 1450.39 Q247.806 1450.39 250.861 1455 Q253.94 1459.58 253.94 1468.33 Q253.94 1477.06 250.861 1481.67 Q247.806 1486.25 241.996 1486.25 Q236.186 1486.25 233.107 1481.67 Q230.051 1477.06 230.051 1468.33 Q230.051 1459.58 233.107 1455 Q236.186 1450.39 241.996 1450.39 Z" fill="#000000" fill-rule="evenodd" fill-opacity="1" /><path clip-path="url(#clip090)" d="M624.238 1454.1 Q620.627 1454.1 618.799 1457.66 Q616.993 1461.2 616.993 1468.33 Q616.993 1475.44 618.799 1479.01 Q620.627 1482.55 624.238 1482.55 Q627.873 1482.55 629.678 1479.01 Q631.507 1475.44 631.507 1468.33 Q631.507 1461.2 629.678 1457.66 Q627.873 1454.1 624.238 1454.1 M624.238 1450.39 Q630.048 1450.39 633.104 1455 Q636.183 1459.58 636.183 1468.33 Q636.183 1477.06 633.104 1481.67 Q630.048 1486.25 624.238 1486.25 Q618.428 1486.25 615.349 1481.67 Q612.294 1477.06 612.294 1468.33 Q612.294 1459.58 615.349 1455 Q618.428 1450.39 624.238 1450.39 Z" fill="#000000" fill-rule="evenodd" fill-opacity="1" /><path clip-path="url(#clip090)" d="M644.4 1479.7 L649.284 1479.7 L649.284 1485.58 L644.4 1485.58 L644.4 1479.7 Z" fill="#000000" fill-rule="evenodd" fill-opacity="1" /><path clip-path="url(#clip090)" d="M663.497 1481.64 L679.817 1481.64 L679.817 1485.58 L657.872 1485.58 L657.872 1481.64 Q660.534 1478.89 665.118 1474.26 Q669.724 1469.61 670.905 1468.27 Q673.15 1465.74 674.03 1464.01 Q674.932 1462.25 674.932 1460.56 Q674.932 1457.8 672.988 1456.07 Q671.067 1454.33 667.965 1454.33 Q665.766 1454.33 663.312 1455.09 Q660.882 1455.86 658.104 1457.41 L658.104 1452.69 Q660.928 1451.55 663.382 1450.97 Q665.835 1450.39 667.872 1450.39 Q673.243 1450.39 676.437 1453.08 Q679.632 1455.77 679.632 1460.26 Q679.632 1462.39 678.821 1464.31 Q678.034 1466.2 675.928 1468.8 Q675.349 1469.47 672.247 1472.69 Q669.145 1475.88 663.497 1481.64 Z" fill="#000000" fill-rule="evenodd" fill-opacity="1" /><path clip-path="url(#clip090)" d="M1049.87 1454.1 Q1046.26 1454.1 1044.43 1457.66 Q1042.63 1461.2 1042.63 1468.33 Q1042.63 1475.44 1044.43 1479.01 Q1046.26 1482.55 1049.87 1482.55 Q1053.51 1482.55 1055.31 1479.01 Q1057.14 1475.44 1057.14 1468.33 Q1057.14 1461.2 1055.31 1457.66 Q1053.51 1454.1 1049.87 1454.1 M1049.87 1450.39 Q1055.68 1450.39 1058.74 1455 Q1061.82 1459.58 1061.82 1468.33 Q1061.82 1477.06 1058.74 1481.67 Q1055.68 1486.25 1049.87 1486.25 Q1044.06 1486.25 1040.98 1481.67 Q1037.93 1477.06 1037.93 1468.33 Q1037.93 1459.58 1040.98 1455 Q1044.06 1450.39 1049.87 1450.39 Z" fill="#000000" fill-rule="evenodd" fill-opacity="1" /><path clip-path="url(#clip090)" d="M1070.03 1479.7 L1074.92 1479.7 L1074.92 1485.58 L1070.03 1485.58 L1070.03 1479.7 Z" fill="#000000" fill-rule="evenodd" fill-opacity="1" /><path clip-path="url(#clip090)" d="M1097.95 1455.09 L1086.14 1473.54 L1097.95 1473.54 L1097.95 1455.09 M1096.72 1451.02 L1102.6 1451.02 L1102.6 1473.54 L1107.53 1473.54 L1107.53 1477.43 L1102.6 1477.43 L1102.6 1485.58 L1097.95 1485.58 L1097.95 1477.43 L1082.35 1477.43 L1082.35 1472.92 L1096.72 1451.02 Z" fill="#000000" fill-rule="evenodd" fill-opacity="1" /><path clip-path="url(#clip090)" d="M1476.71 1454.1 Q1473.1 1454.1 1471.27 1457.66 Q1469.46 1461.2 1469.46 1468.33 Q1469.46 1475.44 1471.27 1479.01 Q1473.1 1482.55 1476.71 1482.55 Q1480.34 1482.55 1482.15 1479.01 Q1483.98 1475.44 1483.98 1468.33 Q1483.98 1461.2 1482.15 1457.66 Q1480.34 1454.1 1476.71 1454.1 M1476.71 1450.39 Q1482.52 1450.39 1485.57 1455 Q1488.65 1459.58 1488.65 1468.33 Q1488.65 1477.06 1485.57 1481.67 Q1482.52 1486.25 1476.71 1486.25 Q1470.9 1486.25 1467.82 1481.67 Q1464.76 1477.06 1464.76 1468.33 Q1464.76 1459.58 1467.82 1455 Q1470.9 1450.39 1476.71 1450.39 Z" fill="#000000" fill-rule="evenodd" fill-opacity="1" /><path clip-path="url(#clip090)" d="M1496.87 1479.7 L1501.76 1479.7 L1501.76 1485.58 L1496.87 1485.58 L1496.87 1479.7 Z" fill="#000000" fill-rule="evenodd" fill-opacity="1" /><path clip-path="url(#clip090)" d="M1522.52 1466.44 Q1519.37 1466.44 1517.52 1468.59 Q1515.69 1470.74 1515.69 1474.49 Q1515.69 1478.22 1517.52 1480.39 Q1519.37 1482.55 1522.52 1482.55 Q1525.67 1482.55 1527.5 1480.39 Q1529.35 1478.22 1529.35 1474.49 Q1529.35 1470.74 1527.5 1468.59 Q1525.67 1466.44 1522.52 1466.44 M1531.8 1451.78 L1531.8 1456.04 Q1530.04 1455.21 1528.24 1454.77 Q1526.45 1454.33 1524.69 1454.33 Q1520.07 1454.33 1517.61 1457.45 Q1515.18 1460.58 1514.83 1466.9 Q1516.2 1464.89 1518.26 1463.82 Q1520.32 1462.73 1522.8 1462.73 Q1528 1462.73 1531.01 1465.9 Q1534.05 1469.05 1534.05 1474.49 Q1534.05 1479.82 1530.9 1483.03 Q1527.75 1486.25 1522.52 1486.25 Q1516.52 1486.25 1513.35 1481.67 Q1510.18 1477.06 1510.18 1468.33 Q1510.18 1460.14 1514.07 1455.28 Q1517.96 1450.39 1524.51 1450.39 Q1526.27 1450.39 1528.05 1450.74 Q1529.86 1451.09 1531.8 1451.78 Z" fill="#000000" fill-rule="evenodd" fill-opacity="1" /><path clip-path="url(#clip090)" d="M1903.51 1454.1 Q1899.9 1454.1 1898.07 1457.66 Q1896.27 1461.2 1896.27 1468.33 Q1896.27 1475.44 1898.07 1479.01 Q1899.9 1482.55 1903.51 1482.55 Q1907.15 1482.55 1908.95 1479.01 Q1910.78 1475.44 1910.78 1468.33 Q1910.78 1461.2 1908.95 1457.66 Q1907.15 1454.1 1903.51 1454.1 M1903.51 1450.39 Q1909.32 1450.39 1912.38 1455 Q1915.46 1459.58 1915.46 1468.33 Q1915.46 1477.06 1912.38 1481.67 Q1909.32 1486.25 1903.51 1486.25 Q1897.7 1486.25 1894.62 1481.67 Q1891.57 1477.06 1891.57 1468.33 Q1891.57 1459.58 1894.62 1455 Q1897.7 1450.39 1903.51 1450.39 Z" fill="#000000" fill-rule="evenodd" fill-opacity="1" /><path clip-path="url(#clip090)" d="M1923.67 1479.7 L1928.56 1479.7 L1928.56 1485.58 L1923.67 1485.58 L1923.67 1479.7 Z" fill="#000000" fill-rule="evenodd" fill-opacity="1" /><path clip-path="url(#clip090)" d="M1948.74 1469.17 Q1945.41 1469.17 1943.49 1470.95 Q1941.59 1472.73 1941.59 1475.86 Q1941.59 1478.98 1943.49 1480.77 Q1945.41 1482.55 1948.74 1482.55 Q1952.08 1482.55 1954 1480.77 Q1955.92 1478.96 1955.92 1475.86 Q1955.92 1472.73 1954 1470.95 Q1952.1 1469.17 1948.74 1469.17 M1944.07 1467.18 Q1941.06 1466.44 1939.37 1464.38 Q1937.7 1462.32 1937.7 1459.35 Q1937.7 1455.21 1940.64 1452.8 Q1943.6 1450.39 1948.74 1450.39 Q1953.9 1450.39 1956.84 1452.8 Q1959.78 1455.21 1959.78 1459.35 Q1959.78 1462.32 1958.09 1464.38 Q1956.43 1466.44 1953.44 1467.18 Q1956.82 1467.96 1958.7 1470.26 Q1960.59 1472.55 1960.59 1475.86 Q1960.59 1480.88 1957.52 1483.57 Q1954.46 1486.25 1948.74 1486.25 Q1943.03 1486.25 1939.95 1483.57 Q1936.89 1480.88 1936.89 1475.86 Q1936.89 1472.55 1938.79 1470.26 Q1940.69 1467.96 1944.07 1467.18 M1942.35 1459.79 Q1942.35 1462.48 1944.02 1463.98 Q1945.71 1465.49 1948.74 1465.49 Q1951.75 1465.49 1953.44 1463.98 Q1955.15 1462.48 1955.15 1459.79 Q1955.15 1457.11 1953.44 1455.6 Q1951.75 1454.1 1948.74 1454.1 Q1945.71 1454.1 1944.02 1455.6 Q1942.35 1457.11 1942.35 1459.79 Z" fill="#000000" fill-rule="evenodd" fill-opacity="1" /><path clip-path="url(#clip090)" d="M2319.91 1481.64 L2327.55 1481.64 L2327.55 1455.28 L2319.24 1456.95 L2319.24 1452.69 L2327.5 1451.02 L2332.18 1451.02 L2332.18 1481.64 L2339.82 1481.64 L2339.82 1485.58 L2319.91 1485.58 L2319.91 1481.64 Z" fill="#000000" fill-rule="evenodd" fill-opacity="1" /><path clip-path="url(#clip090)" d="M2349.26 1479.7 L2354.14 1479.7 L2354.14 1485.58 L2349.26 1485.58 L2349.26 1479.7 Z" fill="#000000" fill-rule="evenodd" fill-opacity="1" /><path clip-path="url(#clip090)" d="M2374.33 1454.1 Q2370.72 1454.1 2368.89 1457.66 Q2367.08 1461.2 2367.08 1468.33 Q2367.08 1475.44 2368.89 1479.01 Q2370.72 1482.55 2374.33 1482.55 Q2377.96 1482.55 2379.77 1479.01 Q2381.6 1475.44 2381.6 1468.33 Q2381.6 1461.2 2379.77 1457.66 Q2377.96 1454.1 2374.33 1454.1 M2374.33 1450.39 Q2380.14 1450.39 2383.2 1455 Q2386.27 1459.58 2386.27 1468.33 Q2386.27 1477.06 2383.2 1481.67 Q2380.14 1486.25 2374.33 1486.25 Q2368.52 1486.25 2365.44 1481.67 Q2362.39 1477.06 2362.39 1468.33 Q2362.39 1459.58 2365.44 1455 Q2368.52 1450.39 2374.33 1450.39 Z" fill="#000000" fill-rule="evenodd" fill-opacity="1" /><path clip-path="url(#clip090)" d="M1298 1545.85 Q1298 1551.26 1296.26 1557.35 Q1294.56 1563.4 1291.85 1568.3 Q1289.15 1573.16 1285.6 1576.38 Q1282.06 1579.57 1278.68 1579.57 Q1276.52 1579.57 1274.91 1578.38 Q1273.33 1577.15 1272.46 1575.12 Q1271.59 1573.06 1271.18 1570.81 Q1270.76 1568.52 1270.76 1566.04 Q1270.76 1562.34 1271.56 1558.31 Q1272.37 1554.25 1273.72 1550.58 Q1275.07 1546.88 1276.97 1543.53 Q1278.87 1540.15 1280.97 1537.7 Q1283.09 1535.22 1285.47 1533.77 Q1287.86 1532.32 1290.08 1532.32 Q1291.69 1532.32 1292.98 1533.03 Q1294.3 1533.71 1295.14 1534.9 Q1295.97 1536.06 1296.55 1537.44 Q1297.17 1538.83 1297.46 1540.44 Q1297.75 1542.02 1297.87 1543.34 Q1298 1544.63 1298 1545.85 M1293.66 1541.76 Q1293.66 1540.12 1293.53 1538.89 Q1293.4 1537.64 1293.04 1536.38 Q1292.69 1535.12 1291.92 1534.45 Q1291.18 1533.77 1290.02 1533.77 Q1286.63 1533.77 1282.83 1540.7 Q1281.61 1542.85 1280.52 1545.78 Q1279.42 1548.72 1279.03 1550.1 Q1278.65 1551.49 1277.75 1554.9 L1291.53 1554.9 Q1293.66 1546.11 1293.66 1541.76 M1290.95 1556.99 L1277.23 1556.99 Q1275.1 1565.04 1275.1 1570.07 Q1275.1 1574.45 1276.01 1576.28 Q1276.94 1578.09 1278.68 1578.09 Q1280.68 1578.09 1282.54 1576.09 Q1284.41 1574.06 1286.31 1570.39 Q1288.82 1565.62 1290.95 1556.99 Z" fill="#000000" fill-rule="evenodd" fill-opacity="1" /><polyline clip-path="url(#clip092)" style="stroke:#000000; stroke-linecap:butt; stroke-linejoin:round; stroke-width:2; stroke-opacity:0.1; fill:none" points="
  219.38,1384.24 2352.76,1384.24 
  "/>
<polyline clip-path="url(#clip092)" style="stroke:#000000; stroke-linecap:butt; stroke-linejoin:round; stroke-width:2; stroke-opacity:0.1; fill:none" points="
  219.38,1019.15 2352.76,1019.15 
  "/>
<polyline clip-path="url(#clip092)" style="stroke:#000000; stroke-linecap:butt; stroke-linejoin:round; stroke-width:2; stroke-opacity:0.1; fill:none" points="
  219.38,654.07 2352.76,654.07 
  "/>
<polyline clip-path="url(#clip092)" style="stroke:#000000; stroke-linecap:butt; stroke-linejoin:round; stroke-width:2; stroke-opacity:0.1; fill:none" points="
  219.38,288.986 2352.76,288.986 
  "/>
<polyline clip-path="url(#clip090)" style="stroke:#000000; stroke-linecap:butt; stroke-linejoin:round; stroke-width:4; stroke-opacity:1; fill:none" points="
  219.38,1423.18 219.38,47.2441 
  "/>
<polyline clip-path="url(#clip090)" style="stroke:#000000; stroke-linecap:butt; stroke-linejoin:round; stroke-width:4; stroke-opacity:1; fill:none" points="
  219.38,1384.24 238.278,1384.24 
  "/>
<polyline clip-path="url(#clip090)" style="stroke:#000000; stroke-linecap:butt; stroke-linejoin:round; stroke-width:4; stroke-opacity:1; fill:none" points="
  219.38,1019.15 238.278,1019.15 
  "/>
<polyline clip-path="url(#clip090)" style="stroke:#000000; stroke-linecap:butt; stroke-linejoin:round; stroke-width:4; stroke-opacity:1; fill:none" points="
  219.38,654.07 238.278,654.07 
  "/>
<polyline clip-path="url(#clip090)" style="stroke:#000000; stroke-linecap:butt; stroke-linejoin:round; stroke-width:4; stroke-opacity:1; fill:none" points="
  219.38,288.986 238.278,288.986 
  "/>
<path clip-path="url(#clip090)" d="M126.205 1370.04 Q122.593 1370.04 120.765 1373.6 Q118.959 1377.14 118.959 1384.27 Q118.959 1391.38 120.765 1394.94 Q122.593 1398.49 126.205 1398.49 Q129.839 1398.49 131.644 1394.94 Q133.473 1391.38 133.473 1384.27 Q133.473 1377.14 131.644 1373.6 Q129.839 1370.04 126.205 1370.04 M126.205 1366.33 Q132.015 1366.33 135.07 1370.94 Q138.149 1375.52 138.149 1384.27 Q138.149 1393 135.07 1397.61 Q132.015 1402.19 126.205 1402.19 Q120.394 1402.19 117.316 1397.61 Q114.26 1393 114.26 1384.27 Q114.26 1375.52 117.316 1370.94 Q120.394 1366.33 126.205 1366.33 Z" fill="#000000" fill-rule="evenodd" fill-opacity="1" /><path clip-path="url(#clip090)" d="M146.366 1395.64 L151.251 1395.64 L151.251 1401.52 L146.366 1401.52 L146.366 1395.64 Z" fill="#000000" fill-rule="evenodd" fill-opacity="1" /><path clip-path="url(#clip090)" d="M171.436 1370.04 Q167.825 1370.04 165.996 1373.6 Q164.19 1377.14 164.19 1384.27 Q164.19 1391.38 165.996 1394.94 Q167.825 1398.49 171.436 1398.49 Q175.07 1398.49 176.876 1394.94 Q178.704 1391.38 178.704 1384.27 Q178.704 1377.14 176.876 1373.6 Q175.07 1370.04 171.436 1370.04 M171.436 1366.33 Q177.246 1366.33 180.301 1370.94 Q183.38 1375.52 183.38 1384.27 Q183.38 1393 180.301 1397.61 Q177.246 1402.19 171.436 1402.19 Q165.626 1402.19 162.547 1397.61 Q159.491 1393 159.491 1384.27 Q159.491 1375.52 162.547 1370.94 Q165.626 1366.33 171.436 1366.33 Z" fill="#000000" fill-rule="evenodd" fill-opacity="1" /><path clip-path="url(#clip090)" d="M127.2 1004.95 Q123.589 1004.95 121.76 1008.52 Q119.955 1012.06 119.955 1019.19 Q119.955 1026.3 121.76 1029.86 Q123.589 1033.4 127.2 1033.4 Q130.834 1033.4 132.64 1029.86 Q134.468 1026.3 134.468 1019.19 Q134.468 1012.06 132.64 1008.52 Q130.834 1004.95 127.2 1004.95 M127.2 1001.25 Q133.01 1001.25 136.066 1005.86 Q139.144 1010.44 139.144 1019.19 Q139.144 1027.92 136.066 1032.52 Q133.01 1037.11 127.2 1037.11 Q121.39 1037.11 118.311 1032.52 Q115.256 1027.92 115.256 1019.19 Q115.256 1010.44 118.311 1005.86 Q121.39 1001.25 127.2 1001.25 Z" fill="#000000" fill-rule="evenodd" fill-opacity="1" /><path clip-path="url(#clip090)" d="M147.362 1030.55 L152.246 1030.55 L152.246 1036.43 L147.362 1036.43 L147.362 1030.55 Z" fill="#000000" fill-rule="evenodd" fill-opacity="1" /><path clip-path="url(#clip090)" d="M162.477 1001.87 L180.834 1001.87 L180.834 1005.81 L166.76 1005.81 L166.76 1014.28 Q167.778 1013.93 168.797 1013.77 Q169.815 1013.59 170.834 1013.59 Q176.621 1013.59 180.001 1016.76 Q183.38 1019.93 183.38 1025.35 Q183.38 1030.93 179.908 1034.03 Q176.436 1037.11 170.116 1037.11 Q167.94 1037.11 165.672 1036.74 Q163.427 1036.36 161.019 1035.62 L161.019 1030.93 Q163.102 1032.06 165.325 1032.61 Q167.547 1033.17 170.024 1033.17 Q174.028 1033.17 176.366 1031.06 Q178.704 1028.96 178.704 1025.35 Q178.704 1021.74 176.366 1019.63 Q174.028 1017.52 170.024 1017.52 Q168.149 1017.52 166.274 1017.94 Q164.422 1018.36 162.477 1019.24 L162.477 1001.87 Z" fill="#000000" fill-rule="evenodd" fill-opacity="1" /><path clip-path="url(#clip090)" d="M117.015 667.415 L124.654 667.415 L124.654 641.05 L116.343 642.716 L116.343 638.457 L124.607 636.79 L129.283 636.79 L129.283 667.415 L136.922 667.415 L136.922 671.35 L117.015 671.35 L117.015 667.415 Z" fill="#000000" fill-rule="evenodd" fill-opacity="1" /><path clip-path="url(#clip090)" d="M146.366 665.471 L151.251 665.471 L151.251 671.35 L146.366 671.35 L146.366 665.471 Z" fill="#000000" fill-rule="evenodd" fill-opacity="1" /><path clip-path="url(#clip090)" d="M171.436 639.869 Q167.825 639.869 165.996 643.434 Q164.19 646.975 164.19 654.105 Q164.19 661.211 165.996 664.776 Q167.825 668.318 171.436 668.318 Q175.07 668.318 176.876 664.776 Q178.704 661.211 178.704 654.105 Q178.704 646.975 176.876 643.434 Q175.07 639.869 171.436 639.869 M171.436 636.165 Q177.246 636.165 180.301 640.772 Q183.38 645.355 183.38 654.105 Q183.38 662.832 180.301 667.438 Q177.246 672.022 171.436 672.022 Q165.626 672.022 162.547 667.438 Q159.491 662.832 159.491 654.105 Q159.491 645.355 162.547 640.772 Q165.626 636.165 171.436 636.165 Z" fill="#000000" fill-rule="evenodd" fill-opacity="1" /><path clip-path="url(#clip090)" d="M118.01 302.331 L125.649 302.331 L125.649 275.966 L117.339 277.632 L117.339 273.373 L125.603 271.706 L130.279 271.706 L130.279 302.331 L137.917 302.331 L137.917 306.266 L118.01 306.266 L118.01 302.331 Z" fill="#000000" fill-rule="evenodd" fill-opacity="1" /><path clip-path="url(#clip090)" d="M147.362 300.387 L152.246 300.387 L152.246 306.266 L147.362 306.266 L147.362 300.387 Z" fill="#000000" fill-rule="evenodd" fill-opacity="1" /><path clip-path="url(#clip090)" d="M162.477 271.706 L180.834 271.706 L180.834 275.642 L166.76 275.642 L166.76 284.114 Q167.778 283.766 168.797 283.604 Q169.815 283.419 170.834 283.419 Q176.621 283.419 180.001 286.591 Q183.38 289.762 183.38 295.178 Q183.38 300.757 179.908 303.859 Q176.436 306.938 170.116 306.938 Q167.94 306.938 165.672 306.567 Q163.427 306.197 161.019 305.456 L161.019 300.757 Q163.102 301.891 165.325 302.447 Q167.547 303.002 170.024 303.002 Q174.028 303.002 176.366 300.896 Q178.704 298.79 178.704 295.178 Q178.704 291.567 176.366 289.461 Q174.028 287.354 170.024 287.354 Q168.149 287.354 166.274 287.771 Q164.422 288.188 162.477 289.067 L162.477 271.706 Z" fill="#000000" fill-rule="evenodd" fill-opacity="1" /><path clip-path="url(#clip090)" d="M21.7677 848.522 L58.7206 848.522 L58.7206 840.755 Q58.7206 830.92 54.2646 826.369 Q49.8086 821.786 40.1964 821.786 Q30.6479 821.786 26.2237 826.369 Q21.7677 830.92 21.7677 840.755 L21.7677 848.522 M16.4842 854.951 L16.4842 841.742 Q16.4842 827.928 22.2451 821.467 Q27.9743 815.006 40.1964 815.006 Q52.4822 815.006 58.2432 821.499 Q64.0042 827.992 64.0042 841.742 L64.0042 854.951 L16.4842 854.951 Z" fill="#000000" fill-rule="evenodd" fill-opacity="1" /><path clip-path="url(#clip090)" d="M44.7161 774.52 L47.5806 774.52 L47.5806 801.447 Q53.6281 801.065 56.8109 797.819 Q59.9619 794.54 59.9619 788.716 Q59.9619 785.342 59.1344 782.191 Q58.3069 779.008 56.6518 775.889 L62.1899 775.889 Q63.5267 779.04 64.227 782.35 Q64.9272 785.66 64.9272 789.066 Q64.9272 797.596 59.9619 802.593 Q54.9967 807.558 46.5303 807.558 Q37.7774 807.558 32.6531 802.848 Q27.4968 798.105 27.4968 790.084 Q27.4968 782.891 32.1438 778.722 Q36.7589 774.52 44.7161 774.52 M42.9973 780.377 Q38.1912 780.44 35.3266 783.082 Q32.4621 785.692 32.4621 790.021 Q32.4621 794.922 35.2312 797.882 Q38.0002 800.811 43.0292 801.256 L42.9973 780.377 Z" fill="#000000" fill-rule="evenodd" fill-opacity="1" /><path clip-path="url(#clip090)" d="M42.4881 735.276 L64.0042 735.276 L64.0042 741.132 L42.679 741.132 Q37.6183 741.132 35.1038 743.105 Q32.5894 745.079 32.5894 749.026 Q32.5894 753.768 35.6131 756.505 Q38.6368 759.243 43.8567 759.243 L64.0042 759.243 L64.0042 765.131 L28.3562 765.131 L28.3562 759.243 L33.8944 759.243 Q30.6797 757.142 29.0883 754.309 Q27.4968 751.445 27.4968 747.721 Q27.4968 741.578 31.3163 738.427 Q35.1038 735.276 42.4881 735.276 Z" fill="#000000" fill-rule="evenodd" fill-opacity="1" /><path clip-path="url(#clip090)" d="M29.4065 700.869 L34.9447 700.869 Q33.6716 703.352 33.035 706.025 Q32.3984 708.699 32.3984 711.563 Q32.3984 715.924 33.7352 718.12 Q35.072 720.284 37.7456 720.284 Q39.7826 720.284 40.9603 718.725 Q42.1061 717.165 43.1565 712.455 L43.6021 710.449 Q44.9389 704.211 47.3897 701.601 Q49.8086 698.959 54.1691 698.959 Q59.1344 698.959 62.0308 702.906 Q64.9272 706.821 64.9272 713.696 Q64.9272 716.56 64.3543 719.68 Q63.8132 722.767 62.6992 726.204 L56.6518 726.204 Q58.3387 722.958 59.198 719.807 Q60.0256 716.656 60.0256 713.569 Q60.0256 709.431 58.6251 707.203 Q57.1929 704.975 54.6147 704.975 Q52.2276 704.975 50.9545 706.598 Q49.6813 708.19 48.5037 713.632 L48.0262 715.669 Q46.8804 721.112 44.5251 723.531 Q42.138 725.95 38.0002 725.95 Q32.9713 725.95 30.2341 722.385 Q27.4968 718.82 27.4968 712.264 Q27.4968 709.017 27.9743 706.153 Q28.4517 703.288 29.4065 700.869 Z" fill="#000000" fill-rule="evenodd" fill-opacity="1" /><path clip-path="url(#clip090)" d="M28.3562 689.634 L28.3562 683.777 L64.0042 683.777 L64.0042 689.634 L28.3562 689.634 M14.479 689.634 L14.479 683.777 L21.895 683.777 L21.895 689.634 L14.479 689.634 Z" fill="#000000" fill-rule="evenodd" fill-opacity="1" /><path clip-path="url(#clip090)" d="M18.2347 665.73 L28.3562 665.73 L28.3562 653.667 L32.9077 653.667 L32.9077 665.73 L52.2594 665.73 Q56.6199 665.73 57.8613 664.553 Q59.1026 663.343 59.1026 659.683 L59.1026 653.667 L64.0042 653.667 L64.0042 659.683 Q64.0042 666.462 61.4897 669.04 Q58.9434 671.619 52.2594 671.619 L32.9077 671.619 L32.9077 675.915 L28.3562 675.915 L28.3562 671.619 L18.2347 671.619 L18.2347 665.73 Z" fill="#000000" fill-rule="evenodd" fill-opacity="1" /><path clip-path="url(#clip090)" d="M67.3143 631.133 Q73.68 633.615 75.6216 635.971 Q77.5631 638.326 77.5631 642.273 L77.5631 646.951 L72.6615 646.951 L72.6615 643.514 Q72.6615 641.095 71.5157 639.758 Q70.3699 638.421 66.1048 636.798 L63.4312 635.748 L28.3562 650.166 L28.3562 643.96 L56.238 632.82 L28.3562 621.68 L28.3562 615.473 L67.3143 631.133 Z" fill="#000000" fill-rule="evenodd" fill-opacity="1" /><polyline clip-path="url(#clip092)" style="stroke:#009af9; stroke-linecap:butt; stroke-linejoin:round; stroke-width:20; stroke-opacity:1; fill:none" points="
  219.38,654.07 233.27,654.07 361.698,654.07 438.877,654.07 504.132,654.07 575.017,654.07 640.366,654.07 710.428,654.07 791.601,654.07 863.738,654.07 
  926.996,654.07 995.964,654.07 1065.34,654.07 1142.05,654.07 1215.03,654.07 1290.92,654.07 1354.8,654.07 1432.79,654.07 1504.23,654.07 1570.22,654.07 
  1637.06,654.07 1711.97,654.07 1779.84,654.07 1857.56,654.07 1929.52,654.07 2000.46,654.07 2069.35,654.07 2139.96,654.07 2217.32,654.07 2329.7,654.07 
  2352.76,654.07 
  "/>
<polyline clip-path="url(#clip092)" style="stroke:#e26f46; stroke-linecap:butt; stroke-linejoin:round; stroke-width:20; stroke-opacity:1; fill:none" points="
  219.38,1384.24 222.853,1384.22 226.325,1384.15 229.797,1384.03 233.27,1383.87 265.377,1380.25 297.484,1372.92 313.537,1367.92 329.591,1362.06 345.644,1355.36 
  361.698,1347.85 380.992,1337.76 400.287,1326.58 419.582,1314.32 438.877,1301.03 471.505,1276.32 504.132,1248.97 539.574,1216.49 575.017,1181.34 607.691,1146.79 
  640.366,1110.37 675.397,1069.47 710.428,1026.88 751.014,975.712 791.601,922.947 863.738,826.339 926.996,740.005 995.964,645.838 1065.34,552.817 1103.69,502.785 
  1142.05,454.133 1178.54,409.402 1215.03,366.459 1252.97,323.987 1290.92,284.029 1322.86,252.559 1354.8,223.256 1374.3,206.509 1393.79,190.675 1413.29,175.795 
  1432.79,161.909 1450.65,150.094 1468.51,139.178 1486.37,129.192 1504.23,120.165 1520.73,112.708 1537.22,106.12 1553.72,100.427 1570.22,95.6516 1586.93,91.7753 
  1603.64,88.8915 1620.35,87.0253 1637.06,86.2021 1655.78,86.5501 1674.51,88.2753 1693.24,91.4133 1711.97,95.9996 1728.94,101.436 1745.91,108.118 1762.87,116.071 
  1779.84,125.321 1799.27,137.541 1818.7,151.535 1838.13,167.346 1857.56,185.011 1875.55,203.056 1893.54,222.758 1911.53,244.146 1929.52,267.254 1947.26,291.749 
  1964.99,317.976 1982.73,345.965 2000.46,375.746 2017.68,406.404 2034.9,438.807 2052.12,472.984 2069.35,508.961 2087,547.741 2104.65,588.472 2122.3,631.184 
  2139.96,675.907 2159.3,727.25 2178.64,781.082 2197.98,837.441 2217.32,896.368 2231.37,940.8 2245.41,986.622 2259.46,1033.85 2273.51,1082.5 2287.56,1132.58 
  2301.61,1184.11 2315.65,1237.11 2329.7,1291.58 2335.46,1314.37 2341.23,1337.4 2346.99,1360.69 2352.76,1384.24 
  "/>
<polyline clip-path="url(#clip092)" style="stroke:#3da44d; stroke-linecap:butt; stroke-linejoin:round; stroke-width:20; stroke-opacity:1; fill:none" points="
  219.38,1384.24 222.853,1370.02 226.325,1355.9 229.797,1341.87 233.27,1327.93 249.323,1264.69 265.377,1203.38 281.43,1144 297.484,1086.52 313.537,1030.91 
  329.591,977.151 345.644,925.226 361.698,875.109 380.992,817.234 400.287,761.901 419.582,709.069 438.877,658.701 455.191,618.009 471.505,579.026 487.818,541.729 
  504.132,506.095 521.853,469.242 539.574,434.294 557.296,401.22 575.017,369.99 591.354,342.805 607.691,317.139 624.029,292.966 640.366,270.265 657.882,247.533 
  675.397,226.435 692.912,206.942 710.428,189.025 730.721,170.199 751.014,153.404 771.308,138.594 791.601,125.726 809.635,115.881 827.669,107.502 845.704,100.557 
  863.738,95.0127 879.552,91.2794 895.367,88.5781 911.181,86.8873 926.996,86.1857 944.238,86.5226 961.48,87.9821 978.722,90.5364 995.964,94.1578 1013.31,98.8492 
  1030.65,104.564 1048,111.274 1065.34,118.951 1084.52,128.53 1103.69,139.219 1122.87,150.978 1142.05,163.771 1160.29,176.867 1178.54,190.83 1196.79,205.628 
  1215.03,221.228 1252.97,256.094 1290.92,293.989 1322.86,328.019 1354.8,363.811 1393.79,409.639 1432.79,457.507 1468.51,502.874 1504.23,549.437 1570.22,637.76 
  1637.06,728.938 1711.97,831.177 1779.84,922.038 1818.7,972.609 1857.56,1021.73 1893.54,1065.65 1929.52,1107.8 1964.99,1147.38 2000.46,1184.76 2034.9,1218.72 
  2069.35,1250.15 2104.65,1279.51 2139.96,1305.76 2159.3,1318.72 2178.64,1330.64 2197.98,1341.46 2217.32,1351.17 2245.41,1363.17 2273.51,1372.6 2301.61,1379.32 
  2329.7,1383.23 2335.46,1383.67 2341.23,1383.98 2346.99,1384.17 2352.76,1384.24 
  "/>
<path clip-path="url(#clip090)" d="
M1803.75 300.469 L2281.64 300.469 L2281.64 93.1086 L1803.75 93.1086  Z
  " fill="#ffffff" fill-rule="evenodd" fill-opacity="1"/>
<polyline clip-path="url(#clip090)" style="stroke:#000000; stroke-linecap:butt; stroke-linejoin:round; stroke-width:4; stroke-opacity:1; fill:none" points="
  1803.75,300.469 2281.64,300.469 2281.64,93.1086 1803.75,93.1086 1803.75,300.469 
  "/>
<polyline clip-path="url(#clip090)" style="stroke:#009af9; stroke-linecap:butt; stroke-linejoin:round; stroke-width:4; stroke-opacity:1; fill:none" points="
  1827.46,144.949 1969.68,144.949 
  "/>
<path clip-path="url(#clip090)" d="M2015.36 161.209 Q2014.72 164.23 2013.9 165.964 Q2012.59 168.61 2010.37 168.61 Q2008.68 168.61 2007.49 167.58 Q2006.29 166.549 2006.01 165.003 Q2002.94 168.61 1999.76 168.61 Q1996.95 168.61 1995.17 166.479 Q1993.39 164.324 1993.39 160.928 Q1993.39 157.508 1995.07 154.229 Q1996.78 150.95 1999.48 148.912 Q2002.17 146.874 2004.93 146.874 Q2007.86 146.874 2009.36 149.943 Q2009.48 149.099 2010.02 148.467 Q2010.56 147.835 2011.38 147.835 Q2012.01 147.835 2012.38 148.186 Q2012.76 148.514 2012.76 149.123 Q2012.76 149.427 2012.43 150.762 L2010.7 157.461 L2009.64 161.794 Q2009.24 163.387 2009.13 163.973 Q2009.03 164.558 2009.03 165.331 Q2009.03 167.533 2010.46 167.533 Q2011.16 167.533 2011.73 167.088 Q2012.29 166.643 2012.73 165.706 Q2013.18 164.769 2013.46 163.902 Q2013.74 163.012 2014.12 161.607 Q2014.23 161.045 2014.33 160.904 Q2014.44 160.74 2014.77 160.74 Q2015.36 160.74 2015.36 161.209 M2008.78 152.144 Q2008.78 151.933 2008.61 151.348 Q2008.45 150.762 2008.07 149.943 Q2007.7 149.123 2006.88 148.537 Q2006.08 147.928 2005 147.928 Q2003.55 147.928 2002.03 149.17 Q2000.53 150.411 1999.43 152.519 Q1998.59 154.205 1997.67 157.742 Q1996.78 161.279 1996.78 163.036 Q1996.78 164.113 1997.02 165.073 Q1997.27 166.01 1998 166.783 Q1998.73 167.533 1999.85 167.533 Q2002.59 167.533 2005.29 164.137 Q2005.8 163.551 2005.92 163.317 Q2006.06 163.059 2006.25 162.356 L2008.63 152.964 Q2008.78 152.261 2008.78 152.144 Z" fill="#000000" fill-rule="evenodd" fill-opacity="1" /><path clip-path="url(#clip090)" d="M2031.81 160.787 Q2031.86 160.202 2032.77 160.202 L2062.17 160.202 Q2063.55 160.202 2063.57 160.74 Q2063.57 161.326 2062.26 161.302 L2033.1 161.302 Q2031.81 161.326 2031.81 160.787 M2031.81 151.418 Q2031.81 150.833 2032.82 150.856 L2062.12 150.856 Q2063.55 150.856 2063.57 151.418 Q2063.57 151.957 2062.35 151.957 L2032.77 151.957 Q2031.81 151.957 2031.81 151.418 Z" fill="#000000" fill-rule="evenodd" fill-opacity="1" /><path clip-path="url(#clip090)" d="M2099.72 154.533 Q2099.72 157.906 2098.01 161.209 Q2096.33 164.488 2093.61 166.549 Q2090.92 168.61 2088.15 168.61 Q2085.46 168.61 2083.75 166.549 Q2082.06 164.465 2082.06 161.068 Q2082.06 159.874 2082.2 159.03 Q2082.34 158.187 2082.83 156.22 L2086.77 140.574 Q2087.45 137.646 2087.45 137.622 Q2087.45 137.341 2087.33 137.201 Q2087.24 137.037 2086.68 136.92 Q2086.11 136.803 2085.04 136.803 Q2084.59 136.803 2084.38 136.779 Q2084.19 136.756 2084.03 136.639 Q2083.89 136.498 2083.89 136.217 Q2083.89 135.819 2084.05 135.608 Q2084.24 135.374 2084.38 135.327 Q2084.52 135.28 2084.8 135.257 Q2085.2 135.233 2086.54 135.116 Q2087.87 134.976 2089.02 134.882 Q2090.17 134.788 2090.66 134.788 Q2090.94 134.788 2091.08 134.929 Q2091.24 135.046 2091.24 135.186 L2091.27 135.304 L2087.73 149.755 Q2090.52 146.874 2093.35 146.874 Q2096.19 146.874 2097.94 149.053 Q2099.72 151.231 2099.72 154.533 M2096.26 152.425 Q2096.26 150.2 2095.41 149.076 Q2094.59 147.928 2093.23 147.928 Q2092.09 147.928 2090.59 148.795 Q2089.09 149.662 2087.5 151.77 Q2087.19 152.168 2087.07 152.402 Q2086.98 152.636 2086.77 153.433 L2085.72 157.859 Q2084.94 160.881 2084.94 162.708 Q2084.94 165.191 2085.86 166.362 Q2086.77 167.533 2088.15 167.533 Q2089.6 167.533 2091.13 166.245 Q2092.65 164.956 2093.82 162.614 Q2094.55 161.068 2095.39 157.742 Q2096.26 154.393 2096.26 152.425 Z" fill="#000000" fill-rule="evenodd" fill-opacity="1" /><path clip-path="url(#clip090)" d="M2115.73 160.787 Q2115.78 160.202 2116.69 160.202 L2146.09 160.202 Q2147.47 160.202 2147.49 160.74 Q2147.49 161.326 2146.18 161.302 L2117.02 161.302 Q2115.73 161.326 2115.73 160.787 M2115.73 151.418 Q2115.73 150.833 2116.74 150.856 L2146.04 150.856 Q2147.47 150.856 2147.49 151.418 Q2147.49 151.957 2146.27 151.957 L2116.69 151.957 Q2115.73 151.957 2115.73 151.418 Z" fill="#000000" fill-rule="evenodd" fill-opacity="1" /><path clip-path="url(#clip090)" d="M2165.98 140.691 L2165.98 139.192 Q2171.74 139.192 2174.72 136.123 Q2175.54 136.123 2175.68 136.311 Q2175.82 136.498 2175.82 137.365 L2175.82 164.277 Q2175.82 165.706 2176.52 166.151 Q2177.22 166.596 2180.29 166.596 L2181.82 166.596 L2181.82 168.072 Q2180.13 167.931 2174.04 167.931 Q2167.95 167.931 2166.29 168.072 L2166.29 166.596 L2167.81 166.596 Q2170.83 166.596 2171.56 166.174 Q2172.28 165.729 2172.28 164.277 L2172.28 139.426 Q2169.78 140.691 2165.98 140.691 Z" fill="#000000" fill-rule="evenodd" fill-opacity="1" /><polyline clip-path="url(#clip090)" style="stroke:#e26f46; stroke-linecap:butt; stroke-linejoin:round; stroke-width:4; stroke-opacity:1; fill:none" points="
  1827.46,196.789 1969.68,196.789 
  "/>
<path clip-path="url(#clip090)" d="M2015.36 208.736 Q2014.72 211.758 2013.9 213.491 Q2012.59 216.138 2010.37 216.138 Q2008.68 216.138 2007.49 215.107 Q2006.29 214.077 2006.01 212.531 Q2002.94 216.138 1999.76 216.138 Q1996.95 216.138 1995.17 214.006 Q1993.39 211.851 1993.39 208.455 Q1993.39 205.036 1995.07 201.756 Q1996.78 198.477 1999.48 196.439 Q2002.17 194.402 2004.93 194.402 Q2007.86 194.402 2009.36 197.47 Q2009.48 196.627 2010.02 195.994 Q2010.56 195.362 2011.38 195.362 Q2012.01 195.362 2012.38 195.713 Q2012.76 196.041 2012.76 196.65 Q2012.76 196.955 2012.43 198.29 L2010.7 204.989 L2009.64 209.322 Q2009.24 210.915 2009.13 211.5 Q2009.03 212.086 2009.03 212.859 Q2009.03 215.06 2010.46 215.06 Q2011.16 215.06 2011.73 214.615 Q2012.29 214.17 2012.73 213.233 Q2013.18 212.296 2013.46 211.43 Q2013.74 210.54 2014.12 209.134 Q2014.23 208.572 2014.33 208.432 Q2014.44 208.268 2014.77 208.268 Q2015.36 208.268 2015.36 208.736 M2008.78 199.672 Q2008.78 199.461 2008.61 198.875 Q2008.45 198.29 2008.07 197.47 Q2007.7 196.65 2006.88 196.065 Q2006.08 195.456 2005 195.456 Q2003.55 195.456 2002.03 196.697 Q2000.53 197.939 1999.43 200.047 Q1998.59 201.733 1997.67 205.27 Q1996.78 208.807 1996.78 210.563 Q1996.78 211.641 1997.02 212.601 Q1997.27 213.538 1998 214.311 Q1998.73 215.06 1999.85 215.06 Q2002.59 215.06 2005.29 211.664 Q2005.8 211.079 2005.92 210.844 Q2006.06 210.587 2006.25 209.884 L2008.63 200.492 Q2008.78 199.789 2008.78 199.672 Z" fill="#000000" fill-rule="evenodd" fill-opacity="1" /><path clip-path="url(#clip090)" d="M2031.81 208.315 Q2031.86 207.729 2032.77 207.729 L2062.17 207.729 Q2063.55 207.729 2063.57 208.268 Q2063.57 208.853 2062.26 208.83 L2033.1 208.83 Q2031.81 208.853 2031.81 208.315 M2031.81 198.946 Q2031.81 198.36 2032.82 198.384 L2062.12 198.384 Q2063.55 198.384 2063.57 198.946 Q2063.57 199.484 2062.35 199.484 L2032.77 199.484 Q2031.81 199.484 2031.81 198.946 Z" fill="#000000" fill-rule="evenodd" fill-opacity="1" /><path clip-path="url(#clip090)" d="M2082.06 209.134 Q2082.06 207.706 2082.88 207.026 Q2083.7 206.347 2084.76 206.347 Q2085.86 206.347 2086.63 207.073 Q2087.43 207.776 2087.43 209.017 Q2087.43 210.352 2086.49 211.102 Q2085.57 211.851 2084.26 211.664 Q2085.41 213.585 2087.52 214.451 Q2089.65 215.318 2091.62 215.318 Q2093.68 215.318 2095.34 213.538 Q2097.03 211.758 2097.03 207.401 Q2097.03 203.7 2095.58 201.569 Q2094.15 199.438 2091.31 199.438 L2089.21 199.438 Q2088.48 199.438 2088.27 199.367 Q2088.06 199.297 2088.06 198.899 Q2088.06 198.43 2088.78 198.337 Q2089.51 198.337 2090.66 198.196 Q2093.44 198.102 2094.92 195.69 Q2096.26 193.441 2096.26 190.233 Q2096.26 187.305 2094.85 186.087 Q2093.47 184.845 2091.66 184.845 Q2089.98 184.845 2088.13 185.548 Q2086.28 186.251 2085.27 187.82 Q2088.25 187.82 2088.25 190.233 Q2088.25 191.287 2087.57 191.989 Q2086.91 192.668 2085.81 192.668 Q2084.76 192.668 2084.05 192.013 Q2083.35 191.333 2083.35 190.186 Q2083.35 187.445 2085.79 185.548 Q2088.25 183.651 2091.85 183.651 Q2095.41 183.651 2098.04 185.525 Q2100.68 187.398 2100.68 190.279 Q2100.68 193.114 2098.81 195.432 Q2096.93 197.751 2093.96 198.711 Q2097.61 199.438 2099.79 201.92 Q2101.97 204.38 2101.97 207.401 Q2101.97 211.149 2099.02 213.913 Q2096.07 216.653 2091.76 216.653 Q2087.78 216.653 2084.92 214.498 Q2082.06 212.343 2082.06 209.134 Z" fill="#000000" fill-rule="evenodd" fill-opacity="1" /><path clip-path="url(#clip090)" d="M2106.49 214.826 Q2105.81 214.053 2105.81 213.046 Q2105.81 212.039 2106.47 211.289 Q2107.15 210.516 2108.36 210.516 Q2109.79 210.516 2110.61 211.898 Q2111.43 213.257 2111.43 215.552 Q2111.43 218.035 2110.43 220.33 Q2109.42 222.649 2108.43 223.75 Q2107.45 224.851 2107.05 224.851 Q2106.58 224.851 2106.58 224.336 Q2106.58 224.148 2106.91 223.797 Q2110.36 220.096 2110.38 215.552 Q2110.38 214.826 2110.29 214.826 L2110.17 214.92 Q2109.35 215.599 2108.36 215.599 Q2107.17 215.599 2106.49 214.826 Z" fill="#000000" fill-rule="evenodd" fill-opacity="1" /><path clip-path="url(#clip090)" d="M2144.23 202.061 Q2144.23 205.434 2142.52 208.736 Q2140.83 212.015 2138.11 214.077 Q2135.42 216.138 2132.65 216.138 Q2129.96 216.138 2128.25 214.077 Q2126.56 211.992 2126.56 208.596 Q2126.56 207.401 2126.71 206.558 Q2126.85 205.715 2127.34 203.747 L2131.27 188.101 Q2131.95 185.173 2131.95 185.15 Q2131.95 184.869 2131.83 184.728 Q2131.74 184.564 2131.18 184.447 Q2130.62 184.33 2129.54 184.33 Q2129.09 184.33 2128.88 184.307 Q2128.7 184.283 2128.53 184.166 Q2128.39 184.026 2128.39 183.745 Q2128.39 183.346 2128.56 183.136 Q2128.74 182.901 2128.88 182.854 Q2129.02 182.808 2129.31 182.784 Q2129.7 182.761 2131.04 182.644 Q2132.37 182.503 2133.52 182.409 Q2134.67 182.316 2135.16 182.316 Q2135.44 182.316 2135.58 182.456 Q2135.75 182.573 2135.75 182.714 L2135.77 182.831 L2132.23 197.283 Q2135.02 194.402 2137.85 194.402 Q2140.69 194.402 2142.45 196.58 Q2144.23 198.758 2144.23 202.061 M2140.76 199.953 Q2140.76 197.728 2139.92 196.603 Q2139.1 195.456 2137.74 195.456 Q2136.59 195.456 2135.09 196.322 Q2133.59 197.189 2132 199.297 Q2131.69 199.695 2131.58 199.929 Q2131.48 200.164 2131.27 200.96 L2130.22 205.387 Q2129.45 208.408 2129.45 210.235 Q2129.45 212.718 2130.36 213.889 Q2131.27 215.06 2132.65 215.06 Q2134.11 215.06 2135.63 213.772 Q2137.15 212.484 2138.32 210.142 Q2139.05 208.596 2139.89 205.27 Q2140.76 201.92 2140.76 199.953 Z" fill="#000000" fill-rule="evenodd" fill-opacity="1" /><path clip-path="url(#clip090)" d="M2160.23 208.315 Q2160.28 207.729 2161.19 207.729 L2190.59 207.729 Q2191.97 207.729 2191.99 208.268 Q2191.99 208.853 2190.68 208.83 L2161.52 208.83 Q2160.23 208.853 2160.23 208.315 M2160.23 198.946 Q2160.23 198.36 2161.24 198.384 L2190.54 198.384 Q2191.97 198.384 2191.99 198.946 Q2191.99 199.484 2190.78 199.484 L2161.19 199.484 Q2160.23 199.484 2160.23 198.946 Z" fill="#000000" fill-rule="evenodd" fill-opacity="1" /><path clip-path="url(#clip090)" d="M2210.49 215.599 Q2210.49 214.732 2210.56 214.475 Q2210.65 214.217 2211.02 213.819 L2220.23 203.56 Q2225.26 197.892 2225.26 192.95 Q2225.26 189.741 2223.58 187.445 Q2221.92 185.15 2218.85 185.15 Q2216.74 185.15 2214.96 186.438 Q2213.18 187.726 2212.36 190.022 Q2212.5 189.975 2212.99 189.975 Q2214.19 189.975 2214.84 190.724 Q2215.52 191.474 2215.52 192.481 Q2215.52 193.769 2214.68 194.402 Q2213.86 195.011 2213.04 195.011 Q2212.71 195.011 2212.27 194.94 Q2211.84 194.87 2211.16 194.214 Q2210.49 193.535 2210.49 192.341 Q2210.49 188.991 2213.01 186.321 Q2215.57 183.651 2219.46 183.651 Q2223.86 183.651 2226.74 186.274 Q2229.64 188.874 2229.64 192.95 Q2229.64 194.378 2229.2 195.69 Q2228.78 196.978 2228.19 197.985 Q2227.63 198.993 2226.08 200.609 Q2224.54 202.225 2223.3 203.373 Q2222.06 204.52 2219.27 206.956 L2214.19 211.898 L2222.83 211.898 Q2227.04 211.898 2227.37 211.524 Q2227.84 210.844 2228.43 207.261 L2229.64 207.261 L2228.29 215.599 L2210.49 215.599 Z" fill="#000000" fill-rule="evenodd" fill-opacity="1" /><polyline clip-path="url(#clip090)" style="stroke:#3da44d; stroke-linecap:butt; stroke-linejoin:round; stroke-width:4; stroke-opacity:1; fill:none" points="
  1827.46,248.629 1969.68,248.629 
  "/>
<path clip-path="url(#clip090)" d="M2015.36 260.576 Q2014.72 263.598 2013.9 265.331 Q2012.59 267.978 2010.37 267.978 Q2008.68 267.978 2007.49 266.947 Q2006.29 265.917 2006.01 264.371 Q2002.94 267.978 1999.76 267.978 Q1996.95 267.978 1995.17 265.846 Q1993.39 263.691 1993.39 260.295 Q1993.39 256.876 1995.07 253.596 Q1996.78 250.317 1999.48 248.279 Q2002.17 246.242 2004.93 246.242 Q2007.86 246.242 2009.36 249.31 Q2009.48 248.467 2010.02 247.834 Q2010.56 247.202 2011.38 247.202 Q2012.01 247.202 2012.38 247.553 Q2012.76 247.881 2012.76 248.49 Q2012.76 248.795 2012.43 250.13 L2010.7 256.829 L2009.64 261.162 Q2009.24 262.755 2009.13 263.34 Q2009.03 263.926 2009.03 264.699 Q2009.03 266.9 2010.46 266.9 Q2011.16 266.9 2011.73 266.455 Q2012.29 266.01 2012.73 265.073 Q2013.18 264.136 2013.46 263.27 Q2013.74 262.38 2014.12 260.974 Q2014.23 260.412 2014.33 260.272 Q2014.44 260.108 2014.77 260.108 Q2015.36 260.108 2015.36 260.576 M2008.78 251.512 Q2008.78 251.301 2008.61 250.715 Q2008.45 250.13 2008.07 249.31 Q2007.7 248.49 2006.88 247.905 Q2006.08 247.296 2005 247.296 Q2003.55 247.296 2002.03 248.537 Q2000.53 249.779 1999.43 251.887 Q1998.59 253.573 1997.67 257.11 Q1996.78 260.647 1996.78 262.403 Q1996.78 263.481 1997.02 264.441 Q1997.27 265.378 1998 266.151 Q1998.73 266.9 1999.85 266.9 Q2002.59 266.9 2005.29 263.504 Q2005.8 262.919 2005.92 262.684 Q2006.06 262.427 2006.25 261.724 L2008.63 252.332 Q2008.78 251.629 2008.78 251.512 Z" fill="#000000" fill-rule="evenodd" fill-opacity="1" /><path clip-path="url(#clip090)" d="M2031.81 260.155 Q2031.86 259.569 2032.77 259.569 L2062.17 259.569 Q2063.55 259.569 2063.57 260.108 Q2063.57 260.693 2062.26 260.67 L2033.1 260.67 Q2031.81 260.693 2031.81 260.155 M2031.81 250.786 Q2031.81 250.2 2032.82 250.224 L2062.12 250.224 Q2063.55 250.224 2063.57 250.786 Q2063.57 251.324 2062.35 251.324 L2032.77 251.324 Q2031.81 251.324 2031.81 250.786 Z" fill="#000000" fill-rule="evenodd" fill-opacity="1" /><path clip-path="url(#clip090)" d="M2082.06 267.439 Q2082.06 266.572 2082.13 266.315 Q2082.23 266.057 2082.6 265.659 L2091.81 255.4 Q2096.84 249.732 2096.84 244.79 Q2096.84 241.581 2095.15 239.285 Q2093.49 236.99 2090.42 236.99 Q2088.32 236.99 2086.54 238.278 Q2084.76 239.566 2083.94 241.862 Q2084.08 241.815 2084.57 241.815 Q2085.76 241.815 2086.42 242.564 Q2087.1 243.314 2087.1 244.321 Q2087.1 245.609 2086.25 246.242 Q2085.43 246.851 2084.61 246.851 Q2084.29 246.851 2083.84 246.78 Q2083.42 246.71 2082.74 246.054 Q2082.06 245.375 2082.06 244.181 Q2082.06 240.831 2084.59 238.161 Q2087.14 235.491 2091.03 235.491 Q2095.44 235.491 2098.32 238.114 Q2101.22 240.714 2101.22 244.79 Q2101.22 246.218 2100.78 247.53 Q2100.35 248.818 2099.77 249.825 Q2099.21 250.833 2097.66 252.449 Q2096.11 254.065 2094.87 255.213 Q2093.63 256.36 2090.84 258.796 L2085.76 263.738 L2094.41 263.738 Q2098.62 263.738 2098.95 263.364 Q2099.42 262.684 2100 259.101 L2101.22 259.101 L2099.86 267.439 L2082.06 267.439 Z" fill="#000000" fill-rule="evenodd" fill-opacity="1" /><path clip-path="url(#clip090)" d="M2106.49 266.666 Q2105.81 265.893 2105.81 264.886 Q2105.81 263.879 2106.47 263.129 Q2107.15 262.356 2108.36 262.356 Q2109.79 262.356 2110.61 263.738 Q2111.43 265.097 2111.43 267.392 Q2111.43 269.875 2110.43 272.17 Q2109.42 274.489 2108.43 275.59 Q2107.45 276.691 2107.05 276.691 Q2106.58 276.691 2106.58 276.176 Q2106.58 275.988 2106.91 275.637 Q2110.36 271.936 2110.38 267.392 Q2110.38 266.666 2110.29 266.666 L2110.17 266.76 Q2109.35 267.439 2108.36 267.439 Q2107.17 267.439 2106.49 266.666 Z" fill="#000000" fill-rule="evenodd" fill-opacity="1" /><path clip-path="url(#clip090)" d="M2144.23 253.901 Q2144.23 257.274 2142.52 260.576 Q2140.83 263.855 2138.11 265.917 Q2135.42 267.978 2132.65 267.978 Q2129.96 267.978 2128.25 265.917 Q2126.56 263.832 2126.56 260.436 Q2126.56 259.241 2126.71 258.398 Q2126.85 257.555 2127.34 255.587 L2131.27 239.941 Q2131.95 237.013 2131.95 236.99 Q2131.95 236.709 2131.83 236.568 Q2131.74 236.404 2131.18 236.287 Q2130.62 236.17 2129.54 236.17 Q2129.09 236.17 2128.88 236.147 Q2128.7 236.123 2128.53 236.006 Q2128.39 235.866 2128.39 235.585 Q2128.39 235.186 2128.56 234.976 Q2128.74 234.741 2128.88 234.694 Q2129.02 234.648 2129.31 234.624 Q2129.7 234.601 2131.04 234.484 Q2132.37 234.343 2133.52 234.249 Q2134.67 234.156 2135.16 234.156 Q2135.44 234.156 2135.58 234.296 Q2135.75 234.413 2135.75 234.554 L2135.77 234.671 L2132.23 249.123 Q2135.02 246.242 2137.85 246.242 Q2140.69 246.242 2142.45 248.42 Q2144.23 250.598 2144.23 253.901 M2140.76 251.793 Q2140.76 249.568 2139.92 248.443 Q2139.1 247.296 2137.74 247.296 Q2136.59 247.296 2135.09 248.162 Q2133.59 249.029 2132 251.137 Q2131.69 251.535 2131.58 251.769 Q2131.48 252.004 2131.27 252.8 L2130.22 257.227 Q2129.45 260.248 2129.45 262.075 Q2129.45 264.558 2130.36 265.729 Q2131.27 266.9 2132.65 266.9 Q2134.11 266.9 2135.63 265.612 Q2137.15 264.324 2138.32 261.982 Q2139.05 260.436 2139.89 257.11 Q2140.76 253.76 2140.76 251.793 Z" fill="#000000" fill-rule="evenodd" fill-opacity="1" /><path clip-path="url(#clip090)" d="M2160.23 260.155 Q2160.28 259.569 2161.19 259.569 L2190.59 259.569 Q2191.97 259.569 2191.99 260.108 Q2191.99 260.693 2190.68 260.67 L2161.52 260.67 Q2160.23 260.693 2160.23 260.155 M2160.23 250.786 Q2160.23 250.2 2161.24 250.224 L2190.54 250.224 Q2191.97 250.224 2191.99 250.786 Q2191.99 251.324 2190.78 251.324 L2161.19 251.324 Q2160.23 251.324 2160.23 250.786 Z" fill="#000000" fill-rule="evenodd" fill-opacity="1" /><path clip-path="url(#clip090)" d="M2210.49 260.974 Q2210.49 259.546 2211.3 258.866 Q2212.12 258.187 2213.18 258.187 Q2214.28 258.187 2215.05 258.913 Q2215.85 259.616 2215.85 260.857 Q2215.85 262.192 2214.91 262.942 Q2214 263.691 2212.69 263.504 Q2213.83 265.425 2215.94 266.291 Q2218.07 267.158 2220.04 267.158 Q2222.1 267.158 2223.77 265.378 Q2225.45 263.598 2225.45 259.241 Q2225.45 255.54 2224 253.409 Q2222.57 251.278 2219.74 251.278 L2217.63 251.278 Q2216.9 251.278 2216.69 251.207 Q2216.48 251.137 2216.48 250.739 Q2216.48 250.27 2217.21 250.177 Q2217.93 250.177 2219.08 250.036 Q2221.87 249.942 2223.34 247.53 Q2224.68 245.281 2224.68 242.073 Q2224.68 239.145 2223.27 237.927 Q2221.89 236.685 2220.09 236.685 Q2218.4 236.685 2216.55 237.388 Q2214.7 238.091 2213.69 239.66 Q2216.67 239.66 2216.67 242.073 Q2216.67 243.127 2215.99 243.829 Q2215.33 244.508 2214.23 244.508 Q2213.18 244.508 2212.48 243.853 Q2211.77 243.173 2211.77 242.026 Q2211.77 239.285 2214.21 237.388 Q2216.67 235.491 2220.28 235.491 Q2223.84 235.491 2226.46 237.365 Q2229.11 239.238 2229.11 242.119 Q2229.11 244.954 2227.23 247.272 Q2225.36 249.591 2222.38 250.551 Q2226.04 251.278 2228.22 253.76 Q2230.39 256.22 2230.39 259.241 Q2230.39 262.989 2227.44 265.753 Q2224.49 268.493 2220.18 268.493 Q2216.2 268.493 2213.34 266.338 Q2210.49 264.183 2210.49 260.974 Z" fill="#000000" fill-rule="evenodd" fill-opacity="1" /></svg>
