<?xml version="1.0" encoding="utf-8"?>
<svg xmlns="http://www.w3.org/2000/svg" xmlns:xlink="http://www.w3.org/1999/xlink" width="600" height="400" viewBox="0 0 2400 1600">
<defs>
  <clipPath id="clip880">
    <rect x="0" y="0" width="2400" height="1600"/>
  </clipPath>
</defs>
<path clip-path="url(#clip880)" d="
M0 1600 L2400 1600 L2400 0 L0 0  Z
  " fill="#ffffff" fill-rule="evenodd" fill-opacity="1"/>
<defs>
  <clipPath id="clip881">
    <rect x="480" y="0" width="1681" height="1600"/>
  </clipPath>
</defs>
<defs>
  <clipPath id="clip882">
    <rect x="219" y="47" width="2134" height="1377"/>
  </clipPath>
</defs>
<path clip-path="url(#clip880)" d="
M219.866 1423.18 L2352.76 1423.18 L2352.76 47.2441 L219.866 47.2441  Z
  " fill="#ffffff" fill-rule="evenodd" fill-opacity="1"/>
<polyline clip-path="url(#clip882)" style="stroke:#000000; stroke-linecap:butt; stroke-linejoin:round; stroke-width:2; stroke-opacity:0.1; fill:none" points="
  280.231,1423.18 280.231,47.2441 
  "/>
<polyline clip-path="url(#clip882)" style="stroke:#000000; stroke-linecap:butt; stroke-linejoin:round; stroke-width:2; stroke-opacity:0.1; fill:none" points="
  682.663,1423.18 682.663,47.2441 
  "/>
<polyline clip-path="url(#clip882)" style="stroke:#000000; stroke-linecap:butt; stroke-linejoin:round; stroke-width:2; stroke-opacity:0.1; fill:none" points="
  1085.1,1423.18 1085.1,47.2441 
  "/>
<polyline clip-path="url(#clip882)" style="stroke:#000000; stroke-linecap:butt; stroke-linejoin:round; stroke-width:2; stroke-opacity:0.1; fill:none" points="
  1487.53,1423.18 1487.53,47.2441 
  "/>
<polyline clip-path="url(#clip882)" style="stroke:#000000; stroke-linecap:butt; stroke-linejoin:round; stroke-width:2; stroke-opacity:0.1; fill:none" points="
  1889.96,1423.18 1889.96,47.2441 
  "/>
<polyline clip-path="url(#clip882)" style="stroke:#000000; stroke-linecap:butt; stroke-linejoin:round; stroke-width:2; stroke-opacity:0.1; fill:none" points="
  2292.39,1423.18 2292.39,47.2441 
  "/>
<polyline clip-path="url(#clip880)" style="stroke:#000000; stroke-linecap:butt; stroke-linejoin:round; stroke-width:4; stroke-opacity:1; fill:none" points="
  219.866,1423.18 2352.76,1423.18 
  "/>
<polyline clip-path="url(#clip880)" style="stroke:#000000; stroke-linecap:butt; stroke-linejoin:round; stroke-width:4; stroke-opacity:1; fill:none" points="
  280.231,1423.18 280.231,1404.28 
  "/>
<polyline clip-path="url(#clip880)" style="stroke:#000000; stroke-linecap:butt; stroke-linejoin:round; stroke-width:4; stroke-opacity:1; fill:none" points="
  682.663,1423.18 682.663,1404.28 
  "/>
<polyline clip-path="url(#clip880)" style="stroke:#000000; stroke-linecap:butt; stroke-linejoin:round; stroke-width:4; stroke-opacity:1; fill:none" points="
  1085.1,1423.18 1085.1,1404.28 
  "/>
<polyline clip-path="url(#clip880)" style="stroke:#000000; stroke-linecap:butt; stroke-linejoin:round; stroke-width:4; stroke-opacity:1; fill:none" points="
  1487.53,1423.18 1487.53,1404.28 
  "/>
<polyline clip-path="url(#clip880)" style="stroke:#000000; stroke-linecap:butt; stroke-linejoin:round; stroke-width:4; stroke-opacity:1; fill:none" points="
  1889.96,1423.18 1889.96,1404.28 
  "/>
<polyline clip-path="url(#clip880)" style="stroke:#000000; stroke-linecap:butt; stroke-linejoin:round; stroke-width:4; stroke-opacity:1; fill:none" points="
  2292.39,1423.18 2292.39,1404.28 
  "/>
<path clip-path="url(#clip880)" d="M280.231 1454.1 Q276.62 1454.1 274.791 1457.66 Q272.986 1461.2 272.986 1468.33 Q272.986 1475.44 274.791 1479.01 Q276.62 1482.55 280.231 1482.55 Q283.865 1482.55 285.671 1479.01 Q287.5 1475.44 287.5 1468.33 Q287.5 1461.2 285.671 1457.66 Q283.865 1454.1 280.231 1454.1 M280.231 1450.39 Q286.041 1450.39 289.097 1455 Q292.175 1459.58 292.175 1468.33 Q292.175 1477.06 289.097 1481.67 Q286.041 1486.25 280.231 1486.25 Q274.421 1486.25 271.342 1481.67 Q268.287 1477.06 268.287 1468.33 Q268.287 1459.58 271.342 1455 Q274.421 1450.39 280.231 1450.39 Z" fill="#000000" fill-rule="evenodd" fill-opacity="1" /><path clip-path="url(#clip880)" d="M673.045 1481.64 L680.684 1481.64 L680.684 1455.28 L672.374 1456.95 L672.374 1452.69 L680.638 1451.02 L685.314 1451.02 L685.314 1481.64 L692.952 1481.64 L692.952 1485.58 L673.045 1485.58 L673.045 1481.64 Z" fill="#000000" fill-rule="evenodd" fill-opacity="1" /><path clip-path="url(#clip880)" d="M1079.75 1481.64 L1096.07 1481.64 L1096.07 1485.58 L1074.12 1485.58 L1074.12 1481.64 Q1076.78 1478.89 1081.37 1474.26 Q1085.97 1469.61 1087.16 1468.27 Q1089.4 1465.74 1090.28 1464.01 Q1091.18 1462.25 1091.18 1460.56 Q1091.18 1457.8 1089.24 1456.07 Q1087.32 1454.33 1084.22 1454.33 Q1082.02 1454.33 1079.56 1455.09 Q1077.13 1455.86 1074.35 1457.41 L1074.35 1452.69 Q1077.18 1451.55 1079.63 1450.97 Q1082.09 1450.39 1084.12 1450.39 Q1089.49 1450.39 1092.69 1453.08 Q1095.88 1455.77 1095.88 1460.26 Q1095.88 1462.39 1095.07 1464.31 Q1094.28 1466.2 1092.18 1468.8 Q1091.6 1469.47 1088.5 1472.69 Q1085.4 1475.88 1079.75 1481.64 Z" fill="#000000" fill-rule="evenodd" fill-opacity="1" /><path clip-path="url(#clip880)" d="M1491.77 1466.95 Q1495.13 1467.66 1497.01 1469.93 Q1498.9 1472.2 1498.9 1475.53 Q1498.9 1480.65 1495.39 1483.45 Q1491.87 1486.25 1485.39 1486.25 Q1483.21 1486.25 1480.9 1485.81 Q1478.6 1485.39 1476.15 1484.54 L1476.15 1480.02 Q1478.09 1481.16 1480.41 1481.74 Q1482.72 1482.32 1485.25 1482.32 Q1489.65 1482.32 1491.94 1480.58 Q1494.25 1478.84 1494.25 1475.53 Q1494.25 1472.48 1492.1 1470.77 Q1489.97 1469.03 1486.15 1469.03 L1482.12 1469.03 L1482.12 1465.19 L1486.33 1465.19 Q1489.78 1465.19 1491.61 1463.82 Q1493.44 1462.43 1493.44 1459.84 Q1493.44 1457.18 1491.54 1455.77 Q1489.67 1454.33 1486.15 1454.33 Q1484.23 1454.33 1482.03 1454.75 Q1479.83 1455.16 1477.19 1456.04 L1477.19 1451.88 Q1479.85 1451.14 1482.17 1450.77 Q1484.51 1450.39 1486.57 1450.39 Q1491.89 1450.39 1494.99 1452.83 Q1498.09 1455.23 1498.09 1459.35 Q1498.09 1462.22 1496.45 1464.21 Q1494.81 1466.18 1491.77 1466.95 Z" fill="#000000" fill-rule="evenodd" fill-opacity="1" /><path clip-path="url(#clip880)" d="M1892.97 1455.09 L1881.16 1473.54 L1892.97 1473.54 L1892.97 1455.09 M1891.74 1451.02 L1897.62 1451.02 L1897.62 1473.54 L1902.55 1473.54 L1902.55 1477.43 L1897.62 1477.43 L1897.62 1485.58 L1892.97 1485.58 L1892.97 1477.43 L1877.37 1477.43 L1877.37 1472.92 L1891.74 1451.02 Z" fill="#000000" fill-rule="evenodd" fill-opacity="1" /><path clip-path="url(#clip880)" d="M2282.67 1451.02 L2301.03 1451.02 L2301.03 1454.96 L2286.95 1454.96 L2286.95 1463.43 Q2287.97 1463.08 2288.99 1462.92 Q2290.01 1462.73 2291.03 1462.73 Q2296.81 1462.73 2300.19 1465.9 Q2303.57 1469.08 2303.57 1474.49 Q2303.57 1480.07 2300.1 1483.17 Q2296.63 1486.25 2290.31 1486.25 Q2288.13 1486.25 2285.86 1485.88 Q2283.62 1485.51 2281.21 1484.77 L2281.21 1480.07 Q2283.29 1481.2 2285.52 1481.76 Q2287.74 1482.32 2290.22 1482.32 Q2294.22 1482.32 2296.56 1480.21 Q2298.9 1478.1 2298.9 1474.49 Q2298.9 1470.88 2296.56 1468.77 Q2294.22 1466.67 2290.22 1466.67 Q2288.34 1466.67 2286.47 1467.08 Q2284.61 1467.5 2282.67 1468.38 L2282.67 1451.02 Z" fill="#000000" fill-rule="evenodd" fill-opacity="1" /><path clip-path="url(#clip880)" d="M1298.25 1545.85 Q1298.25 1551.26 1296.51 1557.35 Q1294.8 1563.4 1292.09 1568.3 Q1289.39 1573.16 1285.85 1576.38 Q1282.3 1579.57 1278.92 1579.57 Q1276.76 1579.57 1275.15 1578.38 Q1273.58 1577.15 1272.71 1575.12 Q1271.84 1573.06 1271.42 1570.81 Q1271 1568.52 1271 1566.04 Q1271 1562.34 1271.8 1558.31 Q1272.61 1554.25 1273.96 1550.58 Q1275.32 1546.88 1277.22 1543.53 Q1279.12 1540.15 1281.21 1537.7 Q1283.33 1535.22 1285.72 1533.77 Q1288.1 1532.32 1290.32 1532.32 Q1291.93 1532.32 1293.22 1533.03 Q1294.54 1533.71 1295.38 1534.9 Q1296.22 1536.06 1296.8 1537.44 Q1297.41 1538.83 1297.7 1540.44 Q1297.99 1542.02 1298.12 1543.34 Q1298.25 1544.63 1298.25 1545.85 M1293.9 1541.76 Q1293.9 1540.12 1293.77 1538.89 Q1293.64 1537.64 1293.29 1536.38 Q1292.93 1535.12 1292.16 1534.45 Q1291.42 1533.77 1290.26 1533.77 Q1286.88 1533.77 1283.08 1540.7 Q1281.85 1542.85 1280.76 1545.78 Q1279.66 1548.72 1279.28 1550.1 Q1278.89 1551.49 1277.99 1554.9 L1291.77 1554.9 Q1293.9 1546.11 1293.9 1541.76 M1291.19 1556.99 L1277.47 1556.99 Q1275.35 1565.04 1275.35 1570.07 Q1275.35 1574.45 1276.25 1576.28 Q1277.18 1578.09 1278.92 1578.09 Q1280.92 1578.09 1282.79 1576.09 Q1284.66 1574.06 1286.56 1570.39 Q1289.07 1565.62 1291.19 1556.99 Z" fill="#000000" fill-rule="evenodd" fill-opacity="1" /><polyline clip-path="url(#clip882)" style="stroke:#000000; stroke-linecap:butt; stroke-linejoin:round; stroke-width:2; stroke-opacity:0.1; fill:none" points="
  219.866,1384.24 2352.76,1384.24 
  "/>
<polyline clip-path="url(#clip882)" style="stroke:#000000; stroke-linecap:butt; stroke-linejoin:round; stroke-width:2; stroke-opacity:0.1; fill:none" points="
  219.866,1067.33 2352.76,1067.33 
  "/>
<polyline clip-path="url(#clip882)" style="stroke:#000000; stroke-linecap:butt; stroke-linejoin:round; stroke-width:2; stroke-opacity:0.1; fill:none" points="
  219.866,750.424 2352.76,750.424 
  "/>
<polyline clip-path="url(#clip882)" style="stroke:#000000; stroke-linecap:butt; stroke-linejoin:round; stroke-width:2; stroke-opacity:0.1; fill:none" points="
  219.866,433.516 2352.76,433.516 
  "/>
<polyline clip-path="url(#clip882)" style="stroke:#000000; stroke-linecap:butt; stroke-linejoin:round; stroke-width:2; stroke-opacity:0.1; fill:none" points="
  219.866,116.609 2352.76,116.609 
  "/>
<polyline clip-path="url(#clip880)" style="stroke:#000000; stroke-linecap:butt; stroke-linejoin:round; stroke-width:4; stroke-opacity:1; fill:none" points="
  219.866,1423.18 219.866,47.2441 
  "/>
<polyline clip-path="url(#clip880)" style="stroke:#000000; stroke-linecap:butt; stroke-linejoin:round; stroke-width:4; stroke-opacity:1; fill:none" points="
  219.866,1384.24 238.764,1384.24 
  "/>
<polyline clip-path="url(#clip880)" style="stroke:#000000; stroke-linecap:butt; stroke-linejoin:round; stroke-width:4; stroke-opacity:1; fill:none" points="
  219.866,1067.33 238.764,1067.33 
  "/>
<polyline clip-path="url(#clip880)" style="stroke:#000000; stroke-linecap:butt; stroke-linejoin:round; stroke-width:4; stroke-opacity:1; fill:none" points="
  219.866,750.424 238.764,750.424 
  "/>
<polyline clip-path="url(#clip880)" style="stroke:#000000; stroke-linecap:butt; stroke-linejoin:round; stroke-width:4; stroke-opacity:1; fill:none" points="
  219.866,433.516 238.764,433.516 
  "/>
<polyline clip-path="url(#clip880)" style="stroke:#000000; stroke-linecap:butt; stroke-linejoin:round; stroke-width:4; stroke-opacity:1; fill:none" points="
  219.866,116.609 238.764,116.609 
  "/>
<path clip-path="url(#clip880)" d="M126.691 1370.04 Q123.08 1370.04 121.251 1373.6 Q119.445 1377.14 119.445 1384.27 Q119.445 1391.38 121.251 1394.94 Q123.08 1398.49 126.691 1398.49 Q130.325 1398.49 132.13 1394.94 Q133.959 1391.38 133.959 1384.27 Q133.959 1377.14 132.13 1373.6 Q130.325 1370.04 126.691 1370.04 M126.691 1366.33 Q132.501 1366.33 135.556 1370.94 Q138.635 1375.52 138.635 1384.27 Q138.635 1393 135.556 1397.61 Q132.501 1402.19 126.691 1402.19 Q120.88 1402.19 117.802 1397.61 Q114.746 1393 114.746 1384.27 Q114.746 1375.52 117.802 1370.94 Q120.88 1366.33 126.691 1366.33 Z" fill="#000000" fill-rule="evenodd" fill-opacity="1" /><path clip-path="url(#clip880)" d="M146.853 1395.64 L151.737 1395.64 L151.737 1401.52 L146.853 1401.52 L146.853 1395.64 Z" fill="#000000" fill-rule="evenodd" fill-opacity="1" /><path clip-path="url(#clip880)" d="M171.922 1370.04 Q168.311 1370.04 166.482 1373.6 Q164.677 1377.14 164.677 1384.27 Q164.677 1391.38 166.482 1394.94 Q168.311 1398.49 171.922 1398.49 Q175.556 1398.49 177.362 1394.94 Q179.19 1391.38 179.19 1384.27 Q179.19 1377.14 177.362 1373.6 Q175.556 1370.04 171.922 1370.04 M171.922 1366.33 Q177.732 1366.33 180.788 1370.94 Q183.866 1375.52 183.866 1384.27 Q183.866 1393 180.788 1397.61 Q177.732 1402.19 171.922 1402.19 Q166.112 1402.19 163.033 1397.61 Q159.978 1393 159.978 1384.27 Q159.978 1375.52 163.033 1370.94 Q166.112 1366.33 171.922 1366.33 Z" fill="#000000" fill-rule="evenodd" fill-opacity="1" /><path clip-path="url(#clip880)" d="M127.917 1053.13 Q124.306 1053.13 122.478 1056.69 Q120.672 1060.24 120.672 1067.37 Q120.672 1074.47 122.478 1078.04 Q124.306 1081.58 127.917 1081.58 Q131.552 1081.58 133.357 1078.04 Q135.186 1074.47 135.186 1067.37 Q135.186 1060.24 133.357 1056.69 Q131.552 1053.13 127.917 1053.13 M127.917 1049.43 Q133.728 1049.43 136.783 1054.03 Q139.862 1058.62 139.862 1067.37 Q139.862 1076.09 136.783 1080.7 Q133.728 1085.28 127.917 1085.28 Q122.107 1085.28 119.029 1080.7 Q115.973 1076.09 115.973 1067.37 Q115.973 1058.62 119.029 1054.03 Q122.107 1049.43 127.917 1049.43 Z" fill="#000000" fill-rule="evenodd" fill-opacity="1" /><path clip-path="url(#clip880)" d="M148.079 1078.73 L152.964 1078.73 L152.964 1084.61 L148.079 1084.61 L148.079 1078.73 Z" fill="#000000" fill-rule="evenodd" fill-opacity="1" /><path clip-path="url(#clip880)" d="M163.959 1080.68 L171.598 1080.68 L171.598 1054.31 L163.288 1055.98 L163.288 1051.72 L171.552 1050.05 L176.227 1050.05 L176.227 1080.68 L183.866 1080.68 L183.866 1084.61 L163.959 1084.61 L163.959 1080.68 Z" fill="#000000" fill-rule="evenodd" fill-opacity="1" /><path clip-path="url(#clip880)" d="M128.288 736.222 Q124.677 736.222 122.848 739.787 Q121.043 743.329 121.043 750.458 Q121.043 757.565 122.848 761.129 Q124.677 764.671 128.288 764.671 Q131.922 764.671 133.728 761.129 Q135.556 757.565 135.556 750.458 Q135.556 743.329 133.728 739.787 Q131.922 736.222 128.288 736.222 M128.288 732.519 Q134.098 732.519 137.154 737.125 Q140.232 741.708 140.232 750.458 Q140.232 759.185 137.154 763.792 Q134.098 768.375 128.288 768.375 Q122.478 768.375 119.399 763.792 Q116.343 759.185 116.343 750.458 Q116.343 741.708 119.399 737.125 Q122.478 732.519 128.288 732.519 Z" fill="#000000" fill-rule="evenodd" fill-opacity="1" /><path clip-path="url(#clip880)" d="M148.45 761.824 L153.334 761.824 L153.334 767.704 L148.45 767.704 L148.45 761.824 Z" fill="#000000" fill-rule="evenodd" fill-opacity="1" /><path clip-path="url(#clip880)" d="M167.547 763.768 L183.866 763.768 L183.866 767.704 L161.922 767.704 L161.922 763.768 Q164.584 761.014 169.167 756.384 Q173.774 751.731 174.954 750.389 Q177.2 747.866 178.079 746.13 Q178.982 744.37 178.982 742.681 Q178.982 739.926 177.038 738.19 Q175.116 736.454 172.014 736.454 Q169.815 736.454 167.362 737.218 Q164.931 737.981 162.153 739.532 L162.153 734.81 Q164.977 733.676 167.431 733.097 Q169.885 732.519 171.922 732.519 Q177.292 732.519 180.487 735.204 Q183.681 737.889 183.681 742.38 Q183.681 744.509 182.871 746.43 Q182.084 748.329 179.977 750.921 Q179.399 751.592 176.297 754.81 Q173.195 758.005 167.547 763.768 Z" fill="#000000" fill-rule="evenodd" fill-opacity="1" /><path clip-path="url(#clip880)" d="M127.339 419.315 Q123.728 419.315 121.899 422.88 Q120.093 426.421 120.093 433.551 Q120.093 440.657 121.899 444.222 Q123.728 447.764 127.339 447.764 Q130.973 447.764 132.779 444.222 Q134.607 440.657 134.607 433.551 Q134.607 426.421 132.779 422.88 Q130.973 419.315 127.339 419.315 M127.339 415.611 Q133.149 415.611 136.204 420.218 Q139.283 424.801 139.283 433.551 Q139.283 442.278 136.204 446.884 Q133.149 451.467 127.339 451.467 Q121.529 451.467 118.45 446.884 Q115.394 442.278 115.394 433.551 Q115.394 424.801 118.45 420.218 Q121.529 415.611 127.339 415.611 Z" fill="#000000" fill-rule="evenodd" fill-opacity="1" /><path clip-path="url(#clip880)" d="M147.501 444.917 L152.385 444.917 L152.385 450.796 L147.501 450.796 L147.501 444.917 Z" fill="#000000" fill-rule="evenodd" fill-opacity="1" /><path clip-path="url(#clip880)" d="M176.737 432.162 Q180.093 432.88 181.968 435.148 Q183.866 437.417 183.866 440.75 Q183.866 445.866 180.348 448.667 Q176.829 451.467 170.348 451.467 Q168.172 451.467 165.857 451.028 Q163.565 450.611 161.112 449.754 L161.112 445.241 Q163.056 446.375 165.371 446.954 Q167.686 447.532 170.209 447.532 Q174.607 447.532 176.899 445.796 Q179.214 444.06 179.214 440.75 Q179.214 437.694 177.061 435.981 Q174.931 434.245 171.112 434.245 L167.084 434.245 L167.084 430.403 L171.297 430.403 Q174.746 430.403 176.575 429.037 Q178.403 427.648 178.403 425.056 Q178.403 422.394 176.505 420.981 Q174.63 419.546 171.112 419.546 Q169.19 419.546 166.991 419.963 Q164.792 420.38 162.153 421.259 L162.153 417.093 Q164.815 416.352 167.13 415.982 Q169.468 415.611 171.528 415.611 Q176.852 415.611 179.954 418.042 Q183.056 420.449 183.056 424.569 Q183.056 427.44 181.413 429.431 Q179.769 431.398 176.737 432.162 Z" fill="#000000" fill-rule="evenodd" fill-opacity="1" /><path clip-path="url(#clip880)" d="M126.205 102.407 Q122.593 102.407 120.765 105.972 Q118.959 109.514 118.959 116.644 Q118.959 123.75 120.765 127.315 Q122.593 130.856 126.205 130.856 Q129.839 130.856 131.644 127.315 Q133.473 123.75 133.473 116.644 Q133.473 109.514 131.644 105.972 Q129.839 102.407 126.205 102.407 M126.205 98.7038 Q132.015 98.7038 135.07 103.31 Q138.149 107.894 138.149 116.644 Q138.149 125.37 135.07 129.977 Q132.015 134.56 126.205 134.56 Q120.394 134.56 117.316 129.977 Q114.26 125.37 114.26 116.644 Q114.26 107.894 117.316 103.31 Q120.394 98.7038 126.205 98.7038 Z" fill="#000000" fill-rule="evenodd" fill-opacity="1" /><path clip-path="url(#clip880)" d="M146.366 128.009 L151.251 128.009 L151.251 133.889 L146.366 133.889 L146.366 128.009 Z" fill="#000000" fill-rule="evenodd" fill-opacity="1" /><path clip-path="url(#clip880)" d="M174.283 103.403 L162.477 121.852 L174.283 121.852 L174.283 103.403 M173.056 99.3288 L178.936 99.3288 L178.936 121.852 L183.866 121.852 L183.866 125.741 L178.936 125.741 L178.936 133.889 L174.283 133.889 L174.283 125.741 L158.681 125.741 L158.681 121.227 L173.056 99.3288 Z" fill="#000000" fill-rule="evenodd" fill-opacity="1" /><path clip-path="url(#clip880)" d="M16.4842 812.476 L16.4842 802.895 L48.8219 790.769 L16.4842 778.578 L16.4842 768.998 L64.0042 768.998 L64.0042 775.268 L22.277 775.268 L54.8694 787.522 L54.8694 793.983 L22.277 806.237 L64.0042 806.237 L64.0042 812.476 L16.4842 812.476 Z" fill="#000000" fill-rule="evenodd" fill-opacity="1" /><path clip-path="url(#clip880)" d="M46.0847 740.289 Q46.0847 747.386 47.7079 750.124 Q49.3312 752.861 53.2461 752.861 Q56.3653 752.861 58.2114 750.824 Q60.0256 748.755 60.0256 745.222 Q60.0256 740.352 56.5881 737.424 Q53.1188 734.464 47.3897 734.464 L46.0847 734.464 L46.0847 740.289 M43.6657 728.608 L64.0042 728.608 L64.0042 734.464 L58.5933 734.464 Q61.8398 736.469 63.3994 739.461 Q64.9272 742.453 64.9272 746.782 Q64.9272 752.256 61.8716 755.503 Q58.7843 758.717 53.6281 758.717 Q47.6125 758.717 44.5569 754.707 Q41.5014 750.665 41.5014 742.676 L41.5014 734.464 L40.9285 734.464 Q36.8862 734.464 34.6901 737.138 Q32.4621 739.779 32.4621 744.585 Q32.4621 747.641 33.1941 750.537 Q33.9262 753.434 35.3903 756.107 L29.9795 756.107 Q28.7381 752.893 28.1334 749.869 Q27.4968 746.845 27.4968 743.981 Q27.4968 736.246 31.5072 732.427 Q35.5176 728.608 43.6657 728.608 Z" fill="#000000" fill-rule="evenodd" fill-opacity="1" /><path clip-path="url(#clip880)" d="M29.4065 693.819 L34.9447 693.819 Q33.6716 696.302 33.035 698.975 Q32.3984 701.649 32.3984 704.513 Q32.3984 708.874 33.7352 711.07 Q35.072 713.234 37.7456 713.234 Q39.7826 713.234 40.9603 711.675 Q42.1061 710.115 43.1565 705.405 L43.6021 703.399 Q44.9389 697.161 47.3897 694.551 Q49.8086 691.909 54.1691 691.909 Q59.1344 691.909 62.0308 695.856 Q64.9272 699.771 64.9272 706.646 Q64.9272 709.51 64.3543 712.63 Q63.8132 715.717 62.6992 719.154 L56.6518 719.154 Q58.3387 715.908 59.198 712.757 Q60.0256 709.606 60.0256 706.519 Q60.0256 702.381 58.6251 700.153 Q57.1929 697.925 54.6147 697.925 Q52.2276 697.925 50.9545 699.548 Q49.6813 701.14 48.5037 706.582 L48.0262 708.619 Q46.8804 714.062 44.5251 716.481 Q42.138 718.9 38.0002 718.9 Q32.9713 718.9 30.2341 715.335 Q27.4968 711.77 27.4968 705.214 Q27.4968 701.967 27.9743 699.102 Q28.4517 696.238 29.4065 693.819 Z" fill="#000000" fill-rule="evenodd" fill-opacity="1" /><path clip-path="url(#clip880)" d="M29.4065 659.858 L34.9447 659.858 Q33.6716 662.341 33.035 665.014 Q32.3984 667.688 32.3984 670.552 Q32.3984 674.913 33.7352 677.109 Q35.072 679.273 37.7456 679.273 Q39.7826 679.273 40.9603 677.714 Q42.1061 676.154 43.1565 671.444 L43.6021 669.438 Q44.9389 663.2 47.3897 660.59 Q49.8086 657.948 54.1691 657.948 Q59.1344 657.948 62.0308 661.895 Q64.9272 665.81 64.9272 672.685 Q64.9272 675.549 64.3543 678.669 Q63.8132 681.756 62.6992 685.193 L56.6518 685.193 Q58.3387 681.947 59.198 678.796 Q60.0256 675.645 60.0256 672.558 Q60.0256 668.42 58.6251 666.192 Q57.1929 663.964 54.6147 663.964 Q52.2276 663.964 50.9545 665.587 Q49.6813 667.178 48.5037 672.621 L48.0262 674.658 Q46.8804 680.101 44.5251 682.52 Q42.138 684.939 38.0002 684.939 Q32.9713 684.939 30.2341 681.374 Q27.4968 677.809 27.4968 671.253 Q27.4968 668.006 27.9743 665.141 Q28.4517 662.277 29.4065 659.858 Z" fill="#000000" fill-rule="evenodd" fill-opacity="1" /><circle clip-path="url(#clip882)" cx="280.231" cy="1285.2" r="14" fill="#009af9" fill-rule="evenodd" fill-opacity="0.5" stroke="#000000" stroke-opacity="0.5" stroke-width="3.2"/>
<circle clip-path="url(#clip882)" cx="682.663" cy="889.07" r="14" fill="#009af9" fill-rule="evenodd" fill-opacity="0.5" stroke="#000000" stroke-opacity="0.5" stroke-width="3.2"/>
<circle clip-path="url(#clip882)" cx="1085.1" cy="393.903" r="14" fill="#009af9" fill-rule="evenodd" fill-opacity="0.5" stroke="#000000" stroke-opacity="0.5" stroke-width="3.2"/>
<circle clip-path="url(#clip882)" cx="1487.53" cy="393.903" r="14" fill="#009af9" fill-rule="evenodd" fill-opacity="0.5" stroke="#000000" stroke-opacity="0.5" stroke-width="3.2"/>
<circle clip-path="url(#clip882)" cx="1889.96" cy="889.07" r="14" fill="#009af9" fill-rule="evenodd" fill-opacity="0.5" stroke="#000000" stroke-opacity="0.5" stroke-width="3.2"/>
<circle clip-path="url(#clip882)" cx="2292.39" cy="1285.2" r="14" fill="#009af9" fill-rule="evenodd" fill-opacity="0.5" stroke="#000000" stroke-opacity="0.5" stroke-width="3.2"/>
<polyline clip-path="url(#clip882)" style="stroke:#009af9; stroke-linecap:butt; stroke-linejoin:round; stroke-width:4; stroke-opacity:0.5; fill:none" points="
  280.231,1384.24 280.231,1285.2 
  "/>
<polyline clip-path="url(#clip882)" style="stroke:#009af9; stroke-linecap:butt; stroke-linejoin:round; stroke-width:4; stroke-opacity:0.5; fill:none" points="
  682.663,1384.24 682.663,889.07 
  "/>
<polyline clip-path="url(#clip882)" style="stroke:#009af9; stroke-linecap:butt; stroke-linejoin:round; stroke-width:4; stroke-opacity:0.5; fill:none" points="
  1085.1,1384.24 1085.1,393.903 
  "/>
<polyline clip-path="url(#clip882)" style="stroke:#009af9; stroke-linecap:butt; stroke-linejoin:round; stroke-width:4; stroke-opacity:0.5; fill:none" points="
  1487.53,1384.24 1487.53,393.903 
  "/>
<polyline clip-path="url(#clip882)" style="stroke:#009af9; stroke-linecap:butt; stroke-linejoin:round; stroke-width:4; stroke-opacity:0.5; fill:none" points="
  1889.96,1384.24 1889.96,889.07 
  "/>
<polyline clip-path="url(#clip882)" style="stroke:#009af9; stroke-linecap:butt; stroke-linejoin:round; stroke-width:4; stroke-opacity:0.5; fill:none" points="
  2292.39,1384.24 2292.39,1285.2 
  "/>
<circle clip-path="url(#clip882)" cx="280.231" cy="345.796" r="14" fill="#e26f46" fill-rule="evenodd" fill-opacity="0.5" stroke="#000000" stroke-opacity="0.5" stroke-width="3.2"/>
<circle clip-path="url(#clip882)" cx="682.663" cy="86.1857" r="14" fill="#e26f46" fill-rule="evenodd" fill-opacity="0.5" stroke="#000000" stroke-opacity="0.5" stroke-width="3.2"/>
<circle clip-path="url(#clip882)" cx="1085.1" cy="735.212" r="14" fill="#e26f46" fill-rule="evenodd" fill-opacity="0.5" stroke="#000000" stroke-opacity="0.5" stroke-width="3.2"/>
<circle clip-path="url(#clip882)" cx="1487.53" cy="1221.98" r="14" fill="#e26f46" fill-rule="evenodd" fill-opacity="0.5" stroke="#000000" stroke-opacity="0.5" stroke-width="3.2"/>
<circle clip-path="url(#clip882)" cx="1889.96" cy="1363.96" r="14" fill="#e26f46" fill-rule="evenodd" fill-opacity="0.5" stroke="#000000" stroke-opacity="0.5" stroke-width="3.2"/>
<circle clip-path="url(#clip882)" cx="2292.39" cy="1383.22" r="14" fill="#e26f46" fill-rule="evenodd" fill-opacity="0.5" stroke="#000000" stroke-opacity="0.5" stroke-width="3.2"/>
<polyline clip-path="url(#clip882)" style="stroke:#e26f46; stroke-linecap:butt; stroke-linejoin:round; stroke-width:4; stroke-opacity:0.5; fill:none" points="
  280.231,1384.24 280.231,345.796 
  "/>
<polyline clip-path="url(#clip882)" style="stroke:#e26f46; stroke-linecap:butt; stroke-linejoin:round; stroke-width:4; stroke-opacity:0.5; fill:none" points="
  682.663,1384.24 682.663,86.1857 
  "/>
<polyline clip-path="url(#clip882)" style="stroke:#e26f46; stroke-linecap:butt; stroke-linejoin:round; stroke-width:4; stroke-opacity:0.5; fill:none" points="
  1085.1,1384.24 1085.1,735.212 
  "/>
<polyline clip-path="url(#clip882)" style="stroke:#e26f46; stroke-linecap:butt; stroke-linejoin:round; stroke-width:4; stroke-opacity:0.5; fill:none" points="
  1487.53,1384.24 1487.53,1221.98 
  "/>
<polyline clip-path="url(#clip882)" style="stroke:#e26f46; stroke-linecap:butt; stroke-linejoin:round; stroke-width:4; stroke-opacity:0.5; fill:none" points="
  1889.96,1384.24 1889.96,1363.96 
  "/>
<polyline clip-path="url(#clip882)" style="stroke:#e26f46; stroke-linecap:butt; stroke-linejoin:round; stroke-width:4; stroke-opacity:0.5; fill:none" points="
  2292.39,1384.24 2292.39,1383.22 
  "/>
<path clip-path="url(#clip880)" d="
M1896.53 248.629 L2281.66 248.629 L2281.66 93.1086 L1896.53 93.1086  Z
  " fill="#ffffff" fill-rule="evenodd" fill-opacity="1"/>
<polyline clip-path="url(#clip880)" style="stroke:#000000; stroke-linecap:butt; stroke-linejoin:round; stroke-width:4; stroke-opacity:1; fill:none" points="
  1896.53,248.629 2281.66,248.629 2281.66,93.1086 1896.53,93.1086 1896.53,248.629 
  "/>
<circle clip-path="url(#clip880)" cx="1991.32" cy="144.949" r="23" fill="#009af9" fill-rule="evenodd" fill-opacity="0.5" stroke="#000000" stroke-opacity="0.5" stroke-width="5.12"/>
<path clip-path="url(#clip880)" d="M2111.18 149.541 Q2111.18 152.961 2109.45 156.263 Q2107.74 159.566 2105.04 161.604 Q2102.35 163.618 2099.61 163.618 Q2097.97 163.618 2096.87 162.728 Q2095.79 161.815 2095.21 160.526 Q2094.76 162.119 2093.8 165.937 Q2092.84 169.755 2092.84 170.13 Q2092.84 170.34 2092.89 170.434 Q2092.94 170.528 2093.15 170.645 Q2093.36 170.785 2093.87 170.832 Q2094.39 170.902 2095.25 170.902 Q2095.7 170.902 2095.86 170.902 Q2096.05 170.926 2096.21 171.043 Q2096.4 171.16 2096.4 171.418 Q2096.4 172.378 2095.54 172.378 Q2094.76 172.378 2093.17 172.308 Q2091.58 172.238 2090.78 172.238 Q2090.1 172.238 2088.74 172.308 Q2087.38 172.378 2086.75 172.378 Q2086.12 172.378 2086.12 171.816 Q2086.12 171.488 2086.21 171.277 Q2086.28 171.09 2086.47 170.996 Q2086.66 170.926 2086.82 170.902 Q2086.96 170.902 2087.24 170.902 Q2088.32 170.902 2088.79 170.715 Q2089.26 170.551 2089.42 170.2 Q2089.61 169.872 2089.82 168.935 L2095.21 147.574 Q2095.54 146.145 2095.54 145.138 Q2095.54 143.873 2095.14 143.405 Q2094.74 142.936 2094.04 142.936 Q2092.82 142.936 2092.02 144.388 Q2091.23 145.84 2090.55 148.651 Q2090.34 149.424 2090.19 149.588 Q2090.08 149.752 2089.73 149.752 Q2089.14 149.729 2089.14 149.26 Q2089.14 149.143 2089.33 148.393 Q2089.52 147.621 2089.87 146.496 Q2090.24 145.349 2090.64 144.622 Q2090.87 144.131 2091.08 143.803 Q2091.3 143.475 2091.72 142.959 Q2092.16 142.444 2092.79 142.163 Q2093.43 141.882 2094.2 141.882 Q2095.7 141.882 2096.94 142.772 Q2098.18 143.662 2098.51 145.466 Q2099.84 143.896 2101.48 142.889 Q2103.12 141.882 2104.79 141.882 Q2107.55 141.882 2109.35 144.037 Q2111.18 146.168 2111.18 149.541 M2107.71 147.433 Q2107.71 145.302 2106.9 144.131 Q2106.1 142.936 2104.65 142.936 Q2102.84 142.936 2100.76 144.763 Q2098.7 146.496 2098.28 148.112 L2095.91 157.505 L2095.77 158.278 Q2095.77 158.418 2095.84 158.84 Q2095.93 159.238 2096.19 159.894 Q2096.47 160.55 2096.85 161.135 Q2097.25 161.697 2097.95 162.119 Q2098.67 162.541 2099.56 162.541 Q2100.99 162.541 2102.54 161.276 Q2104.11 160.011 2105.28 157.622 Q2106.01 156.076 2106.85 152.75 Q2107.71 149.401 2107.71 147.433 Z" fill="#000000" fill-rule="evenodd" fill-opacity="1" /><path clip-path="url(#clip880)" d="M2123.31 155.795 Q2123.36 155.209 2124.27 155.209 L2153.67 155.209 Q2155.05 155.209 2155.07 155.748 Q2155.07 156.334 2153.76 156.31 L2124.6 156.31 Q2123.31 156.334 2123.31 155.795 M2123.31 146.426 Q2123.31 145.84 2124.32 145.864 L2153.62 145.864 Q2155.05 145.864 2155.07 146.426 Q2155.07 146.965 2153.86 146.965 L2124.27 146.965 Q2123.31 146.965 2123.31 146.426 Z" fill="#000000" fill-rule="evenodd" fill-opacity="1" /><path clip-path="url(#clip880)" d="M2173.57 147.738 Q2173.57 140.688 2175.35 136.846 Q2177.83 131.131 2183.68 131.131 Q2184.92 131.131 2186.21 131.482 Q2187.52 131.81 2189.16 133.099 Q2190.83 134.387 2191.83 136.495 Q2193.76 140.57 2193.76 147.738 Q2193.76 154.741 2191.98 158.559 Q2189.38 164.133 2183.64 164.133 Q2181.48 164.133 2179.28 163.033 Q2177.1 161.932 2175.72 159.285 Q2173.57 155.327 2173.57 147.738 M2177.55 147.152 Q2177.55 154.39 2178.06 157.271 Q2178.65 160.386 2180.24 161.744 Q2181.86 163.079 2183.64 163.079 Q2185.56 163.079 2187.15 161.651 Q2188.77 160.198 2189.26 157.083 Q2189.8 154.015 2189.77 147.152 Q2189.77 140.477 2189.3 137.807 Q2188.67 134.691 2186.99 133.45 Q2185.32 132.185 2183.64 132.185 Q2183 132.185 2182.33 132.373 Q2181.67 132.56 2180.71 133.099 Q2179.75 133.637 2179 134.972 Q2178.27 136.308 2177.92 138.322 Q2177.55 140.922 2177.55 147.152 Z" fill="#000000" fill-rule="evenodd" fill-opacity="1" /><path clip-path="url(#clip880)" d="M2198.04 162.306 Q2197.32 161.533 2197.32 160.526 Q2197.32 159.519 2198.04 158.793 Q2198.77 158.044 2199.87 158.044 Q2200.92 158.044 2201.62 158.746 Q2202.35 159.425 2202.35 160.55 Q2202.35 161.651 2201.58 162.377 Q2200.83 163.079 2199.87 163.079 Q2198.77 163.079 2198.04 162.306 Z" fill="#000000" fill-rule="evenodd" fill-opacity="1" /><path clip-path="url(#clip880)" d="M2210.51 155.35 Q2210.51 153.921 2211.28 153.382 Q2212.06 152.82 2212.88 152.82 Q2213.98 152.82 2214.61 153.523 Q2215.27 154.202 2215.27 155.163 Q2215.27 156.123 2214.61 156.826 Q2213.98 157.505 2212.88 157.505 Q2212.34 157.505 2212.06 157.411 Q2212.69 159.613 2214.61 161.206 Q2216.56 162.798 2219.11 162.798 Q2222.32 162.798 2224.24 159.683 Q2225.39 157.669 2225.39 153.101 Q2225.39 149.073 2224.52 147.058 Q2223.18 143.99 2220.44 143.99 Q2216.56 143.99 2214.26 147.339 Q2213.98 147.761 2213.65 147.785 Q2213.18 147.785 2213.07 147.527 Q2212.97 147.246 2212.97 146.52 L2212.97 132.326 Q2212.97 131.178 2213.44 131.178 Q2213.63 131.178 2214.03 131.319 Q2217.05 132.654 2220.4 132.677 Q2223.84 132.677 2226.93 131.272 Q2227.17 131.131 2227.31 131.131 Q2227.77 131.131 2227.8 131.67 Q2227.8 131.857 2227.4 132.419 Q2227.02 132.958 2226.21 133.684 Q2225.39 134.387 2224.33 135.066 Q2223.28 135.745 2221.73 136.214 Q2220.21 136.659 2218.52 136.659 Q2216.51 136.659 2214.45 136.026 L2214.45 145.372 Q2216.93 142.936 2220.54 142.936 Q2224.38 142.936 2227.02 146.028 Q2229.67 149.12 2229.67 153.429 Q2229.67 157.95 2226.53 161.042 Q2223.42 164.133 2219.2 164.133 Q2215.36 164.133 2212.92 161.393 Q2210.51 158.653 2210.51 155.35 Z" fill="#000000" fill-rule="evenodd" fill-opacity="1" /><circle clip-path="url(#clip880)" cx="1991.32" cy="196.789" r="23" fill="#e26f46" fill-rule="evenodd" fill-opacity="0.5" stroke="#000000" stroke-opacity="0.5" stroke-width="5.12"/>
<path clip-path="url(#clip880)" d="M2111.18 201.381 Q2111.18 204.801 2109.45 208.103 Q2107.74 211.406 2105.04 213.444 Q2102.35 215.458 2099.61 215.458 Q2097.97 215.458 2096.87 214.568 Q2095.79 213.655 2095.21 212.366 Q2094.76 213.959 2093.8 217.777 Q2092.84 221.595 2092.84 221.97 Q2092.84 222.18 2092.89 222.274 Q2092.94 222.368 2093.15 222.485 Q2093.36 222.625 2093.87 222.672 Q2094.39 222.742 2095.25 222.742 Q2095.7 222.742 2095.86 222.742 Q2096.05 222.766 2096.21 222.883 Q2096.4 223 2096.4 223.258 Q2096.4 224.218 2095.54 224.218 Q2094.76 224.218 2093.17 224.148 Q2091.58 224.078 2090.78 224.078 Q2090.1 224.078 2088.74 224.148 Q2087.38 224.218 2086.75 224.218 Q2086.12 224.218 2086.12 223.656 Q2086.12 223.328 2086.21 223.117 Q2086.28 222.93 2086.47 222.836 Q2086.66 222.766 2086.82 222.742 Q2086.96 222.742 2087.24 222.742 Q2088.32 222.742 2088.79 222.555 Q2089.26 222.391 2089.42 222.04 Q2089.61 221.712 2089.82 220.775 L2095.21 199.414 Q2095.54 197.985 2095.54 196.978 Q2095.54 195.713 2095.14 195.245 Q2094.74 194.776 2094.04 194.776 Q2092.82 194.776 2092.02 196.228 Q2091.23 197.68 2090.55 200.491 Q2090.34 201.264 2090.19 201.428 Q2090.08 201.592 2089.73 201.592 Q2089.14 201.569 2089.14 201.1 Q2089.14 200.983 2089.33 200.233 Q2089.52 199.461 2089.87 198.336 Q2090.24 197.189 2090.64 196.462 Q2090.87 195.971 2091.08 195.643 Q2091.3 195.315 2091.72 194.799 Q2092.16 194.284 2092.79 194.003 Q2093.43 193.722 2094.2 193.722 Q2095.7 193.722 2096.94 194.612 Q2098.18 195.502 2098.51 197.306 Q2099.84 195.736 2101.48 194.729 Q2103.12 193.722 2104.79 193.722 Q2107.55 193.722 2109.35 195.877 Q2111.18 198.008 2111.18 201.381 M2107.71 199.273 Q2107.71 197.142 2106.9 195.971 Q2106.1 194.776 2104.65 194.776 Q2102.84 194.776 2100.76 196.603 Q2098.7 198.336 2098.28 199.952 L2095.91 209.345 L2095.77 210.118 Q2095.77 210.258 2095.84 210.68 Q2095.93 211.078 2096.19 211.734 Q2096.47 212.39 2096.85 212.975 Q2097.25 213.537 2097.95 213.959 Q2098.67 214.381 2099.56 214.381 Q2100.99 214.381 2102.54 213.116 Q2104.11 211.851 2105.28 209.462 Q2106.01 207.916 2106.85 204.59 Q2107.71 201.241 2107.71 199.273 Z" fill="#000000" fill-rule="evenodd" fill-opacity="1" /><path clip-path="url(#clip880)" d="M2123.31 207.635 Q2123.36 207.049 2124.27 207.049 L2153.67 207.049 Q2155.05 207.049 2155.07 207.588 Q2155.07 208.174 2153.76 208.15 L2124.6 208.15 Q2123.31 208.174 2123.31 207.635 M2123.31 198.266 Q2123.31 197.68 2124.32 197.704 L2153.62 197.704 Q2155.05 197.704 2155.07 198.266 Q2155.07 198.805 2153.86 198.805 L2124.27 198.805 Q2123.31 198.805 2123.31 198.266 Z" fill="#000000" fill-rule="evenodd" fill-opacity="1" /><path clip-path="url(#clip880)" d="M2173.57 199.578 Q2173.57 192.528 2175.35 188.686 Q2177.83 182.971 2183.68 182.971 Q2184.92 182.971 2186.21 183.322 Q2187.52 183.65 2189.16 184.939 Q2190.83 186.227 2191.83 188.335 Q2193.76 192.41 2193.76 199.578 Q2193.76 206.581 2191.98 210.399 Q2189.38 215.973 2183.64 215.973 Q2181.48 215.973 2179.28 214.873 Q2177.1 213.772 2175.72 211.125 Q2173.57 207.167 2173.57 199.578 M2177.55 198.992 Q2177.55 206.23 2178.06 209.111 Q2178.65 212.226 2180.24 213.584 Q2181.86 214.919 2183.64 214.919 Q2185.56 214.919 2187.15 213.491 Q2188.77 212.038 2189.26 208.923 Q2189.8 205.855 2189.77 198.992 Q2189.77 192.317 2189.3 189.647 Q2188.67 186.531 2186.99 185.29 Q2185.32 184.025 2183.64 184.025 Q2183 184.025 2182.33 184.213 Q2181.67 184.4 2180.71 184.939 Q2179.75 185.477 2179 186.812 Q2178.27 188.148 2177.92 190.162 Q2177.55 192.762 2177.55 198.992 Z" fill="#000000" fill-rule="evenodd" fill-opacity="1" /><path clip-path="url(#clip880)" d="M2198.04 214.146 Q2197.32 213.373 2197.32 212.366 Q2197.32 211.359 2198.04 210.633 Q2198.77 209.884 2199.87 209.884 Q2200.92 209.884 2201.62 210.586 Q2202.35 211.265 2202.35 212.39 Q2202.35 213.491 2201.58 214.217 Q2200.83 214.919 2199.87 214.919 Q2198.77 214.919 2198.04 214.146 Z" fill="#000000" fill-rule="evenodd" fill-opacity="1" /><path clip-path="url(#clip880)" d="M2210.51 214.919 Q2210.51 214.053 2210.58 213.795 Q2210.68 213.537 2211.05 213.139 L2220.26 202.88 Q2225.29 197.212 2225.29 192.27 Q2225.29 189.061 2223.61 186.766 Q2221.94 184.47 2218.87 184.47 Q2216.77 184.47 2214.99 185.758 Q2213.21 187.047 2212.39 189.342 Q2212.53 189.295 2213.02 189.295 Q2214.21 189.295 2214.87 190.045 Q2215.55 190.794 2215.55 191.801 Q2215.55 193.09 2214.7 193.722 Q2213.88 194.331 2213.07 194.331 Q2212.74 194.331 2212.29 194.261 Q2211.87 194.191 2211.19 193.535 Q2210.51 192.855 2210.51 191.661 Q2210.51 188.311 2213.04 185.641 Q2215.59 182.971 2219.48 182.971 Q2223.89 182.971 2226.77 185.594 Q2229.67 188.194 2229.67 192.27 Q2229.67 193.699 2229.23 195.01 Q2228.8 196.299 2228.22 197.306 Q2227.66 198.313 2226.11 199.929 Q2224.57 201.545 2223.32 202.693 Q2222.08 203.841 2219.3 206.276 L2214.21 211.219 L2222.86 211.219 Q2227.07 211.219 2227.4 210.844 Q2227.87 210.165 2228.45 206.581 L2229.67 206.581 L2228.31 214.919 L2210.51 214.919 Z" fill="#000000" fill-rule="evenodd" fill-opacity="1" /></svg>
