<?xml version="1.0" encoding="utf-8"?>
<svg xmlns="http://www.w3.org/2000/svg" xmlns:xlink="http://www.w3.org/1999/xlink" width="600" height="400" viewBox="0 0 2400 1600">
<defs>
  <clipPath id="clip000">
    <rect x="0" y="0" width="2400" height="1600"/>
  </clipPath>
</defs>
<path clip-path="url(#clip000)" d="
M0 1600 L2400 1600 L2400 0 L0 0  Z
  " fill="#ffffff" fill-rule="evenodd" fill-opacity="1"/>
<defs>
  <clipPath id="clip001">
    <rect x="480" y="0" width="1681" height="1600"/>
  </clipPath>
</defs>
<defs>
  <clipPath id="clip002">
    <rect x="219" y="47" width="2134" height="1377"/>
  </clipPath>
</defs>
<path clip-path="url(#clip000)" d="
M219.38 1423.18 L2352.76 1423.18 L2352.76 47.2441 L219.38 47.2441  Z
  " fill="#ffffff" fill-rule="evenodd" fill-opacity="1"/>
<polyline clip-path="url(#clip002)" style="stroke:#000000; stroke-linecap:butt; stroke-linejoin:round; stroke-width:2; stroke-opacity:0.1; fill:none" points="
  219.38,1423.18 219.38,47.2441 
  "/>
<polyline clip-path="url(#clip002)" style="stroke:#000000; stroke-linecap:butt; stroke-linejoin:round; stroke-width:2; stroke-opacity:0.1; fill:none" points="
  930.505,1423.18 930.505,47.2441 
  "/>
<polyline clip-path="url(#clip002)" style="stroke:#000000; stroke-linecap:butt; stroke-linejoin:round; stroke-width:2; stroke-opacity:0.1; fill:none" points="
  1641.63,1423.18 1641.63,47.2441 
  "/>
<polyline clip-path="url(#clip002)" style="stroke:#000000; stroke-linecap:butt; stroke-linejoin:round; stroke-width:2; stroke-opacity:0.1; fill:none" points="
  2352.76,1423.18 2352.76,47.2441 
  "/>
<polyline clip-path="url(#clip000)" style="stroke:#000000; stroke-linecap:butt; stroke-linejoin:round; stroke-width:4; stroke-opacity:1; fill:none" points="
  219.38,1423.18 2352.76,1423.18 
  "/>
<polyline clip-path="url(#clip000)" style="stroke:#000000; stroke-linecap:butt; stroke-linejoin:round; stroke-width:4; stroke-opacity:1; fill:none" points="
  219.38,1423.18 219.38,1404.28 
  "/>
<polyline clip-path="url(#clip000)" style="stroke:#000000; stroke-linecap:butt; stroke-linejoin:round; stroke-width:4; stroke-opacity:1; fill:none" points="
  930.505,1423.18 930.505,1404.28 
  "/>
<polyline clip-path="url(#clip000)" style="stroke:#000000; stroke-linecap:butt; stroke-linejoin:round; stroke-width:4; stroke-opacity:1; fill:none" points="
  1641.63,1423.18 1641.63,1404.28 
  "/>
<polyline clip-path="url(#clip000)" style="stroke:#000000; stroke-linecap:butt; stroke-linejoin:round; stroke-width:4; stroke-opacity:1; fill:none" points="
  2352.76,1423.18 2352.76,1404.28 
  "/>
<path clip-path="url(#clip000)" d="M219.38 1454.1 Q215.769 1454.1 213.94 1457.66 Q212.135 1461.2 212.135 1468.33 Q212.135 1475.44 213.94 1479.01 Q215.769 1482.55 219.38 1482.55 Q223.014 1482.55 224.82 1479.01 Q226.649 1475.44 226.649 1468.33 Q226.649 1461.2 224.82 1457.66 Q223.014 1454.1 219.38 1454.1 M219.38 1450.39 Q225.19 1450.39 228.246 1455 Q231.325 1459.58 231.325 1468.33 Q231.325 1477.06 228.246 1481.67 Q225.19 1486.25 219.38 1486.25 Q213.57 1486.25 210.491 1481.67 Q207.436 1477.06 207.436 1468.33 Q207.436 1459.58 210.491 1455 Q213.57 1450.39 219.38 1450.39 Z" fill="#000000" fill-rule="evenodd" fill-opacity="1" /><path clip-path="url(#clip000)" d="M920.887 1481.64 L928.526 1481.64 L928.526 1455.28 L920.216 1456.95 L920.216 1452.69 L928.48 1451.02 L933.156 1451.02 L933.156 1481.64 L940.795 1481.64 L940.795 1485.58 L920.887 1485.58 L920.887 1481.64 Z" fill="#000000" fill-rule="evenodd" fill-opacity="1" /><path clip-path="url(#clip000)" d="M1636.28 1481.64 L1652.6 1481.64 L1652.6 1485.58 L1630.66 1485.58 L1630.66 1481.64 Q1633.32 1478.89 1637.9 1474.26 Q1642.51 1469.61 1643.69 1468.27 Q1645.94 1465.74 1646.82 1464.01 Q1647.72 1462.25 1647.72 1460.56 Q1647.72 1457.8 1645.77 1456.07 Q1643.85 1454.33 1640.75 1454.33 Q1638.55 1454.33 1636.1 1455.09 Q1633.67 1455.86 1630.89 1457.41 L1630.89 1452.69 Q1633.71 1451.55 1636.17 1450.97 Q1638.62 1450.39 1640.66 1450.39 Q1646.03 1450.39 1649.22 1453.08 Q1652.42 1455.77 1652.42 1460.26 Q1652.42 1462.39 1651.61 1464.31 Q1650.82 1466.2 1648.71 1468.8 Q1648.14 1469.47 1645.03 1472.69 Q1641.93 1475.88 1636.28 1481.64 Z" fill="#000000" fill-rule="evenodd" fill-opacity="1" /><path clip-path="url(#clip000)" d="M2357 1466.95 Q2360.36 1467.66 2362.24 1469.93 Q2364.13 1472.2 2364.13 1475.53 Q2364.13 1480.65 2360.61 1483.45 Q2357.1 1486.25 2350.61 1486.25 Q2348.44 1486.25 2346.12 1485.81 Q2343.83 1485.39 2341.38 1484.54 L2341.38 1480.02 Q2343.32 1481.16 2345.64 1481.74 Q2347.95 1482.32 2350.48 1482.32 Q2354.87 1482.32 2357.17 1480.58 Q2359.48 1478.84 2359.48 1475.53 Q2359.48 1472.48 2357.33 1470.77 Q2355.2 1469.03 2351.38 1469.03 L2347.35 1469.03 L2347.35 1465.19 L2351.56 1465.19 Q2355.01 1465.19 2356.84 1463.82 Q2358.67 1462.43 2358.67 1459.84 Q2358.67 1457.18 2356.77 1455.77 Q2354.9 1454.33 2351.38 1454.33 Q2349.46 1454.33 2347.26 1454.75 Q2345.06 1455.16 2342.42 1456.04 L2342.42 1451.88 Q2345.08 1451.14 2347.4 1450.77 Q2349.74 1450.39 2351.8 1450.39 Q2357.12 1450.39 2360.22 1452.83 Q2363.32 1455.23 2363.32 1459.35 Q2363.32 1462.22 2361.68 1464.21 Q2360.04 1466.18 2357 1466.95 Z" fill="#000000" fill-rule="evenodd" fill-opacity="1" /><path clip-path="url(#clip000)" d="M1298 1545.85 Q1298 1551.26 1296.26 1557.35 Q1294.56 1563.4 1291.85 1568.3 Q1289.15 1573.16 1285.6 1576.38 Q1282.06 1579.57 1278.68 1579.57 Q1276.52 1579.57 1274.91 1578.38 Q1273.33 1577.15 1272.46 1575.12 Q1271.59 1573.06 1271.18 1570.81 Q1270.76 1568.52 1270.76 1566.04 Q1270.76 1562.34 1271.56 1558.31 Q1272.37 1554.25 1273.72 1550.58 Q1275.07 1546.88 1276.97 1543.53 Q1278.87 1540.15 1280.97 1537.7 Q1283.09 1535.22 1285.47 1533.77 Q1287.86 1532.32 1290.08 1532.32 Q1291.69 1532.32 1292.98 1533.03 Q1294.3 1533.71 1295.14 1534.9 Q1295.97 1536.06 1296.55 1537.44 Q1297.17 1538.83 1297.46 1540.44 Q1297.75 1542.02 1297.87 1543.34 Q1298 1544.63 1298 1545.85 M1293.66 1541.76 Q1293.66 1540.12 1293.53 1538.89 Q1293.4 1537.64 1293.04 1536.38 Q1292.69 1535.12 1291.92 1534.45 Q1291.18 1533.77 1290.02 1533.77 Q1286.63 1533.77 1282.83 1540.7 Q1281.61 1542.85 1280.52 1545.78 Q1279.42 1548.72 1279.03 1550.1 Q1278.65 1551.49 1277.75 1554.9 L1291.53 1554.9 Q1293.66 1546.11 1293.66 1541.76 M1290.95 1556.99 L1277.23 1556.99 Q1275.1 1565.04 1275.1 1570.07 Q1275.1 1574.45 1276.01 1576.28 Q1276.94 1578.09 1278.68 1578.09 Q1280.68 1578.09 1282.54 1576.09 Q1284.41 1574.06 1286.31 1570.39 Q1288.82 1565.62 1290.95 1556.99 Z" fill="#000000" fill-rule="evenodd" fill-opacity="1" /><polyline clip-path="url(#clip002)" style="stroke:#000000; stroke-linecap:butt; stroke-linejoin:round; stroke-width:2; stroke-opacity:0.1; fill:none" points="
  219.38,1384.24 2352.76,1384.24 
  "/>
<polyline clip-path="url(#clip002)" style="stroke:#000000; stroke-linecap:butt; stroke-linejoin:round; stroke-width:2; stroke-opacity:0.1; fill:none" points="
  219.38,989.99 2352.76,989.99 
  "/>
<polyline clip-path="url(#clip002)" style="stroke:#000000; stroke-linecap:butt; stroke-linejoin:round; stroke-width:2; stroke-opacity:0.1; fill:none" points="
  219.38,595.741 2352.76,595.741 
  "/>
<polyline clip-path="url(#clip002)" style="stroke:#000000; stroke-linecap:butt; stroke-linejoin:round; stroke-width:2; stroke-opacity:0.1; fill:none" points="
  219.38,201.492 2352.76,201.492 
  "/>
<polyline clip-path="url(#clip000)" style="stroke:#000000; stroke-linecap:butt; stroke-linejoin:round; stroke-width:4; stroke-opacity:1; fill:none" points="
  219.38,1423.18 219.38,47.2441 
  "/>
<polyline clip-path="url(#clip000)" style="stroke:#000000; stroke-linecap:butt; stroke-linejoin:round; stroke-width:4; stroke-opacity:1; fill:none" points="
  219.38,1384.24 238.278,1384.24 
  "/>
<polyline clip-path="url(#clip000)" style="stroke:#000000; stroke-linecap:butt; stroke-linejoin:round; stroke-width:4; stroke-opacity:1; fill:none" points="
  219.38,989.99 238.278,989.99 
  "/>
<polyline clip-path="url(#clip000)" style="stroke:#000000; stroke-linecap:butt; stroke-linejoin:round; stroke-width:4; stroke-opacity:1; fill:none" points="
  219.38,595.741 238.278,595.741 
  "/>
<polyline clip-path="url(#clip000)" style="stroke:#000000; stroke-linecap:butt; stroke-linejoin:round; stroke-width:4; stroke-opacity:1; fill:none" points="
  219.38,201.492 238.278,201.492 
  "/>
<path clip-path="url(#clip000)" d="M126.205 1370.04 Q122.593 1370.04 120.765 1373.6 Q118.959 1377.14 118.959 1384.27 Q118.959 1391.38 120.765 1394.94 Q122.593 1398.49 126.205 1398.49 Q129.839 1398.49 131.644 1394.94 Q133.473 1391.38 133.473 1384.27 Q133.473 1377.14 131.644 1373.6 Q129.839 1370.04 126.205 1370.04 M126.205 1366.33 Q132.015 1366.33 135.07 1370.94 Q138.149 1375.52 138.149 1384.27 Q138.149 1393 135.07 1397.61 Q132.015 1402.19 126.205 1402.19 Q120.394 1402.19 117.316 1397.61 Q114.26 1393 114.26 1384.27 Q114.26 1375.52 117.316 1370.94 Q120.394 1366.33 126.205 1366.33 Z" fill="#000000" fill-rule="evenodd" fill-opacity="1" /><path clip-path="url(#clip000)" d="M146.366 1395.64 L151.251 1395.64 L151.251 1401.52 L146.366 1401.52 L146.366 1395.64 Z" fill="#000000" fill-rule="evenodd" fill-opacity="1" /><path clip-path="url(#clip000)" d="M171.436 1370.04 Q167.825 1370.04 165.996 1373.6 Q164.19 1377.14 164.19 1384.27 Q164.19 1391.38 165.996 1394.94 Q167.825 1398.49 171.436 1398.49 Q175.07 1398.49 176.876 1394.94 Q178.704 1391.38 178.704 1384.27 Q178.704 1377.14 176.876 1373.6 Q175.07 1370.04 171.436 1370.04 M171.436 1366.33 Q177.246 1366.33 180.301 1370.94 Q183.38 1375.52 183.38 1384.27 Q183.38 1393 180.301 1397.61 Q177.246 1402.19 171.436 1402.19 Q165.626 1402.19 162.547 1397.61 Q159.491 1393 159.491 1384.27 Q159.491 1375.52 162.547 1370.94 Q165.626 1366.33 171.436 1366.33 Z" fill="#000000" fill-rule="evenodd" fill-opacity="1" /><path clip-path="url(#clip000)" d="M127.2 975.788 Q123.589 975.788 121.76 979.353 Q119.955 982.895 119.955 990.024 Q119.955 997.131 121.76 1000.7 Q123.589 1004.24 127.2 1004.24 Q130.834 1004.24 132.64 1000.7 Q134.468 997.131 134.468 990.024 Q134.468 982.895 132.64 979.353 Q130.834 975.788 127.2 975.788 M127.2 972.085 Q133.01 972.085 136.066 976.691 Q139.144 981.274 139.144 990.024 Q139.144 998.751 136.066 1003.36 Q133.01 1007.94 127.2 1007.94 Q121.39 1007.94 118.311 1003.36 Q115.256 998.751 115.256 990.024 Q115.256 981.274 118.311 976.691 Q121.39 972.085 127.2 972.085 Z" fill="#000000" fill-rule="evenodd" fill-opacity="1" /><path clip-path="url(#clip000)" d="M147.362 1001.39 L152.246 1001.39 L152.246 1007.27 L147.362 1007.27 L147.362 1001.39 Z" fill="#000000" fill-rule="evenodd" fill-opacity="1" /><path clip-path="url(#clip000)" d="M162.477 972.71 L180.834 972.71 L180.834 976.645 L166.76 976.645 L166.76 985.117 Q167.778 984.77 168.797 984.608 Q169.815 984.422 170.834 984.422 Q176.621 984.422 180.001 987.594 Q183.38 990.765 183.38 996.182 Q183.38 1001.76 179.908 1004.86 Q176.436 1007.94 170.116 1007.94 Q167.94 1007.94 165.672 1007.57 Q163.427 1007.2 161.019 1006.46 L161.019 1001.76 Q163.102 1002.89 165.325 1003.45 Q167.547 1004.01 170.024 1004.01 Q174.028 1004.01 176.366 1001.9 Q178.704 999.793 178.704 996.182 Q178.704 992.571 176.366 990.464 Q174.028 988.358 170.024 988.358 Q168.149 988.358 166.274 988.774 Q164.422 989.191 162.477 990.071 L162.477 972.71 Z" fill="#000000" fill-rule="evenodd" fill-opacity="1" /><path clip-path="url(#clip000)" d="M117.015 609.086 L124.654 609.086 L124.654 582.72 L116.343 584.387 L116.343 580.127 L124.607 578.461 L129.283 578.461 L129.283 609.086 L136.922 609.086 L136.922 613.021 L117.015 613.021 L117.015 609.086 Z" fill="#000000" fill-rule="evenodd" fill-opacity="1" /><path clip-path="url(#clip000)" d="M146.366 607.141 L151.251 607.141 L151.251 613.021 L146.366 613.021 L146.366 607.141 Z" fill="#000000" fill-rule="evenodd" fill-opacity="1" /><path clip-path="url(#clip000)" d="M171.436 581.539 Q167.825 581.539 165.996 585.104 Q164.19 588.646 164.19 595.775 Q164.19 602.882 165.996 606.447 Q167.825 609.988 171.436 609.988 Q175.07 609.988 176.876 606.447 Q178.704 602.882 178.704 595.775 Q178.704 588.646 176.876 585.104 Q175.07 581.539 171.436 581.539 M171.436 577.836 Q177.246 577.836 180.301 582.442 Q183.38 587.026 183.38 595.775 Q183.38 604.502 180.301 609.109 Q177.246 613.692 171.436 613.692 Q165.626 613.692 162.547 609.109 Q159.491 604.502 159.491 595.775 Q159.491 587.026 162.547 582.442 Q165.626 577.836 171.436 577.836 Z" fill="#000000" fill-rule="evenodd" fill-opacity="1" /><path clip-path="url(#clip000)" d="M118.01 214.837 L125.649 214.837 L125.649 188.471 L117.339 190.138 L117.339 185.879 L125.603 184.212 L130.279 184.212 L130.279 214.837 L137.917 214.837 L137.917 218.772 L118.01 218.772 L118.01 214.837 Z" fill="#000000" fill-rule="evenodd" fill-opacity="1" /><path clip-path="url(#clip000)" d="M147.362 212.892 L152.246 212.892 L152.246 218.772 L147.362 218.772 L147.362 212.892 Z" fill="#000000" fill-rule="evenodd" fill-opacity="1" /><path clip-path="url(#clip000)" d="M162.477 184.212 L180.834 184.212 L180.834 188.147 L166.76 188.147 L166.76 196.619 Q167.778 196.272 168.797 196.11 Q169.815 195.925 170.834 195.925 Q176.621 195.925 180.001 199.096 Q183.38 202.267 183.38 207.684 Q183.38 213.263 179.908 216.365 Q176.436 219.443 170.116 219.443 Q167.94 219.443 165.672 219.073 Q163.427 218.703 161.019 217.962 L161.019 213.263 Q163.102 214.397 165.325 214.953 Q167.547 215.508 170.024 215.508 Q174.028 215.508 176.366 213.402 Q178.704 211.295 178.704 207.684 Q178.704 204.073 176.366 201.967 Q174.028 199.86 170.024 199.86 Q168.149 199.86 166.274 200.277 Q164.422 200.693 162.477 201.573 L162.477 184.212 Z" fill="#000000" fill-rule="evenodd" fill-opacity="1" /><path clip-path="url(#clip000)" d="M21.7677 848.522 L58.7206 848.522 L58.7206 840.755 Q58.7206 830.92 54.2646 826.369 Q49.8086 821.786 40.1964 821.786 Q30.6479 821.786 26.2237 826.369 Q21.7677 830.92 21.7677 840.755 L21.7677 848.522 M16.4842 854.951 L16.4842 841.742 Q16.4842 827.928 22.2451 821.467 Q27.9743 815.006 40.1964 815.006 Q52.4822 815.006 58.2432 821.499 Q64.0042 827.992 64.0042 841.742 L64.0042 854.951 L16.4842 854.951 Z" fill="#000000" fill-rule="evenodd" fill-opacity="1" /><path clip-path="url(#clip000)" d="M44.7161 774.52 L47.5806 774.52 L47.5806 801.447 Q53.6281 801.065 56.8109 797.819 Q59.9619 794.54 59.9619 788.716 Q59.9619 785.342 59.1344 782.191 Q58.3069 779.008 56.6518 775.889 L62.1899 775.889 Q63.5267 779.04 64.227 782.35 Q64.9272 785.66 64.9272 789.066 Q64.9272 797.596 59.9619 802.593 Q54.9967 807.558 46.5303 807.558 Q37.7774 807.558 32.6531 802.848 Q27.4968 798.105 27.4968 790.084 Q27.4968 782.891 32.1438 778.722 Q36.7589 774.52 44.7161 774.52 M42.9973 780.377 Q38.1912 780.44 35.3266 783.082 Q32.4621 785.692 32.4621 790.021 Q32.4621 794.922 35.2312 797.882 Q38.0002 800.811 43.0292 801.256 L42.9973 780.377 Z" fill="#000000" fill-rule="evenodd" fill-opacity="1" /><path clip-path="url(#clip000)" d="M42.4881 735.276 L64.0042 735.276 L64.0042 741.132 L42.679 741.132 Q37.6183 741.132 35.1038 743.105 Q32.5894 745.079 32.5894 749.026 Q32.5894 753.768 35.6131 756.505 Q38.6368 759.243 43.8567 759.243 L64.0042 759.243 L64.0042 765.131 L28.3562 765.131 L28.3562 759.243 L33.8944 759.243 Q30.6797 757.142 29.0883 754.309 Q27.4968 751.445 27.4968 747.721 Q27.4968 741.578 31.3163 738.427 Q35.1038 735.276 42.4881 735.276 Z" fill="#000000" fill-rule="evenodd" fill-opacity="1" /><path clip-path="url(#clip000)" d="M29.4065 700.869 L34.9447 700.869 Q33.6716 703.352 33.035 706.025 Q32.3984 708.699 32.3984 711.563 Q32.3984 715.924 33.7352 718.12 Q35.072 720.284 37.7456 720.284 Q39.7826 720.284 40.9603 718.725 Q42.1061 717.165 43.1565 712.455 L43.6021 710.449 Q44.9389 704.211 47.3897 701.601 Q49.8086 698.959 54.1691 698.959 Q59.1344 698.959 62.0308 702.906 Q64.9272 706.821 64.9272 713.696 Q64.9272 716.56 64.3543 719.68 Q63.8132 722.767 62.6992 726.204 L56.6518 726.204 Q58.3387 722.958 59.198 719.807 Q60.0256 716.656 60.0256 713.569 Q60.0256 709.431 58.6251 707.203 Q57.1929 704.975 54.6147 704.975 Q52.2276 704.975 50.9545 706.598 Q49.6813 708.19 48.5037 713.632 L48.0262 715.669 Q46.8804 721.112 44.5251 723.531 Q42.138 725.95 38.0002 725.95 Q32.9713 725.95 30.2341 722.385 Q27.4968 718.82 27.4968 712.264 Q27.4968 709.017 27.9743 706.153 Q28.4517 703.288 29.4065 700.869 Z" fill="#000000" fill-rule="evenodd" fill-opacity="1" /><path clip-path="url(#clip000)" d="M28.3562 689.634 L28.3562 683.777 L64.0042 683.777 L64.0042 689.634 L28.3562 689.634 M14.479 689.634 L14.479 683.777 L21.895 683.777 L21.895 689.634 L14.479 689.634 Z" fill="#000000" fill-rule="evenodd" fill-opacity="1" /><path clip-path="url(#clip000)" d="M18.2347 665.73 L28.3562 665.73 L28.3562 653.667 L32.9077 653.667 L32.9077 665.73 L52.2594 665.73 Q56.6199 665.73 57.8613 664.553 Q59.1026 663.343 59.1026 659.683 L59.1026 653.667 L64.0042 653.667 L64.0042 659.683 Q64.0042 666.462 61.4897 669.04 Q58.9434 671.619 52.2594 671.619 L32.9077 671.619 L32.9077 675.915 L28.3562 675.915 L28.3562 671.619 L18.2347 671.619 L18.2347 665.73 Z" fill="#000000" fill-rule="evenodd" fill-opacity="1" /><path clip-path="url(#clip000)" d="M67.3143 631.133 Q73.68 633.615 75.6216 635.971 Q77.5631 638.326 77.5631 642.273 L77.5631 646.951 L72.6615 646.951 L72.6615 643.514 Q72.6615 641.095 71.5157 639.758 Q70.3699 638.421 66.1048 636.798 L63.4312 635.748 L28.3562 650.166 L28.3562 643.96 L56.238 632.82 L28.3562 621.68 L28.3562 615.473 L67.3143 631.133 Z" fill="#000000" fill-rule="evenodd" fill-opacity="1" /><polyline clip-path="url(#clip002)" style="stroke:#009af9; stroke-linecap:butt; stroke-linejoin:round; stroke-width:20; stroke-opacity:1; fill:none" points="
  219.38,1384.24 222.362,1384.21 225.344,1383.83 228.327,1382.5 231.309,1379.83 232.8,1377.94 234.291,1375.67 235.782,1373.03 237.273,1370.04 240.255,1363.02 
  243.237,1354.76 246.22,1345.42 249.202,1335.17 252.184,1324.16 255.166,1312.53 261.13,1287.95 267.095,1262.31 273.059,1236.28 279.023,1210.38 284.988,1184.97 
  290.952,1160.34 296.916,1136.66 302.881,1114.05 308.845,1092.6 314.809,1072.34 320.774,1053.28 326.738,1035.43 332.702,1018.75 338.667,1003.23 344.631,988.816 
  350.595,975.476 356.56,963.16 362.524,951.822 368.488,941.415 374.453,931.891 380.417,923.203 386.381,915.306 392.346,908.154 398.31,901.707 401.292,898.734 
  404.274,895.922 407.257,893.265 410.239,890.76 424.026,881.012 437.813,873.976 451.6,869.277 465.388,866.588 479.175,865.621 492.962,866.127 506.749,867.891 
  520.537,870.722 534.324,874.459 548.111,878.96 561.898,884.101 575.685,889.777 589.473,895.895 603.26,902.374 617.047,909.146 630.834,916.151 685.983,945.552 
  741.132,975.57 768.706,990.367 796.281,1004.88 823.855,1019.03 851.43,1032.77 879.004,1046.07 906.579,1058.91 934.153,1071.28 961.728,1083.18 989.302,1094.61 
  1016.88,1105.58 1044.45,1116.09 1072.03,1126.17 1099.6,1135.82 1127.17,1145.06 1154.75,1153.9 1182.32,1162.37 1209.9,1170.47 1237.47,1178.22 1265.05,1185.64 
  1292.62,1192.74 1347.77,1206.04 1402.92,1218.23 1458.07,1229.42 1513.22,1239.7 1568.37,1249.14 1623.51,1257.84 1678.66,1265.85 1733.81,1273.24 1788.96,1280.06 
  1844.11,1286.37 1899.26,1292.21 1954.41,1297.62 2064.7,1307.3 2175,1315.67 2241.29,1320.15 2307.57,1324.27 2373.86,1328.07 2440.14,1331.57 2572.71,1337.79 
  2705.28,1343.12 2837.85,1347.71 2970.41,1351.68 3102.98,1355.12 3235.55,1358.13 3459.72,1362.38 3683.89,1365.81 3908.06,1368.59 4132.23,1370.88 4619.26,1374.58 
  5106.28,1377.1 5555.27,1378.74 6004.27,1379.94 6967,1381.6 8082.42,1382.65 9073.68,1383.19 9942.92,1383.49 10890.6,1383.7 11844,1383.85 12898,1383.96 
  13900.9,1384.03 14943.7,1384.08 15821.5,1384.12 16893.2,1384.15 17874.9,1384.17 18781.6,1384.18 19700.1,1384.19 20729.4,1384.2 21662.2,1384.21 22730.1,1384.21 
  23718.9,1384.22 24693.8,1384.22 25640.3,1384.22 26610.5,1384.23 27673.6,1384.23 29217.9,1384.23 29534.7,1384.23 
  "/>
<polyline clip-path="url(#clip002)" style="stroke:#e26f46; stroke-linecap:butt; stroke-linejoin:round; stroke-width:20; stroke-opacity:1; fill:none" points="
  219.38,1384.24 231.112,1384.24 339.585,1384.24 404.774,1384.24 459.89,1383.93 474.858,1383.44 489.825,1382.37 504.793,1380.25 519.761,1376.41 526.66,1373.82 
  533.56,1370.56 540.459,1366.52 547.359,1361.59 554.259,1355.64 561.158,1348.52 568.058,1340.13 574.957,1330.32 582.354,1318.1 589.751,1303.97 597.148,1287.8 
  604.545,1269.49 611.942,1248.94 619.339,1226.1 626.736,1200.92 634.133,1173.41 642.703,1138.64 651.273,1100.86 659.843,1060.22 668.414,1016.91 676.984,971.186 
  685.554,923.356 694.124,873.755 702.694,822.759 717.926,729.934 733.159,636.353 748.391,544.445 763.623,456.555 770.302,419.847 776.981,384.495 783.659,350.653 
  790.338,318.461 797.017,288.047 803.695,259.524 810.374,232.992 817.053,208.533 824.334,184.311 831.616,162.707 838.897,143.771 846.179,127.532 853.46,114.001 
  860.742,103.173 868.023,95.0227 875.305,89.5111 882.63,86.5747 889.955,86.1857 897.279,88.2639 904.604,92.7185 911.929,99.4494 919.254,108.349 926.579,119.302 
  933.903,132.19 942.002,148.542 950.1,166.937 958.199,187.201 966.297,209.162 974.396,232.647 982.495,257.484 990.593,283.506 998.692,310.551 1014.1,364.281 
  1029.51,420.129 1044.92,477.17 1060.34,534.58 1076.36,593.896 1092.38,652.154 1108.41,708.791 1124.43,763.356 1137.92,807.426 1151.41,849.626 1164.9,889.846 
  1178.39,928.01 1194.85,971.762 1211.32,1012.37 1227.79,1049.88 1244.26,1084.36 1259.35,1113.37 1274.43,1140.04 1289.52,1164.48 1304.6,1186.8 1318.54,1205.65 
  1332.47,1222.9 1346.4,1238.67 1360.34,1253.05 1374.45,1266.31 1388.56,1278.34 1402.68,1289.24 1416.79,1299.1 1432.61,1309.02 1448.43,1317.86 1464.24,1325.72 
  1480.06,1332.7 1508.73,1343.39 1537.39,1351.95 1570.21,1359.65 1603.04,1365.56 1633.43,1369.79 1663.81,1373.09 1723.74,1377.57 1781.91,1380.21 1841.55,1381.85 
  1906.9,1382.89 2001.82,1383.65 2021.29,1383.75 
  "/>
<polyline clip-path="url(#clip002)" style="stroke:#3da44d; stroke-linecap:butt; stroke-linejoin:round; stroke-width:20; stroke-opacity:1; fill:none" points="
  219.38,1384.24 226.812,1384.24 234.243,1384.24 241.675,1384.24 249.106,1384.24 266.285,1384.23 283.464,1384.17 300.643,1383.79 317.821,1382.41 326.411,1381.03 
  335,1378.97 343.59,1376.07 352.179,1372.17 360.768,1367.1 369.358,1360.76 377.947,1353.02 386.537,1343.82 395.126,1333.11 403.715,1320.87 412.305,1307.13 
  420.894,1291.93 429.483,1275.34 438.073,1257.44 446.662,1238.36 455.252,1218.2 463.841,1197.12 472.43,1175.24 481.02,1152.71 489.609,1129.69 506.788,1082.73 
  523.967,1035.48 534.291,1007.38 544.614,979.741 554.938,952.756 565.262,926.58 575.585,901.356 585.909,877.204 596.233,854.228 606.557,832.51 616.88,812.117 
  627.204,793.1 637.528,775.493 647.852,759.317 658.175,744.582 668.499,731.284 678.823,719.413 689.147,708.948 697.875,701.175 706.604,694.367 715.332,688.499 
  724.061,683.546 732.789,679.48 741.518,676.273 750.247,673.892 758.975,672.306 767.704,671.483 776.432,671.389 785.161,671.991 793.89,673.255 802.618,675.148 
  811.347,677.637 820.075,680.689 828.804,684.271 838.286,688.725 847.767,693.728 857.249,699.241 866.731,705.225 885.694,718.463 904.657,733.166 923.621,749.078 
  942.584,765.967 961.548,783.619 980.511,801.846 1015.48,836.396 1050.44,871.43 1085.41,906.243 1120.37,940.299 1157.86,975.525 1195.34,1009.09 1214.09,1025.18 
  1232.83,1040.78 1251.57,1055.88 1270.32,1070.48 1292.03,1086.75 1313.75,1102.33 1335.46,1117.23 1357.18,1131.46 1378.9,1145.02 1400.61,1157.94 1422.33,1170.24 
  1444.04,1181.92 1463.34,1191.81 1482.64,1201.25 1501.94,1210.26 1521.24,1218.85 1559.83,1234.82 1598.43,1249.31 1632.28,1260.88 1666.12,1271.48 1699.97,1281.17 
  1733.81,1290.03 1770.72,1298.83 1807.62,1306.8 1844.52,1314.02 1881.42,1320.55 1918.54,1326.5 1955.66,1331.88 1992.78,1336.75 2029.9,1341.15 2111.98,1349.45 
  2194.07,1356.11 2272.17,1361.21 2350.27,1365.36 2512.68,1371.67 2649.39,1375.25 2816.31,1378.23 2969.21,1380.04 3110.43,1381.21 3253.48,1382.05 3413.8,1382.7 
  3559.08,1383.12 3725.41,1383.45 3879.41,1383.67 4031.24,1383.82 4178.66,1383.93 4329.78,1384.01 4495.35,1384.07 4735.87,1384.13 4785.22,1384.14 
  "/>
<path clip-path="url(#clip000)" d="
M1869.29 300.469 L2281.64 300.469 L2281.64 93.1086 L1869.29 93.1086  Z
  " fill="#ffffff" fill-rule="evenodd" fill-opacity="1"/>
<polyline clip-path="url(#clip000)" style="stroke:#000000; stroke-linecap:butt; stroke-linejoin:round; stroke-width:4; stroke-opacity:1; fill:none" points="
  1869.29,300.469 2281.64,300.469 2281.64,93.1086 1869.29,93.1086 1869.29,300.469 
  "/>
<polyline clip-path="url(#clip000)" style="stroke:#009af9; stroke-linecap:butt; stroke-linejoin:round; stroke-width:4; stroke-opacity:1; fill:none" points="
  1893,144.949 2035.22,144.949 
  "/>
<path clip-path="url(#clip000)" d="M2084.29 147.881 Q2084.29 149.521 2081.95 149.521 L2076.68 149.521 Q2078.16 151.629 2078.16 154.744 Q2078.16 157.414 2077.06 159.92 Q2075.98 162.403 2074.24 164.136 Q2072.53 165.869 2070.38 166.923 Q2068.23 167.954 2066.12 167.954 Q2062.91 167.954 2060.92 165.776 Q2058.93 163.597 2058.93 160.365 Q2058.93 158.655 2059.51 156.758 Q2060.12 154.861 2061.27 153.104 Q2062.42 151.324 2063.92 149.895 Q2065.44 148.467 2067.41 147.6 Q2069.4 146.733 2071.48 146.733 L2082.42 146.733 Q2083 146.733 2083.31 146.78 Q2083.64 146.804 2083.97 147.085 Q2084.29 147.342 2084.29 147.881 M2075.09 154.182 Q2075.09 153.619 2075.02 153.128 Q2074.95 152.612 2074.69 151.933 Q2074.43 151.23 2073.99 150.739 Q2073.54 150.223 2072.68 149.872 Q2071.83 149.521 2070.68 149.521 Q2069.07 149.521 2067.29 150.411 Q2065.51 151.301 2064.15 153.502 Q2063.03 155.376 2062.46 157.812 Q2061.9 160.248 2061.9 161.7 Q2061.9 164.183 2063.1 165.542 Q2064.31 166.877 2066.16 166.877 Q2067.69 166.877 2069.42 165.846 Q2071.15 164.792 2072.49 162.801 Q2073.66 161.068 2074.36 158.538 Q2075.09 156.009 2075.09 154.182 Z" fill="#000000" fill-rule="evenodd" fill-opacity="1" /><path clip-path="url(#clip000)" d="M2099.34 160.131 Q2099.39 159.545 2100.3 159.545 L2129.7 159.545 Q2131.08 159.545 2131.11 160.084 Q2131.11 160.67 2129.79 160.646 L2100.63 160.646 Q2099.34 160.67 2099.34 160.131 M2099.34 150.762 Q2099.34 150.176 2100.35 150.2 L2129.65 150.2 Q2131.08 150.2 2131.11 150.762 Q2131.11 151.301 2129.89 151.301 L2100.3 151.301 Q2099.34 151.301 2099.34 150.762 Z" fill="#000000" fill-rule="evenodd" fill-opacity="1" /><path clip-path="url(#clip000)" d="M2149.6 140.034 L2149.6 138.535 Q2155.36 138.535 2158.33 135.467 Q2159.15 135.467 2159.29 135.654 Q2159.43 135.842 2159.43 136.708 L2159.43 163.621 Q2159.43 165.05 2160.14 165.495 Q2160.84 165.94 2163.91 165.94 L2165.43 165.94 L2165.43 167.415 Q2163.74 167.275 2157.65 167.275 Q2151.56 167.275 2149.9 167.415 L2149.9 165.94 L2151.42 165.94 Q2154.44 165.94 2155.17 165.518 Q2155.9 165.073 2155.9 163.621 L2155.9 138.77 Q2153.39 140.034 2149.6 140.034 Z" fill="#000000" fill-rule="evenodd" fill-opacity="1" /><polyline clip-path="url(#clip000)" style="stroke:#e26f46; stroke-linecap:butt; stroke-linejoin:round; stroke-width:4; stroke-opacity:1; fill:none" points="
  1893,196.789 2035.22,196.789 
  "/>
<path clip-path="url(#clip000)" d="M2084.29 199.463 Q2084.29 201.103 2081.95 201.103 L2076.68 201.103 Q2078.16 203.211 2078.16 206.326 Q2078.16 208.996 2077.06 211.502 Q2075.98 213.985 2074.24 215.718 Q2072.53 217.452 2070.38 218.506 Q2068.23 219.536 2066.12 219.536 Q2062.91 219.536 2060.92 217.358 Q2058.93 215.18 2058.93 211.947 Q2058.93 210.238 2059.51 208.34 Q2060.12 206.443 2061.27 204.686 Q2062.42 202.906 2063.92 201.478 Q2065.44 200.049 2067.41 199.182 Q2069.4 198.315 2071.48 198.315 L2082.42 198.315 Q2083 198.315 2083.31 198.362 Q2083.64 198.386 2083.97 198.667 Q2084.29 198.924 2084.29 199.463 M2075.09 205.764 Q2075.09 205.202 2075.02 204.71 Q2074.95 204.195 2074.69 203.515 Q2074.43 202.813 2073.99 202.321 Q2073.54 201.805 2072.68 201.454 Q2071.83 201.103 2070.68 201.103 Q2069.07 201.103 2067.29 201.993 Q2065.51 202.883 2064.15 205.085 Q2063.03 206.958 2062.46 209.394 Q2061.9 211.83 2061.9 213.282 Q2061.9 215.765 2063.1 217.124 Q2064.31 218.459 2066.16 218.459 Q2067.69 218.459 2069.42 217.428 Q2071.15 216.374 2072.49 214.383 Q2073.66 212.65 2074.36 210.12 Q2075.09 207.591 2075.09 205.764 Z" fill="#000000" fill-rule="evenodd" fill-opacity="1" /><path clip-path="url(#clip000)" d="M2099.34 211.713 Q2099.39 211.128 2100.3 211.128 L2129.7 211.128 Q2131.08 211.128 2131.11 211.666 Q2131.11 212.252 2129.79 212.228 L2100.63 212.228 Q2099.34 212.252 2099.34 211.713 M2099.34 202.344 Q2099.34 201.759 2100.35 201.782 L2129.65 201.782 Q2131.08 201.782 2131.11 202.344 Q2131.11 202.883 2129.89 202.883 L2100.3 202.883 Q2099.34 202.883 2099.34 202.344 Z" fill="#000000" fill-rule="evenodd" fill-opacity="1" /><path clip-path="url(#clip000)" d="M2149.6 203.656 Q2149.6 196.606 2151.38 192.764 Q2153.86 187.049 2159.71 187.049 Q2160.96 187.049 2162.24 187.401 Q2163.56 187.729 2165.2 189.017 Q2166.86 190.305 2167.87 192.413 Q2169.79 196.489 2169.79 203.656 Q2169.79 210.659 2168.01 214.477 Q2165.41 220.052 2159.67 220.052 Q2157.51 220.052 2155.31 218.951 Q2153.13 217.85 2151.75 215.203 Q2149.6 211.245 2149.6 203.656 M2153.58 203.07 Q2153.58 210.308 2154.09 213.189 Q2154.68 216.304 2156.27 217.662 Q2157.89 218.997 2159.67 218.997 Q2161.59 218.997 2163.18 217.569 Q2164.8 216.117 2165.29 213.001 Q2165.83 209.933 2165.8 203.07 Q2165.8 196.395 2165.34 193.725 Q2164.7 190.609 2163.02 189.368 Q2161.35 188.103 2159.67 188.103 Q2159.04 188.103 2158.36 188.291 Q2157.7 188.478 2156.74 189.017 Q2155.78 189.555 2155.03 190.891 Q2154.3 192.226 2153.95 194.24 Q2153.58 196.84 2153.58 203.07 Z" fill="#000000" fill-rule="evenodd" fill-opacity="1" /><path clip-path="url(#clip000)" d="M2174.07 218.225 Q2173.35 217.452 2173.35 216.444 Q2173.35 215.437 2174.07 214.711 Q2174.8 213.962 2175.9 213.962 Q2176.95 213.962 2177.66 214.664 Q2178.38 215.344 2178.38 216.468 Q2178.38 217.569 2177.61 218.295 Q2176.86 218.997 2175.9 218.997 Q2174.8 218.997 2174.07 218.225 Z" fill="#000000" fill-rule="evenodd" fill-opacity="1" /><path clip-path="url(#clip000)" d="M2186.54 218.997 Q2186.54 218.131 2186.61 217.873 Q2186.71 217.616 2187.08 217.217 L2196.29 206.958 Q2201.32 201.29 2201.32 196.348 Q2201.32 193.139 2199.64 190.844 Q2197.97 188.548 2194.9 188.548 Q2192.8 188.548 2191.02 189.837 Q2189.24 191.125 2188.42 193.42 Q2188.56 193.373 2189.05 193.373 Q2190.24 193.373 2190.9 194.123 Q2191.58 194.872 2191.58 195.88 Q2191.58 197.168 2190.74 197.8 Q2189.92 198.409 2189.1 198.409 Q2188.77 198.409 2188.32 198.339 Q2187.9 198.269 2187.22 197.613 Q2186.54 196.934 2186.54 195.739 Q2186.54 192.39 2189.07 189.719 Q2191.63 187.049 2195.51 187.049 Q2199.92 187.049 2202.8 189.673 Q2205.7 192.272 2205.7 196.348 Q2205.7 197.777 2205.26 199.088 Q2204.84 200.377 2204.25 201.384 Q2203.69 202.391 2202.14 204.007 Q2200.6 205.623 2199.36 206.771 Q2198.11 207.919 2195.33 210.355 L2190.24 215.297 L2198.89 215.297 Q2203.1 215.297 2203.43 214.922 Q2203.9 214.243 2204.48 210.659 L2205.7 210.659 L2204.34 218.997 L2186.54 218.997 Z" fill="#000000" fill-rule="evenodd" fill-opacity="1" /><path clip-path="url(#clip000)" d="M2210.49 211.268 Q2210.49 209.839 2211.26 209.301 Q2212.03 208.738 2212.85 208.738 Q2213.95 208.738 2214.58 209.441 Q2215.24 210.12 2215.24 211.081 Q2215.24 212.041 2214.58 212.744 Q2213.95 213.423 2212.85 213.423 Q2212.31 213.423 2212.03 213.329 Q2212.66 215.531 2214.58 217.124 Q2216.53 218.716 2219.08 218.716 Q2222.29 218.716 2224.21 215.601 Q2225.36 213.587 2225.36 209.02 Q2225.36 204.991 2224.49 202.977 Q2223.16 199.908 2220.42 199.908 Q2216.53 199.908 2214.23 203.258 Q2213.95 203.679 2213.62 203.703 Q2213.16 203.703 2213.04 203.445 Q2212.94 203.164 2212.94 202.438 L2212.94 188.244 Q2212.94 187.096 2213.41 187.096 Q2213.6 187.096 2214 187.237 Q2217.02 188.572 2220.37 188.595 Q2223.81 188.595 2226.9 187.19 Q2227.14 187.049 2227.28 187.049 Q2227.75 187.049 2227.77 187.588 Q2227.77 187.775 2227.37 188.338 Q2227 188.876 2226.18 189.602 Q2225.36 190.305 2224.3 190.984 Q2223.25 191.664 2221.7 192.132 Q2220.18 192.577 2218.5 192.577 Q2216.48 192.577 2214.42 191.945 L2214.42 201.29 Q2216.9 198.854 2220.51 198.854 Q2224.35 198.854 2227 201.946 Q2229.64 205.038 2229.64 209.347 Q2229.64 213.868 2226.51 216.96 Q2223.39 220.052 2219.17 220.052 Q2215.33 220.052 2212.9 217.311 Q2210.49 214.571 2210.49 211.268 Z" fill="#000000" fill-rule="evenodd" fill-opacity="1" /><polyline clip-path="url(#clip000)" style="stroke:#3da44d; stroke-linecap:butt; stroke-linejoin:round; stroke-width:4; stroke-opacity:1; fill:none" points="
  1893,248.629 2035.22,248.629 
  "/>
<path clip-path="url(#clip000)" d="M2084.29 251.303 Q2084.29 252.943 2081.95 252.943 L2076.68 252.943 Q2078.16 255.051 2078.16 258.166 Q2078.16 260.836 2077.06 263.342 Q2075.98 265.825 2074.24 267.558 Q2072.53 269.292 2070.38 270.346 Q2068.23 271.376 2066.12 271.376 Q2062.91 271.376 2060.92 269.198 Q2058.93 267.02 2058.93 263.787 Q2058.93 262.078 2059.51 260.18 Q2060.12 258.283 2061.27 256.526 Q2062.42 254.746 2063.92 253.318 Q2065.44 251.889 2067.41 251.022 Q2069.4 250.155 2071.48 250.155 L2082.42 250.155 Q2083 250.155 2083.31 250.202 Q2083.64 250.226 2083.97 250.507 Q2084.29 250.764 2084.29 251.303 M2075.09 257.604 Q2075.09 257.042 2075.02 256.55 Q2074.95 256.035 2074.69 255.355 Q2074.43 254.653 2073.99 254.161 Q2073.54 253.645 2072.68 253.294 Q2071.83 252.943 2070.68 252.943 Q2069.07 252.943 2067.29 253.833 Q2065.51 254.723 2064.15 256.925 Q2063.03 258.798 2062.46 261.234 Q2061.9 263.67 2061.9 265.122 Q2061.9 267.605 2063.1 268.964 Q2064.31 270.299 2066.16 270.299 Q2067.69 270.299 2069.42 269.268 Q2071.15 268.214 2072.49 266.223 Q2073.66 264.49 2074.36 261.96 Q2075.09 259.431 2075.09 257.604 Z" fill="#000000" fill-rule="evenodd" fill-opacity="1" /><path clip-path="url(#clip000)" d="M2099.34 263.553 Q2099.39 262.968 2100.3 262.968 L2129.7 262.968 Q2131.08 262.968 2131.11 263.506 Q2131.11 264.092 2129.79 264.068 L2100.63 264.068 Q2099.34 264.092 2099.34 263.553 M2099.34 254.184 Q2099.34 253.599 2100.35 253.622 L2129.65 253.622 Q2131.08 253.622 2131.11 254.184 Q2131.11 254.723 2129.89 254.723 L2100.3 254.723 Q2099.34 254.723 2099.34 254.184 Z" fill="#000000" fill-rule="evenodd" fill-opacity="1" /><path clip-path="url(#clip000)" d="M2149.6 255.496 Q2149.6 248.446 2151.38 244.604 Q2153.86 238.889 2159.71 238.889 Q2160.96 238.889 2162.24 239.241 Q2163.56 239.569 2165.2 240.857 Q2166.86 242.145 2167.87 244.253 Q2169.79 248.329 2169.79 255.496 Q2169.79 262.499 2168.01 266.317 Q2165.41 271.892 2159.67 271.892 Q2157.51 271.892 2155.31 270.791 Q2153.13 269.69 2151.75 267.043 Q2149.6 263.085 2149.6 255.496 M2153.58 254.91 Q2153.58 262.148 2154.09 265.029 Q2154.68 268.144 2156.27 269.502 Q2157.89 270.837 2159.67 270.837 Q2161.59 270.837 2163.18 269.409 Q2164.8 267.957 2165.29 264.841 Q2165.83 261.773 2165.8 254.91 Q2165.8 248.235 2165.34 245.565 Q2164.7 242.449 2163.02 241.208 Q2161.35 239.943 2159.67 239.943 Q2159.04 239.943 2158.36 240.131 Q2157.7 240.318 2156.74 240.857 Q2155.78 241.395 2155.03 242.731 Q2154.3 244.066 2153.95 246.08 Q2153.58 248.68 2153.58 254.91 Z" fill="#000000" fill-rule="evenodd" fill-opacity="1" /><path clip-path="url(#clip000)" d="M2174.07 270.065 Q2173.35 269.292 2173.35 268.284 Q2173.35 267.277 2174.07 266.551 Q2174.8 265.802 2175.9 265.802 Q2176.95 265.802 2177.66 266.504 Q2178.38 267.184 2178.38 268.308 Q2178.38 269.409 2177.61 270.135 Q2176.86 270.837 2175.9 270.837 Q2174.8 270.837 2174.07 270.065 Z" fill="#000000" fill-rule="evenodd" fill-opacity="1" /><path clip-path="url(#clip000)" d="M2186.54 263.108 Q2186.54 261.679 2187.32 261.141 Q2188.09 260.578 2188.91 260.578 Q2190.01 260.578 2190.64 261.281 Q2191.3 261.96 2191.3 262.921 Q2191.3 263.881 2190.64 264.584 Q2190.01 265.263 2188.91 265.263 Q2188.37 265.263 2188.09 265.169 Q2188.72 267.371 2190.64 268.964 Q2192.59 270.556 2195.14 270.556 Q2198.35 270.556 2200.27 267.441 Q2201.42 265.427 2201.42 260.86 Q2201.42 256.831 2200.55 254.817 Q2199.21 251.748 2196.47 251.748 Q2192.59 251.748 2190.29 255.098 Q2190.01 255.519 2189.68 255.543 Q2189.21 255.543 2189.1 255.285 Q2189 255.004 2189 254.278 L2189 240.084 Q2189 238.936 2189.47 238.936 Q2189.66 238.936 2190.06 239.077 Q2193.08 240.412 2196.43 240.435 Q2199.87 240.435 2202.96 239.03 Q2203.2 238.889 2203.34 238.889 Q2203.81 238.889 2203.83 239.428 Q2203.83 239.615 2203.43 240.178 Q2203.06 240.716 2202.24 241.442 Q2201.42 242.145 2200.36 242.824 Q2199.31 243.504 2197.76 243.972 Q2196.24 244.417 2194.55 244.417 Q2192.54 244.417 2190.48 243.785 L2190.48 253.13 Q2192.96 250.694 2196.57 250.694 Q2200.41 250.694 2203.06 253.786 Q2205.7 256.878 2205.7 261.187 Q2205.7 265.708 2202.56 268.8 Q2199.45 271.892 2195.23 271.892 Q2191.39 271.892 2188.96 269.151 Q2186.54 266.411 2186.54 263.108 Z" fill="#000000" fill-rule="evenodd" fill-opacity="1" /></svg>
