<?xml version="1.0" encoding="utf-8"?>
<svg xmlns="http://www.w3.org/2000/svg" xmlns:xlink="http://www.w3.org/1999/xlink" width="600" height="400" viewBox="0 0 2400 1600">
<defs>
  <clipPath id="clip970">
    <rect x="0" y="0" width="2400" height="1600"/>
  </clipPath>
</defs>
<path clip-path="url(#clip970)" d="
M0 1600 L2400 1600 L2400 0 L0 0  Z
  " fill="#ffffff" fill-rule="evenodd" fill-opacity="1"/>
<defs>
  <clipPath id="clip971">
    <rect x="480" y="0" width="1681" height="1600"/>
  </clipPath>
</defs>
<defs>
  <clipPath id="clip972">
    <rect x="219" y="47" width="2134" height="1377"/>
  </clipPath>
</defs>
<path clip-path="url(#clip970)" d="
M219.866 1423.18 L2352.76 1423.18 L2352.76 47.2441 L219.866 47.2441  Z
  " fill="#ffffff" fill-rule="evenodd" fill-opacity="1"/>
<polyline clip-path="url(#clip972)" style="stroke:#000000; stroke-linecap:butt; stroke-linejoin:round; stroke-width:2; stroke-opacity:0.1; fill:none" points="
  219.866,1423.18 219.866,47.2441 
  "/>
<polyline clip-path="url(#clip972)" style="stroke:#000000; stroke-linecap:butt; stroke-linejoin:round; stroke-width:2; stroke-opacity:0.1; fill:none" points="
  753.089,1423.18 753.089,47.2441 
  "/>
<polyline clip-path="url(#clip972)" style="stroke:#000000; stroke-linecap:butt; stroke-linejoin:round; stroke-width:2; stroke-opacity:0.1; fill:none" points="
  1286.31,1423.18 1286.31,47.2441 
  "/>
<polyline clip-path="url(#clip972)" style="stroke:#000000; stroke-linecap:butt; stroke-linejoin:round; stroke-width:2; stroke-opacity:0.1; fill:none" points="
  1819.53,1423.18 1819.53,47.2441 
  "/>
<polyline clip-path="url(#clip972)" style="stroke:#000000; stroke-linecap:butt; stroke-linejoin:round; stroke-width:2; stroke-opacity:0.1; fill:none" points="
  2352.76,1423.18 2352.76,47.2441 
  "/>
<polyline clip-path="url(#clip970)" style="stroke:#000000; stroke-linecap:butt; stroke-linejoin:round; stroke-width:4; stroke-opacity:1; fill:none" points="
  219.866,1423.18 2352.76,1423.18 
  "/>
<polyline clip-path="url(#clip970)" style="stroke:#000000; stroke-linecap:butt; stroke-linejoin:round; stroke-width:4; stroke-opacity:1; fill:none" points="
  219.866,1423.18 219.866,1404.28 
  "/>
<polyline clip-path="url(#clip970)" style="stroke:#000000; stroke-linecap:butt; stroke-linejoin:round; stroke-width:4; stroke-opacity:1; fill:none" points="
  753.089,1423.18 753.089,1404.28 
  "/>
<polyline clip-path="url(#clip970)" style="stroke:#000000; stroke-linecap:butt; stroke-linejoin:round; stroke-width:4; stroke-opacity:1; fill:none" points="
  1286.31,1423.18 1286.31,1404.28 
  "/>
<polyline clip-path="url(#clip970)" style="stroke:#000000; stroke-linecap:butt; stroke-linejoin:round; stroke-width:4; stroke-opacity:1; fill:none" points="
  1819.53,1423.18 1819.53,1404.28 
  "/>
<polyline clip-path="url(#clip970)" style="stroke:#000000; stroke-linecap:butt; stroke-linejoin:round; stroke-width:4; stroke-opacity:1; fill:none" points="
  2352.76,1423.18 2352.76,1404.28 
  "/>
<path clip-path="url(#clip970)" d="M188.767 1468.75 L218.443 1468.75 L218.443 1472.69 L188.767 1472.69 L188.767 1468.75 Z" fill="#000000" fill-rule="evenodd" fill-opacity="1" /><path clip-path="url(#clip970)" d="M241.382 1455.09 L229.577 1473.54 L241.382 1473.54 L241.382 1455.09 M240.156 1451.02 L246.035 1451.02 L246.035 1473.54 L250.966 1473.54 L250.966 1477.43 L246.035 1477.43 L246.035 1485.58 L241.382 1485.58 L241.382 1477.43 L225.781 1477.43 L225.781 1472.92 L240.156 1451.02 Z" fill="#000000" fill-rule="evenodd" fill-opacity="1" /><path clip-path="url(#clip970)" d="M723.031 1468.75 L752.707 1468.75 L752.707 1472.69 L723.031 1472.69 L723.031 1468.75 Z" fill="#000000" fill-rule="evenodd" fill-opacity="1" /><path clip-path="url(#clip970)" d="M766.827 1481.64 L783.146 1481.64 L783.146 1485.58 L761.202 1485.58 L761.202 1481.64 Q763.864 1478.89 768.447 1474.26 Q773.054 1469.61 774.234 1468.27 Q776.48 1465.74 777.359 1464.01 Q778.262 1462.25 778.262 1460.56 Q778.262 1457.8 776.318 1456.07 Q774.396 1454.33 771.295 1454.33 Q769.096 1454.33 766.642 1455.09 Q764.211 1455.86 761.434 1457.41 L761.434 1452.69 Q764.258 1451.55 766.711 1450.97 Q769.165 1450.39 771.202 1450.39 Q776.572 1450.39 779.767 1453.08 Q782.961 1455.77 782.961 1460.26 Q782.961 1462.39 782.151 1464.31 Q781.364 1466.2 779.258 1468.8 Q778.679 1469.47 775.577 1472.69 Q772.475 1475.88 766.827 1481.64 Z" fill="#000000" fill-rule="evenodd" fill-opacity="1" /><path clip-path="url(#clip970)" d="M1286.31 1454.1 Q1282.7 1454.1 1280.87 1457.66 Q1279.07 1461.2 1279.07 1468.33 Q1279.07 1475.44 1280.87 1479.01 Q1282.7 1482.55 1286.31 1482.55 Q1289.95 1482.55 1291.75 1479.01 Q1293.58 1475.44 1293.58 1468.33 Q1293.58 1461.2 1291.75 1457.66 Q1289.95 1454.1 1286.31 1454.1 M1286.31 1450.39 Q1292.12 1450.39 1295.18 1455 Q1298.26 1459.58 1298.26 1468.33 Q1298.26 1477.06 1295.18 1481.67 Q1292.12 1486.25 1286.31 1486.25 Q1280.5 1486.25 1277.42 1481.67 Q1274.37 1477.06 1274.37 1468.33 Q1274.37 1459.58 1277.42 1455 Q1280.5 1450.39 1286.31 1450.39 Z" fill="#000000" fill-rule="evenodd" fill-opacity="1" /><path clip-path="url(#clip970)" d="M1814.19 1481.64 L1830.51 1481.64 L1830.51 1485.58 L1808.56 1485.58 L1808.56 1481.64 Q1811.22 1478.89 1815.81 1474.26 Q1820.41 1469.61 1821.59 1468.27 Q1823.84 1465.74 1824.72 1464.01 Q1825.62 1462.25 1825.62 1460.56 Q1825.62 1457.8 1823.68 1456.07 Q1821.76 1454.33 1818.65 1454.33 Q1816.45 1454.33 1814 1455.09 Q1811.57 1455.86 1808.79 1457.41 L1808.79 1452.69 Q1811.62 1451.55 1814.07 1450.97 Q1816.52 1450.39 1818.56 1450.39 Q1823.93 1450.39 1827.13 1453.08 Q1830.32 1455.77 1830.32 1460.26 Q1830.32 1462.39 1829.51 1464.31 Q1828.72 1466.2 1826.62 1468.8 Q1826.04 1469.47 1822.94 1472.69 Q1819.83 1475.88 1814.19 1481.64 Z" fill="#000000" fill-rule="evenodd" fill-opacity="1" /><path clip-path="url(#clip970)" d="M2355.77 1455.09 L2343.96 1473.54 L2355.77 1473.54 L2355.77 1455.09 M2354.54 1451.02 L2360.42 1451.02 L2360.42 1473.54 L2365.35 1473.54 L2365.35 1477.43 L2360.42 1477.43 L2360.42 1485.58 L2355.77 1485.58 L2355.77 1477.43 L2340.16 1477.43 L2340.16 1472.92 L2354.54 1451.02 Z" fill="#000000" fill-rule="evenodd" fill-opacity="1" /><path clip-path="url(#clip970)" d="M1298.25 1545.85 Q1298.25 1551.26 1296.51 1557.35 Q1294.8 1563.4 1292.09 1568.3 Q1289.39 1573.16 1285.85 1576.38 Q1282.3 1579.57 1278.92 1579.57 Q1276.76 1579.57 1275.15 1578.38 Q1273.58 1577.15 1272.71 1575.12 Q1271.84 1573.06 1271.42 1570.81 Q1271 1568.52 1271 1566.04 Q1271 1562.34 1271.8 1558.31 Q1272.61 1554.25 1273.96 1550.58 Q1275.32 1546.88 1277.22 1543.53 Q1279.12 1540.15 1281.21 1537.7 Q1283.33 1535.22 1285.72 1533.77 Q1288.1 1532.32 1290.32 1532.32 Q1291.93 1532.32 1293.22 1533.03 Q1294.54 1533.71 1295.38 1534.9 Q1296.22 1536.06 1296.8 1537.44 Q1297.41 1538.83 1297.7 1540.44 Q1297.99 1542.02 1298.12 1543.34 Q1298.25 1544.63 1298.25 1545.85 M1293.9 1541.76 Q1293.9 1540.12 1293.77 1538.89 Q1293.64 1537.64 1293.29 1536.38 Q1292.93 1535.12 1292.16 1534.45 Q1291.42 1533.77 1290.26 1533.77 Q1286.88 1533.77 1283.08 1540.7 Q1281.85 1542.85 1280.76 1545.78 Q1279.66 1548.72 1279.28 1550.1 Q1278.89 1551.49 1277.99 1554.9 L1291.77 1554.9 Q1293.9 1546.11 1293.9 1541.76 M1291.19 1556.99 L1277.47 1556.99 Q1275.35 1565.04 1275.35 1570.07 Q1275.35 1574.45 1276.25 1576.28 Q1277.18 1578.09 1278.92 1578.09 Q1280.92 1578.09 1282.79 1576.09 Q1284.66 1574.06 1286.56 1570.39 Q1289.07 1565.62 1291.19 1556.99 Z" fill="#000000" fill-rule="evenodd" fill-opacity="1" /><polyline clip-path="url(#clip972)" style="stroke:#000000; stroke-linecap:butt; stroke-linejoin:round; stroke-width:2; stroke-opacity:0.1; fill:none" points="
  219.866,1384.56 2352.76,1384.56 
  "/>
<polyline clip-path="url(#clip972)" style="stroke:#000000; stroke-linecap:butt; stroke-linejoin:round; stroke-width:2; stroke-opacity:0.1; fill:none" points="
  219.866,1059.06 2352.76,1059.06 
  "/>
<polyline clip-path="url(#clip972)" style="stroke:#000000; stroke-linecap:butt; stroke-linejoin:round; stroke-width:2; stroke-opacity:0.1; fill:none" points="
  219.866,733.567 2352.76,733.567 
  "/>
<polyline clip-path="url(#clip972)" style="stroke:#000000; stroke-linecap:butt; stroke-linejoin:round; stroke-width:2; stroke-opacity:0.1; fill:none" points="
  219.866,408.07 2352.76,408.07 
  "/>
<polyline clip-path="url(#clip972)" style="stroke:#000000; stroke-linecap:butt; stroke-linejoin:round; stroke-width:2; stroke-opacity:0.1; fill:none" points="
  219.866,82.5732 2352.76,82.5732 
  "/>
<polyline clip-path="url(#clip970)" style="stroke:#000000; stroke-linecap:butt; stroke-linejoin:round; stroke-width:4; stroke-opacity:1; fill:none" points="
  219.866,1423.18 219.866,47.2441 
  "/>
<polyline clip-path="url(#clip970)" style="stroke:#000000; stroke-linecap:butt; stroke-linejoin:round; stroke-width:4; stroke-opacity:1; fill:none" points="
  219.866,1384.56 238.764,1384.56 
  "/>
<polyline clip-path="url(#clip970)" style="stroke:#000000; stroke-linecap:butt; stroke-linejoin:round; stroke-width:4; stroke-opacity:1; fill:none" points="
  219.866,1059.06 238.764,1059.06 
  "/>
<polyline clip-path="url(#clip970)" style="stroke:#000000; stroke-linecap:butt; stroke-linejoin:round; stroke-width:4; stroke-opacity:1; fill:none" points="
  219.866,733.567 238.764,733.567 
  "/>
<polyline clip-path="url(#clip970)" style="stroke:#000000; stroke-linecap:butt; stroke-linejoin:round; stroke-width:4; stroke-opacity:1; fill:none" points="
  219.866,408.07 238.764,408.07 
  "/>
<polyline clip-path="url(#clip970)" style="stroke:#000000; stroke-linecap:butt; stroke-linejoin:round; stroke-width:4; stroke-opacity:1; fill:none" points="
  219.866,82.5732 238.764,82.5732 
  "/>
<path clip-path="url(#clip970)" d="M126.691 1370.36 Q123.08 1370.36 121.251 1373.92 Q119.445 1377.47 119.445 1384.6 Q119.445 1391.7 121.251 1395.27 Q123.08 1398.81 126.691 1398.81 Q130.325 1398.81 132.13 1395.27 Q133.959 1391.7 133.959 1384.6 Q133.959 1377.47 132.13 1373.92 Q130.325 1370.36 126.691 1370.36 M126.691 1366.66 Q132.501 1366.66 135.556 1371.26 Q138.635 1375.85 138.635 1384.6 Q138.635 1393.32 135.556 1397.93 Q132.501 1402.51 126.691 1402.51 Q120.88 1402.51 117.802 1397.93 Q114.746 1393.32 114.746 1384.6 Q114.746 1375.85 117.802 1371.26 Q120.88 1366.66 126.691 1366.66 Z" fill="#000000" fill-rule="evenodd" fill-opacity="1" /><path clip-path="url(#clip970)" d="M146.853 1395.96 L151.737 1395.96 L151.737 1401.84 L146.853 1401.84 L146.853 1395.96 Z" fill="#000000" fill-rule="evenodd" fill-opacity="1" /><path clip-path="url(#clip970)" d="M171.922 1370.36 Q168.311 1370.36 166.482 1373.92 Q164.677 1377.47 164.677 1384.6 Q164.677 1391.7 166.482 1395.27 Q168.311 1398.81 171.922 1398.81 Q175.556 1398.81 177.362 1395.27 Q179.19 1391.7 179.19 1384.6 Q179.19 1377.47 177.362 1373.92 Q175.556 1370.36 171.922 1370.36 M171.922 1366.66 Q177.732 1366.66 180.788 1371.26 Q183.866 1375.85 183.866 1384.6 Q183.866 1393.32 180.788 1397.93 Q177.732 1402.51 171.922 1402.51 Q166.112 1402.51 163.033 1397.93 Q159.978 1393.32 159.978 1384.6 Q159.978 1375.85 163.033 1371.26 Q166.112 1366.66 171.922 1366.66 Z" fill="#000000" fill-rule="evenodd" fill-opacity="1" /><path clip-path="url(#clip970)" d="M128.288 1044.86 Q124.677 1044.86 122.848 1048.43 Q121.043 1051.97 121.043 1059.1 Q121.043 1066.2 122.848 1069.77 Q124.677 1073.31 128.288 1073.31 Q131.922 1073.31 133.728 1069.77 Q135.556 1066.2 135.556 1059.1 Q135.556 1051.97 133.728 1048.43 Q131.922 1044.86 128.288 1044.86 M128.288 1041.16 Q134.098 1041.16 137.154 1045.77 Q140.232 1050.35 140.232 1059.1 Q140.232 1067.83 137.154 1072.43 Q134.098 1077.01 128.288 1077.01 Q122.478 1077.01 119.399 1072.43 Q116.343 1067.83 116.343 1059.1 Q116.343 1050.35 119.399 1045.77 Q122.478 1041.16 128.288 1041.16 Z" fill="#000000" fill-rule="evenodd" fill-opacity="1" /><path clip-path="url(#clip970)" d="M148.45 1070.46 L153.334 1070.46 L153.334 1076.34 L148.45 1076.34 L148.45 1070.46 Z" fill="#000000" fill-rule="evenodd" fill-opacity="1" /><path clip-path="url(#clip970)" d="M167.547 1072.41 L183.866 1072.41 L183.866 1076.34 L161.922 1076.34 L161.922 1072.41 Q164.584 1069.65 169.167 1065.02 Q173.774 1060.37 174.954 1059.03 Q177.2 1056.51 178.079 1054.77 Q178.982 1053.01 178.982 1051.32 Q178.982 1048.57 177.038 1046.83 Q175.116 1045.09 172.014 1045.09 Q169.815 1045.09 167.362 1045.86 Q164.931 1046.62 162.153 1048.17 L162.153 1043.45 Q164.977 1042.32 167.431 1041.74 Q169.885 1041.16 171.922 1041.16 Q177.292 1041.16 180.487 1043.84 Q183.681 1046.53 183.681 1051.02 Q183.681 1053.15 182.871 1055.07 Q182.084 1056.97 179.977 1059.56 Q179.399 1060.23 176.297 1063.45 Q173.195 1066.64 167.547 1072.41 Z" fill="#000000" fill-rule="evenodd" fill-opacity="1" /><path clip-path="url(#clip970)" d="M126.205 719.365 Q122.593 719.365 120.765 722.93 Q118.959 726.472 118.959 733.602 Q118.959 740.708 120.765 744.273 Q122.593 747.814 126.205 747.814 Q129.839 747.814 131.644 744.273 Q133.473 740.708 133.473 733.602 Q133.473 726.472 131.644 722.93 Q129.839 719.365 126.205 719.365 M126.205 715.662 Q132.015 715.662 135.07 720.268 Q138.149 724.852 138.149 733.602 Q138.149 742.328 135.07 746.935 Q132.015 751.518 126.205 751.518 Q120.394 751.518 117.316 746.935 Q114.26 742.328 114.26 733.602 Q114.26 724.852 117.316 720.268 Q120.394 715.662 126.205 715.662 Z" fill="#000000" fill-rule="evenodd" fill-opacity="1" /><path clip-path="url(#clip970)" d="M146.366 744.967 L151.251 744.967 L151.251 750.847 L146.366 750.847 L146.366 744.967 Z" fill="#000000" fill-rule="evenodd" fill-opacity="1" /><path clip-path="url(#clip970)" d="M174.283 720.361 L162.477 738.81 L174.283 738.81 L174.283 720.361 M173.056 716.287 L178.936 716.287 L178.936 738.81 L183.866 738.81 L183.866 742.699 L178.936 742.699 L178.936 750.847 L174.283 750.847 L174.283 742.699 L158.681 742.699 L158.681 738.185 L173.056 716.287 Z" fill="#000000" fill-rule="evenodd" fill-opacity="1" /><path clip-path="url(#clip970)" d="M126.529 393.869 Q122.918 393.869 121.089 397.433 Q119.283 400.975 119.283 408.105 Q119.283 415.211 121.089 418.776 Q122.918 422.318 126.529 422.318 Q130.163 422.318 131.968 418.776 Q133.797 415.211 133.797 408.105 Q133.797 400.975 131.968 397.433 Q130.163 393.869 126.529 393.869 M126.529 390.165 Q132.339 390.165 135.394 394.771 Q138.473 399.355 138.473 408.105 Q138.473 416.832 135.394 421.438 Q132.339 426.021 126.529 426.021 Q120.718 426.021 117.64 421.438 Q114.584 416.832 114.584 408.105 Q114.584 399.355 117.64 394.771 Q120.718 390.165 126.529 390.165 Z" fill="#000000" fill-rule="evenodd" fill-opacity="1" /><path clip-path="url(#clip970)" d="M146.691 419.47 L151.575 419.47 L151.575 425.35 L146.691 425.35 L146.691 419.47 Z" fill="#000000" fill-rule="evenodd" fill-opacity="1" /><path clip-path="url(#clip970)" d="M172.339 406.207 Q169.19 406.207 167.339 408.359 Q165.51 410.512 165.51 414.262 Q165.51 417.989 167.339 420.165 Q169.19 422.318 172.339 422.318 Q175.487 422.318 177.315 420.165 Q179.167 417.989 179.167 414.262 Q179.167 410.512 177.315 408.359 Q175.487 406.207 172.339 406.207 M181.621 391.554 L181.621 395.813 Q179.862 394.98 178.056 394.54 Q176.274 394.1 174.514 394.1 Q169.885 394.1 167.431 397.225 Q165.001 400.35 164.653 406.67 Q166.019 404.656 168.079 403.591 Q170.139 402.503 172.616 402.503 Q177.825 402.503 180.834 405.674 Q183.866 408.822 183.866 414.262 Q183.866 419.586 180.718 422.804 Q177.57 426.021 172.339 426.021 Q166.343 426.021 163.172 421.438 Q160.001 416.832 160.001 408.105 Q160.001 399.91 163.89 395.049 Q167.778 390.165 174.329 390.165 Q176.089 390.165 177.871 390.512 Q179.676 390.859 181.621 391.554 Z" fill="#000000" fill-rule="evenodd" fill-opacity="1" /><path clip-path="url(#clip970)" d="M126.783 68.3719 Q123.172 68.3719 121.343 71.9367 Q119.538 75.4783 119.538 82.6079 Q119.538 89.7144 121.343 93.2792 Q123.172 96.8208 126.783 96.8208 Q130.417 96.8208 132.223 93.2792 Q134.052 89.7144 134.052 82.6079 Q134.052 75.4783 132.223 71.9367 Q130.417 68.3719 126.783 68.3719 M126.783 64.6682 Q132.593 64.6682 135.649 69.2747 Q138.728 73.858 138.728 82.6079 Q138.728 91.3347 135.649 95.9412 Q132.593 100.525 126.783 100.525 Q120.973 100.525 117.894 95.9412 Q114.839 91.3347 114.839 82.6079 Q114.839 73.858 117.894 69.2747 Q120.973 64.6682 126.783 64.6682 Z" fill="#000000" fill-rule="evenodd" fill-opacity="1" /><path clip-path="url(#clip970)" d="M146.945 93.9736 L151.829 93.9736 L151.829 99.8532 L146.945 99.8532 L146.945 93.9736 Z" fill="#000000" fill-rule="evenodd" fill-opacity="1" /><path clip-path="url(#clip970)" d="M172.014 83.4413 Q168.681 83.4413 166.76 85.2237 Q164.862 87.0061 164.862 90.131 Q164.862 93.256 166.76 95.0384 Q168.681 96.8208 172.014 96.8208 Q175.348 96.8208 177.269 95.0384 Q179.19 93.2329 179.19 90.131 Q179.19 87.0061 177.269 85.2237 Q175.371 83.4413 172.014 83.4413 M167.339 81.4505 Q164.329 80.7098 162.64 78.6496 Q160.973 76.5894 160.973 73.6265 Q160.973 69.483 163.913 67.0756 Q166.876 64.6682 172.014 64.6682 Q177.176 64.6682 180.116 67.0756 Q183.056 69.483 183.056 73.6265 Q183.056 76.5894 181.366 78.6496 Q179.7 80.7098 176.714 81.4505 Q180.093 82.2376 181.968 84.5292 Q183.866 86.8209 183.866 90.131 Q183.866 95.1542 180.788 97.8393 Q177.732 100.525 172.014 100.525 Q166.297 100.525 163.218 97.8393 Q160.163 95.1542 160.163 90.131 Q160.163 86.8209 162.061 84.5292 Q163.959 82.2376 167.339 81.4505 M165.626 74.0663 Q165.626 76.7515 167.292 78.2561 Q168.982 79.7607 172.014 79.7607 Q175.024 79.7607 176.714 78.2561 Q178.426 76.7515 178.426 74.0663 Q178.426 71.3811 176.714 69.8765 Q175.024 68.3719 172.014 68.3719 Q168.982 68.3719 167.292 69.8765 Q165.626 71.3811 165.626 74.0663 Z" fill="#000000" fill-rule="evenodd" fill-opacity="1" /><path clip-path="url(#clip970)" d="M21.7677 848.522 L58.7206 848.522 L58.7206 840.755 Q58.7206 830.92 54.2646 826.369 Q49.8086 821.786 40.1964 821.786 Q30.6479 821.786 26.2237 826.369 Q21.7677 830.92 21.7677 840.755 L21.7677 848.522 M16.4842 854.951 L16.4842 841.742 Q16.4842 827.928 22.2451 821.467 Q27.9743 815.006 40.1964 815.006 Q52.4822 815.006 58.2432 821.499 Q64.0042 827.992 64.0042 841.742 L64.0042 854.951 L16.4842 854.951 Z" fill="#000000" fill-rule="evenodd" fill-opacity="1" /><path clip-path="url(#clip970)" d="M44.7161 774.52 L47.5806 774.52 L47.5806 801.447 Q53.6281 801.065 56.8109 797.819 Q59.9619 794.54 59.9619 788.716 Q59.9619 785.342 59.1344 782.191 Q58.3069 779.008 56.6518 775.889 L62.1899 775.889 Q63.5267 779.04 64.227 782.35 Q64.9272 785.66 64.9272 789.066 Q64.9272 797.596 59.9619 802.593 Q54.9967 807.558 46.5303 807.558 Q37.7774 807.558 32.6531 802.848 Q27.4968 798.105 27.4968 790.084 Q27.4968 782.891 32.1438 778.722 Q36.7589 774.52 44.7161 774.52 M42.9973 780.377 Q38.1912 780.44 35.3266 783.082 Q32.4621 785.692 32.4621 790.021 Q32.4621 794.922 35.2312 797.882 Q38.0002 800.811 43.0292 801.256 L42.9973 780.377 Z" fill="#000000" fill-rule="evenodd" fill-opacity="1" /><path clip-path="url(#clip970)" d="M42.4881 735.276 L64.0042 735.276 L64.0042 741.132 L42.679 741.132 Q37.6183 741.132 35.1038 743.105 Q32.5894 745.079 32.5894 749.026 Q32.5894 753.768 35.6131 756.505 Q38.6368 759.243 43.8567 759.243 L64.0042 759.243 L64.0042 765.131 L28.3562 765.131 L28.3562 759.243 L33.8944 759.243 Q30.6797 757.142 29.0883 754.309 Q27.4968 751.445 27.4968 747.721 Q27.4968 741.578 31.3163 738.427 Q35.1038 735.276 42.4881 735.276 Z" fill="#000000" fill-rule="evenodd" fill-opacity="1" /><path clip-path="url(#clip970)" d="M29.4065 700.869 L34.9447 700.869 Q33.6716 703.352 33.035 706.025 Q32.3984 708.699 32.3984 711.563 Q32.3984 715.924 33.7352 718.12 Q35.072 720.284 37.7456 720.284 Q39.7826 720.284 40.9603 718.725 Q42.1061 717.165 43.1565 712.455 L43.6021 710.449 Q44.9389 704.211 47.3897 701.601 Q49.8086 698.959 54.1691 698.959 Q59.1344 698.959 62.0308 702.906 Q64.9272 706.821 64.9272 713.696 Q64.9272 716.56 64.3543 719.68 Q63.8132 722.767 62.6992 726.204 L56.6518 726.204 Q58.3387 722.958 59.198 719.807 Q60.0256 716.656 60.0256 713.569 Q60.0256 709.431 58.6251 707.203 Q57.1929 704.975 54.6147 704.975 Q52.2276 704.975 50.9545 706.598 Q49.6813 708.19 48.5037 713.632 L48.0262 715.669 Q46.8804 721.112 44.5251 723.531 Q42.138 725.95 38.0002 725.95 Q32.9713 725.95 30.2341 722.385 Q27.4968 718.82 27.4968 712.264 Q27.4968 709.017 27.9743 706.153 Q28.4517 703.288 29.4065 700.869 Z" fill="#000000" fill-rule="evenodd" fill-opacity="1" /><path clip-path="url(#clip970)" d="M28.3562 689.634 L28.3562 683.777 L64.0042 683.777 L64.0042 689.634 L28.3562 689.634 M14.479 689.634 L14.479 683.777 L21.895 683.777 L21.895 689.634 L14.479 689.634 Z" fill="#000000" fill-rule="evenodd" fill-opacity="1" /><path clip-path="url(#clip970)" d="M18.2347 665.73 L28.3562 665.73 L28.3562 653.667 L32.9077 653.667 L32.9077 665.73 L52.2594 665.73 Q56.6199 665.73 57.8613 664.553 Q59.1026 663.343 59.1026 659.683 L59.1026 653.667 L64.0042 653.667 L64.0042 659.683 Q64.0042 666.462 61.4897 669.04 Q58.9434 671.619 52.2594 671.619 L32.9077 671.619 L32.9077 675.915 L28.3562 675.915 L28.3562 671.619 L18.2347 671.619 L18.2347 665.73 Z" fill="#000000" fill-rule="evenodd" fill-opacity="1" /><path clip-path="url(#clip970)" d="M67.3143 631.133 Q73.68 633.615 75.6216 635.971 Q77.5631 638.326 77.5631 642.273 L77.5631 646.951 L72.6615 646.951 L72.6615 643.514 Q72.6615 641.095 71.5157 639.758 Q70.3699 638.421 66.1048 636.798 L63.4312 635.748 L28.3562 650.166 L28.3562 643.96 L56.238 632.82 L28.3562 621.68 L28.3562 615.473 L67.3143 631.133 Z" fill="#000000" fill-rule="evenodd" fill-opacity="1" /><polyline clip-path="url(#clip972)" style="stroke:#009af9; stroke-linecap:butt; stroke-linejoin:round; stroke-width:20; stroke-opacity:1; fill:none" points="
  294.78,1383.92 301.235,1383.86 307.69,1383.79 367.38,1382.85 427.07,1380.95 462.941,1379.05 498.812,1376.28 529.14,1373.05 559.468,1368.77 575.941,1365.9 
  592.414,1362.61 608.886,1358.83 625.359,1354.51 640.545,1350.01 655.731,1344.96 670.918,1339.32 686.104,1333.05 702.385,1325.57 718.666,1317.25 734.948,1308.05 
  751.229,1297.91 770.093,1284.94 788.956,1270.6 807.819,1254.84 826.683,1237.65 843.447,1221.15 860.21,1203.52 876.974,1184.78 893.737,1164.96 908.438,1146.75 
  923.138,1127.82 937.838,1108.21 952.538,1088.01 984.593,1042.32 1016.65,995.266 1048.89,947.815 1081.14,901.695 1090.05,889.389 1098.96,877.336 1107.87,865.569 
  1116.79,854.123 1125.7,843.03 1134.61,832.323 1143.53,822.032 1152.44,812.19 1160.92,803.27 1169.4,794.807 1177.88,786.826 1186.36,779.349 1194.84,772.399 
  1203.32,765.995 1211.8,760.156 1220.28,754.899 1229.1,750.068 1237.91,745.898 1246.73,742.403 1255.55,739.596 1264.37,737.484 1273.18,736.075 1282,735.373 
  1290.82,735.381 1298.24,735.938 1305.66,736.997 1313.09,738.554 1320.51,740.607 1327.93,743.151 1335.35,746.18 1342.78,749.687 1350.2,753.664 1359.26,759.143 
  1368.32,765.29 1377.38,772.085 1386.45,779.505 1395.51,787.525 1404.57,796.119 1413.63,805.258 1422.69,814.915 1439.3,833.844 1455.9,854.204 1464.2,864.857 
  1472.5,875.789 1480.8,886.974 1489.1,898.384 1519.77,942.051 1550.44,987.089 1581.5,1032.82 1612.57,1077.48 1629.98,1101.67 1647.39,1125.06 1664.79,1147.52 
  1682.2,1168.97 1697.97,1187.44 1713.75,1204.97 1729.52,1221.51 1745.3,1237.04 1763.36,1253.58 1781.42,1268.8 1799.48,1282.71 1817.54,1295.37 1834.26,1306 
  1850.98,1315.64 1867.71,1324.33 1884.43,1332.13 1900.91,1339.01 1917.4,1345.14 1933.89,1350.57 1950.37,1355.37 1966.38,1359.47 1982.39,1363.07 1998.39,1366.22 
  2014.4,1368.97 2047.22,1373.5 2080.04,1376.84 2115.99,1379.44 2151.95,1381.22 2204.18,1382.83 2256.41,1383.69 2267.13,1383.81 2277.84,1383.92 
  "/>
<polyline clip-path="url(#clip972)" style="stroke:#e26f46; stroke-linecap:butt; stroke-linejoin:round; stroke-width:20; stroke-opacity:1; fill:none" points="
  790.545,1383.27 793.773,1383.15 797.001,1383.02 826.846,1381.14 856.69,1377.35 874.626,1373.53 892.561,1368 907.726,1361.54 922.89,1352.97 931.126,1347.25 
  939.362,1340.65 947.599,1333.09 955.835,1324.46 963.428,1315.45 971.021,1305.36 978.614,1294.08 986.207,1281.54 994.348,1266.58 1002.49,1249.94 1010.63,1231.54 
  1018.77,1211.26 1028.2,1185.32 1037.63,1156.64 1047.07,1125.13 1056.5,1090.74 1064.88,1057.75 1073.26,1022.48 1081.64,984.996 1090.02,945.37 1097.37,908.949 
  1104.72,871.072 1112.07,831.861 1119.42,791.461 1135.45,700.087 1151.48,605.972 1167.6,511.07 1183.72,418.83 1188.18,394.217 1192.64,370.111 1197.09,346.578 
  1201.55,323.686 1206.01,301.5 1210.46,280.085 1214.92,259.504 1219.37,239.821 1223.61,221.979 1227.85,205.053 1232.09,189.091 1236.33,174.138 1240.58,160.237 
  1244.82,147.429 1249.06,135.751 1253.3,125.238 1257.7,115.575 1262.11,107.235 1266.52,100.246 1270.93,94.6309 1275.34,90.4072 1279.75,87.589 1284.16,86.1857 
  1288.57,86.2017 1292.28,87.3155 1295.99,89.4326 1299.7,92.548 1303.41,96.6545 1307.12,101.743 1310.83,107.801 1314.54,114.814 1318.25,122.768 1322.79,133.726 
  1327.32,146.02 1331.85,159.61 1336.38,174.449 1340.91,190.489 1345.44,207.677 1349.97,225.956 1354.5,245.269 1362.8,283.127 1371.11,323.848 1375.26,345.153 
  1379.41,367.017 1383.56,389.387 1387.71,412.208 1403.04,499.541 1418.38,589.618 1433.91,681.075 1449.44,770.405 1458.14,818.774 1466.85,865.551 1475.55,910.486 
  1484.26,953.373 1492.14,990.329 1500.03,1025.38 1507.92,1058.45 1515.8,1089.52 1524.83,1122.6 1533.86,1153.03 1542.89,1180.87 1551.93,1206.18 1560.29,1227.44 
  1568.65,1246.72 1577.01,1264.1 1585.37,1279.71 1593.61,1293.46 1601.86,1305.72 1610.1,1316.58 1618.34,1326.17 1626.35,1334.37 1634.35,1341.58 1642.35,1347.88 
  1650.36,1353.37 1666.76,1362.44 1683.17,1369.11 1701.15,1374.31 1719.13,1377.89 1745.25,1381.09 1771.36,1382.83 1776.72,1383.07 1782.08,1383.27 
  "/>
<polyline clip-path="url(#clip972)" style="stroke:#3da44d; stroke-linecap:butt; stroke-linejoin:round; stroke-width:20; stroke-opacity:1; fill:none" points="
  -696.752,1384.24 -683.841,1384.21 -670.93,1384.18 -551.551,1383.71 -432.172,1382.76 -360.43,1381.8 -288.688,1380.42 -228.031,1378.81 -167.374,1376.66 -134.429,1375.23 
  -101.484,1373.58 -68.5386,1371.69 -35.5935,1369.53 -5.22091,1367.28 25.1516,1364.76 55.5242,1361.94 85.8967,1358.8 118.459,1355.06 151.022,1350.91 183.584,1346.3 
  216.147,1341.24 253.874,1334.75 291.601,1327.58 329.328,1319.7 367.055,1311.1 400.582,1302.86 434.109,1294.04 467.637,1284.67 501.164,1274.76 530.564,1265.66 
  559.965,1256.19 589.365,1246.39 618.765,1236.29 682.874,1213.44 746.983,1189.91 811.472,1166.19 875.962,1143.13 893.787,1136.97 911.613,1130.95 929.438,1125.06 
  947.263,1119.34 965.089,1113.8 982.914,1108.44 1000.74,1103.3 1018.56,1098.38 1035.53,1093.92 1052.49,1089.68 1069.45,1085.69 1086.41,1081.95 1103.37,1078.48 
  1120.33,1075.28 1137.29,1072.36 1154.25,1069.73 1171.88,1067.31 1189.52,1065.23 1207.15,1063.48 1224.79,1062.08 1242.42,1061.02 1260.06,1060.32 1277.69,1059.97 
  1295.33,1059.97 1310.17,1060.25 1325.02,1060.78 1339.86,1061.56 1354.71,1062.58 1369.55,1063.86 1384.4,1065.37 1399.24,1067.12 1414.09,1069.11 1432.21,1071.85 
  1450.33,1074.93 1468.46,1078.32 1486.58,1082.03 1504.7,1086.04 1522.83,1090.34 1540.95,1094.91 1559.08,1099.74 1592.28,1109.2 1625.49,1119.38 1642.09,1124.71 
  1658.69,1130.17 1675.29,1135.77 1691.9,1141.47 1753.23,1163.31 1814.57,1185.82 1876.7,1208.69 1938.83,1231.02 1973.64,1243.11 2008.46,1254.81 2043.27,1266.04 
  2078.09,1276.76 2109.64,1286 2141.19,1294.76 2172.74,1303.03 2204.28,1310.8 2240.4,1319.07 2276.53,1326.68 2312.65,1333.64 2348.77,1339.96 2382.21,1345.28 
  2415.66,1350.1 2449.1,1354.45 2482.55,1358.35 2515.52,1361.79 2548.49,1364.85 2581.46,1367.57 2614.44,1369.96 2646.45,1372.01 2678.46,1373.81 2710.48,1375.39 
  2742.49,1376.76 2808.13,1379.03 2873.76,1380.7 2945.67,1382 3017.58,1382.89 3122.05,1383.69 3226.51,1384.13 3247.94,1384.19 3269.37,1384.24 
  "/>
<path clip-path="url(#clip970)" d="
M1893.31 300.469 L2281.66 300.469 L2281.66 93.1086 L1893.31 93.1086  Z
  " fill="#ffffff" fill-rule="evenodd" fill-opacity="1"/>
<polyline clip-path="url(#clip970)" style="stroke:#000000; stroke-linecap:butt; stroke-linejoin:round; stroke-width:4; stroke-opacity:1; fill:none" points="
  1893.31,300.469 2281.66,300.469 2281.66,93.1086 1893.31,93.1086 1893.31,300.469 
  "/>
<polyline clip-path="url(#clip970)" style="stroke:#009af9; stroke-linecap:butt; stroke-linejoin:round; stroke-width:4; stroke-opacity:1; fill:none" points="
  1917,144.949 2059.2,144.949 
  "/>
<path clip-path="url(#clip970)" d="M2108.26 147.881 Q2108.26 149.521 2105.92 149.521 L2100.65 149.521 Q2102.13 151.629 2102.13 154.744 Q2102.13 157.414 2101.02 159.92 Q2099.95 162.403 2098.21 164.136 Q2096.5 165.869 2094.35 166.923 Q2092.19 167.954 2090.09 167.954 Q2086.88 167.954 2084.89 165.776 Q2082.9 163.597 2082.9 160.365 Q2082.9 158.655 2083.48 156.758 Q2084.09 154.861 2085.24 153.104 Q2086.39 151.324 2087.88 149.895 Q2089.41 148.467 2091.37 147.6 Q2093.37 146.733 2095.45 146.733 L2106.39 146.733 Q2106.97 146.733 2107.28 146.78 Q2107.61 146.804 2107.93 147.085 Q2108.26 147.342 2108.26 147.881 M2099.06 154.182 Q2099.06 153.619 2098.99 153.128 Q2098.92 152.612 2098.66 151.933 Q2098.4 151.23 2097.96 150.739 Q2097.51 150.223 2096.64 149.872 Q2095.8 149.521 2094.65 149.521 Q2093.04 149.521 2091.26 150.411 Q2089.48 151.301 2088.12 153.502 Q2086.99 155.376 2086.43 157.812 Q2085.87 160.248 2085.87 161.7 Q2085.87 164.183 2087.06 165.542 Q2088.28 166.877 2090.13 166.877 Q2091.66 166.877 2093.39 165.846 Q2095.12 164.792 2096.46 162.801 Q2097.63 161.068 2098.33 158.538 Q2099.06 156.009 2099.06 154.182 Z" fill="#000000" fill-rule="evenodd" fill-opacity="1" /><path clip-path="url(#clip970)" d="M2123.31 160.131 Q2123.36 159.545 2124.27 159.545 L2153.67 159.545 Q2155.05 159.545 2155.07 160.084 Q2155.07 160.67 2153.76 160.646 L2124.6 160.646 Q2123.31 160.67 2123.31 160.131 M2123.31 150.762 Q2123.31 150.176 2124.32 150.2 L2153.62 150.2 Q2155.05 150.2 2155.07 150.762 Q2155.07 151.301 2153.86 151.301 L2124.27 151.301 Q2123.31 151.301 2123.31 150.762 Z" fill="#000000" fill-rule="evenodd" fill-opacity="1" /><path clip-path="url(#clip970)" d="M2173.57 140.034 L2173.57 138.535 Q2179.33 138.535 2182.3 135.467 Q2183.12 135.467 2183.26 135.654 Q2183.4 135.842 2183.4 136.708 L2183.4 163.621 Q2183.4 165.05 2184.11 165.495 Q2184.81 165.94 2187.88 165.94 L2189.4 165.94 L2189.4 167.415 Q2187.71 167.275 2181.62 167.275 Q2175.53 167.275 2173.87 167.415 L2173.87 165.94 L2175.39 165.94 Q2178.41 165.94 2179.14 165.518 Q2179.87 165.073 2179.87 163.621 L2179.87 138.77 Q2177.36 140.034 2173.57 140.034 Z" fill="#000000" fill-rule="evenodd" fill-opacity="1" /><polyline clip-path="url(#clip970)" style="stroke:#e26f46; stroke-linecap:butt; stroke-linejoin:round; stroke-width:4; stroke-opacity:1; fill:none" points="
  1917,196.789 2059.2,196.789 
  "/>
<path clip-path="url(#clip970)" d="M2108.26 199.463 Q2108.26 201.103 2105.92 201.103 L2100.65 201.103 Q2102.13 203.211 2102.13 206.326 Q2102.13 208.996 2101.02 211.502 Q2099.95 213.985 2098.21 215.718 Q2096.5 217.452 2094.35 218.506 Q2092.19 219.536 2090.09 219.536 Q2086.88 219.536 2084.89 217.358 Q2082.9 215.18 2082.9 211.947 Q2082.9 210.238 2083.48 208.34 Q2084.09 206.443 2085.24 204.686 Q2086.39 202.906 2087.88 201.478 Q2089.41 200.049 2091.37 199.182 Q2093.37 198.315 2095.45 198.315 L2106.39 198.315 Q2106.97 198.315 2107.28 198.362 Q2107.61 198.386 2107.93 198.667 Q2108.26 198.924 2108.26 199.463 M2099.06 205.764 Q2099.06 205.202 2098.99 204.71 Q2098.92 204.195 2098.66 203.515 Q2098.4 202.813 2097.96 202.321 Q2097.51 201.805 2096.64 201.454 Q2095.8 201.103 2094.65 201.103 Q2093.04 201.103 2091.26 201.993 Q2089.48 202.883 2088.12 205.085 Q2086.99 206.958 2086.43 209.394 Q2085.87 211.83 2085.87 213.282 Q2085.87 215.765 2087.06 217.124 Q2088.28 218.459 2090.13 218.459 Q2091.66 218.459 2093.39 217.428 Q2095.12 216.374 2096.46 214.383 Q2097.63 212.65 2098.33 210.12 Q2099.06 207.591 2099.06 205.764 Z" fill="#000000" fill-rule="evenodd" fill-opacity="1" /><path clip-path="url(#clip970)" d="M2123.31 211.713 Q2123.36 211.128 2124.27 211.128 L2153.67 211.128 Q2155.05 211.128 2155.07 211.666 Q2155.07 212.252 2153.76 212.228 L2124.6 212.228 Q2123.31 212.252 2123.31 211.713 M2123.31 202.344 Q2123.31 201.759 2124.32 201.782 L2153.62 201.782 Q2155.05 201.782 2155.07 202.344 Q2155.07 202.883 2153.86 202.883 L2124.27 202.883 Q2123.31 202.883 2123.31 202.344 Z" fill="#000000" fill-rule="evenodd" fill-opacity="1" /><path clip-path="url(#clip970)" d="M2173.57 203.656 Q2173.57 196.606 2175.35 192.764 Q2177.83 187.049 2183.68 187.049 Q2184.92 187.049 2186.21 187.401 Q2187.52 187.729 2189.16 189.017 Q2190.83 190.305 2191.83 192.413 Q2193.76 196.489 2193.76 203.656 Q2193.76 210.659 2191.98 214.477 Q2189.38 220.052 2183.64 220.052 Q2181.48 220.052 2179.28 218.951 Q2177.1 217.85 2175.72 215.203 Q2173.57 211.245 2173.57 203.656 M2177.55 203.07 Q2177.55 210.308 2178.06 213.189 Q2178.65 216.304 2180.24 217.662 Q2181.86 218.997 2183.64 218.997 Q2185.56 218.997 2187.15 217.569 Q2188.77 216.117 2189.26 213.001 Q2189.8 209.933 2189.77 203.07 Q2189.77 196.395 2189.3 193.725 Q2188.67 190.609 2186.99 189.368 Q2185.32 188.103 2183.64 188.103 Q2183 188.103 2182.33 188.291 Q2181.67 188.478 2180.71 189.017 Q2179.75 189.555 2179 190.891 Q2178.27 192.226 2177.92 194.24 Q2177.55 196.84 2177.55 203.07 Z" fill="#000000" fill-rule="evenodd" fill-opacity="1" /><path clip-path="url(#clip970)" d="M2198.04 218.225 Q2197.32 217.452 2197.32 216.444 Q2197.32 215.437 2198.04 214.711 Q2198.77 213.962 2199.87 213.962 Q2200.92 213.962 2201.62 214.664 Q2202.35 215.344 2202.35 216.468 Q2202.35 217.569 2201.58 218.295 Q2200.83 218.997 2199.87 218.997 Q2198.77 218.997 2198.04 218.225 Z" fill="#000000" fill-rule="evenodd" fill-opacity="1" /><path clip-path="url(#clip970)" d="M2210.51 211.268 Q2210.51 209.839 2211.28 209.301 Q2212.06 208.738 2212.88 208.738 Q2213.98 208.738 2214.61 209.441 Q2215.27 210.12 2215.27 211.081 Q2215.27 212.041 2214.61 212.744 Q2213.98 213.423 2212.88 213.423 Q2212.34 213.423 2212.06 213.329 Q2212.69 215.531 2214.61 217.124 Q2216.56 218.716 2219.11 218.716 Q2222.32 218.716 2224.24 215.601 Q2225.39 213.587 2225.39 209.02 Q2225.39 204.991 2224.52 202.977 Q2223.18 199.908 2220.44 199.908 Q2216.56 199.908 2214.26 203.258 Q2213.98 203.679 2213.65 203.703 Q2213.18 203.703 2213.07 203.445 Q2212.97 203.164 2212.97 202.438 L2212.97 188.244 Q2212.97 187.096 2213.44 187.096 Q2213.63 187.096 2214.03 187.237 Q2217.05 188.572 2220.4 188.595 Q2223.84 188.595 2226.93 187.19 Q2227.17 187.049 2227.31 187.049 Q2227.77 187.049 2227.8 187.588 Q2227.8 187.775 2227.4 188.338 Q2227.02 188.876 2226.21 189.602 Q2225.39 190.305 2224.33 190.984 Q2223.28 191.664 2221.73 192.132 Q2220.21 192.577 2218.52 192.577 Q2216.51 192.577 2214.45 191.945 L2214.45 201.29 Q2216.93 198.854 2220.54 198.854 Q2224.38 198.854 2227.02 201.946 Q2229.67 205.038 2229.67 209.347 Q2229.67 213.868 2226.53 216.96 Q2223.42 220.052 2219.2 220.052 Q2215.36 220.052 2212.92 217.311 Q2210.51 214.571 2210.51 211.268 Z" fill="#000000" fill-rule="evenodd" fill-opacity="1" /><polyline clip-path="url(#clip970)" style="stroke:#3da44d; stroke-linecap:butt; stroke-linejoin:round; stroke-width:4; stroke-opacity:1; fill:none" points="
  1917,248.629 2059.2,248.629 
  "/>
<path clip-path="url(#clip970)" d="M2108.26 251.561 Q2108.26 253.201 2105.92 253.201 L2100.65 253.201 Q2102.13 255.309 2102.13 258.424 Q2102.13 261.094 2101.02 263.6 Q2099.95 266.083 2098.21 267.816 Q2096.5 269.549 2094.35 270.603 Q2092.19 271.634 2090.09 271.634 Q2086.88 271.634 2084.89 269.456 Q2082.9 267.277 2082.9 264.045 Q2082.9 262.335 2083.48 260.438 Q2084.09 258.541 2085.24 256.784 Q2086.39 255.004 2087.88 253.575 Q2089.41 252.147 2091.37 251.28 Q2093.37 250.413 2095.45 250.413 L2106.39 250.413 Q2106.97 250.413 2107.28 250.46 Q2107.61 250.484 2107.93 250.765 Q2108.26 251.022 2108.26 251.561 M2099.06 257.862 Q2099.06 257.299 2098.99 256.808 Q2098.92 256.292 2098.66 255.613 Q2098.4 254.91 2097.96 254.419 Q2097.51 253.903 2096.64 253.552 Q2095.8 253.201 2094.65 253.201 Q2093.04 253.201 2091.26 254.091 Q2089.48 254.981 2088.12 257.182 Q2086.99 259.056 2086.43 261.492 Q2085.87 263.928 2085.87 265.38 Q2085.87 267.863 2087.06 269.222 Q2088.28 270.557 2090.13 270.557 Q2091.66 270.557 2093.39 269.526 Q2095.12 268.472 2096.46 266.481 Q2097.63 264.748 2098.33 262.218 Q2099.06 259.689 2099.06 257.862 Z" fill="#000000" fill-rule="evenodd" fill-opacity="1" /><path clip-path="url(#clip970)" d="M2123.31 263.811 Q2123.36 263.225 2124.27 263.225 L2153.67 263.225 Q2155.05 263.225 2155.07 263.764 Q2155.07 264.35 2153.76 264.326 L2124.6 264.326 Q2123.31 264.35 2123.31 263.811 M2123.31 254.442 Q2123.31 253.856 2124.32 253.88 L2153.62 253.88 Q2155.05 253.88 2155.07 254.442 Q2155.07 254.981 2153.86 254.981 L2124.27 254.981 Q2123.31 254.981 2123.31 254.442 Z" fill="#000000" fill-rule="evenodd" fill-opacity="1" /><path clip-path="url(#clip970)" d="M2173.57 271.095 Q2173.57 270.229 2173.64 269.971 Q2173.73 269.713 2174.1 269.315 L2183.31 259.056 Q2188.34 253.388 2188.34 248.446 Q2188.34 245.237 2186.66 242.942 Q2185 240.646 2181.93 240.646 Q2179.82 240.646 2178.04 241.934 Q2176.26 243.223 2175.44 245.518 Q2175.58 245.471 2176.07 245.471 Q2177.27 245.471 2177.92 246.221 Q2178.6 246.97 2178.6 247.977 Q2178.6 249.266 2177.76 249.898 Q2176.94 250.507 2176.12 250.507 Q2175.79 250.507 2175.35 250.437 Q2174.92 250.366 2174.24 249.711 Q2173.57 249.031 2173.57 247.837 Q2173.57 244.487 2176.09 241.817 Q2178.65 239.147 2182.54 239.147 Q2186.94 239.147 2189.82 241.77 Q2192.72 244.37 2192.72 248.446 Q2192.72 249.875 2192.28 251.186 Q2191.86 252.474 2191.27 253.482 Q2190.71 254.489 2189.16 256.105 Q2187.62 257.721 2186.38 258.869 Q2185.14 260.016 2182.35 262.452 L2177.27 267.395 L2185.91 267.395 Q2190.12 267.395 2190.45 267.02 Q2190.92 266.341 2191.51 262.757 L2192.72 262.757 L2191.37 271.095 L2173.57 271.095 Z" fill="#000000" fill-rule="evenodd" fill-opacity="1" /></svg>
