<?xml version="1.0" encoding="utf-8"?>
<svg xmlns="http://www.w3.org/2000/svg" xmlns:xlink="http://www.w3.org/1999/xlink" width="600" height="400" viewBox="0 0 2400 1600">
<defs>
  <clipPath id="clip060">
    <rect x="0" y="0" width="2400" height="1600"/>
  </clipPath>
</defs>
<path clip-path="url(#clip060)" d="
M0 1600 L2400 1600 L2400 0 L0 0  Z
  " fill="#ffffff" fill-rule="evenodd" fill-opacity="1"/>
<defs>
  <clipPath id="clip061">
    <rect x="480" y="0" width="1681" height="1600"/>
  </clipPath>
</defs>
<defs>
  <clipPath id="clip062">
    <rect x="219" y="47" width="2134" height="1377"/>
  </clipPath>
</defs>
<path clip-path="url(#clip060)" d="
M219.866 1423.18 L2352.76 1423.18 L2352.76 47.2441 L219.866 47.2441  Z
  " fill="#ffffff" fill-rule="evenodd" fill-opacity="1"/>
<polyline clip-path="url(#clip062)" style="stroke:#000000; stroke-linecap:butt; stroke-linejoin:round; stroke-width:2; stroke-opacity:0.1; fill:none" points="
  219.866,1423.18 219.866,47.2441 
  "/>
<polyline clip-path="url(#clip062)" style="stroke:#000000; stroke-linecap:butt; stroke-linejoin:round; stroke-width:2; stroke-opacity:0.1; fill:none" points="
  753.089,1423.18 753.089,47.2441 
  "/>
<polyline clip-path="url(#clip062)" style="stroke:#000000; stroke-linecap:butt; stroke-linejoin:round; stroke-width:2; stroke-opacity:0.1; fill:none" points="
  1286.31,1423.18 1286.31,47.2441 
  "/>
<polyline clip-path="url(#clip062)" style="stroke:#000000; stroke-linecap:butt; stroke-linejoin:round; stroke-width:2; stroke-opacity:0.1; fill:none" points="
  1819.53,1423.18 1819.53,47.2441 
  "/>
<polyline clip-path="url(#clip062)" style="stroke:#000000; stroke-linecap:butt; stroke-linejoin:round; stroke-width:2; stroke-opacity:0.1; fill:none" points="
  2352.76,1423.18 2352.76,47.2441 
  "/>
<polyline clip-path="url(#clip060)" style="stroke:#000000; stroke-linecap:butt; stroke-linejoin:round; stroke-width:4; stroke-opacity:1; fill:none" points="
  219.866,1423.18 2352.76,1423.18 
  "/>
<polyline clip-path="url(#clip060)" style="stroke:#000000; stroke-linecap:butt; stroke-linejoin:round; stroke-width:4; stroke-opacity:1; fill:none" points="
  219.866,1423.18 219.866,1404.28 
  "/>
<polyline clip-path="url(#clip060)" style="stroke:#000000; stroke-linecap:butt; stroke-linejoin:round; stroke-width:4; stroke-opacity:1; fill:none" points="
  753.089,1423.18 753.089,1404.28 
  "/>
<polyline clip-path="url(#clip060)" style="stroke:#000000; stroke-linecap:butt; stroke-linejoin:round; stroke-width:4; stroke-opacity:1; fill:none" points="
  1286.31,1423.18 1286.31,1404.28 
  "/>
<polyline clip-path="url(#clip060)" style="stroke:#000000; stroke-linecap:butt; stroke-linejoin:round; stroke-width:4; stroke-opacity:1; fill:none" points="
  1819.53,1423.18 1819.53,1404.28 
  "/>
<polyline clip-path="url(#clip060)" style="stroke:#000000; stroke-linecap:butt; stroke-linejoin:round; stroke-width:4; stroke-opacity:1; fill:none" points="
  2352.76,1423.18 2352.76,1404.28 
  "/>
<path clip-path="url(#clip060)" d="M188.767 1468.75 L218.443 1468.75 L218.443 1472.69 L188.767 1472.69 L188.767 1468.75 Z" fill="#000000" fill-rule="evenodd" fill-opacity="1" /><path clip-path="url(#clip060)" d="M241.382 1455.09 L229.577 1473.54 L241.382 1473.54 L241.382 1455.09 M240.156 1451.02 L246.035 1451.02 L246.035 1473.54 L250.966 1473.54 L250.966 1477.43 L246.035 1477.43 L246.035 1485.58 L241.382 1485.58 L241.382 1477.43 L225.781 1477.43 L225.781 1472.92 L240.156 1451.02 Z" fill="#000000" fill-rule="evenodd" fill-opacity="1" /><path clip-path="url(#clip060)" d="M723.031 1468.75 L752.707 1468.75 L752.707 1472.69 L723.031 1472.69 L723.031 1468.75 Z" fill="#000000" fill-rule="evenodd" fill-opacity="1" /><path clip-path="url(#clip060)" d="M766.827 1481.64 L783.146 1481.64 L783.146 1485.58 L761.202 1485.58 L761.202 1481.64 Q763.864 1478.89 768.447 1474.26 Q773.054 1469.61 774.234 1468.27 Q776.48 1465.74 777.359 1464.01 Q778.262 1462.25 778.262 1460.56 Q778.262 1457.8 776.318 1456.07 Q774.396 1454.33 771.295 1454.33 Q769.096 1454.33 766.642 1455.09 Q764.211 1455.86 761.434 1457.41 L761.434 1452.69 Q764.258 1451.55 766.711 1450.97 Q769.165 1450.39 771.202 1450.39 Q776.572 1450.39 779.767 1453.08 Q782.961 1455.77 782.961 1460.26 Q782.961 1462.39 782.151 1464.31 Q781.364 1466.2 779.258 1468.8 Q778.679 1469.47 775.577 1472.69 Q772.475 1475.88 766.827 1481.64 Z" fill="#000000" fill-rule="evenodd" fill-opacity="1" /><path clip-path="url(#clip060)" d="M1286.31 1454.1 Q1282.7 1454.1 1280.87 1457.66 Q1279.07 1461.2 1279.07 1468.33 Q1279.07 1475.44 1280.87 1479.01 Q1282.7 1482.55 1286.31 1482.55 Q1289.95 1482.55 1291.75 1479.01 Q1293.58 1475.44 1293.58 1468.33 Q1293.58 1461.2 1291.75 1457.66 Q1289.95 1454.1 1286.31 1454.1 M1286.31 1450.39 Q1292.12 1450.39 1295.18 1455 Q1298.26 1459.58 1298.26 1468.33 Q1298.26 1477.06 1295.18 1481.67 Q1292.12 1486.25 1286.31 1486.25 Q1280.5 1486.25 1277.42 1481.67 Q1274.37 1477.06 1274.37 1468.33 Q1274.37 1459.58 1277.42 1455 Q1280.5 1450.39 1286.31 1450.39 Z" fill="#000000" fill-rule="evenodd" fill-opacity="1" /><path clip-path="url(#clip060)" d="M1814.19 1481.64 L1830.51 1481.64 L1830.51 1485.58 L1808.56 1485.58 L1808.56 1481.64 Q1811.22 1478.89 1815.81 1474.26 Q1820.41 1469.61 1821.59 1468.27 Q1823.84 1465.74 1824.72 1464.01 Q1825.62 1462.25 1825.62 1460.56 Q1825.62 1457.8 1823.68 1456.07 Q1821.76 1454.33 1818.65 1454.33 Q1816.45 1454.33 1814 1455.09 Q1811.57 1455.86 1808.79 1457.41 L1808.79 1452.69 Q1811.62 1451.55 1814.07 1450.97 Q1816.52 1450.39 1818.56 1450.39 Q1823.93 1450.39 1827.13 1453.08 Q1830.32 1455.77 1830.32 1460.26 Q1830.32 1462.39 1829.51 1464.31 Q1828.72 1466.2 1826.62 1468.8 Q1826.04 1469.47 1822.94 1472.69 Q1819.83 1475.88 1814.19 1481.64 Z" fill="#000000" fill-rule="evenodd" fill-opacity="1" /><path clip-path="url(#clip060)" d="M2355.77 1455.09 L2343.96 1473.54 L2355.77 1473.54 L2355.77 1455.09 M2354.54 1451.02 L2360.42 1451.02 L2360.42 1473.54 L2365.35 1473.54 L2365.35 1477.43 L2360.42 1477.43 L2360.42 1485.58 L2355.77 1485.58 L2355.77 1477.43 L2340.16 1477.43 L2340.16 1472.92 L2354.54 1451.02 Z" fill="#000000" fill-rule="evenodd" fill-opacity="1" /><path clip-path="url(#clip060)" d="M1298.25 1545.85 Q1298.25 1551.26 1296.51 1557.35 Q1294.8 1563.4 1292.09 1568.3 Q1289.39 1573.16 1285.85 1576.38 Q1282.3 1579.57 1278.92 1579.57 Q1276.76 1579.57 1275.15 1578.38 Q1273.58 1577.15 1272.71 1575.12 Q1271.84 1573.06 1271.42 1570.81 Q1271 1568.52 1271 1566.04 Q1271 1562.34 1271.8 1558.31 Q1272.61 1554.25 1273.96 1550.58 Q1275.32 1546.88 1277.22 1543.53 Q1279.12 1540.15 1281.21 1537.7 Q1283.33 1535.22 1285.72 1533.77 Q1288.1 1532.32 1290.32 1532.32 Q1291.93 1532.32 1293.22 1533.03 Q1294.54 1533.71 1295.38 1534.9 Q1296.22 1536.06 1296.8 1537.44 Q1297.41 1538.83 1297.7 1540.44 Q1297.99 1542.02 1298.12 1543.34 Q1298.25 1544.63 1298.25 1545.85 M1293.9 1541.76 Q1293.9 1540.12 1293.77 1538.89 Q1293.64 1537.64 1293.29 1536.38 Q1292.93 1535.12 1292.16 1534.45 Q1291.42 1533.77 1290.26 1533.77 Q1286.88 1533.77 1283.08 1540.7 Q1281.85 1542.85 1280.76 1545.78 Q1279.66 1548.72 1279.28 1550.1 Q1278.89 1551.49 1277.99 1554.9 L1291.77 1554.9 Q1293.9 1546.11 1293.9 1541.76 M1291.19 1556.99 L1277.47 1556.99 Q1275.35 1565.04 1275.35 1570.07 Q1275.35 1574.45 1276.25 1576.28 Q1277.18 1578.09 1278.92 1578.09 Q1280.92 1578.09 1282.79 1576.09 Q1284.66 1574.06 1286.56 1570.39 Q1289.07 1565.62 1291.19 1556.99 Z" fill="#000000" fill-rule="evenodd" fill-opacity="1" /><polyline clip-path="url(#clip062)" style="stroke:#000000; stroke-linecap:butt; stroke-linejoin:round; stroke-width:2; stroke-opacity:0.1; fill:none" points="
  219.866,1384.25 2352.76,1384.25 
  "/>
<polyline clip-path="url(#clip062)" style="stroke:#000000; stroke-linecap:butt; stroke-linejoin:round; stroke-width:2; stroke-opacity:0.1; fill:none" points="
  219.866,1056.09 2352.76,1056.09 
  "/>
<polyline clip-path="url(#clip062)" style="stroke:#000000; stroke-linecap:butt; stroke-linejoin:round; stroke-width:2; stroke-opacity:0.1; fill:none" points="
  219.866,727.936 2352.76,727.936 
  "/>
<polyline clip-path="url(#clip062)" style="stroke:#000000; stroke-linecap:butt; stroke-linejoin:round; stroke-width:2; stroke-opacity:0.1; fill:none" points="
  219.866,399.781 2352.76,399.781 
  "/>
<polyline clip-path="url(#clip062)" style="stroke:#000000; stroke-linecap:butt; stroke-linejoin:round; stroke-width:2; stroke-opacity:0.1; fill:none" points="
  219.866,71.6253 2352.76,71.6253 
  "/>
<polyline clip-path="url(#clip060)" style="stroke:#000000; stroke-linecap:butt; stroke-linejoin:round; stroke-width:4; stroke-opacity:1; fill:none" points="
  219.866,1423.18 219.866,47.2441 
  "/>
<polyline clip-path="url(#clip060)" style="stroke:#000000; stroke-linecap:butt; stroke-linejoin:round; stroke-width:4; stroke-opacity:1; fill:none" points="
  219.866,1384.25 238.764,1384.25 
  "/>
<polyline clip-path="url(#clip060)" style="stroke:#000000; stroke-linecap:butt; stroke-linejoin:round; stroke-width:4; stroke-opacity:1; fill:none" points="
  219.866,1056.09 238.764,1056.09 
  "/>
<polyline clip-path="url(#clip060)" style="stroke:#000000; stroke-linecap:butt; stroke-linejoin:round; stroke-width:4; stroke-opacity:1; fill:none" points="
  219.866,727.936 238.764,727.936 
  "/>
<polyline clip-path="url(#clip060)" style="stroke:#000000; stroke-linecap:butt; stroke-linejoin:round; stroke-width:4; stroke-opacity:1; fill:none" points="
  219.866,399.781 238.764,399.781 
  "/>
<polyline clip-path="url(#clip060)" style="stroke:#000000; stroke-linecap:butt; stroke-linejoin:round; stroke-width:4; stroke-opacity:1; fill:none" points="
  219.866,71.6253 238.764,71.6253 
  "/>
<path clip-path="url(#clip060)" d="M126.691 1370.05 Q123.08 1370.05 121.251 1373.61 Q119.445 1377.15 119.445 1384.28 Q119.445 1391.39 121.251 1394.95 Q123.08 1398.5 126.691 1398.5 Q130.325 1398.5 132.13 1394.95 Q133.959 1391.39 133.959 1384.28 Q133.959 1377.15 132.13 1373.61 Q130.325 1370.05 126.691 1370.05 M126.691 1366.34 Q132.501 1366.34 135.556 1370.95 Q138.635 1375.53 138.635 1384.28 Q138.635 1393.01 135.556 1397.62 Q132.501 1402.2 126.691 1402.2 Q120.88 1402.2 117.802 1397.62 Q114.746 1393.01 114.746 1384.28 Q114.746 1375.53 117.802 1370.95 Q120.88 1366.34 126.691 1366.34 Z" fill="#000000" fill-rule="evenodd" fill-opacity="1" /><path clip-path="url(#clip060)" d="M146.853 1395.65 L151.737 1395.65 L151.737 1401.53 L146.853 1401.53 L146.853 1395.65 Z" fill="#000000" fill-rule="evenodd" fill-opacity="1" /><path clip-path="url(#clip060)" d="M171.922 1370.05 Q168.311 1370.05 166.482 1373.61 Q164.677 1377.15 164.677 1384.28 Q164.677 1391.39 166.482 1394.95 Q168.311 1398.5 171.922 1398.5 Q175.556 1398.5 177.362 1394.95 Q179.19 1391.39 179.19 1384.28 Q179.19 1377.15 177.362 1373.61 Q175.556 1370.05 171.922 1370.05 M171.922 1366.34 Q177.732 1366.34 180.788 1370.95 Q183.866 1375.53 183.866 1384.28 Q183.866 1393.01 180.788 1397.62 Q177.732 1402.2 171.922 1402.2 Q166.112 1402.2 163.033 1397.62 Q159.978 1393.01 159.978 1384.28 Q159.978 1375.53 163.033 1370.95 Q166.112 1366.34 171.922 1366.34 Z" fill="#000000" fill-rule="evenodd" fill-opacity="1" /><path clip-path="url(#clip060)" d="M127.917 1041.89 Q124.306 1041.89 122.478 1045.46 Q120.672 1049 120.672 1056.13 Q120.672 1063.23 122.478 1066.8 Q124.306 1070.34 127.917 1070.34 Q131.552 1070.34 133.357 1066.8 Q135.186 1063.23 135.186 1056.13 Q135.186 1049 133.357 1045.46 Q131.552 1041.89 127.917 1041.89 M127.917 1038.19 Q133.728 1038.19 136.783 1042.79 Q139.862 1047.38 139.862 1056.13 Q139.862 1064.85 136.783 1069.46 Q133.728 1074.04 127.917 1074.04 Q122.107 1074.04 119.029 1069.46 Q115.973 1064.85 115.973 1056.13 Q115.973 1047.38 119.029 1042.79 Q122.107 1038.19 127.917 1038.19 Z" fill="#000000" fill-rule="evenodd" fill-opacity="1" /><path clip-path="url(#clip060)" d="M148.079 1067.49 L152.964 1067.49 L152.964 1073.37 L148.079 1073.37 L148.079 1067.49 Z" fill="#000000" fill-rule="evenodd" fill-opacity="1" /><path clip-path="url(#clip060)" d="M163.959 1069.44 L171.598 1069.44 L171.598 1043.07 L163.288 1044.74 L163.288 1040.48 L171.552 1038.81 L176.227 1038.81 L176.227 1069.44 L183.866 1069.44 L183.866 1073.37 L163.959 1073.37 L163.959 1069.44 Z" fill="#000000" fill-rule="evenodd" fill-opacity="1" /><path clip-path="url(#clip060)" d="M128.288 713.735 Q124.677 713.735 122.848 717.3 Q121.043 720.842 121.043 727.971 Q121.043 735.078 122.848 738.642 Q124.677 742.184 128.288 742.184 Q131.922 742.184 133.728 738.642 Q135.556 735.078 135.556 727.971 Q135.556 720.842 133.728 717.3 Q131.922 713.735 128.288 713.735 M128.288 710.031 Q134.098 710.031 137.154 714.638 Q140.232 719.221 140.232 727.971 Q140.232 736.698 137.154 741.304 Q134.098 745.888 128.288 745.888 Q122.478 745.888 119.399 741.304 Q116.343 736.698 116.343 727.971 Q116.343 719.221 119.399 714.638 Q122.478 710.031 128.288 710.031 Z" fill="#000000" fill-rule="evenodd" fill-opacity="1" /><path clip-path="url(#clip060)" d="M148.45 739.337 L153.334 739.337 L153.334 745.216 L148.45 745.216 L148.45 739.337 Z" fill="#000000" fill-rule="evenodd" fill-opacity="1" /><path clip-path="url(#clip060)" d="M167.547 741.281 L183.866 741.281 L183.866 745.216 L161.922 745.216 L161.922 741.281 Q164.584 738.527 169.167 733.897 Q173.774 729.244 174.954 727.902 Q177.2 725.379 178.079 723.642 Q178.982 721.883 178.982 720.193 Q178.982 717.439 177.038 715.703 Q175.116 713.967 172.014 713.967 Q169.815 713.967 167.362 714.73 Q164.931 715.494 162.153 717.045 L162.153 712.323 Q164.977 711.189 167.431 710.61 Q169.885 710.031 171.922 710.031 Q177.292 710.031 180.487 712.717 Q183.681 715.402 183.681 719.892 Q183.681 722.022 182.871 723.943 Q182.084 725.842 179.977 728.434 Q179.399 729.105 176.297 732.323 Q173.195 735.517 167.547 741.281 Z" fill="#000000" fill-rule="evenodd" fill-opacity="1" /><path clip-path="url(#clip060)" d="M127.339 385.58 Q123.728 385.58 121.899 389.144 Q120.093 392.686 120.093 399.816 Q120.093 406.922 121.899 410.487 Q123.728 414.028 127.339 414.028 Q130.973 414.028 132.779 410.487 Q134.607 406.922 134.607 399.816 Q134.607 392.686 132.779 389.144 Q130.973 385.58 127.339 385.58 M127.339 381.876 Q133.149 381.876 136.204 386.482 Q139.283 391.066 139.283 399.816 Q139.283 408.542 136.204 413.149 Q133.149 417.732 127.339 417.732 Q121.529 417.732 118.45 413.149 Q115.394 408.542 115.394 399.816 Q115.394 391.066 118.45 386.482 Q121.529 381.876 127.339 381.876 Z" fill="#000000" fill-rule="evenodd" fill-opacity="1" /><path clip-path="url(#clip060)" d="M147.501 411.181 L152.385 411.181 L152.385 417.061 L147.501 417.061 L147.501 411.181 Z" fill="#000000" fill-rule="evenodd" fill-opacity="1" /><path clip-path="url(#clip060)" d="M176.737 398.427 Q180.093 399.144 181.968 401.413 Q183.866 403.681 183.866 407.015 Q183.866 412.13 180.348 414.931 Q176.829 417.732 170.348 417.732 Q168.172 417.732 165.857 417.292 Q163.565 416.876 161.112 416.019 L161.112 411.505 Q163.056 412.64 165.371 413.218 Q167.686 413.797 170.209 413.797 Q174.607 413.797 176.899 412.061 Q179.214 410.325 179.214 407.015 Q179.214 403.959 177.061 402.246 Q174.931 400.51 171.112 400.51 L167.084 400.51 L167.084 396.667 L171.297 396.667 Q174.746 396.667 176.575 395.302 Q178.403 393.913 178.403 391.32 Q178.403 388.658 176.505 387.246 Q174.63 385.811 171.112 385.811 Q169.19 385.811 166.991 386.228 Q164.792 386.644 162.153 387.524 L162.153 383.357 Q164.815 382.617 167.13 382.246 Q169.468 381.876 171.528 381.876 Q176.852 381.876 179.954 384.306 Q183.056 386.714 183.056 390.834 Q183.056 393.705 181.413 395.695 Q179.769 397.663 176.737 398.427 Z" fill="#000000" fill-rule="evenodd" fill-opacity="1" /><path clip-path="url(#clip060)" d="M126.205 57.424 Q122.593 57.424 120.765 60.9888 Q118.959 64.5305 118.959 71.66 Q118.959 78.7665 120.765 82.3313 Q122.593 85.8729 126.205 85.8729 Q129.839 85.8729 131.644 82.3313 Q133.473 78.7665 133.473 71.66 Q133.473 64.5305 131.644 60.9888 Q129.839 57.424 126.205 57.424 M126.205 53.7203 Q132.015 53.7203 135.07 58.3268 Q138.149 62.9101 138.149 71.66 Q138.149 80.3869 135.07 84.9933 Q132.015 89.5766 126.205 89.5766 Q120.394 89.5766 117.316 84.9933 Q114.26 80.3869 114.26 71.66 Q114.26 62.9101 117.316 58.3268 Q120.394 53.7203 126.205 53.7203 Z" fill="#000000" fill-rule="evenodd" fill-opacity="1" /><path clip-path="url(#clip060)" d="M146.366 83.0257 L151.251 83.0257 L151.251 88.9053 L146.366 88.9053 L146.366 83.0257 Z" fill="#000000" fill-rule="evenodd" fill-opacity="1" /><path clip-path="url(#clip060)" d="M174.283 58.4194 L162.477 76.8684 L174.283 76.8684 L174.283 58.4194 M173.056 54.3453 L178.936 54.3453 L178.936 76.8684 L183.866 76.8684 L183.866 80.7572 L178.936 80.7572 L178.936 88.9053 L174.283 88.9053 L174.283 80.7572 L158.681 80.7572 L158.681 76.2434 L173.056 54.3453 Z" fill="#000000" fill-rule="evenodd" fill-opacity="1" /><path clip-path="url(#clip060)" d="M21.7677 848.522 L58.7206 848.522 L58.7206 840.755 Q58.7206 830.92 54.2646 826.369 Q49.8086 821.786 40.1964 821.786 Q30.6479 821.786 26.2237 826.369 Q21.7677 830.92 21.7677 840.755 L21.7677 848.522 M16.4842 854.951 L16.4842 841.742 Q16.4842 827.928 22.2451 821.467 Q27.9743 815.006 40.1964 815.006 Q52.4822 815.006 58.2432 821.499 Q64.0042 827.992 64.0042 841.742 L64.0042 854.951 L16.4842 854.951 Z" fill="#000000" fill-rule="evenodd" fill-opacity="1" /><path clip-path="url(#clip060)" d="M44.7161 774.52 L47.5806 774.52 L47.5806 801.447 Q53.6281 801.065 56.8109 797.819 Q59.9619 794.54 59.9619 788.716 Q59.9619 785.342 59.1344 782.191 Q58.3069 779.008 56.6518 775.889 L62.1899 775.889 Q63.5267 779.04 64.227 782.35 Q64.9272 785.66 64.9272 789.066 Q64.9272 797.596 59.9619 802.593 Q54.9967 807.558 46.5303 807.558 Q37.7774 807.558 32.6531 802.848 Q27.4968 798.105 27.4968 790.084 Q27.4968 782.891 32.1438 778.722 Q36.7589 774.52 44.7161 774.52 M42.9973 780.377 Q38.1912 780.44 35.3266 783.082 Q32.4621 785.692 32.4621 790.021 Q32.4621 794.922 35.2312 797.882 Q38.0002 800.811 43.0292 801.256 L42.9973 780.377 Z" fill="#000000" fill-rule="evenodd" fill-opacity="1" /><path clip-path="url(#clip060)" d="M42.4881 735.276 L64.0042 735.276 L64.0042 741.132 L42.679 741.132 Q37.6183 741.132 35.1038 743.105 Q32.5894 745.079 32.5894 749.026 Q32.5894 753.768 35.6131 756.505 Q38.6368 759.243 43.8567 759.243 L64.0042 759.243 L64.0042 765.131 L28.3562 765.131 L28.3562 759.243 L33.8944 759.243 Q30.6797 757.142 29.0883 754.309 Q27.4968 751.445 27.4968 747.721 Q27.4968 741.578 31.3163 738.427 Q35.1038 735.276 42.4881 735.276 Z" fill="#000000" fill-rule="evenodd" fill-opacity="1" /><path clip-path="url(#clip060)" d="M29.4065 700.869 L34.9447 700.869 Q33.6716 703.352 33.035 706.025 Q32.3984 708.699 32.3984 711.563 Q32.3984 715.924 33.7352 718.12 Q35.072 720.284 37.7456 720.284 Q39.7826 720.284 40.9603 718.725 Q42.1061 717.165 43.1565 712.455 L43.6021 710.449 Q44.9389 704.211 47.3897 701.601 Q49.8086 698.959 54.1691 698.959 Q59.1344 698.959 62.0308 702.906 Q64.9272 706.821 64.9272 713.696 Q64.9272 716.56 64.3543 719.68 Q63.8132 722.767 62.6992 726.204 L56.6518 726.204 Q58.3387 722.958 59.198 719.807 Q60.0256 716.656 60.0256 713.569 Q60.0256 709.431 58.6251 707.203 Q57.1929 704.975 54.6147 704.975 Q52.2276 704.975 50.9545 706.598 Q49.6813 708.19 48.5037 713.632 L48.0262 715.669 Q46.8804 721.112 44.5251 723.531 Q42.138 725.95 38.0002 725.95 Q32.9713 725.95 30.2341 722.385 Q27.4968 718.82 27.4968 712.264 Q27.4968 709.017 27.9743 706.153 Q28.4517 703.288 29.4065 700.869 Z" fill="#000000" fill-rule="evenodd" fill-opacity="1" /><path clip-path="url(#clip060)" d="M28.3562 689.634 L28.3562 683.777 L64.0042 683.777 L64.0042 689.634 L28.3562 689.634 M14.479 689.634 L14.479 683.777 L21.895 683.777 L21.895 689.634 L14.479 689.634 Z" fill="#000000" fill-rule="evenodd" fill-opacity="1" /><path clip-path="url(#clip060)" d="M18.2347 665.73 L28.3562 665.73 L28.3562 653.667 L32.9077 653.667 L32.9077 665.73 L52.2594 665.73 Q56.6199 665.73 57.8613 664.553 Q59.1026 663.343 59.1026 659.683 L59.1026 653.667 L64.0042 653.667 L64.0042 659.683 Q64.0042 666.462 61.4897 669.04 Q58.9434 671.619 52.2594 671.619 L32.9077 671.619 L32.9077 675.915 L28.3562 675.915 L28.3562 671.619 L18.2347 671.619 L18.2347 665.73 Z" fill="#000000" fill-rule="evenodd" fill-opacity="1" /><path clip-path="url(#clip060)" d="M67.3143 631.133 Q73.68 633.615 75.6216 635.971 Q77.5631 638.326 77.5631 642.273 L77.5631 646.951 L72.6615 646.951 L72.6615 643.514 Q72.6615 641.095 71.5157 639.758 Q70.3699 638.421 66.1048 636.798 L63.4312 635.748 L28.3562 650.166 L28.3562 643.96 L56.238 632.82 L28.3562 621.68 L28.3562 615.473 L67.3143 631.133 Z" fill="#000000" fill-rule="evenodd" fill-opacity="1" /><polyline clip-path="url(#clip062)" style="stroke:#009af9; stroke-linecap:butt; stroke-linejoin:round; stroke-width:20; stroke-opacity:1; fill:none" points="
  -17563.1,1384.24 -17317.7,1384.24 -15048.2,1384.23 -13684.4,1384.23 -12531.3,1384.22 -11278.7,1384.22 -10123.9,1384.21 -8885.82,1384.19 -7451.41,1384.15 -6176.68,1384.1 
  -5058.85,1384.01 -3840.12,1383.79 -2614.14,1383.21 -1936.41,1382.43 -1258.67,1380.6 -936.248,1378.82 -613.823,1375.69 -452.611,1373.21 -291.399,1369.68 -210.793,1367.35 
  -130.187,1364.5 -49.5807,1361 31.0254,1356.63 114.837,1350.88 198.649,1343.48 240.555,1338.98 282.46,1333.81 324.366,1327.86 366.272,1320.98 408.178,1312.99 
  450.084,1303.68 491.989,1292.76 533.895,1279.92 575.801,1264.75 617.707,1246.74 638.66,1236.49 659.613,1225.29 680.566,1213.04 701.519,1199.64 722.472,1184.97 
  743.424,1168.89 764.377,1151.27 785.33,1131.97 806.283,1110.8 827.236,1087.62 848.189,1062.23 869.142,1034.47 890.095,1004.16 911.048,971.135 921.524,953.557 
  932.001,935.249 942.477,916.199 952.954,896.397 963.43,875.838 973.906,854.522 984.383,832.454 994.859,809.644 1015.81,761.876 1036.77,711.46 1057.72,658.792 
  1078.67,604.452 1099.62,549.223 1120.58,494.109 1141.53,440.327 1162.48,389.281 1172.96,365.262 1183.44,342.51 1193.91,321.226 1204.39,301.605 1214.86,283.839 
  1225.34,268.105 1235.82,254.568 1246.29,243.373 1256.77,234.644 1267.25,228.477 1277.72,224.945 1288.2,224.086 1298.68,225.912 1309.15,230.4 1319.63,237.501 
  1330.11,247.132 1340.58,259.187 1351.06,273.534 1361.54,290.021 1372.01,308.477 1380.83,325.406 1389.65,343.486 1398.47,362.6 1407.29,382.628 1424.93,424.952 
  1442.56,469.525 1477.84,562.013 1513.11,654.207 1530.75,698.818 1548.39,741.917 1566.03,783.236 1583.67,822.588 1601.3,859.859 1618.94,894.996 1636.58,927.989 
  1654.22,958.868 1671.86,987.69 1689.49,1014.53 1707.13,1039.49 1724.77,1062.66 1742.41,1084.15 1760.05,1104.06 1777.68,1122.5 1795.32,1139.57 1812.96,1155.38 
  1830.6,1170.01 1848.23,1183.56 1865.87,1196.1 1883.51,1207.72 1901.15,1218.49 1918.79,1228.48 1936.42,1237.74 1971.7,1254.33 2006.98,1268.66 2042.25,1281.08 
  2077.53,1291.88 2112.8,1301.29 2148.08,1309.53 2183.35,1316.75 2218.63,1323.11 2289.18,1333.68 2359.73,1342.02 2430.29,1348.66 2500.84,1354.01 2586.97,1359.21 
  2673.11,1363.3 2759.24,1366.55 2845.38,1369.18 3017.65,1373.07 3189.92,1375.74 3534.46,1379 3879,1380.79 4510.25,1382.43 5141.49,1383.18 6307.5,1383.76 
  7488.62,1383.99 8812.34,1384.1 10011.8,1384.15 11385.2,1384.19 12656.8,1384.21 13910.4,1384.22 15127.6,1384.22 16375.4,1384.23 17742.4,1384.23 19728.3,1384.24 
  20135.7,1384.24 
  "/>
<polyline clip-path="url(#clip062)" style="stroke:#e26f46; stroke-linecap:butt; stroke-linejoin:round; stroke-width:20; stroke-opacity:1; fill:none" points="
  -431.198,1383.9 -408.834,1383.86 -202.048,1383.25 -77.7785,1382.4 27.29,1381.08 141.424,1378.4 246.645,1373.73 303.049,1369.72 359.454,1364.09 392.129,1359.84 
  424.803,1354.65 457.478,1348.32 490.153,1340.61 519.191,1332.36 548.228,1322.55 577.266,1310.88 606.304,1297.05 631.767,1282.86 657.23,1266.46 682.694,1247.54 
  708.157,1225.81 722.038,1212.66 735.919,1198.52 749.8,1183.34 763.681,1167.06 777.562,1149.63 791.443,1131 805.324,1111.13 819.205,1089.96 833.168,1067.33 
  847.131,1043.31 861.095,1017.9 875.058,991.069 889.022,962.816 902.985,933.149 916.949,902.091 930.912,869.68 946.35,832.34 961.789,793.517 977.227,753.345 
  992.666,711.99 1023.54,626.56 1054.42,539.226 1083.8,456.658 1113.18,377.185 1127.87,339.473 1142.55,303.588 1157.24,269.891 1171.93,238.732 1179.57,223.648 
  1187.21,209.388 1194.84,195.995 1202.48,183.51 1210.12,171.972 1217.75,161.419 1225.39,151.884 1233.03,143.398 1240.66,135.989 1248.3,129.682 1255.94,124.497 
  1263.57,120.452 1271.21,117.561 1278.85,115.833 1286.48,115.274 1294.12,115.885 1300.55,117.307 1306.98,119.553 1313.41,122.619 1319.83,126.497 1332.69,136.651 
  1345.55,149.92 1358.4,166.18 1371.26,185.281 1384.12,207.05 1396.98,231.296 1412.67,263.949 1428.37,299.573 1444.07,337.741 1459.76,378.015 1491.16,463.134 
  1522.55,551.547 1551.31,632.818 1580.07,712.291 1594.45,750.838 1608.83,788.367 1623.21,824.743 1637.58,859.854 1650.87,891.081 1664.15,921.099 1677.43,949.871 
  1690.71,977.372 1703.99,1003.59 1717.27,1028.52 1730.55,1052.17 1743.83,1074.56 1757.28,1095.98 1770.73,1116.16 1784.19,1135.14 1797.64,1152.96 1811.09,1169.65 
  1824.54,1185.28 1838,1199.88 1851.45,1213.51 1866.53,1227.68 1881.6,1240.76 1896.68,1252.82 1911.76,1263.92 1941.91,1283.49 1972.06,1299.98 1999.39,1312.62 
  2026.71,1323.39 2054.03,1332.55 2081.36,1340.32 2112.64,1347.78 2143.92,1353.96 2175.21,1359.07 2206.49,1363.29 2264.42,1369.28 2322.36,1373.51 2436.58,1378.57 
  2547.49,1381.11 2661.18,1382.5 2785.75,1383.3 2966.7,1383.84 3003.82,1383.9 
  "/>
<polyline clip-path="url(#clip062)" style="stroke:#3da44d; stroke-linecap:butt; stroke-linejoin:round; stroke-width:20; stroke-opacity:1; fill:none" points="
  157.483,1383.34 164.832,1383.26 172.182,1383.19 240.136,1382.14 308.091,1380.1 348.929,1378.07 389.767,1375.12 424.295,1371.63 458.823,1366.92 496.33,1359.96 
  533.837,1350.51 568.415,1338.94 602.994,1323.92 621.529,1314.17 640.065,1303.08 658.601,1290.49 677.137,1276.26 698.612,1257.52 720.088,1236.16 741.563,1211.94 
  763.039,1184.64 782.123,1157.65 801.208,1127.97 820.293,1095.5 839.378,1060.19 856.114,1026.87 872.85,991.362 889.585,953.712 906.321,913.995 924.567,868.467 
  942.814,820.809 961.06,771.269 979.307,720.151 1016.02,614.044 1052.73,506.64 1073.02,448.256 1093.31,391.579 1113.61,337.435 1133.9,286.657 1143.56,263.92 
  1153.21,242.217 1162.86,221.631 1172.52,202.243 1182.17,184.129 1191.83,167.363 1201.48,152.012 1211.14,138.14 1221.17,125.347 1231.21,114.273 1241.25,104.969 
  1251.29,97.4779 1261.33,91.8343 1271.37,88.0643 1281.41,86.1857 1291.44,86.2071 1299.89,87.6983 1308.34,90.531 1316.79,94.6958 1325.24,100.179 1333.69,106.963 
  1342.14,115.025 1350.59,124.339 1359.04,134.874 1369.36,149.343 1379.68,165.514 1390,183.309 1400.31,202.647 1410.63,223.439 1420.95,245.59 1431.26,269.001 
  1441.58,293.571 1460.48,341.241 1479.38,391.779 1498.28,444.511 1517.18,498.77 1552.1,600.847 1587.01,702.191 1604.7,752.201 1622.38,800.851 1640.06,847.842 
  1657.75,892.928 1677.56,940.948 1697.38,986.115 1717.2,1028.29 1737.02,1067.4 1754.98,1100.17 1772.94,1130.44 1790.89,1158.24 1808.85,1183.66 1829.41,1209.96 
  1849.98,1233.43 1870.54,1254.25 1891.1,1272.63 1910.14,1287.64 1929.17,1300.89 1948.21,1312.54 1967.25,1322.74 1986.02,1331.51 2004.79,1339.16 2023.56,1345.79 
  2042.33,1351.52 2078.77,1360.49 2115.22,1367.14 2152.58,1372.12 2189.94,1375.72 2230.88,1378.49 2271.81,1380.38 2331.28,1382.11 2390.74,1383.08 2402.94,1383.21 
  2415.14,1383.34 
  "/>
<path clip-path="url(#clip060)" d="
M1909.97 300.469 L2281.66 300.469 L2281.66 93.1086 L1909.97 93.1086  Z
  " fill="#ffffff" fill-rule="evenodd" fill-opacity="1"/>
<polyline clip-path="url(#clip060)" style="stroke:#000000; stroke-linecap:butt; stroke-linejoin:round; stroke-width:4; stroke-opacity:1; fill:none" points="
  1909.97,300.469 2281.66,300.469 2281.66,93.1086 1909.97,93.1086 1909.97,300.469 
  "/>
<polyline clip-path="url(#clip060)" style="stroke:#009af9; stroke-linecap:butt; stroke-linejoin:round; stroke-width:4; stroke-opacity:1; fill:none" points="
  1933.67,144.949 2075.87,144.949 
  "/>
<path clip-path="url(#clip060)" d="M2122.14 147.772 Q2122.14 147.983 2121.96 148.709 Q2121.79 149.411 2121.25 150.793 Q2120.74 152.152 2119.94 153.674 Q2119.17 155.173 2117.74 157.071 Q2116.31 158.968 2114.53 160.631 Q2111.18 163.769 2107.6 165.456 Q2104.04 167.142 2100.99 167.681 L2100.31 167.681 Q2099.57 167.681 2099.57 167.095 L2100.08 164.941 L2103.01 153.206 Q2103.92 149.622 2103.92 149.318 Q2103.92 149.037 2103.8 148.896 Q2103.71 148.732 2103.15 148.615 Q2102.61 148.498 2101.53 148.498 Q2101.09 148.498 2100.88 148.475 Q2100.69 148.451 2100.53 148.334 Q2100.36 148.193 2100.36 147.912 Q2100.36 147.514 2100.53 147.303 Q2100.71 147.069 2100.85 147.022 Q2100.99 146.975 2101.27 146.952 Q2101.67 146.929 2103.01 146.812 Q2104.34 146.671 2105.49 146.577 Q2106.64 146.484 2107.13 146.484 Q2107.41 146.484 2107.58 146.624 Q2107.74 146.741 2107.74 146.882 L2107.76 146.999 L2103.06 166.088 Q2104.79 165.526 2106.5 164.589 Q2108.23 163.652 2110.11 162.106 Q2111.98 160.537 2113.57 158.593 Q2115.16 156.649 2116.57 153.932 Q2118 151.192 2118.89 148.053 Q2119.05 147.421 2119.45 147.046 Q2119.87 146.671 2120.18 146.577 Q2120.48 146.484 2120.76 146.484 Q2121.39 146.484 2121.77 146.835 Q2122.14 147.163 2122.14 147.772 Z" fill="#000000" fill-rule="evenodd" fill-opacity="1" /><path clip-path="url(#clip060)" d="M2136.32 160.397 Q2136.37 159.811 2137.28 159.811 L2166.67 159.811 Q2168.06 159.811 2168.08 160.35 Q2168.08 160.935 2166.77 160.912 L2137.61 160.912 Q2136.32 160.935 2136.32 160.397 M2136.32 151.028 Q2136.32 150.442 2137.33 150.465 L2166.63 150.465 Q2168.06 150.465 2168.08 151.028 Q2168.08 151.566 2166.86 151.566 L2137.28 151.566 Q2136.32 151.566 2136.32 151.028 Z" fill="#000000" fill-rule="evenodd" fill-opacity="1" /><path clip-path="url(#clip060)" d="M2186.57 167.681 Q2186.57 166.814 2186.64 166.557 Q2186.73 166.299 2187.11 165.901 L2196.31 155.642 Q2201.35 149.974 2201.35 145.031 Q2201.35 141.823 2199.66 139.527 Q2198 137.232 2194.93 137.232 Q2192.82 137.232 2191.04 138.52 Q2189.26 139.808 2188.44 142.104 Q2188.58 142.057 2189.08 142.057 Q2190.27 142.057 2190.93 142.806 Q2191.61 143.556 2191.61 144.563 Q2191.61 145.851 2190.76 146.484 Q2189.94 147.093 2189.12 147.093 Q2188.8 147.093 2188.35 147.022 Q2187.93 146.952 2187.25 146.296 Q2186.57 145.617 2186.57 144.422 Q2186.57 141.073 2189.1 138.403 Q2191.65 135.733 2195.54 135.733 Q2199.94 135.733 2202.83 138.356 Q2205.73 140.956 2205.73 145.031 Q2205.73 146.46 2205.28 147.772 Q2204.86 149.06 2204.28 150.067 Q2203.72 151.074 2202.17 152.691 Q2200.62 154.307 2199.38 155.454 Q2198.14 156.602 2195.35 159.038 L2190.27 163.98 L2198.91 163.98 Q2203.13 163.98 2203.46 163.605 Q2203.93 162.926 2204.51 159.343 L2205.73 159.343 L2204.37 167.681 L2186.57 167.681 Z" fill="#000000" fill-rule="evenodd" fill-opacity="1" /><polyline clip-path="url(#clip060)" style="stroke:#e26f46; stroke-linecap:butt; stroke-linejoin:round; stroke-width:4; stroke-opacity:1; fill:none" points="
  1933.67,196.789 2075.87,196.789 
  "/>
<path clip-path="url(#clip060)" d="M2122.14 199.088 Q2122.14 199.299 2121.96 200.025 Q2121.79 200.728 2121.25 202.11 Q2120.74 203.468 2119.94 204.991 Q2119.17 206.49 2117.74 208.387 Q2116.31 210.284 2114.53 211.947 Q2111.18 215.086 2107.6 216.772 Q2104.04 218.459 2100.99 218.997 L2100.31 218.997 Q2099.57 218.997 2099.57 218.412 L2100.08 216.257 L2103.01 204.522 Q2103.92 200.939 2103.92 200.634 Q2103.92 200.353 2103.8 200.213 Q2103.71 200.049 2103.15 199.932 Q2102.61 199.815 2101.53 199.815 Q2101.09 199.815 2100.88 199.791 Q2100.69 199.768 2100.53 199.651 Q2100.36 199.51 2100.36 199.229 Q2100.36 198.831 2100.53 198.62 Q2100.71 198.386 2100.85 198.339 Q2100.99 198.292 2101.27 198.269 Q2101.67 198.245 2103.01 198.128 Q2104.34 197.988 2105.49 197.894 Q2106.64 197.8 2107.13 197.8 Q2107.41 197.8 2107.58 197.941 Q2107.74 198.058 2107.74 198.198 L2107.76 198.315 L2103.06 217.405 Q2104.79 216.843 2106.5 215.906 Q2108.23 214.969 2110.11 213.423 Q2111.98 211.854 2113.57 209.91 Q2115.16 207.966 2116.57 205.249 Q2118 202.508 2118.89 199.369 Q2119.05 198.737 2119.45 198.362 Q2119.87 197.988 2120.18 197.894 Q2120.48 197.8 2120.76 197.8 Q2121.39 197.8 2121.77 198.152 Q2122.14 198.479 2122.14 199.088 Z" fill="#000000" fill-rule="evenodd" fill-opacity="1" /><path clip-path="url(#clip060)" d="M2136.32 211.713 Q2136.37 211.128 2137.28 211.128 L2166.67 211.128 Q2168.06 211.128 2168.08 211.666 Q2168.08 212.252 2166.77 212.228 L2137.61 212.228 Q2136.32 212.252 2136.32 211.713 M2136.32 202.344 Q2136.32 201.759 2137.33 201.782 L2166.63 201.782 Q2168.06 201.782 2168.08 202.344 Q2168.08 202.883 2166.86 202.883 L2137.28 202.883 Q2136.32 202.883 2136.32 202.344 Z" fill="#000000" fill-rule="evenodd" fill-opacity="1" /><path clip-path="url(#clip060)" d="M2186.57 211.76 Q2186.57 206.396 2193.48 202.93 Q2190.51 200.915 2189.97 200.33 Q2187.86 197.988 2187.86 195.06 Q2187.86 191.71 2190.39 189.392 Q2192.94 187.049 2196.55 187.049 Q2199.99 187.049 2202.59 189.04 Q2205.19 191.031 2205.19 194.193 Q2205.19 198.643 2199.38 201.641 Q2203.22 204.031 2204.14 205.038 Q2206.48 207.638 2206.48 210.94 Q2206.48 214.781 2203.53 217.428 Q2200.58 220.052 2196.5 220.052 Q2192.52 220.052 2189.54 217.733 Q2186.57 215.414 2186.57 211.76 M2188.96 211.76 Q2188.96 214.735 2191.18 216.726 Q2193.43 218.716 2196.55 218.716 Q2199.57 218.716 2201.82 216.983 Q2204.09 215.25 2204.09 212.673 Q2204.09 211.666 2203.74 210.8 Q2203.41 209.933 2202.73 209.254 Q2202.08 208.551 2201.65 208.247 Q2201.26 207.919 2200.48 207.38 L2194.58 203.656 Q2188.96 206.771 2188.96 211.76 M2189.97 193.186 Q2189.97 195.481 2192.38 197.074 L2198.33 200.915 Q2203.08 198.128 2203.08 194.193 Q2203.08 191.64 2201.14 189.954 Q2199.19 188.244 2196.5 188.244 Q2193.85 188.244 2191.91 189.649 Q2189.97 191.031 2189.97 193.186 Z" fill="#000000" fill-rule="evenodd" fill-opacity="1" /><polyline clip-path="url(#clip060)" style="stroke:#3da44d; stroke-linecap:butt; stroke-linejoin:round; stroke-width:4; stroke-opacity:1; fill:none" points="
  1933.67,248.629 2075.87,248.629 
  "/>
<path clip-path="url(#clip060)" d="M2122.14 250.928 Q2122.14 251.139 2121.96 251.865 Q2121.79 252.568 2121.25 253.95 Q2120.74 255.308 2119.94 256.831 Q2119.17 258.33 2117.74 260.227 Q2116.31 262.124 2114.53 263.787 Q2111.18 266.926 2107.6 268.612 Q2104.04 270.299 2100.99 270.837 L2100.31 270.837 Q2099.57 270.837 2099.57 270.252 L2100.08 268.097 L2103.01 256.362 Q2103.92 252.779 2103.92 252.474 Q2103.92 252.193 2103.8 252.053 Q2103.71 251.889 2103.15 251.772 Q2102.61 251.655 2101.53 251.655 Q2101.09 251.655 2100.88 251.631 Q2100.69 251.608 2100.53 251.491 Q2100.36 251.35 2100.36 251.069 Q2100.36 250.671 2100.53 250.46 Q2100.71 250.226 2100.85 250.179 Q2100.99 250.132 2101.27 250.109 Q2101.67 250.085 2103.01 249.968 Q2104.34 249.828 2105.49 249.734 Q2106.64 249.64 2107.13 249.64 Q2107.41 249.64 2107.58 249.781 Q2107.74 249.898 2107.74 250.038 L2107.76 250.155 L2103.06 269.245 Q2104.79 268.683 2106.5 267.746 Q2108.23 266.809 2110.11 265.263 Q2111.98 263.694 2113.57 261.75 Q2115.16 259.806 2116.57 257.089 Q2118 254.348 2118.89 251.209 Q2119.05 250.577 2119.45 250.202 Q2119.87 249.828 2120.18 249.734 Q2120.48 249.64 2120.76 249.64 Q2121.39 249.64 2121.77 249.992 Q2122.14 250.319 2122.14 250.928 Z" fill="#000000" fill-rule="evenodd" fill-opacity="1" /><path clip-path="url(#clip060)" d="M2136.32 263.553 Q2136.37 262.968 2137.28 262.968 L2166.67 262.968 Q2168.06 262.968 2168.08 263.506 Q2168.08 264.092 2166.77 264.068 L2137.61 264.068 Q2136.32 264.092 2136.32 263.553 M2136.32 254.184 Q2136.32 253.599 2137.33 253.622 L2166.63 253.622 Q2168.06 253.622 2168.08 254.184 Q2168.08 254.723 2166.86 254.723 L2137.28 254.723 Q2136.32 254.723 2136.32 254.184 Z" fill="#000000" fill-rule="evenodd" fill-opacity="1" /><path clip-path="url(#clip060)" d="M2186.57 264.373 Q2186.57 262.944 2187.39 262.265 Q2188.21 261.586 2189.26 261.586 Q2190.36 261.586 2191.14 262.312 Q2191.93 263.014 2191.93 264.256 Q2191.93 265.591 2191 266.34 Q2190.08 267.09 2188.77 266.903 Q2189.92 268.823 2192.03 269.69 Q2194.16 270.556 2196.13 270.556 Q2198.19 270.556 2199.85 268.776 Q2201.54 266.996 2201.54 262.64 Q2201.54 258.939 2200.08 256.807 Q2198.66 254.676 2195.82 254.676 L2193.71 254.676 Q2192.99 254.676 2192.78 254.606 Q2192.57 254.535 2192.57 254.137 Q2192.57 253.669 2193.29 253.575 Q2194.02 253.575 2195.17 253.435 Q2197.95 253.341 2199.43 250.928 Q2200.76 248.68 2200.76 245.471 Q2200.76 242.543 2199.36 241.325 Q2197.98 240.084 2196.17 240.084 Q2194.49 240.084 2192.64 240.786 Q2190.79 241.489 2189.78 243.058 Q2192.75 243.058 2192.75 245.471 Q2192.75 246.525 2192.07 247.228 Q2191.42 247.907 2190.32 247.907 Q2189.26 247.907 2188.56 247.251 Q2187.86 246.572 2187.86 245.424 Q2187.86 242.684 2190.29 240.786 Q2192.75 238.889 2196.36 238.889 Q2199.92 238.889 2202.54 240.763 Q2205.19 242.637 2205.19 245.518 Q2205.19 248.352 2203.32 250.671 Q2201.44 252.99 2198.47 253.95 Q2202.12 254.676 2204.3 257.159 Q2206.48 259.618 2206.48 262.64 Q2206.48 266.387 2203.53 269.151 Q2200.58 271.892 2196.27 271.892 Q2192.29 271.892 2189.43 269.737 Q2186.57 267.582 2186.57 264.373 Z" fill="#000000" fill-rule="evenodd" fill-opacity="1" /><path clip-path="url(#clip060)" d="M2210.51 255.496 Q2210.51 248.446 2212.29 244.604 Q2214.77 238.889 2220.63 238.889 Q2221.87 238.889 2223.16 239.241 Q2224.47 239.569 2226.11 240.857 Q2227.77 242.145 2228.78 244.253 Q2230.7 248.329 2230.7 255.496 Q2230.7 262.499 2228.92 266.317 Q2226.32 271.892 2220.58 271.892 Q2218.43 271.892 2216.23 270.791 Q2214.05 269.69 2212.67 267.043 Q2210.51 263.085 2210.51 255.496 M2214.49 254.91 Q2214.49 262.148 2215.01 265.029 Q2215.59 268.144 2217.19 269.502 Q2218.8 270.837 2220.58 270.837 Q2222.5 270.837 2224.1 269.409 Q2225.71 267.957 2226.21 264.841 Q2226.74 261.773 2226.72 254.91 Q2226.72 248.235 2226.25 245.565 Q2225.62 242.449 2223.93 241.208 Q2222.27 239.943 2220.58 239.943 Q2219.95 239.943 2219.27 240.131 Q2218.62 240.318 2217.66 240.857 Q2216.7 241.395 2215.95 242.731 Q2215.22 244.066 2214.87 246.08 Q2214.49 248.68 2214.49 254.91 Z" fill="#000000" fill-rule="evenodd" fill-opacity="1" /></svg>
