<?xml version="1.0" encoding="utf-8"?>
<svg xmlns="http://www.w3.org/2000/svg" xmlns:xlink="http://www.w3.org/1999/xlink" width="600" height="400" viewBox="0 0 2400 1600">
<defs>
  <clipPath id="clip420">
    <rect x="0" y="0" width="2400" height="1600"/>
  </clipPath>
</defs>
<path clip-path="url(#clip420)" d="
M0 1600 L2400 1600 L2400 0 L0 0  Z
  " fill="#ffffff" fill-rule="evenodd" fill-opacity="1"/>
<defs>
  <clipPath id="clip421">
    <rect x="480" y="0" width="1681" height="1600"/>
  </clipPath>
</defs>
<defs>
  <clipPath id="clip422">
    <rect x="141" y="47" width="2212" height="1440"/>
  </clipPath>
</defs>
<path clip-path="url(#clip420)" d="
M249.542 1423.18 L2352.76 1423.18 L2352.76 47.2441 L249.542 47.2441  Z
  " fill="#ffffff" fill-rule="evenodd" fill-opacity="1"/>
<defs>
  <clipPath id="clip423">
    <rect x="249" y="47" width="2104" height="1377"/>
  </clipPath>
</defs>
<polyline clip-path="url(#clip423)" style="stroke:#000000; stroke-linecap:butt; stroke-linejoin:round; stroke-width:2; stroke-opacity:0.1; fill:none" points="
  309.067,1423.18 309.067,47.2441 
  "/>
<polyline clip-path="url(#clip423)" style="stroke:#000000; stroke-linecap:butt; stroke-linejoin:round; stroke-width:2; stroke-opacity:0.1; fill:none" points="
  805.108,1423.18 805.108,47.2441 
  "/>
<polyline clip-path="url(#clip423)" style="stroke:#000000; stroke-linecap:butt; stroke-linejoin:round; stroke-width:2; stroke-opacity:0.1; fill:none" points="
  1301.15,1423.18 1301.15,47.2441 
  "/>
<polyline clip-path="url(#clip423)" style="stroke:#000000; stroke-linecap:butt; stroke-linejoin:round; stroke-width:2; stroke-opacity:0.1; fill:none" points="
  1797.19,1423.18 1797.19,47.2441 
  "/>
<polyline clip-path="url(#clip423)" style="stroke:#000000; stroke-linecap:butt; stroke-linejoin:round; stroke-width:2; stroke-opacity:0.1; fill:none" points="
  2293.23,1423.18 2293.23,47.2441 
  "/>
<polyline clip-path="url(#clip420)" style="stroke:#000000; stroke-linecap:butt; stroke-linejoin:round; stroke-width:4; stroke-opacity:1; fill:none" points="
  249.542,1423.18 2352.76,1423.18 
  "/>
<polyline clip-path="url(#clip420)" style="stroke:#000000; stroke-linecap:butt; stroke-linejoin:round; stroke-width:4; stroke-opacity:1; fill:none" points="
  309.067,1423.18 309.067,1404.28 
  "/>
<polyline clip-path="url(#clip420)" style="stroke:#000000; stroke-linecap:butt; stroke-linejoin:round; stroke-width:4; stroke-opacity:1; fill:none" points="
  805.108,1423.18 805.108,1404.28 
  "/>
<polyline clip-path="url(#clip420)" style="stroke:#000000; stroke-linecap:butt; stroke-linejoin:round; stroke-width:4; stroke-opacity:1; fill:none" points="
  1301.15,1423.18 1301.15,1404.28 
  "/>
<polyline clip-path="url(#clip420)" style="stroke:#000000; stroke-linecap:butt; stroke-linejoin:round; stroke-width:4; stroke-opacity:1; fill:none" points="
  1797.19,1423.18 1797.19,1404.28 
  "/>
<polyline clip-path="url(#clip420)" style="stroke:#000000; stroke-linecap:butt; stroke-linejoin:round; stroke-width:4; stroke-opacity:1; fill:none" points="
  2293.23,1423.18 2293.23,1404.28 
  "/>
<path clip-path="url(#clip420)" d="M263.13 1468.75 L292.805 1468.75 L292.805 1472.69 L263.13 1472.69 L263.13 1468.75 Z" fill="#000000" fill-rule="evenodd" fill-opacity="1" /><path clip-path="url(#clip420)" d="M303.708 1481.64 L311.347 1481.64 L311.347 1455.28 L303.037 1456.95 L303.037 1452.69 L311.301 1451.02 L315.977 1451.02 L315.977 1481.64 L323.615 1481.64 L323.615 1485.58 L303.708 1485.58 L303.708 1481.64 Z" fill="#000000" fill-rule="evenodd" fill-opacity="1" /><path clip-path="url(#clip420)" d="M343.06 1454.1 Q339.449 1454.1 337.62 1457.66 Q335.814 1461.2 335.814 1468.33 Q335.814 1475.44 337.62 1479.01 Q339.449 1482.55 343.06 1482.55 Q346.694 1482.55 348.5 1479.01 Q350.328 1475.44 350.328 1468.33 Q350.328 1461.2 348.5 1457.66 Q346.694 1454.1 343.06 1454.1 M343.06 1450.39 Q348.87 1450.39 351.926 1455 Q355.004 1459.58 355.004 1468.33 Q355.004 1477.06 351.926 1481.67 Q348.87 1486.25 343.06 1486.25 Q337.25 1486.25 334.171 1481.67 Q331.115 1477.06 331.115 1468.33 Q331.115 1459.58 334.171 1455 Q337.25 1450.39 343.06 1450.39 Z" fill="#000000" fill-rule="evenodd" fill-opacity="1" /><path clip-path="url(#clip420)" d="M774.749 1468.75 L804.425 1468.75 L804.425 1472.69 L774.749 1472.69 L774.749 1468.75 Z" fill="#000000" fill-rule="evenodd" fill-opacity="1" /><path clip-path="url(#clip420)" d="M814.564 1451.02 L832.92 1451.02 L832.92 1454.96 L818.846 1454.96 L818.846 1463.43 Q819.865 1463.08 820.883 1462.92 Q821.902 1462.73 822.92 1462.73 Q828.707 1462.73 832.087 1465.9 Q835.467 1469.08 835.467 1474.49 Q835.467 1480.07 831.994 1483.17 Q828.522 1486.25 822.203 1486.25 Q820.027 1486.25 817.758 1485.88 Q815.513 1485.51 813.106 1484.77 L813.106 1480.07 Q815.189 1481.2 817.411 1481.76 Q819.633 1482.32 822.11 1482.32 Q826.115 1482.32 828.453 1480.21 Q830.791 1478.1 830.791 1474.49 Q830.791 1470.88 828.453 1468.77 Q826.115 1466.67 822.11 1466.67 Q820.235 1466.67 818.36 1467.08 Q816.508 1467.5 814.564 1468.38 L814.564 1451.02 Z" fill="#000000" fill-rule="evenodd" fill-opacity="1" /><path clip-path="url(#clip420)" d="M1301.15 1454.1 Q1297.54 1454.1 1295.71 1457.66 Q1293.9 1461.2 1293.9 1468.33 Q1293.9 1475.44 1295.71 1479.01 Q1297.54 1482.55 1301.15 1482.55 Q1304.78 1482.55 1306.59 1479.01 Q1308.42 1475.44 1308.42 1468.33 Q1308.42 1461.2 1306.59 1457.66 Q1304.78 1454.1 1301.15 1454.1 M1301.15 1450.39 Q1306.96 1450.39 1310.01 1455 Q1313.09 1459.58 1313.09 1468.33 Q1313.09 1477.06 1310.01 1481.67 Q1306.96 1486.25 1301.15 1486.25 Q1295.34 1486.25 1292.26 1481.67 Q1289.2 1477.06 1289.2 1468.33 Q1289.2 1459.58 1292.26 1455 Q1295.34 1450.39 1301.15 1450.39 Z" fill="#000000" fill-rule="evenodd" fill-opacity="1" /><path clip-path="url(#clip420)" d="M1787.47 1451.02 L1805.82 1451.02 L1805.82 1454.96 L1791.75 1454.96 L1791.75 1463.43 Q1792.77 1463.08 1793.79 1462.92 Q1794.81 1462.73 1795.82 1462.73 Q1801.61 1462.73 1804.99 1465.9 Q1808.37 1469.08 1808.37 1474.49 Q1808.37 1480.07 1804.9 1483.17 Q1801.43 1486.25 1795.11 1486.25 Q1792.93 1486.25 1790.66 1485.88 Q1788.42 1485.51 1786.01 1484.77 L1786.01 1480.07 Q1788.09 1481.2 1790.32 1481.76 Q1792.54 1482.32 1795.01 1482.32 Q1799.02 1482.32 1801.36 1480.21 Q1803.69 1478.1 1803.69 1474.49 Q1803.69 1470.88 1801.36 1468.77 Q1799.02 1466.67 1795.01 1466.67 Q1793.14 1466.67 1791.26 1467.08 Q1789.41 1467.5 1787.47 1468.38 L1787.47 1451.02 Z" fill="#000000" fill-rule="evenodd" fill-opacity="1" /><path clip-path="url(#clip420)" d="M2267.92 1481.64 L2275.56 1481.64 L2275.56 1455.28 L2267.25 1456.95 L2267.25 1452.69 L2275.51 1451.02 L2280.19 1451.02 L2280.19 1481.64 L2287.83 1481.64 L2287.83 1485.58 L2267.92 1485.58 L2267.92 1481.64 Z" fill="#000000" fill-rule="evenodd" fill-opacity="1" /><path clip-path="url(#clip420)" d="M2307.27 1454.1 Q2303.66 1454.1 2301.83 1457.66 Q2300.02 1461.2 2300.02 1468.33 Q2300.02 1475.44 2301.83 1479.01 Q2303.66 1482.55 2307.27 1482.55 Q2310.9 1482.55 2312.71 1479.01 Q2314.54 1475.44 2314.54 1468.33 Q2314.54 1461.2 2312.71 1457.66 Q2310.9 1454.1 2307.27 1454.1 M2307.27 1450.39 Q2313.08 1450.39 2316.14 1455 Q2319.21 1459.58 2319.21 1468.33 Q2319.21 1477.06 2316.14 1481.67 Q2313.08 1486.25 2307.27 1486.25 Q2301.46 1486.25 2298.38 1481.67 Q2295.33 1477.06 2295.33 1468.33 Q2295.33 1459.58 2298.38 1455 Q2301.46 1450.39 2307.27 1450.39 Z" fill="#000000" fill-rule="evenodd" fill-opacity="1" /><path clip-path="url(#clip420)" d="M1315.32 1545.44 Q1315.32 1547.24 1314.2 1548.27 Q1313.07 1549.27 1311.78 1549.27 Q1310.56 1549.27 1309.91 1548.56 Q1309.27 1547.85 1309.27 1546.95 Q1309.27 1545.73 1310.17 1544.66 Q1311.07 1543.6 1312.42 1543.37 Q1311.1 1542.54 1309.14 1542.54 Q1307.85 1542.54 1306.72 1543.21 Q1305.63 1543.89 1304.95 1544.76 Q1304.31 1545.63 1303.73 1546.88 Q1303.18 1548.11 1302.96 1548.85 Q1302.76 1549.56 1302.6 1550.33 L1300.35 1559.35 Q1299.25 1563.63 1299.25 1565.15 Q1299.25 1567.01 1300.15 1568.27 Q1301.06 1569.49 1302.86 1569.49 Q1303.57 1569.49 1304.37 1569.3 Q1305.18 1569.07 1306.21 1568.5 Q1307.27 1567.88 1308.2 1566.98 Q1309.17 1566.05 1310.11 1564.47 Q1311.04 1562.89 1311.65 1560.86 Q1311.84 1560.15 1312.49 1560.15 Q1313.29 1560.15 1313.29 1560.8 Q1313.29 1561.35 1312.84 1562.5 Q1312.42 1563.63 1311.49 1565.11 Q1310.59 1566.56 1309.4 1567.88 Q1308.2 1569.17 1306.43 1570.07 Q1304.66 1570.97 1302.73 1570.97 Q1299.96 1570.97 1298.12 1569.49 Q1296.29 1568.01 1295.61 1565.95 Q1295.45 1566.24 1295.23 1566.63 Q1295 1567.01 1294.32 1567.88 Q1293.68 1568.72 1292.94 1569.36 Q1292.2 1569.98 1291.04 1570.46 Q1289.91 1570.97 1288.69 1570.97 Q1287.14 1570.97 1285.76 1570.52 Q1284.4 1570.07 1283.44 1569.04 Q1282.47 1568.01 1282.47 1566.59 Q1282.47 1565.02 1283.54 1563.92 Q1284.63 1562.79 1286.11 1562.79 Q1287.05 1562.79 1287.79 1563.34 Q1288.56 1563.89 1288.56 1565.08 Q1288.56 1566.4 1287.66 1567.4 Q1286.76 1568.4 1285.47 1568.66 Q1286.79 1569.49 1288.75 1569.49 Q1290.88 1569.49 1292.55 1567.63 Q1294.23 1565.76 1295.03 1562.63 Q1297.03 1555.13 1297.8 1551.78 Q1298.58 1548.4 1298.58 1546.95 Q1298.58 1545.6 1298.22 1544.66 Q1297.87 1543.73 1297.25 1543.31 Q1296.68 1542.86 1296.13 1542.7 Q1295.61 1542.54 1295.03 1542.54 Q1294.07 1542.54 1292.97 1542.92 Q1291.91 1543.31 1290.62 1544.21 Q1289.36 1545.08 1288.17 1546.88 Q1286.98 1548.69 1286.18 1551.17 Q1286.02 1551.91 1285.31 1551.91 Q1284.53 1551.88 1284.53 1551.23 Q1284.53 1550.69 1284.95 1549.56 Q1285.4 1548.4 1286.3 1546.95 Q1287.24 1545.5 1288.43 1544.21 Q1289.65 1542.89 1291.43 1541.99 Q1293.23 1541.09 1295.16 1541.09 Q1296.03 1541.09 1296.87 1541.28 Q1297.74 1541.44 1298.77 1541.93 Q1299.83 1542.41 1300.77 1543.47 Q1301.7 1544.53 1302.28 1546.08 Q1302.67 1545.34 1303.18 1544.63 Q1303.73 1543.92 1304.57 1543.05 Q1305.44 1542.15 1306.63 1541.64 Q1307.85 1541.09 1309.2 1541.09 Q1310.52 1541.09 1311.81 1541.44 Q1313.1 1541.76 1314.2 1542.83 Q1315.32 1543.86 1315.32 1545.44 Z" fill="#000000" fill-rule="evenodd" fill-opacity="1" /><polyline clip-path="url(#clip423)" style="stroke:#000000; stroke-linecap:butt; stroke-linejoin:round; stroke-width:2; stroke-opacity:0.1; fill:none" points="
  249.542,1384.3 2352.76,1384.3 
  "/>
<polyline clip-path="url(#clip423)" style="stroke:#000000; stroke-linecap:butt; stroke-linejoin:round; stroke-width:2; stroke-opacity:0.1; fill:none" points="
  249.542,1059.75 2352.76,1059.75 
  "/>
<polyline clip-path="url(#clip423)" style="stroke:#000000; stroke-linecap:butt; stroke-linejoin:round; stroke-width:2; stroke-opacity:0.1; fill:none" points="
  249.542,735.212 2352.76,735.212 
  "/>
<polyline clip-path="url(#clip423)" style="stroke:#000000; stroke-linecap:butt; stroke-linejoin:round; stroke-width:2; stroke-opacity:0.1; fill:none" points="
  249.542,410.669 2352.76,410.669 
  "/>
<polyline clip-path="url(#clip423)" style="stroke:#000000; stroke-linecap:butt; stroke-linejoin:round; stroke-width:2; stroke-opacity:0.1; fill:none" points="
  249.542,86.1267 2352.76,86.1267 
  "/>
<polyline clip-path="url(#clip420)" style="stroke:#000000; stroke-linecap:butt; stroke-linejoin:round; stroke-width:4; stroke-opacity:1; fill:none" points="
  249.542,1423.18 249.542,47.2441 
  "/>
<polyline clip-path="url(#clip420)" style="stroke:#000000; stroke-linecap:butt; stroke-linejoin:round; stroke-width:4; stroke-opacity:1; fill:none" points="
  249.542,1384.3 268.44,1384.3 
  "/>
<polyline clip-path="url(#clip420)" style="stroke:#000000; stroke-linecap:butt; stroke-linejoin:round; stroke-width:4; stroke-opacity:1; fill:none" points="
  249.542,1059.75 268.44,1059.75 
  "/>
<polyline clip-path="url(#clip420)" style="stroke:#000000; stroke-linecap:butt; stroke-linejoin:round; stroke-width:4; stroke-opacity:1; fill:none" points="
  249.542,735.212 268.44,735.212 
  "/>
<polyline clip-path="url(#clip420)" style="stroke:#000000; stroke-linecap:butt; stroke-linejoin:round; stroke-width:4; stroke-opacity:1; fill:none" points="
  249.542,410.669 268.44,410.669 
  "/>
<polyline clip-path="url(#clip420)" style="stroke:#000000; stroke-linecap:butt; stroke-linejoin:round; stroke-width:4; stroke-opacity:1; fill:none" points="
  249.542,86.1267 268.44,86.1267 
  "/>
<path clip-path="url(#clip420)" d="M126.205 1370.1 Q122.593 1370.1 120.765 1373.66 Q118.959 1377.2 118.959 1384.33 Q118.959 1391.44 120.765 1395 Q122.593 1398.54 126.205 1398.54 Q129.839 1398.54 131.644 1395 Q133.473 1391.44 133.473 1384.33 Q133.473 1377.2 131.644 1373.66 Q129.839 1370.1 126.205 1370.1 M126.205 1366.39 Q132.015 1366.39 135.07 1371 Q138.149 1375.58 138.149 1384.33 Q138.149 1393.06 135.07 1397.67 Q132.015 1402.25 126.205 1402.25 Q120.394 1402.25 117.316 1397.67 Q114.26 1393.06 114.26 1384.33 Q114.26 1375.58 117.316 1371 Q120.394 1366.39 126.205 1366.39 Z" fill="#000000" fill-rule="evenodd" fill-opacity="1" /><path clip-path="url(#clip420)" d="M146.366 1395.7 L151.251 1395.7 L151.251 1401.58 L146.366 1401.58 L146.366 1395.7 Z" fill="#000000" fill-rule="evenodd" fill-opacity="1" /><path clip-path="url(#clip420)" d="M171.436 1370.1 Q167.825 1370.1 165.996 1373.66 Q164.19 1377.2 164.19 1384.33 Q164.19 1391.44 165.996 1395 Q167.825 1398.54 171.436 1398.54 Q175.07 1398.54 176.876 1395 Q178.704 1391.44 178.704 1384.33 Q178.704 1377.2 176.876 1373.66 Q175.07 1370.1 171.436 1370.1 M171.436 1366.39 Q177.246 1366.39 180.301 1371 Q183.38 1375.58 183.38 1384.33 Q183.38 1393.06 180.301 1397.67 Q177.246 1402.25 171.436 1402.25 Q165.626 1402.25 162.547 1397.67 Q159.491 1393.06 159.491 1384.33 Q159.491 1375.58 162.547 1371 Q165.626 1366.39 171.436 1366.39 Z" fill="#000000" fill-rule="evenodd" fill-opacity="1" /><path clip-path="url(#clip420)" d="M201.598 1370.1 Q197.987 1370.1 196.158 1373.66 Q194.352 1377.2 194.352 1384.33 Q194.352 1391.44 196.158 1395 Q197.987 1398.54 201.598 1398.54 Q205.232 1398.54 207.037 1395 Q208.866 1391.44 208.866 1384.33 Q208.866 1377.2 207.037 1373.66 Q205.232 1370.1 201.598 1370.1 M201.598 1366.39 Q207.408 1366.39 210.463 1371 Q213.542 1375.58 213.542 1384.33 Q213.542 1393.06 210.463 1397.67 Q207.408 1402.25 201.598 1402.25 Q195.787 1402.25 192.709 1397.67 Q189.653 1393.06 189.653 1384.33 Q189.653 1375.58 192.709 1371 Q195.787 1366.39 201.598 1366.39 Z" fill="#000000" fill-rule="evenodd" fill-opacity="1" /><path clip-path="url(#clip420)" d="M127.2 1045.55 Q123.589 1045.55 121.76 1049.12 Q119.955 1052.66 119.955 1059.79 Q119.955 1066.9 121.76 1070.46 Q123.589 1074 127.2 1074 Q130.834 1074 132.64 1070.46 Q134.468 1066.9 134.468 1059.79 Q134.468 1052.66 132.64 1049.12 Q130.834 1045.55 127.2 1045.55 M127.2 1041.85 Q133.01 1041.85 136.066 1046.46 Q139.144 1051.04 139.144 1059.79 Q139.144 1068.52 136.066 1073.12 Q133.01 1077.71 127.2 1077.71 Q121.39 1077.71 118.311 1073.12 Q115.256 1068.52 115.256 1059.79 Q115.256 1051.04 118.311 1046.46 Q121.39 1041.85 127.2 1041.85 Z" fill="#000000" fill-rule="evenodd" fill-opacity="1" /><path clip-path="url(#clip420)" d="M147.362 1071.15 L152.246 1071.15 L152.246 1077.03 L147.362 1077.03 L147.362 1071.15 Z" fill="#000000" fill-rule="evenodd" fill-opacity="1" /><path clip-path="url(#clip420)" d="M166.459 1073.1 L182.778 1073.1 L182.778 1077.03 L160.834 1077.03 L160.834 1073.1 Q163.496 1070.34 168.079 1065.72 Q172.686 1061.06 173.866 1059.72 Q176.112 1057.2 176.991 1055.46 Q177.894 1053.7 177.894 1052.01 Q177.894 1049.26 175.95 1047.52 Q174.028 1045.78 170.927 1045.78 Q168.727 1045.78 166.274 1046.55 Q163.843 1047.31 161.065 1048.86 L161.065 1044.14 Q163.89 1043.01 166.343 1042.43 Q168.797 1041.85 170.834 1041.85 Q176.204 1041.85 179.399 1044.53 Q182.593 1047.22 182.593 1051.71 Q182.593 1053.84 181.783 1055.76 Q180.996 1057.66 178.889 1060.25 Q178.311 1060.92 175.209 1064.14 Q172.107 1067.34 166.459 1073.1 Z" fill="#000000" fill-rule="evenodd" fill-opacity="1" /><path clip-path="url(#clip420)" d="M192.639 1042.47 L210.996 1042.47 L210.996 1046.41 L196.922 1046.41 L196.922 1054.88 Q197.94 1054.53 198.959 1054.37 Q199.977 1054.19 200.996 1054.19 Q206.783 1054.19 210.162 1057.36 Q213.542 1060.53 213.542 1065.95 Q213.542 1071.53 210.07 1074.63 Q206.598 1077.71 200.278 1077.71 Q198.102 1077.71 195.834 1077.34 Q193.588 1076.97 191.181 1076.22 L191.181 1071.53 Q193.264 1072.66 195.487 1073.22 Q197.709 1073.77 200.186 1073.77 Q204.19 1073.77 206.528 1071.66 Q208.866 1069.56 208.866 1065.95 Q208.866 1062.34 206.528 1060.23 Q204.19 1058.12 200.186 1058.12 Q198.311 1058.12 196.436 1058.54 Q194.584 1058.96 192.639 1059.84 L192.639 1042.47 Z" fill="#000000" fill-rule="evenodd" fill-opacity="1" /><path clip-path="url(#clip420)" d="M126.205 721.011 Q122.593 721.011 120.765 724.575 Q118.959 728.117 118.959 735.247 Q118.959 742.353 120.765 745.918 Q122.593 749.46 126.205 749.46 Q129.839 749.46 131.644 745.918 Q133.473 742.353 133.473 735.247 Q133.473 728.117 131.644 724.575 Q129.839 721.011 126.205 721.011 M126.205 717.307 Q132.015 717.307 135.07 721.913 Q138.149 726.497 138.149 735.247 Q138.149 743.973 135.07 748.58 Q132.015 753.163 126.205 753.163 Q120.394 753.163 117.316 748.58 Q114.26 743.973 114.26 735.247 Q114.26 726.497 117.316 721.913 Q120.394 717.307 126.205 717.307 Z" fill="#000000" fill-rule="evenodd" fill-opacity="1" /><path clip-path="url(#clip420)" d="M146.366 746.612 L151.251 746.612 L151.251 752.492 L146.366 752.492 L146.366 746.612 Z" fill="#000000" fill-rule="evenodd" fill-opacity="1" /><path clip-path="url(#clip420)" d="M161.482 717.932 L179.839 717.932 L179.839 721.867 L165.765 721.867 L165.765 730.339 Q166.783 729.992 167.802 729.83 Q168.82 729.645 169.839 729.645 Q175.626 729.645 179.005 732.816 Q182.385 735.987 182.385 741.404 Q182.385 746.983 178.913 750.085 Q175.44 753.163 169.121 753.163 Q166.945 753.163 164.677 752.793 Q162.431 752.423 160.024 751.682 L160.024 746.983 Q162.107 748.117 164.329 748.673 Q166.552 749.228 169.028 749.228 Q173.033 749.228 175.371 747.122 Q177.709 745.015 177.709 741.404 Q177.709 737.793 175.371 735.687 Q173.033 733.58 169.028 733.58 Q167.153 733.58 165.278 733.997 Q163.427 734.413 161.482 735.293 L161.482 717.932 Z" fill="#000000" fill-rule="evenodd" fill-opacity="1" /><path clip-path="url(#clip420)" d="M201.598 721.011 Q197.987 721.011 196.158 724.575 Q194.352 728.117 194.352 735.247 Q194.352 742.353 196.158 745.918 Q197.987 749.46 201.598 749.46 Q205.232 749.46 207.037 745.918 Q208.866 742.353 208.866 735.247 Q208.866 728.117 207.037 724.575 Q205.232 721.011 201.598 721.011 M201.598 717.307 Q207.408 717.307 210.463 721.913 Q213.542 726.497 213.542 735.247 Q213.542 743.973 210.463 748.58 Q207.408 753.163 201.598 753.163 Q195.787 753.163 192.709 748.58 Q189.653 743.973 189.653 735.247 Q189.653 726.497 192.709 721.913 Q195.787 717.307 201.598 717.307 Z" fill="#000000" fill-rule="evenodd" fill-opacity="1" /><path clip-path="url(#clip420)" d="M127.2 396.468 Q123.589 396.468 121.76 400.033 Q119.955 403.574 119.955 410.704 Q119.955 417.811 121.76 421.375 Q123.589 424.917 127.2 424.917 Q130.834 424.917 132.64 421.375 Q134.468 417.811 134.468 410.704 Q134.468 403.574 132.64 400.033 Q130.834 396.468 127.2 396.468 M127.2 392.764 Q133.01 392.764 136.066 397.371 Q139.144 401.954 139.144 410.704 Q139.144 419.431 136.066 424.037 Q133.01 428.621 127.2 428.621 Q121.39 428.621 118.311 424.037 Q115.256 419.431 115.256 410.704 Q115.256 401.954 118.311 397.371 Q121.39 392.764 127.2 392.764 Z" fill="#000000" fill-rule="evenodd" fill-opacity="1" /><path clip-path="url(#clip420)" d="M147.362 422.07 L152.246 422.07 L152.246 427.949 L147.362 427.949 L147.362 422.07 Z" fill="#000000" fill-rule="evenodd" fill-opacity="1" /><path clip-path="url(#clip420)" d="M161.251 393.389 L183.473 393.389 L183.473 395.38 L170.927 427.949 L166.042 427.949 L177.848 397.325 L161.251 397.325 L161.251 393.389 Z" fill="#000000" fill-rule="evenodd" fill-opacity="1" /><path clip-path="url(#clip420)" d="M192.639 393.389 L210.996 393.389 L210.996 397.325 L196.922 397.325 L196.922 405.797 Q197.94 405.449 198.959 405.287 Q199.977 405.102 200.996 405.102 Q206.783 405.102 210.162 408.274 Q213.542 411.445 213.542 416.861 Q213.542 422.44 210.07 425.542 Q206.598 428.621 200.278 428.621 Q198.102 428.621 195.834 428.25 Q193.588 427.88 191.181 427.139 L191.181 422.44 Q193.264 423.574 195.487 424.13 Q197.709 424.685 200.186 424.685 Q204.19 424.685 206.528 422.579 Q208.866 420.473 208.866 416.861 Q208.866 413.25 206.528 411.144 Q204.19 409.037 200.186 409.037 Q198.311 409.037 196.436 409.454 Q194.584 409.871 192.639 410.75 L192.639 393.389 Z" fill="#000000" fill-rule="evenodd" fill-opacity="1" /><path clip-path="url(#clip420)" d="M117.015 99.4716 L124.654 99.4716 L124.654 73.106 L116.343 74.7726 L116.343 70.5134 L124.607 68.8467 L129.283 68.8467 L129.283 99.4716 L136.922 99.4716 L136.922 103.407 L117.015 103.407 L117.015 99.4716 Z" fill="#000000" fill-rule="evenodd" fill-opacity="1" /><path clip-path="url(#clip420)" d="M146.366 97.5271 L151.251 97.5271 L151.251 103.407 L146.366 103.407 L146.366 97.5271 Z" fill="#000000" fill-rule="evenodd" fill-opacity="1" /><path clip-path="url(#clip420)" d="M171.436 71.9254 Q167.825 71.9254 165.996 75.4902 Q164.19 79.0319 164.19 86.1615 Q164.19 93.2679 165.996 96.8327 Q167.825 100.374 171.436 100.374 Q175.07 100.374 176.876 96.8327 Q178.704 93.2679 178.704 86.1615 Q178.704 79.0319 176.876 75.4902 Q175.07 71.9254 171.436 71.9254 M171.436 68.2217 Q177.246 68.2217 180.301 72.8282 Q183.38 77.4115 183.38 86.1615 Q183.38 94.8883 180.301 99.4947 Q177.246 104.078 171.436 104.078 Q165.626 104.078 162.547 99.4947 Q159.491 94.8883 159.491 86.1615 Q159.491 77.4115 162.547 72.8282 Q165.626 68.2217 171.436 68.2217 Z" fill="#000000" fill-rule="evenodd" fill-opacity="1" /><path clip-path="url(#clip420)" d="M201.598 71.9254 Q197.987 71.9254 196.158 75.4902 Q194.352 79.0319 194.352 86.1615 Q194.352 93.2679 196.158 96.8327 Q197.987 100.374 201.598 100.374 Q205.232 100.374 207.037 96.8327 Q208.866 93.2679 208.866 86.1615 Q208.866 79.0319 207.037 75.4902 Q205.232 71.9254 201.598 71.9254 M201.598 68.2217 Q207.408 68.2217 210.463 72.8282 Q213.542 77.4115 213.542 86.1615 Q213.542 94.8883 210.463 99.4947 Q207.408 104.078 201.598 104.078 Q195.787 104.078 192.709 99.4947 Q189.653 94.8883 189.653 86.1615 Q189.653 77.4115 192.709 72.8282 Q195.787 68.2217 201.598 68.2217 Z" fill="#000000" fill-rule="evenodd" fill-opacity="1" /><path clip-path="url(#clip420)" d="M68.4601 889.363 L66.4311 889.363 L66.4311 887.785 Q66.4311 884.21 65.8514 883.405 Q65.2395 882.568 63.3072 882.568 L28.557 882.568 Q26.6569 882.568 26.0772 883.405 Q25.4653 884.242 25.4653 887.785 L25.4653 889.363 L23.4041 889.363 Q23.5973 887.044 23.5973 879.347 Q23.5973 870.652 23.4041 868.268 L25.4653 868.268 L25.4653 870.458 Q25.4653 873.486 25.8517 874.871 Q26.2382 876.255 26.7857 876.481 Q27.301 876.706 28.6214 876.706 L63.7902 876.706 Q65.4972 876.706 65.9802 876.223 Q66.4311 875.708 66.4311 873.486 L66.4311 868.075 Q66.4311 864.726 65.4327 862.31 Q64.4344 859.895 63.1783 858.607 Q61.9223 857.318 59.5713 856.481 Q57.188 855.611 55.6744 855.354 Q54.1607 855.064 51.4554 854.806 L51.4554 853.164 L68.4601 854.999 L68.4601 889.363 Z" fill="#000000" fill-rule="evenodd" fill-opacity="1" /><path clip-path="url(#clip420)" d="M64.9175 844.185 Q60.6019 848.533 54.3539 848.533 Q48.0738 848.533 43.5006 844.282 Q38.8951 839.999 38.8951 833.879 Q38.8951 827.889 43.4683 823.606 Q48.0094 819.29 54.3539 819.29 Q60.5697 819.29 64.8852 823.638 Q69.2008 827.954 69.2008 833.944 Q69.2008 839.805 64.9175 844.185 M53.8064 843.058 Q60.2154 843.058 63.1139 841.383 Q67.5261 838.807 67.5261 833.879 Q67.5261 831.432 66.2057 829.403 Q64.8852 827.342 62.663 826.214 Q59.7645 824.765 53.8064 824.765 Q47.4619 824.765 44.66 826.504 Q40.3766 829.081 40.3766 833.944 Q40.3766 836.069 41.5038 838.163 Q42.5988 840.224 44.7888 841.48 Q47.6873 843.058 53.8064 843.058 Z" fill="#000000" fill-rule="evenodd" fill-opacity="1" /><path clip-path="url(#clip420)" d="M73.6774 818.245 Q71.5519 818.245 69.7161 816.635 Q67.8804 814.992 67.0752 812.158 Q65.2395 815.057 61.2138 815.057 Q58.122 815.057 55.7388 813.028 Q53.1623 816.119 48.9433 816.119 Q45.0464 816.119 42.1801 813.028 Q39.3138 809.936 39.3138 805.427 Q39.3138 801.466 41.697 798.438 Q38.6053 795.282 38.5731 791.45 Q38.5731 789.743 39.6358 788.938 Q40.6986 788.1 41.8258 788.1 Q42.8242 788.1 43.3073 788.744 Q43.7904 789.356 43.7904 790 Q43.7904 790.806 43.2751 791.385 Q42.7276 791.933 41.8903 791.933 Q40.5054 791.933 40.0867 790.87 Q40.0223 791.063 40.0223 791.514 Q40.0223 794.735 42.5988 797.472 Q45.1108 794.767 49.0078 794.767 Q52.9047 794.767 55.771 797.859 Q58.6373 800.95 58.6373 805.427 Q58.6373 809.131 56.5761 811.965 Q57.8966 813.092 59.7001 813.092 Q61.3426 813.092 62.6308 812.094 Q63.9191 811.095 64.1123 809.582 Q64.1767 809.131 64.1767 804.654 Q64.1767 802.013 64.2411 800.564 Q64.3055 799.115 64.7564 797.054 Q65.1751 794.96 66.0124 793.318 Q68.3957 789.034 73.5486 789.002 Q77.3167 789.002 79.6677 793.35 Q82.051 797.665 82.051 803.656 Q82.051 809.71 79.6355 813.994 Q77.2523 818.245 73.6774 818.245 M73.6774 814.799 Q76.3827 814.799 78.4439 811.611 Q80.5373 808.422 80.5373 803.591 Q80.5373 798.857 78.4761 795.669 Q76.4471 792.448 73.6774 792.448 Q71.7129 792.448 70.4569 793.575 Q69.2008 794.703 68.6855 797.021 Q68.2024 799.308 68.1058 800.918 Q68.0092 802.529 68.0092 805.491 L68.0092 809.388 Q68.138 811.643 69.7805 813.221 Q71.423 814.799 73.6774 814.799 M49.0078 811.192 Q57.1236 811.192 57.1236 805.427 Q57.1236 802.529 54.4828 800.757 Q52.7114 799.694 48.9433 799.694 Q40.8275 799.694 40.8275 805.427 Q40.8275 808.326 43.4683 810.129 Q45.2397 811.192 49.0078 811.192 Z" fill="#000000" fill-rule="evenodd" fill-opacity="1" /><path clip-path="url(#clip420)" d="M68.4601 782.677 L66.4311 782.677 Q66.4311 779.167 66.0124 778.361 Q65.5616 777.556 63.436 777.556 L45.6906 777.556 Q43.2429 777.556 42.6632 778.394 Q42.0835 779.199 42.0835 782.419 L40.0223 782.419 L39.3138 773.208 L63.5004 773.208 Q65.4649 773.208 65.948 772.5 Q66.4311 771.791 66.4311 768.571 L68.4601 768.571 Q68.2669 775.302 68.2669 775.431 Q68.2669 776.332 68.4601 782.677 M27.8163 779.907 Q26.4959 779.907 25.4331 778.909 Q24.3381 777.878 24.3381 776.429 Q24.3381 774.98 25.3364 773.949 Q26.3026 772.919 27.8485 772.919 Q29.3622 772.919 30.3606 773.949 Q31.3267 774.98 31.3267 776.429 Q31.3267 777.943 30.2639 778.941 Q29.2012 779.907 27.8163 779.907 Z" fill="#000000" fill-rule="evenodd" fill-opacity="1" /><path clip-path="url(#clip420)" d="M67.5905 762.743 L58.895 762.743 Q58.1542 762.743 57.8966 762.71 Q57.6389 762.678 57.4457 762.485 Q57.2525 762.292 57.2525 761.905 Q57.2525 761.454 57.4457 761.293 Q57.6389 761.1 58.3797 760.971 Q62.9207 759.973 65.3361 757.847 Q67.7194 755.689 67.7194 751.793 Q67.7194 748.089 66.0769 746.221 Q64.4344 744.353 61.7291 744.353 Q56.8982 744.353 55.6744 751.213 Q54.8692 755.174 54.3539 756.817 Q53.8064 758.459 52.6148 759.908 Q50.296 762.743 47.011 762.743 Q43.726 762.743 41.3106 760.263 Q38.8951 757.751 38.8951 752.211 Q38.8951 748.508 40.7631 745.995 Q40.1833 745.255 39.7003 744.868 Q38.8951 743.999 38.8951 743.548 Q38.8951 743.033 39.2494 742.936 Q39.5714 742.839 40.5054 742.839 L47.1398 742.839 Q47.8805 742.839 48.1382 742.871 Q48.3958 742.904 48.5891 743.097 Q48.7501 743.29 48.7501 743.709 Q48.7501 744.45 48.1382 744.482 Q40.1511 744.997 40.1511 752.211 Q40.1511 756.108 41.6648 757.847 Q43.1463 759.586 45.1753 759.586 Q46.3025 759.586 47.172 759.071 Q48.0094 758.524 48.5247 757.847 Q49.0078 757.139 49.4908 755.85 Q49.9417 754.562 50.1028 753.789 Q50.2638 752.984 50.5858 751.47 Q51.5842 746.189 53.742 743.966 Q56.5117 741.197 60.0222 741.197 Q63.9191 741.197 66.5599 743.838 Q69.2008 746.479 69.2008 751.793 Q69.2008 756.076 66.3345 759.071 Q66.721 759.458 67.0752 759.747 Q67.3973 760.037 67.5261 760.166 Q67.6549 760.263 67.7516 760.295 Q67.816 760.327 67.8804 760.391 Q69.2008 761.712 69.2008 762.034 Q69.2008 762.549 68.8466 762.646 Q68.5245 762.743 67.5905 762.743 Z" fill="#000000" fill-rule="evenodd" fill-opacity="1" /><path clip-path="url(#clip420)" d="M42.0835 739.366 L40.6342 739.366 Q40.5054 736.339 38.3798 734.342 Q36.222 732.313 33.5811 731.637 Q30.9403 730.928 27.8807 730.864 L27.8807 729.221 L40.0223 729.221 L40.0223 719.785 L42.0835 719.785 L42.0835 729.221 L60.4086 729.221 Q67.5261 729.221 67.5261 724.777 Q67.5261 722.877 65.5938 721.621 Q63.6292 720.365 60.151 720.365 L56.5117 720.365 L56.5117 718.722 L60.2798 718.722 Q63.8547 718.722 66.5277 720.365 Q69.2008 722.007 69.2008 725.26 Q69.2008 726.452 68.8788 727.643 Q68.5889 728.803 67.816 730.349 Q67.0108 731.862 65.0785 732.829 Q63.1139 733.762 60.2798 733.762 L42.0835 733.762 L42.0835 739.366 Z" fill="#000000" fill-rule="evenodd" fill-opacity="1" /><path clip-path="url(#clip420)" d="M68.4601 714.831 L66.4311 714.831 Q66.4311 711.32 66.0124 710.515 Q65.5616 709.71 63.436 709.71 L45.6906 709.71 Q43.2429 709.71 42.6632 710.548 Q42.0835 711.353 42.0835 714.573 L40.0223 714.573 L39.3138 705.362 L63.5004 705.362 Q65.4649 705.362 65.948 704.654 Q66.4311 703.945 66.4311 700.725 L68.4601 700.725 Q68.2669 707.456 68.2669 707.585 Q68.2669 708.486 68.4601 714.831 M27.8163 712.061 Q26.4959 712.061 25.4331 711.063 Q24.3381 710.032 24.3381 708.583 Q24.3381 707.134 25.3364 706.103 Q26.3026 705.073 27.8485 705.073 Q29.3622 705.073 30.3606 706.103 Q31.3267 707.134 31.3267 708.583 Q31.3267 710.097 30.2639 711.095 Q29.2012 712.061 27.8163 712.061 Z" fill="#000000" fill-rule="evenodd" fill-opacity="1" /><path clip-path="url(#clip420)" d="M64.853 690.71 Q60.473 694.896 54.2251 694.896 Q47.945 694.896 43.4361 690.774 Q38.8951 686.652 38.8951 680.597 Q38.8951 676.571 40.8275 673.544 Q42.7276 670.517 45.9804 670.517 Q47.4297 670.517 48.267 671.386 Q49.0722 672.224 49.0722 673.544 Q49.0722 674.929 48.2348 675.766 Q47.3653 676.571 46.0448 676.571 Q45.4651 676.571 44.8854 676.378 Q44.3057 676.185 43.6938 675.476 Q43.0819 674.736 42.9853 673.48 Q40.5698 675.831 40.5698 680.404 Q40.5698 680.468 40.5698 680.533 Q40.5698 683.882 43.726 686.652 Q46.8822 689.421 54.0963 689.421 Q57.8644 689.421 60.6341 688.52 Q63.3716 687.586 64.7886 686.072 Q66.2057 684.558 66.882 683.077 Q67.5261 681.595 67.5261 680.146 Q67.5261 673.673 60.6019 671.483 Q59.9577 671.29 59.9577 670.645 Q59.9577 669.776 60.6019 669.776 Q60.9239 669.776 61.7613 670.034 Q62.5986 670.291 63.9191 671.096 Q65.2395 671.901 66.3989 673.061 Q67.5261 674.188 68.3635 676.217 Q69.2008 678.214 69.2008 680.726 Q69.2008 686.523 64.853 690.71 Z" fill="#000000" fill-rule="evenodd" fill-opacity="1" /><path clip-path="url(#clip420)" d="M51.9707 665.901 Q40.8275 665.901 31.842 661.746 Q28.0739 659.975 24.9178 657.495 Q21.7616 655.015 20.3767 653.373 Q18.9919 651.73 18.9919 651.279 Q18.9919 650.635 19.636 650.603 Q19.9581 650.603 20.7632 651.473 Q31.5844 662.1 51.9707 662.068 Q72.4214 662.068 82.8239 651.73 Q83.9511 650.603 84.3054 650.603 Q84.9495 650.603 84.9495 651.279 Q84.9495 651.73 83.6291 653.308 Q82.3086 654.886 79.2813 657.334 Q76.2539 659.782 72.5502 661.553 Q63.5648 665.901 51.9707 665.901 Z" fill="#000000" fill-rule="evenodd" fill-opacity="1" /><path clip-path="url(#clip420)" d="M43.6616 612.739 Q45.4651 612.739 46.4957 613.867 Q47.4941 614.994 47.4941 616.282 Q47.4941 617.506 46.7856 618.15 Q46.077 618.794 45.1753 618.794 Q43.9514 618.794 42.8886 617.892 Q41.8258 616.991 41.6004 615.638 Q40.7631 616.958 40.7631 618.923 Q40.7631 620.211 41.4394 621.338 Q42.1157 622.433 42.9853 623.11 Q43.8548 623.754 45.1108 624.333 Q46.3347 624.881 47.0754 625.106 Q47.7839 625.3 48.5569 625.461 L57.5745 627.715 Q61.8579 628.81 63.3716 628.81 Q65.2395 628.81 66.4955 627.908 Q67.7194 627.007 67.7194 625.203 Q67.7194 624.494 67.5261 623.689 Q67.3007 622.884 66.721 621.854 Q66.1091 620.791 65.2073 619.857 Q64.2733 618.891 62.6952 617.957 Q61.1172 617.023 59.0882 616.411 Q58.3797 616.218 58.3797 615.573 Q58.3797 614.768 59.0238 614.768 Q59.5713 614.768 60.7307 615.219 Q61.8579 615.638 63.3394 616.572 Q64.7886 617.474 66.1091 618.665 Q67.3973 619.857 68.2991 621.628 Q69.2008 623.399 69.2008 625.332 Q69.2008 628.102 67.7194 629.937 Q66.2379 631.773 64.1767 632.449 Q64.4666 632.61 64.853 632.836 Q65.2395 633.061 66.1091 633.738 Q66.9464 634.382 67.5905 635.122 Q68.2024 635.863 68.6855 637.023 Q69.2008 638.15 69.2008 639.374 Q69.2008 640.919 68.7499 642.304 Q68.2991 643.657 67.2685 644.623 Q66.2379 645.589 64.8208 645.589 Q63.2427 645.589 62.1477 644.527 Q61.0205 643.432 61.0205 641.95 Q61.0205 641.016 61.568 640.275 Q62.1155 639.502 63.3072 639.502 Q64.6276 639.502 65.626 640.404 Q66.6244 641.306 66.882 642.594 Q67.7194 641.274 67.7194 639.309 Q67.7194 637.184 65.8514 635.509 Q63.9835 633.834 60.8595 633.029 Q53.3555 631.032 50.0061 630.259 Q46.6245 629.486 45.1753 629.486 Q43.8226 629.486 42.8886 629.841 Q41.9547 630.195 41.536 630.807 Q41.0851 631.387 40.9241 631.934 Q40.7631 632.449 40.7631 633.029 Q40.7631 633.995 41.1495 635.09 Q41.536 636.153 42.4378 637.441 Q43.3073 638.697 45.1108 639.889 Q46.9144 641.081 49.3942 641.886 Q50.135 642.047 50.135 642.755 Q50.1028 643.528 49.4586 643.528 Q48.9111 643.528 47.7839 643.109 Q46.6245 642.659 45.1753 641.757 Q43.726 640.823 42.4378 639.631 Q41.1173 638.407 40.2156 636.636 Q39.3138 634.833 39.3138 632.9 Q39.3138 632.031 39.507 631.193 Q39.6681 630.324 40.1511 629.293 Q40.6342 628.23 41.697 627.296 Q42.7598 626.362 44.3057 625.783 Q43.565 625.396 42.8564 624.881 Q42.1479 624.333 41.2783 623.496 Q40.3766 622.627 39.8613 621.435 Q39.3138 620.211 39.3138 618.858 Q39.3138 617.538 39.6681 616.25 Q39.9901 614.962 41.0529 613.867 Q42.0835 612.739 43.6616 612.739 Z" fill="#000000" fill-rule="evenodd" fill-opacity="1" /><path clip-path="url(#clip420)" d="M84.3054 606.388 Q83.9833 606.388 83.1782 605.551 Q72.357 594.923 51.9707 594.923 Q31.52 594.923 21.1819 605.132 Q19.9903 606.388 19.636 606.388 Q18.9919 606.388 18.9919 605.744 Q18.9919 605.293 20.3123 603.715 Q21.6328 602.105 24.6601 599.689 Q27.6875 597.242 31.3911 595.438 Q40.3766 591.09 51.9707 591.09 Q63.1139 591.09 72.0994 595.245 Q75.8674 597.016 79.0236 599.496 Q82.1798 601.976 83.5646 603.618 Q84.9495 605.261 84.9495 605.744 Q84.9495 606.388 84.3054 606.388 Z" fill="#000000" fill-rule="evenodd" fill-opacity="1" /><polyline clip-path="url(#clip423)" style="stroke:#009af9; stroke-linecap:butt; stroke-linejoin:round; stroke-width:4; stroke-opacity:1; fill:none" points="
  309.067,1384.24 321.985,1384.23 441.43,1384.07 513.212,1383.84 573.903,1383.45 639.83,1382.65 700.609,1381.25 765.77,1378.44 841.266,1371.82 874.812,1366.87 
  908.357,1360 937.774,1351.82 967.191,1340.98 983.227,1333.68 999.263,1325.2 1015.3,1315.38 1031.34,1304.04 1047.47,1290.89 1063.6,1275.78 1079.73,1258.47 
  1095.86,1238.75 1104.78,1226.72 1113.7,1213.84 1122.61,1200.09 1131.53,1185.42 1140.45,1169.8 1149.37,1153.22 1158.28,1135.65 1167.2,1117.08 1175.69,1098.47 
  1184.17,1078.95 1192.66,1058.53 1201.14,1037.22 1218.11,992.035 1235.08,943.694 1252.73,890.549 1270.37,835.099 1288.01,778.115 1305.66,720.459 1320.51,672.067 
  1335.37,624.374 1350.22,577.883 1365.07,533.046 1374.14,506.656 1383.21,481.102 1392.27,456.445 1401.34,432.737 1410.41,410.017 1419.47,388.313 1428.54,367.643 
  1437.61,348.015 1445.91,330.949 1454.22,314.749 1462.53,299.404 1470.83,284.898 1487.44,258.317 1504.05,234.81 1519.4,215.632 1534.74,198.685 1550.08,183.77 
  1565.42,170.691 1580.96,159.119 1596.51,149.048 1612.05,140.305 1627.59,132.731 1645.01,125.455 1662.42,119.284 1679.84,114.06 1697.26,109.644 1728.82,103.32 
  1760.39,98.6794 1832.67,92.215 1899.6,89.235 1965.58,87.727 2029.64,86.9662 2095.31,86.5599 2167.27,86.3365 2271.79,86.1999 2293.23,86.1857 
  "/>
</svg>
