<?xml version="1.0" encoding="utf-8"?>
<svg xmlns="http://www.w3.org/2000/svg" xmlns:xlink="http://www.w3.org/1999/xlink" width="600" height="400" viewBox="0 0 2400 1600">
<defs>
  <clipPath id="clip150">
    <rect x="0" y="0" width="2400" height="1600"/>
  </clipPath>
</defs>
<path clip-path="url(#clip150)" d="
M0 1600 L2400 1600 L2400 0 L0 0  Z
  " fill="#ffffff" fill-rule="evenodd" fill-opacity="1"/>
<defs>
  <clipPath id="clip151">
    <rect x="480" y="0" width="1681" height="1600"/>
  </clipPath>
</defs>
<defs>
  <clipPath id="clip152">
    <rect x="242" y="47" width="2112" height="1377"/>
  </clipPath>
</defs>
<path clip-path="url(#clip150)" d="
M235.283 1423.18 L2352.76 1423.18 L2352.76 47.2441 L235.283 47.2441  Z
  " fill="#ffffff" fill-rule="evenodd" fill-opacity="1"/>
<defs>
  <clipPath id="clip153">
    <rect x="235" y="47" width="2118" height="1377"/>
  </clipPath>
</defs>
<polyline clip-path="url(#clip153)" style="stroke:#000000; stroke-linecap:butt; stroke-linejoin:round; stroke-width:2; stroke-opacity:0.1; fill:none" points="
  461.679,1423.18 461.679,47.2441 
  "/>
<polyline clip-path="url(#clip153)" style="stroke:#000000; stroke-linecap:butt; stroke-linejoin:round; stroke-width:2; stroke-opacity:0.1; fill:none" points="
  877.849,1423.18 877.849,47.2441 
  "/>
<polyline clip-path="url(#clip153)" style="stroke:#000000; stroke-linecap:butt; stroke-linejoin:round; stroke-width:2; stroke-opacity:0.1; fill:none" points="
  1294.02,1423.18 1294.02,47.2441 
  "/>
<polyline clip-path="url(#clip153)" style="stroke:#000000; stroke-linecap:butt; stroke-linejoin:round; stroke-width:2; stroke-opacity:0.1; fill:none" points="
  1710.19,1423.18 1710.19,47.2441 
  "/>
<polyline clip-path="url(#clip153)" style="stroke:#000000; stroke-linecap:butt; stroke-linejoin:round; stroke-width:2; stroke-opacity:0.1; fill:none" points="
  2126.36,1423.18 2126.36,47.2441 
  "/>
<polyline clip-path="url(#clip150)" style="stroke:#000000; stroke-linecap:butt; stroke-linejoin:round; stroke-width:4; stroke-opacity:1; fill:none" points="
  235.283,1423.18 2352.76,1423.18 
  "/>
<polyline clip-path="url(#clip150)" style="stroke:#000000; stroke-linecap:butt; stroke-linejoin:round; stroke-width:4; stroke-opacity:1; fill:none" points="
  461.679,1423.18 461.679,1404.28 
  "/>
<polyline clip-path="url(#clip150)" style="stroke:#000000; stroke-linecap:butt; stroke-linejoin:round; stroke-width:4; stroke-opacity:1; fill:none" points="
  877.849,1423.18 877.849,1404.28 
  "/>
<polyline clip-path="url(#clip150)" style="stroke:#000000; stroke-linecap:butt; stroke-linejoin:round; stroke-width:4; stroke-opacity:1; fill:none" points="
  1294.02,1423.18 1294.02,1404.28 
  "/>
<polyline clip-path="url(#clip150)" style="stroke:#000000; stroke-linecap:butt; stroke-linejoin:round; stroke-width:4; stroke-opacity:1; fill:none" points="
  1710.19,1423.18 1710.19,1404.28 
  "/>
<polyline clip-path="url(#clip150)" style="stroke:#000000; stroke-linecap:butt; stroke-linejoin:round; stroke-width:4; stroke-opacity:1; fill:none" points="
  2126.36,1423.18 2126.36,1404.28 
  "/>
<path clip-path="url(#clip150)" d="M408.207 1468.75 L437.883 1468.75 L437.883 1472.69 L408.207 1472.69 L408.207 1468.75 Z" fill="#000000" fill-rule="evenodd" fill-opacity="1" /><path clip-path="url(#clip150)" d="M448.022 1451.02 L466.378 1451.02 L466.378 1454.96 L452.304 1454.96 L452.304 1463.43 Q453.323 1463.08 454.341 1462.92 Q455.36 1462.73 456.378 1462.73 Q462.165 1462.73 465.545 1465.9 Q468.925 1469.08 468.925 1474.49 Q468.925 1480.07 465.452 1483.17 Q461.98 1486.25 455.661 1486.25 Q453.485 1486.25 451.216 1485.88 Q448.971 1485.51 446.564 1484.77 L446.564 1480.07 Q448.647 1481.2 450.869 1481.76 Q453.091 1482.32 455.568 1482.32 Q459.573 1482.32 461.911 1480.21 Q464.249 1478.1 464.249 1474.49 Q464.249 1470.88 461.911 1468.77 Q459.573 1466.67 455.568 1466.67 Q453.693 1466.67 451.818 1467.08 Q449.966 1467.5 448.022 1468.38 L448.022 1451.02 Z" fill="#000000" fill-rule="evenodd" fill-opacity="1" /><path clip-path="url(#clip150)" d="M478.138 1479.7 L483.022 1479.7 L483.022 1485.58 L478.138 1485.58 L478.138 1479.7 Z" fill="#000000" fill-rule="evenodd" fill-opacity="1" /><path clip-path="url(#clip150)" d="M503.207 1454.1 Q499.596 1454.1 497.767 1457.66 Q495.962 1461.2 495.962 1468.33 Q495.962 1475.44 497.767 1479.01 Q499.596 1482.55 503.207 1482.55 Q506.841 1482.55 508.647 1479.01 Q510.475 1475.44 510.475 1468.33 Q510.475 1461.2 508.647 1457.66 Q506.841 1454.1 503.207 1454.1 M503.207 1450.39 Q509.017 1450.39 512.073 1455 Q515.151 1459.58 515.151 1468.33 Q515.151 1477.06 512.073 1481.67 Q509.017 1486.25 503.207 1486.25 Q497.397 1486.25 494.318 1481.67 Q491.263 1477.06 491.263 1468.33 Q491.263 1459.58 494.318 1455 Q497.397 1450.39 503.207 1450.39 Z" fill="#000000" fill-rule="evenodd" fill-opacity="1" /><path clip-path="url(#clip150)" d="M824.875 1468.75 L854.551 1468.75 L854.551 1472.69 L824.875 1472.69 L824.875 1468.75 Z" fill="#000000" fill-rule="evenodd" fill-opacity="1" /><path clip-path="url(#clip150)" d="M868.671 1481.64 L884.991 1481.64 L884.991 1485.58 L863.046 1485.58 L863.046 1481.64 Q865.708 1478.89 870.292 1474.26 Q874.898 1469.61 876.079 1468.27 Q878.324 1465.74 879.204 1464.01 Q880.106 1462.25 880.106 1460.56 Q880.106 1457.8 878.162 1456.07 Q876.241 1454.33 873.139 1454.33 Q870.94 1454.33 868.486 1455.09 Q866.055 1455.86 863.278 1457.41 L863.278 1452.69 Q866.102 1451.55 868.555 1450.97 Q871.009 1450.39 873.046 1450.39 Q878.416 1450.39 881.611 1453.08 Q884.805 1455.77 884.805 1460.26 Q884.805 1462.39 883.995 1464.31 Q883.208 1466.2 881.102 1468.8 Q880.523 1469.47 877.421 1472.69 Q874.319 1475.88 868.671 1481.64 Z" fill="#000000" fill-rule="evenodd" fill-opacity="1" /><path clip-path="url(#clip150)" d="M894.805 1479.7 L899.69 1479.7 L899.69 1485.58 L894.805 1485.58 L894.805 1479.7 Z" fill="#000000" fill-rule="evenodd" fill-opacity="1" /><path clip-path="url(#clip150)" d="M909.921 1451.02 L928.277 1451.02 L928.277 1454.96 L914.203 1454.96 L914.203 1463.43 Q915.222 1463.08 916.24 1462.92 Q917.259 1462.73 918.277 1462.73 Q924.064 1462.73 927.444 1465.9 Q930.824 1469.08 930.824 1474.49 Q930.824 1480.07 927.351 1483.17 Q923.879 1486.25 917.56 1486.25 Q915.384 1486.25 913.115 1485.88 Q910.87 1485.51 908.463 1484.77 L908.463 1480.07 Q910.546 1481.2 912.768 1481.76 Q914.99 1482.32 917.467 1482.32 Q921.472 1482.32 923.81 1480.21 Q926.148 1478.1 926.148 1474.49 Q926.148 1470.88 923.81 1468.77 Q921.472 1466.67 917.467 1466.67 Q915.592 1466.67 913.717 1467.08 Q911.865 1467.5 909.921 1468.38 L909.921 1451.02 Z" fill="#000000" fill-rule="evenodd" fill-opacity="1" /><path clip-path="url(#clip150)" d="M1271.4 1454.1 Q1267.79 1454.1 1265.96 1457.66 Q1264.16 1461.2 1264.16 1468.33 Q1264.16 1475.44 1265.96 1479.01 Q1267.79 1482.55 1271.4 1482.55 Q1275.04 1482.55 1276.84 1479.01 Q1278.67 1475.44 1278.67 1468.33 Q1278.67 1461.2 1276.84 1457.66 Q1275.04 1454.1 1271.4 1454.1 M1271.4 1450.39 Q1277.21 1450.39 1280.27 1455 Q1283.35 1459.58 1283.35 1468.33 Q1283.35 1477.06 1280.27 1481.67 Q1277.21 1486.25 1271.4 1486.25 Q1265.59 1486.25 1262.51 1481.67 Q1259.46 1477.06 1259.46 1468.33 Q1259.46 1459.58 1262.51 1455 Q1265.59 1450.39 1271.4 1450.39 Z" fill="#000000" fill-rule="evenodd" fill-opacity="1" /><path clip-path="url(#clip150)" d="M1291.57 1479.7 L1296.45 1479.7 L1296.45 1485.58 L1291.57 1485.58 L1291.57 1479.7 Z" fill="#000000" fill-rule="evenodd" fill-opacity="1" /><path clip-path="url(#clip150)" d="M1316.63 1454.1 Q1313.02 1454.1 1311.2 1457.66 Q1309.39 1461.2 1309.39 1468.33 Q1309.39 1475.44 1311.2 1479.01 Q1313.02 1482.55 1316.63 1482.55 Q1320.27 1482.55 1322.07 1479.01 Q1323.9 1475.44 1323.9 1468.33 Q1323.9 1461.2 1322.07 1457.66 Q1320.27 1454.1 1316.63 1454.1 M1316.63 1450.39 Q1322.45 1450.39 1325.5 1455 Q1328.58 1459.58 1328.58 1468.33 Q1328.58 1477.06 1325.5 1481.67 Q1322.45 1486.25 1316.63 1486.25 Q1310.82 1486.25 1307.75 1481.67 Q1304.69 1477.06 1304.69 1468.33 Q1304.69 1459.58 1307.75 1455 Q1310.82 1450.39 1316.63 1450.39 Z" fill="#000000" fill-rule="evenodd" fill-opacity="1" /><path clip-path="url(#clip150)" d="M1681.93 1481.64 L1698.25 1481.64 L1698.25 1485.58 L1676.3 1485.58 L1676.3 1481.64 Q1678.96 1478.89 1683.55 1474.26 Q1688.15 1469.61 1689.33 1468.27 Q1691.58 1465.74 1692.46 1464.01 Q1693.36 1462.25 1693.36 1460.56 Q1693.36 1457.8 1691.42 1456.07 Q1689.5 1454.33 1686.39 1454.33 Q1684.19 1454.33 1681.74 1455.09 Q1679.31 1455.86 1676.53 1457.41 L1676.53 1452.69 Q1679.36 1451.55 1681.81 1450.97 Q1684.26 1450.39 1686.3 1450.39 Q1691.67 1450.39 1694.87 1453.08 Q1698.06 1455.77 1698.06 1460.26 Q1698.06 1462.39 1697.25 1464.31 Q1696.46 1466.2 1694.36 1468.8 Q1693.78 1469.47 1690.68 1472.69 Q1687.57 1475.88 1681.93 1481.64 Z" fill="#000000" fill-rule="evenodd" fill-opacity="1" /><path clip-path="url(#clip150)" d="M1708.06 1479.7 L1712.94 1479.7 L1712.94 1485.58 L1708.06 1485.58 L1708.06 1479.7 Z" fill="#000000" fill-rule="evenodd" fill-opacity="1" /><path clip-path="url(#clip150)" d="M1723.18 1451.02 L1741.53 1451.02 L1741.53 1454.96 L1727.46 1454.96 L1727.46 1463.43 Q1728.48 1463.08 1729.49 1462.92 Q1730.51 1462.73 1731.53 1462.73 Q1737.32 1462.73 1740.7 1465.9 Q1744.08 1469.08 1744.08 1474.49 Q1744.08 1480.07 1740.61 1483.17 Q1737.13 1486.25 1730.81 1486.25 Q1728.64 1486.25 1726.37 1485.88 Q1724.12 1485.51 1721.72 1484.77 L1721.72 1480.07 Q1723.8 1481.2 1726.02 1481.76 Q1728.24 1482.32 1730.72 1482.32 Q1734.73 1482.32 1737.06 1480.21 Q1739.4 1478.1 1739.4 1474.49 Q1739.4 1470.88 1737.06 1468.77 Q1734.73 1466.67 1730.72 1466.67 Q1728.85 1466.67 1726.97 1467.08 Q1725.12 1467.5 1723.18 1468.38 L1723.18 1451.02 Z" fill="#000000" fill-rule="evenodd" fill-opacity="1" /><path clip-path="url(#clip150)" d="M2093.52 1451.02 L2111.88 1451.02 L2111.88 1454.96 L2097.81 1454.96 L2097.81 1463.43 Q2098.82 1463.08 2099.84 1462.92 Q2100.86 1462.73 2101.88 1462.73 Q2107.67 1462.73 2111.05 1465.9 Q2114.43 1469.08 2114.43 1474.49 Q2114.43 1480.07 2110.95 1483.17 Q2107.48 1486.25 2101.16 1486.25 Q2098.99 1486.25 2096.72 1485.88 Q2094.47 1485.51 2092.07 1484.77 L2092.07 1480.07 Q2094.15 1481.2 2096.37 1481.76 Q2098.59 1482.32 2101.07 1482.32 Q2105.07 1482.32 2107.41 1480.21 Q2109.75 1478.1 2109.75 1474.49 Q2109.75 1470.88 2107.41 1468.77 Q2105.07 1466.67 2101.07 1466.67 Q2099.2 1466.67 2097.32 1467.08 Q2095.47 1467.5 2093.52 1468.38 L2093.52 1451.02 Z" fill="#000000" fill-rule="evenodd" fill-opacity="1" /><path clip-path="url(#clip150)" d="M2123.64 1479.7 L2128.52 1479.7 L2128.52 1485.58 L2123.64 1485.58 L2123.64 1479.7 Z" fill="#000000" fill-rule="evenodd" fill-opacity="1" /><path clip-path="url(#clip150)" d="M2148.71 1454.1 Q2145.1 1454.1 2143.27 1457.66 Q2141.46 1461.2 2141.46 1468.33 Q2141.46 1475.44 2143.27 1479.01 Q2145.1 1482.55 2148.71 1482.55 Q2152.34 1482.55 2154.15 1479.01 Q2155.98 1475.44 2155.98 1468.33 Q2155.98 1461.2 2154.15 1457.66 Q2152.34 1454.1 2148.71 1454.1 M2148.71 1450.39 Q2154.52 1450.39 2157.57 1455 Q2160.65 1459.58 2160.65 1468.33 Q2160.65 1477.06 2157.57 1481.67 Q2154.52 1486.25 2148.71 1486.25 Q2142.9 1486.25 2139.82 1481.67 Q2136.76 1477.06 2136.76 1468.33 Q2136.76 1459.58 2139.82 1455 Q2142.9 1450.39 2148.71 1450.39 Z" fill="#000000" fill-rule="evenodd" fill-opacity="1" /><path clip-path="url(#clip150)" d="M1308.19 1545.44 Q1308.19 1547.24 1307.07 1548.27 Q1305.94 1549.27 1304.65 1549.27 Q1303.43 1549.27 1302.78 1548.56 Q1302.14 1547.85 1302.14 1546.95 Q1302.14 1545.73 1303.04 1544.66 Q1303.94 1543.6 1305.29 1543.37 Q1303.97 1542.54 1302.01 1542.54 Q1300.72 1542.54 1299.59 1543.21 Q1298.5 1543.89 1297.82 1544.76 Q1297.18 1545.63 1296.6 1546.88 Q1296.05 1548.11 1295.83 1548.85 Q1295.63 1549.56 1295.47 1550.33 L1293.22 1559.35 Q1292.12 1563.63 1292.12 1565.15 Q1292.12 1567.01 1293.02 1568.27 Q1293.93 1569.49 1295.73 1569.49 Q1296.44 1569.49 1297.24 1569.3 Q1298.05 1569.07 1299.08 1568.5 Q1300.14 1567.88 1301.08 1566.98 Q1302.04 1566.05 1302.98 1564.47 Q1303.91 1562.89 1304.52 1560.86 Q1304.71 1560.15 1305.36 1560.15 Q1306.16 1560.15 1306.16 1560.8 Q1306.16 1561.35 1305.71 1562.5 Q1305.29 1563.63 1304.36 1565.11 Q1303.46 1566.56 1302.27 1567.88 Q1301.08 1569.17 1299.3 1570.07 Q1297.53 1570.97 1295.6 1570.97 Q1292.83 1570.97 1290.99 1569.49 Q1289.16 1568.01 1288.48 1565.95 Q1288.32 1566.24 1288.1 1566.63 Q1287.87 1567.01 1287.19 1567.88 Q1286.55 1568.72 1285.81 1569.36 Q1285.07 1569.98 1283.91 1570.46 Q1282.78 1570.97 1281.56 1570.97 Q1280.01 1570.97 1278.63 1570.52 Q1277.28 1570.07 1276.31 1569.04 Q1275.34 1568.01 1275.34 1566.59 Q1275.34 1565.02 1276.41 1563.92 Q1277.5 1562.79 1278.98 1562.79 Q1279.92 1562.79 1280.66 1563.34 Q1281.43 1563.89 1281.43 1565.08 Q1281.43 1566.4 1280.53 1567.4 Q1279.63 1568.4 1278.34 1568.66 Q1279.66 1569.49 1281.62 1569.49 Q1283.75 1569.49 1285.42 1567.63 Q1287.1 1565.76 1287.9 1562.63 Q1289.9 1555.13 1290.67 1551.78 Q1291.45 1548.4 1291.45 1546.95 Q1291.45 1545.6 1291.09 1544.66 Q1290.74 1543.73 1290.13 1543.31 Q1289.55 1542.86 1289 1542.7 Q1288.48 1542.54 1287.9 1542.54 Q1286.94 1542.54 1285.84 1542.92 Q1284.78 1543.31 1283.49 1544.21 Q1282.23 1545.08 1281.04 1546.88 Q1279.85 1548.69 1279.05 1551.17 Q1278.89 1551.91 1278.18 1551.91 Q1277.4 1551.88 1277.4 1551.23 Q1277.4 1550.69 1277.82 1549.56 Q1278.27 1548.4 1279.18 1546.95 Q1280.11 1545.5 1281.3 1544.21 Q1282.52 1542.89 1284.3 1541.99 Q1286.1 1541.09 1288.03 1541.09 Q1288.9 1541.09 1289.74 1541.28 Q1290.61 1541.44 1291.64 1541.93 Q1292.7 1542.41 1293.64 1543.47 Q1294.57 1544.53 1295.15 1546.08 Q1295.54 1545.34 1296.05 1544.63 Q1296.6 1543.92 1297.44 1543.05 Q1298.31 1542.15 1299.5 1541.64 Q1300.72 1541.09 1302.07 1541.09 Q1303.39 1541.09 1304.68 1541.44 Q1305.97 1541.76 1307.07 1542.83 Q1308.19 1543.86 1308.19 1545.44 Z" fill="#000000" fill-rule="evenodd" fill-opacity="1" /><polyline clip-path="url(#clip153)" style="stroke:#000000; stroke-linecap:butt; stroke-linejoin:round; stroke-width:2; stroke-opacity:0.1; fill:none" points="
  235.283,1384.25 2352.76,1384.25 
  "/>
<polyline clip-path="url(#clip153)" style="stroke:#000000; stroke-linecap:butt; stroke-linejoin:round; stroke-width:2; stroke-opacity:0.1; fill:none" points="
  235.283,1062.49 2352.76,1062.49 
  "/>
<polyline clip-path="url(#clip153)" style="stroke:#000000; stroke-linecap:butt; stroke-linejoin:round; stroke-width:2; stroke-opacity:0.1; fill:none" points="
  235.283,740.732 2352.76,740.732 
  "/>
<polyline clip-path="url(#clip153)" style="stroke:#000000; stroke-linecap:butt; stroke-linejoin:round; stroke-width:2; stroke-opacity:0.1; fill:none" points="
  235.283,418.975 2352.76,418.975 
  "/>
<polyline clip-path="url(#clip153)" style="stroke:#000000; stroke-linecap:butt; stroke-linejoin:round; stroke-width:2; stroke-opacity:0.1; fill:none" points="
  235.283,97.2181 2352.76,97.2181 
  "/>
<polyline clip-path="url(#clip150)" style="stroke:#000000; stroke-linecap:butt; stroke-linejoin:round; stroke-width:4; stroke-opacity:1; fill:none" points="
  235.283,1423.18 235.283,47.2441 
  "/>
<polyline clip-path="url(#clip150)" style="stroke:#000000; stroke-linecap:butt; stroke-linejoin:round; stroke-width:4; stroke-opacity:1; fill:none" points="
  235.283,1384.25 254.18,1384.25 
  "/>
<polyline clip-path="url(#clip150)" style="stroke:#000000; stroke-linecap:butt; stroke-linejoin:round; stroke-width:4; stroke-opacity:1; fill:none" points="
  235.283,1062.49 254.18,1062.49 
  "/>
<polyline clip-path="url(#clip150)" style="stroke:#000000; stroke-linecap:butt; stroke-linejoin:round; stroke-width:4; stroke-opacity:1; fill:none" points="
  235.283,740.732 254.18,740.732 
  "/>
<polyline clip-path="url(#clip150)" style="stroke:#000000; stroke-linecap:butt; stroke-linejoin:round; stroke-width:4; stroke-opacity:1; fill:none" points="
  235.283,418.975 254.18,418.975 
  "/>
<polyline clip-path="url(#clip150)" style="stroke:#000000; stroke-linecap:butt; stroke-linejoin:round; stroke-width:4; stroke-opacity:1; fill:none" points="
  235.283,97.2181 254.18,97.2181 
  "/>
<path clip-path="url(#clip150)" d="M187.338 1370.04 Q183.727 1370.04 181.899 1373.61 Q180.093 1377.15 180.093 1384.28 Q180.093 1391.39 181.899 1394.95 Q183.727 1398.49 187.338 1398.49 Q190.973 1398.49 192.778 1394.95 Q194.607 1391.39 194.607 1384.28 Q194.607 1377.15 192.778 1373.61 Q190.973 1370.04 187.338 1370.04 M187.338 1366.34 Q193.149 1366.34 196.204 1370.95 Q199.283 1375.53 199.283 1384.28 Q199.283 1393.01 196.204 1397.61 Q193.149 1402.2 187.338 1402.2 Q181.528 1402.2 178.45 1397.61 Q175.394 1393.01 175.394 1384.28 Q175.394 1375.53 178.45 1370.95 Q181.528 1366.34 187.338 1366.34 Z" fill="#000000" fill-rule="evenodd" fill-opacity="1" /><path clip-path="url(#clip150)" d="M117.825 1075.83 L125.464 1075.83 L125.464 1049.47 L117.154 1051.14 L117.154 1046.88 L125.418 1045.21 L130.093 1045.21 L130.093 1075.83 L137.732 1075.83 L137.732 1079.77 L117.825 1079.77 L117.825 1075.83 Z" fill="#000000" fill-rule="evenodd" fill-opacity="1" /><path clip-path="url(#clip150)" d="M157.177 1048.29 Q153.566 1048.29 151.737 1051.85 Q149.931 1055.39 149.931 1062.52 Q149.931 1069.63 151.737 1073.2 Q153.566 1076.74 157.177 1076.74 Q160.811 1076.74 162.616 1073.2 Q164.445 1069.63 164.445 1062.52 Q164.445 1055.39 162.616 1051.85 Q160.811 1048.29 157.177 1048.29 M157.177 1044.58 Q162.987 1044.58 166.042 1049.19 Q169.121 1053.77 169.121 1062.52 Q169.121 1071.25 166.042 1075.86 Q162.987 1080.44 157.177 1080.44 Q151.366 1080.44 148.288 1075.86 Q145.232 1071.25 145.232 1062.52 Q145.232 1053.77 148.288 1049.19 Q151.366 1044.58 157.177 1044.58 Z" fill="#000000" fill-rule="evenodd" fill-opacity="1" /><path clip-path="url(#clip150)" d="M187.338 1048.29 Q183.727 1048.29 181.899 1051.85 Q180.093 1055.39 180.093 1062.52 Q180.093 1069.63 181.899 1073.2 Q183.727 1076.74 187.338 1076.74 Q190.973 1076.74 192.778 1073.2 Q194.607 1069.63 194.607 1062.52 Q194.607 1055.39 192.778 1051.85 Q190.973 1048.29 187.338 1048.29 M187.338 1044.58 Q193.149 1044.58 196.204 1049.19 Q199.283 1053.77 199.283 1062.52 Q199.283 1071.25 196.204 1075.86 Q193.149 1080.44 187.338 1080.44 Q181.528 1080.44 178.45 1075.86 Q175.394 1071.25 175.394 1062.52 Q175.394 1053.77 178.45 1049.19 Q181.528 1044.58 187.338 1044.58 Z" fill="#000000" fill-rule="evenodd" fill-opacity="1" /><path clip-path="url(#clip150)" d="M121.043 754.077 L137.362 754.077 L137.362 758.012 L115.418 758.012 L115.418 754.077 Q118.08 751.322 122.663 746.693 Q127.269 742.04 128.45 740.697 Q130.695 738.174 131.575 736.438 Q132.478 734.679 132.478 732.989 Q132.478 730.235 130.533 728.498 Q128.612 726.762 125.51 726.762 Q123.311 726.762 120.857 727.526 Q118.427 728.29 115.649 729.841 L115.649 725.119 Q118.473 723.985 120.927 723.406 Q123.38 722.827 125.418 722.827 Q130.788 722.827 133.982 725.512 Q137.177 728.197 137.177 732.688 Q137.177 734.818 136.367 736.739 Q135.579 738.637 133.473 741.23 Q132.894 741.901 129.792 745.119 Q126.691 748.313 121.043 754.077 Z" fill="#000000" fill-rule="evenodd" fill-opacity="1" /><path clip-path="url(#clip150)" d="M157.177 726.531 Q153.566 726.531 151.737 730.096 Q149.931 733.637 149.931 740.767 Q149.931 747.873 151.737 751.438 Q153.566 754.98 157.177 754.98 Q160.811 754.98 162.616 751.438 Q164.445 747.873 164.445 740.767 Q164.445 733.637 162.616 730.096 Q160.811 726.531 157.177 726.531 M157.177 722.827 Q162.987 722.827 166.042 727.434 Q169.121 732.017 169.121 740.767 Q169.121 749.494 166.042 754.1 Q162.987 758.683 157.177 758.683 Q151.366 758.683 148.288 754.1 Q145.232 749.494 145.232 740.767 Q145.232 732.017 148.288 727.434 Q151.366 722.827 157.177 722.827 Z" fill="#000000" fill-rule="evenodd" fill-opacity="1" /><path clip-path="url(#clip150)" d="M187.338 726.531 Q183.727 726.531 181.899 730.096 Q180.093 733.637 180.093 740.767 Q180.093 747.873 181.899 751.438 Q183.727 754.98 187.338 754.98 Q190.973 754.98 192.778 751.438 Q194.607 747.873 194.607 740.767 Q194.607 733.637 192.778 730.096 Q190.973 726.531 187.338 726.531 M187.338 722.827 Q193.149 722.827 196.204 727.434 Q199.283 732.017 199.283 740.767 Q199.283 749.494 196.204 754.1 Q193.149 758.683 187.338 758.683 Q181.528 758.683 178.45 754.1 Q175.394 749.494 175.394 740.767 Q175.394 732.017 178.45 727.434 Q181.528 722.827 187.338 722.827 Z" fill="#000000" fill-rule="evenodd" fill-opacity="1" /><path clip-path="url(#clip150)" d="M131.181 417.621 Q134.538 418.339 136.413 420.607 Q138.311 422.876 138.311 426.209 Q138.311 431.325 134.792 434.125 Q131.274 436.926 124.793 436.926 Q122.617 436.926 120.302 436.487 Q118.01 436.07 115.556 435.213 L115.556 430.7 Q117.501 431.834 119.816 432.413 Q122.13 432.991 124.654 432.991 Q129.052 432.991 131.343 431.255 Q133.658 429.519 133.658 426.209 Q133.658 423.153 131.505 421.44 Q129.376 419.704 125.556 419.704 L121.529 419.704 L121.529 415.862 L125.742 415.862 Q129.191 415.862 131.019 414.496 Q132.848 413.107 132.848 410.514 Q132.848 407.852 130.95 406.44 Q129.075 405.005 125.556 405.005 Q123.635 405.005 121.436 405.422 Q119.237 405.839 116.598 406.718 L116.598 402.552 Q119.26 401.811 121.575 401.44 Q123.913 401.07 125.973 401.07 Q131.297 401.07 134.399 403.501 Q137.501 405.908 137.501 410.028 Q137.501 412.899 135.857 414.889 Q134.214 416.857 131.181 417.621 Z" fill="#000000" fill-rule="evenodd" fill-opacity="1" /><path clip-path="url(#clip150)" d="M157.177 404.774 Q153.566 404.774 151.737 408.339 Q149.931 411.88 149.931 419.01 Q149.931 426.116 151.737 429.681 Q153.566 433.223 157.177 433.223 Q160.811 433.223 162.616 429.681 Q164.445 426.116 164.445 419.01 Q164.445 411.88 162.616 408.339 Q160.811 404.774 157.177 404.774 M157.177 401.07 Q162.987 401.07 166.042 405.677 Q169.121 410.26 169.121 419.01 Q169.121 427.737 166.042 432.343 Q162.987 436.926 157.177 436.926 Q151.366 436.926 148.288 432.343 Q145.232 427.737 145.232 419.01 Q145.232 410.26 148.288 405.677 Q151.366 401.07 157.177 401.07 Z" fill="#000000" fill-rule="evenodd" fill-opacity="1" /><path clip-path="url(#clip150)" d="M187.338 404.774 Q183.727 404.774 181.899 408.339 Q180.093 411.88 180.093 419.01 Q180.093 426.116 181.899 429.681 Q183.727 433.223 187.338 433.223 Q190.973 433.223 192.778 429.681 Q194.607 426.116 194.607 419.01 Q194.607 411.88 192.778 408.339 Q190.973 404.774 187.338 404.774 M187.338 401.07 Q193.149 401.07 196.204 405.677 Q199.283 410.26 199.283 419.01 Q199.283 427.737 196.204 432.343 Q193.149 436.926 187.338 436.926 Q181.528 436.926 178.45 432.343 Q175.394 427.737 175.394 419.01 Q175.394 410.26 178.45 405.677 Q181.528 401.07 187.338 401.07 Z" fill="#000000" fill-rule="evenodd" fill-opacity="1" /><path clip-path="url(#clip150)" d="M129.862 84.0121 L118.056 102.461 L129.862 102.461 L129.862 84.0121 M128.635 79.9381 L134.515 79.9381 L134.515 102.461 L139.445 102.461 L139.445 106.35 L134.515 106.35 L134.515 114.498 L129.862 114.498 L129.862 106.35 L114.26 106.35 L114.26 101.836 L128.635 79.9381 Z" fill="#000000" fill-rule="evenodd" fill-opacity="1" /><path clip-path="url(#clip150)" d="M157.177 83.0167 Q153.566 83.0167 151.737 86.5815 Q149.931 90.1232 149.931 97.2528 Q149.931 104.359 151.737 107.924 Q153.566 111.466 157.177 111.466 Q160.811 111.466 162.616 107.924 Q164.445 104.359 164.445 97.2528 Q164.445 90.1232 162.616 86.5815 Q160.811 83.0167 157.177 83.0167 M157.177 79.3131 Q162.987 79.3131 166.042 83.9195 Q169.121 88.5028 169.121 97.2528 Q169.121 105.98 166.042 110.586 Q162.987 115.169 157.177 115.169 Q151.366 115.169 148.288 110.586 Q145.232 105.98 145.232 97.2528 Q145.232 88.5028 148.288 83.9195 Q151.366 79.3131 157.177 79.3131 Z" fill="#000000" fill-rule="evenodd" fill-opacity="1" /><path clip-path="url(#clip150)" d="M187.338 83.0167 Q183.727 83.0167 181.899 86.5815 Q180.093 90.1232 180.093 97.2528 Q180.093 104.359 181.899 107.924 Q183.727 111.466 187.338 111.466 Q190.973 111.466 192.778 107.924 Q194.607 104.359 194.607 97.2528 Q194.607 90.1232 192.778 86.5815 Q190.973 83.0167 187.338 83.0167 M187.338 79.3131 Q193.149 79.3131 196.204 83.9195 Q199.283 88.5028 199.283 97.2528 Q199.283 105.98 196.204 110.586 Q193.149 115.169 187.338 115.169 Q181.528 115.169 178.45 110.586 Q175.394 105.98 175.394 97.2528 Q175.394 88.5028 178.45 83.9195 Q181.528 79.3131 187.338 79.3131 Z" fill="#000000" fill-rule="evenodd" fill-opacity="1" /><path clip-path="url(#clip150)" d="M65.8931 741.096 Q66.1829 740.839 66.4728 740.839 Q66.7626 740.839 67.6 741.483 Q68.4374 742.095 69.5646 743.415 Q70.6918 744.736 71.7546 746.443 Q72.8173 748.149 73.5259 750.662 Q74.2666 753.174 74.2666 755.814 Q74.2666 760.549 70.885 763.383 Q67.5034 766.185 62.3182 766.185 Q59.001 766.185 56.0703 765.09 Q53.1074 763.995 51.014 762.223 Q48.9206 760.42 47.4069 758.166 Q45.861 755.879 45.1203 753.496 Q44.3796 751.112 44.3796 748.89 Q44.3796 745.637 46.0221 743.737 Q47.6646 741.837 49.9834 741.837 Q50.5309 741.837 51.2072 741.998 Q51.8835 742.127 52.9463 742.578 Q54.0091 742.997 55.0719 744.092 Q56.1025 745.187 56.7788 746.797 Q58.2925 750.372 58.2925 756.877 L58.2925 760.388 Q62.4471 761.418 65.1524 761.418 Q66.2151 761.418 67.3101 761.225 Q68.3729 761.032 69.7256 760.517 Q71.0782 759.969 71.9478 758.745 Q72.7851 757.489 72.7851 755.686 Q72.7851 755.106 72.7529 754.494 Q72.7207 753.85 72.3665 752.24 Q72.0122 750.597 71.4003 749.148 Q70.7884 747.699 69.4679 745.863 Q68.1153 743.995 66.2796 742.513 Q65.6032 741.998 65.6032 741.644 Q65.6032 741.354 65.8931 741.096 M49.9834 744.027 Q48.2121 744.027 47.0205 745.348 Q45.8288 746.636 45.8288 748.89 Q45.8288 749.599 45.9899 750.468 Q46.1509 751.338 46.8272 752.787 Q47.5035 754.204 48.6307 755.46 Q49.7257 756.716 51.8835 757.972 Q54.0091 759.228 56.8432 759.969 L56.8432 757.264 Q56.8432 756.33 56.8432 755.653 Q56.811 754.977 56.6822 753.496 Q56.5534 751.982 56.3279 750.887 Q56.0703 749.792 55.555 748.407 Q55.0397 747.022 54.3634 746.153 Q53.6549 745.251 52.5277 744.639 Q51.4004 744.027 49.9834 744.027 Z" fill="#000000" fill-rule="evenodd" fill-opacity="1" /><path clip-path="url(#clip150)" d="M32.8416 711.056 Q34.1041 711.056 34.8255 711.845 Q35.5244 712.634 35.5244 713.536 Q35.5244 714.393 35.0284 714.843 Q34.5324 715.294 33.9012 715.294 Q33.0445 715.294 32.3005 714.663 Q31.5566 714.032 31.3988 713.085 Q30.8126 714.009 30.8126 715.385 Q30.8126 716.286 31.2861 717.075 Q31.7595 717.842 32.3682 718.315 Q32.9769 718.766 33.8561 719.172 Q34.7128 719.555 35.2313 719.713 Q35.7272 719.848 36.2683 719.961 L42.5807 721.539 Q45.579 722.306 46.6386 722.306 Q47.9462 722.306 48.8254 721.674 Q49.682 721.043 49.682 719.781 Q49.682 719.285 49.5468 718.721 Q49.389 718.157 48.9832 717.436 Q48.5548 716.692 47.9236 716.038 Q47.2698 715.362 46.1652 714.708 Q45.0605 714.054 43.6402 713.626 Q43.1443 713.491 43.1443 713.04 Q43.1443 712.476 43.5951 712.476 Q43.9784 712.476 44.79 712.792 Q45.579 713.085 46.6161 713.739 Q47.6305 714.37 48.5548 715.204 Q49.4566 716.038 50.0878 717.278 Q50.7191 718.518 50.7191 719.871 Q50.7191 721.81 49.682 723.095 Q48.645 724.38 47.2022 724.853 Q47.4051 724.966 47.6756 725.124 Q47.9462 725.281 48.5548 725.755 Q49.141 726.206 49.5919 726.724 Q50.0202 727.243 50.3584 728.054 Q50.7191 728.843 50.7191 729.7 Q50.7191 730.782 50.4035 731.752 Q50.0878 732.698 49.3664 733.375 Q48.645 734.051 47.6531 734.051 Q46.5484 734.051 45.7819 733.307 Q44.9929 732.541 44.9929 731.504 Q44.9929 730.85 45.3761 730.331 Q45.7594 729.79 46.5935 729.79 Q47.5178 729.79 48.2167 730.421 Q48.9155 731.053 49.0959 731.954 Q49.682 731.03 49.682 729.655 Q49.682 728.167 48.3745 726.995 Q47.0669 725.822 44.8802 725.259 Q39.6274 723.861 37.2828 723.32 Q34.9157 722.779 33.9012 722.779 Q32.9543 722.779 32.3005 723.027 Q31.6468 723.275 31.3537 723.703 Q31.0381 724.109 30.9254 724.492 Q30.8126 724.853 30.8126 725.259 Q30.8126 725.935 31.0832 726.702 Q31.3537 727.446 31.9849 728.347 Q32.5936 729.227 33.8561 730.061 Q35.1186 730.895 36.8545 731.458 Q37.373 731.571 37.373 732.067 Q37.3504 732.608 36.8995 732.608 Q36.5163 732.608 35.7272 732.315 Q34.9157 732 33.9012 731.368 Q32.8867 730.715 31.9849 729.88 Q31.0606 729.024 30.4294 727.784 Q29.7982 726.521 29.7982 725.169 Q29.7982 724.56 29.9334 723.974 Q30.0461 723.365 30.3843 722.644 Q30.7225 721.9 31.4664 721.246 Q32.2104 720.592 33.2925 720.186 Q32.774 719.916 32.278 719.555 Q31.782 719.172 31.1733 718.586 Q30.5421 717.977 30.1814 717.143 Q29.7982 716.286 29.7982 715.339 Q29.7982 714.415 30.0461 713.513 Q30.2716 712.612 31.0155 711.845 Q31.7369 711.056 32.8416 711.056 Z" fill="#000000" fill-rule="evenodd" fill-opacity="1" /><polyline clip-path="url(#clip153)" style="stroke:#009af9; stroke-linecap:butt; stroke-linejoin:round; stroke-width:4; stroke-opacity:1; fill:none" points="
  295.211,1384.24 308.217,1384.24 428.472,1384.23 500.741,1384.22 561.843,1384.21 628.217,1384.19 689.407,1384.16 755.011,1384.12 831.018,1384.05 898.565,1383.95 
  957.797,1383.82 1022.38,1383.62 1087.34,1383.32 1159.16,1382.82 1227.5,1382.09 1298.56,1380.94 1358.38,1379.51 1431.4,1376.9 1498.3,1373.27 1560.09,1368.34 
  1622.67,1361.08 1657.74,1355.64 1692.81,1348.93 1724.59,1341.51 1756.37,1332.51 1792.76,1319.88 1829.15,1304.15 1845.99,1295.62 1862.84,1286.18 1879.68,1275.74 
  1896.53,1264.19 1913.13,1251.59 1929.74,1237.68 1946.35,1222.3 1962.95,1205.31 1979.08,1187.11 1995.2,1167.06 2011.33,1144.97 2027.45,1120.64 2043.98,1093.12 
  2060.51,1062.73 2068.78,1046.36 2077.04,1029.16 2085.3,1011.09 2093.57,992.094 2102.62,970.172 2111.68,947.025 2120.73,922.583 2129.79,896.776 2138.84,869.526 
  2147.9,840.753 2156.95,810.371 2166.01,778.29 2172.59,753.871 2179.16,728.467 2185.74,702.04 2192.32,674.547 2198.89,645.947 2205.47,616.194 2212.05,585.242 
  2218.62,553.043 2225.2,519.546 2231.78,484.699 2238.35,448.448 2244.93,410.736 2251.51,371.504 2258.09,330.691 2264.66,288.234 2271.24,244.065 2273.94,225.432 
  2276.64,206.494 2279.33,187.246 2282.03,167.684 2284.73,147.802 2287.43,127.595 2290.13,107.058 2292.83,86.1857 
  "/>
</svg>
